# MagicaVoxel @ Ephtracy

# group
g Whale

# material
mtllib Whale.mtl
usemtl palette

# normals
vn -1 0 0
vn 1 0 0
vn 0 0 1
vn 0 0 -1
vn 0 -1 0
vn 0 1 0

# texcoords
vt 0.779297 0.5
vt 0.958984 0.5
vt 0.986328 0.5
vt 0.994141 0.5

# verts
v -20 0 20
v -20 0 -20
v -20 10 20
v -20 10 -20
v -20 13 -5
v -20 13 -15
v -20 20 -15
v -20 20 -20
v -20 40 20
v -20 40 -5
v 1 32 6
v 1 32 4
v 1 40 6
v 1 40 4
v -1 32 6
v -1 32 4
v -1 40 6
v -1 40 4
v 20 0 20
v 20 0 -20
v 20 10 20
v 20 10 -20
v 20 13 -5
v 20 13 -15
v 20 20 -15
v 20 20 -20
v 20 40 20
v 20 40 -5
v -20 0 20
v -20 10 20
v -20 40 20
v -16 0 20
v -16 10 20
v -15 25 20
v -15 35 20
v -14 0 20
v -14 10 20
v -12 28 20
v -12 32 20
v -11 0 20
v -11 10 20
v -9 0 20
v -9 10 20
v -8 28 20
v -8 32 20
v -6 0 20
v -6 10 20
v -5 25 20
v -5 35 20
v -4 0 20
v -4 10 20
v -1 0 20
v -1 10 20
v 1 0 20
v 1 10 20
v 4 0 20
v 4 10 20
v 5 25 20
v 5 35 20
v 6 0 20
v 6 10 20
v 8 28 20
v 8 32 20
v 9 0 20
v 9 10 20
v 11 0 20
v 11 10 20
v 12 28 20
v 12 32 20
v 14 0 20
v 14 10 20
v 15 25 20
v 15 35 20
v 16 0 20
v 16 10 20
v 20 0 20
v 20 10 20
v 20 40 20
v -1 32 4
v -1 40 4
v 1 32 4
v 1 40 4
v -20 13 -15
v -20 20 -15
v 20 13 -15
v 20 20 -15
v -1 32 6
v -1 40 6
v 1 32 6
v 1 40 6
v -20 13 -5
v -20 40 -5
v 20 13 -5
v 20 40 -5
v -20 0 -20
v -20 10 -20
v -20 20 -20
v -16 0 -20
v -16 10 -20
v -14 0 -20
v -14 10 -20
v -11 0 -20
v -11 10 -20
v -9 0 -20
v -9 10 -20
v -6 0 -20
v -6 10 -20
v -4 0 -20
v -4 10 -20
v -1 0 -20
v -1 10 -20
v 1 0 -20
v 1 10 -20
v 4 0 -20
v 4 10 -20
v 6 0 -20
v 6 10 -20
v 9 0 -20
v 9 10 -20
v 11 0 -20
v 11 10 -20
v 14 0 -20
v 14 10 -20
v 16 0 -20
v 16 10 -20
v 20 0 -20
v 20 10 -20
v 20 20 -20
v -20 0 20
v -16 0 20
v -14 0 20
v -11 0 20
v -9 0 20
v -6 0 20
v -4 0 20
v -1 0 20
v 1 0 20
v 4 0 20
v 6 0 20
v 9 0 20
v 11 0 20
v 14 0 20
v 16 0 20
v 20 0 20
v -20 0 -20
v -16 0 -20
v -14 0 -20
v -11 0 -20
v -9 0 -20
v -6 0 -20
v -4 0 -20
v -1 0 -20
v 1 0 -20
v 4 0 -20
v 6 0 -20
v 9 0 -20
v 11 0 -20
v 14 0 -20
v 16 0 -20
v 20 0 -20
v -20 13 -5
v 20 13 -5
v -20 13 -15
v 20 13 -15
v -20 20 -15
v 20 20 -15
v -20 20 -20
v 20 20 -20
v -1 32 6
v 1 32 6
v -1 32 4
v 1 32 4
v -20 40 20
v 20 40 20
v -1 40 6
v 1 40 6
v -1 40 4
v 1 40 4
v -20 40 -5
v 20 40 -5

# faces
f 3/2/1 2/2/1 1/2/1
f 4/2/1 2/2/1 3/2/1
f 5/1/1 4/1/1 3/1/1
f 6/1/1 4/1/1 5/1/1
f 7/1/1 4/1/1 6/1/1
f 8/1/1 4/1/1 7/1/1
f 9/1/1 5/1/1 3/1/1
f 10/1/1 5/1/1 9/1/1
f 13/1/1 12/1/1 11/1/1
f 14/1/1 12/1/1 13/1/1
f 15/1/2 16/1/2 17/1/2
f 17/1/2 16/1/2 18/1/2
f 19/2/2 20/2/2 21/2/2
f 21/2/2 20/2/2 22/2/2
f 21/1/2 22/1/2 23/1/2
f 23/1/2 22/1/2 24/1/2
f 24/1/2 22/1/2 25/1/2
f 25/1/2 22/1/2 26/1/2
f 21/1/2 23/1/2 27/1/2
f 27/1/2 23/1/2 28/1/2
f 32/2/3 30/2/3 29/2/3
f 33/1/3 31/1/3 30/1/3
f 33/2/3 30/2/3 32/2/3
f 34/1/3 31/1/3 33/1/3
f 35/1/3 31/1/3 34/1/3
f 36/3/3 33/3/3 32/3/3
f 37/1/3 34/1/3 33/1/3
f 37/3/3 33/3/3 36/3/3
f 38/4/3 35/4/3 34/4/3
f 39/4/3 35/4/3 38/4/3
f 40/2/3 37/2/3 36/2/3
f 41/1/3 34/1/3 37/1/3
f 41/2/3 37/2/3 40/2/3
f 42/3/3 41/3/3 40/3/3
f 43/1/3 34/1/3 41/1/3
f 43/3/3 41/3/3 42/3/3
f 44/4/3 38/4/3 34/4/3
f 44/2/3 39/2/3 38/2/3
f 45/4/3 35/4/3 39/4/3
f 45/2/3 39/2/3 44/2/3
f 46/2/3 43/2/3 42/2/3
f 47/1/3 34/1/3 43/1/3
f 47/2/3 43/2/3 46/2/3
f 48/4/3 44/4/3 34/4/3
f 48/1/3 34/1/3 47/1/3
f 48/4/3 45/4/3 44/4/3
f 49/1/3 31/1/3 35/1/3
f 49/4/3 45/4/3 48/4/3
f 49/4/3 35/4/3 45/4/3
f 50/3/3 47/3/3 46/3/3
f 51/1/3 48/1/3 47/1/3
f 51/3/3 47/3/3 50/3/3
f 51/1/3 49/1/3 48/1/3
f 52/2/3 51/2/3 50/2/3
f 53/1/3 49/1/3 51/1/3
f 53/2/3 51/2/3 52/2/3
f 54/3/3 53/3/3 52/3/3
f 55/1/3 49/1/3 53/1/3
f 55/3/3 53/3/3 54/3/3
f 56/2/3 55/2/3 54/2/3
f 57/1/3 49/1/3 55/1/3
f 57/2/3 55/2/3 56/2/3
f 58/1/3 49/1/3 57/1/3
f 59/1/3 31/1/3 49/1/3
f 59/1/3 49/1/3 58/1/3
f 60/3/3 57/3/3 56/3/3
f 61/1/3 58/1/3 57/1/3
f 61/3/3 57/3/3 60/3/3
f 62/4/3 59/4/3 58/4/3
f 63/4/3 59/4/3 62/4/3
f 64/2/3 61/2/3 60/2/3
f 65/1/3 58/1/3 61/1/3
f 65/2/3 61/2/3 64/2/3
f 66/3/3 65/3/3 64/3/3
f 67/1/3 58/1/3 65/1/3
f 67/3/3 65/3/3 66/3/3
f 68/4/3 62/4/3 58/4/3
f 68/2/3 63/2/3 62/2/3
f 69/4/3 59/4/3 63/4/3
f 69/2/3 63/2/3 68/2/3
f 70/2/3 67/2/3 66/2/3
f 71/1/3 58/1/3 67/1/3
f 71/2/3 67/2/3 70/2/3
f 72/4/3 68/4/3 58/4/3
f 72/1/3 58/1/3 71/1/3
f 72/4/3 69/4/3 68/4/3
f 73/1/3 31/1/3 59/1/3
f 73/4/3 69/4/3 72/4/3
f 73/4/3 59/4/3 69/4/3
f 74/3/3 71/3/3 70/3/3
f 75/1/3 72/1/3 71/1/3
f 75/3/3 71/3/3 74/3/3
f 75/1/3 73/1/3 72/1/3
f 76/2/3 75/2/3 74/2/3
f 77/1/3 73/1/3 75/1/3
f 77/2/3 75/2/3 76/2/3
f 78/1/3 31/1/3 73/1/3
f 78/1/3 73/1/3 77/1/3
f 81/1/3 80/1/3 79/1/3
f 82/1/3 80/1/3 81/1/3
f 85/1/3 84/1/3 83/1/3
f 86/1/3 84/1/3 85/1/3
f 87/1/4 88/1/4 89/1/4
f 89/1/4 88/1/4 90/1/4
f 91/1/4 92/1/4 93/1/4
f 93/1/4 92/1/4 94/1/4
f 95/2/4 96/2/4 98/2/4
f 96/1/4 97/1/4 99/1/4
f 98/2/4 96/2/4 99/2/4
f 98/3/4 99/3/4 100/3/4
f 99/1/4 97/1/4 101/1/4
f 100/3/4 99/3/4 101/3/4
f 100/2/4 101/2/4 102/2/4
f 101/1/4 97/1/4 103/1/4
f 102/2/4 101/2/4 103/2/4
f 102/3/4 103/3/4 104/3/4
f 103/1/4 97/1/4 105/1/4
f 104/3/4 103/3/4 105/3/4
f 104/2/4 105/2/4 106/2/4
f 105/1/4 97/1/4 107/1/4
f 106/2/4 105/2/4 107/2/4
f 106/3/4 107/3/4 108/3/4
f 107/1/4 97/1/4 109/1/4
f 108/3/4 107/3/4 109/3/4
f 108/2/4 109/2/4 110/2/4
f 109/1/4 97/1/4 111/1/4
f 110/2/4 109/2/4 111/2/4
f 110/3/4 111/3/4 112/3/4
f 111/1/4 97/1/4 113/1/4
f 112/3/4 111/3/4 113/3/4
f 112/2/4 113/2/4 114/2/4
f 113/1/4 97/1/4 115/1/4
f 114/2/4 113/2/4 115/2/4
f 114/3/4 115/3/4 116/3/4
f 115/1/4 97/1/4 117/1/4
f 116/3/4 115/3/4 117/3/4
f 116/2/4 117/2/4 118/2/4
f 117/1/4 97/1/4 119/1/4
f 118/2/4 117/2/4 119/2/4
f 118/3/4 119/3/4 120/3/4
f 119/1/4 97/1/4 121/1/4
f 120/3/4 119/3/4 121/3/4
f 120/2/4 121/2/4 122/2/4
f 121/1/4 97/1/4 123/1/4
f 122/2/4 121/2/4 123/2/4
f 122/3/4 123/3/4 124/3/4
f 123/1/4 97/1/4 125/1/4
f 124/3/4 123/3/4 125/3/4
f 124/2/4 125/2/4 126/2/4
f 125/1/4 97/1/4 127/1/4
f 126/2/4 125/2/4 127/2/4
f 127/1/4 97/1/4 128/1/4
f 145/2/5 130/2/5 129/2/5
f 146/3/5 131/3/5 130/3/5
f 146/2/5 130/2/5 145/2/5
f 147/2/5 132/2/5 131/2/5
f 147/3/5 131/3/5 146/3/5
f 148/3/5 133/3/5 132/3/5
f 148/2/5 132/2/5 147/2/5
f 149/2/5 134/2/5 133/2/5
f 149/3/5 133/3/5 148/3/5
f 150/3/5 135/3/5 134/3/5
f 150/2/5 134/2/5 149/2/5
f 151/2/5 136/2/5 135/2/5
f 151/3/5 135/3/5 150/3/5
f 152/3/5 137/3/5 136/3/5
f 152/2/5 136/2/5 151/2/5
f 153/2/5 138/2/5 137/2/5
f 153/3/5 137/3/5 152/3/5
f 154/3/5 139/3/5 138/3/5
f 154/2/5 138/2/5 153/2/5
f 155/2/5 140/2/5 139/2/5
f 155/3/5 139/3/5 154/3/5
f 156/3/5 141/3/5 140/3/5
f 156/2/5 140/2/5 155/2/5
f 157/2/5 142/2/5 141/2/5
f 157/3/5 141/3/5 156/3/5
f 158/3/5 143/3/5 142/3/5
f 158/2/5 142/2/5 157/2/5
f 159/2/5 144/2/5 143/2/5
f 159/3/5 143/3/5 158/3/5
f 160/2/5 144/2/5 159/2/5
f 161/1/6 162/1/6 163/1/6
f 163/1/6 162/1/6 164/1/6
f 165/1/6 166/1/6 167/1/6
f 167/1/6 166/1/6 168/1/6
f 169/1/6 170/1/6 171/1/6
f 171/1/6 170/1/6 172/1/6
f 173/1/6 174/1/6 175/1/6
f 175/1/6 174/1/6 176/1/6
f 173/1/6 175/1/6 177/1/6
f 176/1/6 174/1/6 178/1/6
f 173/1/6 177/1/6 179/1/6
f 177/1/6 178/1/6 179/1/6
f 178/1/6 174/1/6 180/1/6
f 179/1/6 178/1/6 180/1/6
