# MagicaVoxel @ Ephtracy

# group
g Fox

# material
mtllib Fox.mtl
usemtl palette

# normals
vn -1 0 0
vn 1 0 0
vn 0 0 1
vn 0 0 -1
vn 0 -1 0
vn 0 1 0

# texcoords
vt 0.0917969 0.5
vt 0.701172 0.5
vt 0.958984 0.5
vt 0.986328 0.5
vt 0.994141 0.5

# verts
v -20 0 20
v -20 0 10
v -20 0 -10
v -20 0 -20
v -20 5 10
v -20 5 -10
v -20 30 10
v -20 30 -20
v -20 40 20
v -20 40 10
v 10 30 20
v 10 30 10
v 10 40 20
v 10 40 10
v -10 30 20
v -10 30 10
v -10 40 20
v -10 40 10
v 20 0 20
v 20 0 10
v 20 0 -10
v 20 0 -20
v 20 5 10
v 20 5 -10
v 20 30 10
v 20 30 -20
v 20 40 20
v 20 40 10
v -20 0 20
v -20 40 20
v -18 32 20
v -18 38 20
v -16 9 20
v -16 10 20
v -16 12 20
v -16 13 20
v -15 15 20
v -15 25 20
v -12 18 20
v -12 22 20
v -12 32 20
v -12 38 20
v -10 5 20
v -10 9 20
v -10 10 20
v -10 12 20
v -10 13 20
v -10 15 20
v -10 30 20
v -10 40 20
v -9 9 20
v -9 10 20
v -9 12 20
v -9 13 20
v -8 18 20
v -8 22 20
v -5 15 20
v -5 25 20
v -3 5 20
v -3 7 20
v -3 11 20
v -3 15 20
v 3 5 20
v 3 7 20
v 3 11 20
v 3 15 20
v 5 15 20
v 5 25 20
v 8 18 20
v 8 22 20
v 9 9 20
v 9 10 20
v 9 12 20
v 9 13 20
v 10 5 20
v 10 9 20
v 10 10 20
v 10 12 20
v 10 13 20
v 10 15 20
v 10 30 20
v 10 40 20
v 12 18 20
v 12 22 20
v 12 32 20
v 12 38 20
v 15 15 20
v 15 25 20
v 16 9 20
v 16 10 20
v 16 12 20
v 16 13 20
v 18 32 20
v 18 38 20
v 20 0 20
v 20 40 20
v -20 30 10
v -20 40 10
v -10 30 10
v -10 40 10
v 10 30 10
v 10 40 10
v 20 30 10
v 20 40 10
v -20 0 -20
v -20 30 -20
v 20 0 -20
v 20 30 -20
v -20 0 20
v 20 0 20
v -20 0 10
v 20 0 10
v -20 0 -10
v 20 0 -10
v -20 0 -20
v 20 0 -20
v -10 30 20
v 10 30 20
v -20 30 10
v -10 30 10
v 10 30 10
v 20 30 10
v -20 30 -20
v 20 30 -20
v -20 40 20
v -10 40 20
v 10 40 20
v 20 40 20
v -20 40 10
v -10 40 10
v 10 40 10
v 20 40 10

# faces
f 5/1/1 2/1/1 1/1/1
f 5/3/1 3/3/1 2/3/1
f 6/1/1 4/1/1 3/1/1
f 6/3/1 3/3/1 5/3/1
f 7/1/1 5/1/1 1/1/1
f 7/1/1 6/1/1 5/1/1
f 8/1/1 4/1/1 6/1/1
f 8/1/1 6/1/1 7/1/1
f 9/1/1 7/1/1 1/1/1
f 10/1/1 7/1/1 9/1/1
f 13/1/1 12/1/1 11/1/1
f 14/1/1 12/1/1 13/1/1
f 15/1/2 16/1/2 17/1/2
f 17/1/2 16/1/2 18/1/2
f 19/1/2 20/1/2 23/1/2
f 20/3/2 21/3/2 23/3/2
f 21/1/2 22/1/2 24/1/2
f 23/3/2 21/3/2 24/3/2
f 19/1/2 23/1/2 25/1/2
f 23/1/2 24/1/2 25/1/2
f 24/1/2 22/1/2 26/1/2
f 25/1/2 24/1/2 26/1/2
f 19/1/2 25/1/2 27/1/2
f 27/1/2 25/1/2 28/1/2
f 31/1/3 30/1/3 29/1/3
f 32/1/3 30/1/3 31/1/3
f 33/1/3 31/1/3 29/1/3
f 34/1/3 31/1/3 33/1/3
f 35/1/3 31/1/3 34/1/3
f 36/1/3 31/1/3 35/1/3
f 37/1/3 31/1/3 36/1/3
f 38/1/3 31/1/3 37/1/3
f 39/5/3 38/5/3 37/5/3
f 40/5/3 38/5/3 39/5/3
f 41/4/3 32/4/3 31/4/3
f 41/1/3 31/1/3 38/1/3
f 42/1/3 30/1/3 32/1/3
f 42/4/3 32/4/3 41/4/3
f 43/1/3 33/1/3 29/1/3
f 44/4/3 34/4/3 33/4/3
f 44/1/3 33/1/3 43/1/3
f 45/1/3 35/1/3 34/1/3
f 45/4/3 34/4/3 44/4/3
f 46/4/3 36/4/3 35/4/3
f 46/1/3 35/1/3 45/1/3
f 47/1/3 37/1/3 36/1/3
f 47/4/3 36/4/3 46/4/3
f 48/5/3 39/5/3 37/5/3
f 48/1/3 37/1/3 47/1/3
f 49/1/3 41/1/3 38/1/3
f 49/1/3 42/1/3 41/1/3
f 50/1/3 30/1/3 42/1/3
f 50/1/3 42/1/3 49/1/3
f 51/3/3 44/3/3 43/3/3
f 51/4/3 45/4/3 44/4/3
f 52/3/3 46/3/3 45/3/3
f 52/4/3 45/4/3 51/4/3
f 53/4/3 47/4/3 46/4/3
f 53/3/3 46/3/3 52/3/3
f 54/3/3 48/3/3 47/3/3
f 54/4/3 47/4/3 53/4/3
f 55/5/3 39/5/3 48/5/3
f 55/3/3 40/3/3 39/3/3
f 56/5/3 38/5/3 40/5/3
f 56/3/3 40/3/3 55/3/3
f 57/3/3 48/3/3 54/3/3
f 57/5/3 55/5/3 48/5/3
f 57/5/3 56/5/3 55/5/3
f 57/3/3 52/3/3 51/3/3
f 57/3/3 54/3/3 53/3/3
f 57/3/3 53/3/3 52/3/3
f 58/5/3 38/5/3 56/5/3
f 58/5/3 56/5/3 57/5/3
f 58/1/3 49/1/3 38/1/3
f 59/3/3 57/3/3 51/3/3
f 59/3/3 51/3/3 43/3/3
f 59/1/3 43/1/3 29/1/3
f 60/3/3 57/3/3 59/3/3
f 61/3/3 57/3/3 60/3/3
f 62/1/3 58/1/3 57/1/3
f 62/3/3 57/3/3 61/3/3
f 63/1/3 59/1/3 29/1/3
f 63/1/3 60/1/3 59/1/3
f 64/3/3 61/3/3 60/3/3
f 64/1/3 60/1/3 63/1/3
f 65/2/3 62/2/3 61/2/3
f 65/3/3 61/3/3 64/3/3
f 66/1/3 58/1/3 62/1/3
f 66/2/3 62/2/3 65/2/3
f 67/3/3 65/3/3 64/3/3
f 67/1/3 58/1/3 66/1/3
f 67/3/3 66/3/3 65/3/3
f 67/3/3 64/3/3 63/3/3
f 68/1/3 49/1/3 58/1/3
f 68/1/3 58/1/3 67/1/3
f 69/5/3 68/5/3 67/5/3
f 70/5/3 68/5/3 69/5/3
f 71/3/3 67/3/3 63/3/3
f 72/3/3 67/3/3 71/3/3
f 73/3/3 67/3/3 72/3/3
f 74/3/3 67/3/3 73/3/3
f 75/1/3 63/1/3 29/1/3
f 75/3/3 71/3/3 63/3/3
f 76/4/3 72/4/3 71/4/3
f 76/3/3 71/3/3 75/3/3
f 77/3/3 73/3/3 72/3/3
f 77/4/3 72/4/3 76/4/3
f 78/4/3 74/4/3 73/4/3
f 78/3/3 73/3/3 77/3/3
f 79/3/3 67/3/3 74/3/3
f 79/4/3 74/4/3 78/4/3
f 80/5/3 69/5/3 67/5/3
f 80/3/3 67/3/3 79/3/3
f 81/1/3 49/1/3 68/1/3
f 83/5/3 69/5/3 80/5/3
f 83/3/3 70/3/3 69/3/3
f 84/5/3 68/5/3 70/5/3
f 84/3/3 70/3/3 83/3/3
f 85/1/3 82/1/3 81/1/3
f 86/1/3 82/1/3 85/1/3
f 87/5/3 83/5/3 80/5/3
f 87/1/3 80/1/3 79/1/3
f 87/5/3 84/5/3 83/5/3
f 88/5/3 68/5/3 84/5/3
f 88/5/3 84/5/3 87/5/3
f 88/1/3 81/1/3 68/1/3
f 88/1/3 85/1/3 81/1/3
f 89/4/3 77/4/3 76/4/3
f 89/1/3 76/1/3 75/1/3
f 90/1/3 78/1/3 77/1/3
f 90/4/3 77/4/3 89/4/3
f 91/4/3 79/4/3 78/4/3
f 91/1/3 78/1/3 90/1/3
f 92/1/3 87/1/3 79/1/3
f 92/4/3 79/4/3 91/4/3
f 92/1/3 88/1/3 87/1/3
f 93/1/3 91/1/3 90/1/3
f 93/1/3 88/1/3 92/1/3
f 93/1/3 92/1/3 91/1/3
f 93/1/3 90/1/3 89/1/3
f 93/1/3 85/1/3 88/1/3
f 93/4/3 86/4/3 85/4/3
f 94/1/3 82/1/3 86/1/3
f 94/4/3 86/4/3 93/4/3
f 95/1/3 93/1/3 89/1/3
f 95/1/3 89/1/3 75/1/3
f 95/1/3 94/1/3 93/1/3
f 95/1/3 75/1/3 29/1/3
f 96/1/3 82/1/3 94/1/3
f 96/1/3 94/1/3 95/1/3
f 97/1/4 98/1/4 99/1/4
f 99/1/4 98/1/4 100/1/4
f 101/1/4 102/1/4 103/1/4
f 103/1/4 102/1/4 104/1/4
f 105/1/4 106/1/4 107/1/4
f 107/1/4 106/1/4 108/1/4
f 111/1/5 110/1/5 109/1/5
f 112/1/5 110/1/5 111/1/5
f 113/3/5 112/3/5 111/3/5
f 114/3/5 112/3/5 113/3/5
f 115/1/5 114/1/5 113/1/5
f 116/1/5 114/1/5 115/1/5
f 117/1/6 118/1/6 120/1/6
f 120/1/6 118/1/6 121/1/6
f 119/1/6 120/1/6 123/1/6
f 121/1/6 122/1/6 123/1/6
f 120/1/6 121/1/6 123/1/6
f 123/1/6 122/1/6 124/1/6
f 125/1/6 126/1/6 129/1/6
f 129/1/6 126/1/6 130/1/6
f 127/1/6 128/1/6 131/1/6
f 131/1/6 128/1/6 132/1/6
