# MagicaVoxel @ Ephtracy

# group
g Pigeon

# material
mtllib Pigeon.mtl
usemtl palette

# normals
vn -1 0 0
vn 1 0 0
vn 0 0 1
vn 0 0 -1
vn 0 -1 0
vn 0 1 0

# texcoords
vt 0.0214844 0.5
vt 0.763672 0.5
vt 0.958984 0.5
vt 0.978516 0.5
vt 0.986328 0.5
vt 0.990234 0.5
vt 0.994141 0.5

# verts
v -20 5 15
v -20 5 -20
v -20 11 15
v -20 11 -20
v -20 14 15
v -20 14 -20
v -20 20 15
v -20 20 -20
v -20 25 15
v -20 25 -20
v -17 0 15
v -17 0 -20
v -17 5 15
v -17 5 14
v -17 5 -19
v -17 5 -20
v -17 25 15
v -17 25 14
v -17 25 -20
v -17 40 15
v -17 40 14
v -17 40 -20
v -10 22 20
v -10 22 15
v -10 25 15
v -10 27 20
v -10 27 15
v 10 22 20
v 10 22 15
v 10 25 15
v 10 27 20
v 10 27 15
v 17 0 15
v 17 0 -20
v 17 5 15
v 17 5 14
v 17 5 -19
v 17 5 -20
v 17 25 15
v 17 25 14
v 17 25 -20
v 17 40 15
v 17 40 14
v 17 40 -20
v 20 5 15
v 20 5 -20
v 20 11 15
v 20 11 -20
v 20 14 15
v 20 14 -20
v 20 20 15
v 20 20 -20
v 20 25 15
v 20 25 -20
v -10 22 20
v -10 27 20
v 10 22 20
v 10 27 20
v -20 5 15
v -20 11 15
v -20 14 15
v -20 20 15
v -20 25 15
v -17 0 15
v -17 5 15
v -17 11 15
v -17 14 15
v -17 20 15
v -17 25 15
v -17 40 15
v -14 27 15
v -14 37 15
v -13 19 15
v -13 25 15
v -11 30 15
v -11 34 15
v -10 22 15
v -10 25 15
v -10 27 15
v -7 30 15
v -7 34 15
v -4 27 15
v -4 37 15
v 4 27 15
v 4 37 15
v 7 30 15
v 7 34 15
v 10 22 15
v 10 25 15
v 10 27 15
v 11 30 15
v 11 34 15
v 13 19 15
v 13 25 15
v 14 27 15
v 14 37 15
v 17 0 15
v 17 5 15
v 17 11 15
v 17 14 15
v 17 20 15
v 17 25 15
v 17 40 15
v 20 5 15
v 20 11 15
v 20 14 15
v 20 20 15
v 20 25 15
v -20 5 -20
v -20 11 -20
v -20 14 -20
v -20 20 -20
v -20 25 -20
v -17 0 -20
v -17 5 -20
v -17 11 -20
v -17 14 -20
v -17 20 -20
v -17 25 -20
v -17 40 -20
v 17 0 -20
v 17 5 -20
v 17 11 -20
v 17 14 -20
v 17 20 -20
v 17 25 -20
v 17 40 -20
v 20 5 -20
v 20 11 -20
v 20 14 -20
v 20 20 -20
v 20 25 -20
v -17 0 15
v 17 0 15
v -17 0 -20
v 17 0 -20
v -20 5 15
v -17 5 15
v 17 5 15
v 20 5 15
v -19 5 14
v -17 5 14
v 17 5 14
v 19 5 14
v -19 5 -19
v -17 5 -19
v 17 5 -19
v 19 5 -19
v -20 5 -20
v -17 5 -20
v 17 5 -20
v 20 5 -20
v -10 22 20
v 10 22 20
v -10 22 15
v 10 22 15
v -20 25 15
v -17 25 15
v 17 25 15
v 20 25 15
v -17 25 14
v 17 25 14
v -20 25 -20
v -17 25 -20
v 17 25 -20
v 20 25 -20
v -10 27 20
v 10 27 20
v -10 27 15
v -4 27 15
v 4 27 15
v 10 27 15
v -17 40 15
v 17 40 15
v -17 40 14
v 17 40 14
v -17 40 -20
v 17 40 -20

# faces
f 3/5/1 2/5/1 1/5/1
f 4/5/1 2/5/1 3/5/1
f 5/4/1 4/4/1 3/4/1
f 6/4/1 4/4/1 5/4/1
f 7/5/1 6/5/1 5/5/1
f 8/5/1 6/5/1 7/5/1
f 9/4/1 8/4/1 7/4/1
f 10/4/1 8/4/1 9/4/1
f 13/4/1 12/4/1 11/4/1
f 14/4/1 12/4/1 13/4/1
f 15/4/1 12/4/1 14/4/1
f 16/4/1 12/4/1 15/4/1
f 20/5/1 18/5/1 17/5/1
f 21/6/1 19/6/1 18/6/1
f 21/5/1 18/5/1 20/5/1
f 22/6/1 19/6/1 21/6/1
f 25/1/1 24/1/1 23/1/1
f 26/1/1 25/1/1 23/1/1
f 27/1/1 25/1/1 26/1/1
f 28/1/2 29/1/2 30/1/2
f 28/1/2 30/1/2 31/1/2
f 31/1/2 30/1/2 32/1/2
f 33/4/2 34/4/2 35/4/2
f 35/4/2 34/4/2 36/4/2
f 36/4/2 34/4/2 37/4/2
f 37/4/2 34/4/2 38/4/2
f 39/5/2 40/5/2 42/5/2
f 40/6/2 41/6/2 43/6/2
f 42/5/2 40/5/2 43/5/2
f 43/6/2 41/6/2 44/6/2
f 45/5/2 46/5/2 47/5/2
f 47/5/2 46/5/2 48/5/2
f 47/4/2 48/4/2 49/4/2
f 49/4/2 48/4/2 50/4/2
f 49/5/2 50/5/2 51/5/2
f 51/5/2 50/5/2 52/5/2
f 51/4/2 52/4/2 53/4/2
f 53/4/2 52/4/2 54/4/2
f 57/1/3 56/1/3 55/1/3
f 58/1/3 56/1/3 57/1/3
f 65/5/3 60/5/3 59/5/3
f 66/4/3 61/4/3 60/4/3
f 66/5/3 60/5/3 65/5/3
f 67/5/3 62/5/3 61/5/3
f 67/4/3 61/4/3 66/4/3
f 68/4/3 63/4/3 62/4/3
f 68/5/3 62/5/3 67/5/3
f 69/4/3 63/4/3 68/4/3
f 71/5/3 70/5/3 69/5/3
f 72/5/3 70/5/3 71/5/3
f 73/4/3 67/4/3 66/4/3
f 73/4/3 65/4/3 64/4/3
f 73/4/3 66/4/3 65/4/3
f 73/4/3 68/4/3 67/4/3
f 73/4/3 69/4/3 68/4/3
f 74/5/3 71/5/3 69/5/3
f 74/4/3 69/4/3 73/4/3
f 75/7/3 72/7/3 71/7/3
f 76/7/3 72/7/3 75/7/3
f 77/2/3 74/2/3 73/2/3
f 78/5/3 71/5/3 74/5/3
f 78/2/3 74/2/3 77/2/3
f 79/7/3 75/7/3 71/7/3
f 79/5/3 71/5/3 78/5/3
f 80/7/3 75/7/3 79/7/3
f 80/3/3 76/3/3 75/3/3
f 81/7/3 72/7/3 76/7/3
f 81/3/3 76/3/3 80/3/3
f 82/7/3 80/7/3 79/7/3
f 82/7/3 81/7/3 80/7/3
f 83/5/3 70/5/3 72/5/3
f 83/7/3 81/7/3 82/7/3
f 83/7/3 72/7/3 81/7/3
f 84/5/3 83/5/3 82/5/3
f 85/5/3 70/5/3 83/5/3
f 85/5/3 83/5/3 84/5/3
f 86/7/3 85/7/3 84/7/3
f 87/7/3 85/7/3 86/7/3
f 88/2/3 77/2/3 73/2/3
f 90/7/3 86/7/3 84/7/3
f 91/3/3 87/3/3 86/3/3
f 91/7/3 86/7/3 90/7/3
f 92/7/3 85/7/3 87/7/3
f 92/3/3 87/3/3 91/3/3
f 93/4/3 73/4/3 64/4/3
f 93/2/3 89/2/3 88/2/3
f 93/2/3 88/2/3 73/2/3
f 94/5/3 90/5/3 89/5/3
f 94/2/3 89/2/3 93/2/3
f 95/7/3 91/7/3 90/7/3
f 95/5/3 90/5/3 94/5/3
f 95/7/3 92/7/3 91/7/3
f 96/7/3 85/7/3 92/7/3
f 96/7/3 92/7/3 95/7/3
f 96/5/3 70/5/3 85/5/3
f 97/4/3 94/4/3 93/4/3
f 97/4/3 93/4/3 64/4/3
f 98/4/3 94/4/3 97/4/3
f 99/4/3 94/4/3 98/4/3
f 100/4/3 94/4/3 99/4/3
f 101/4/3 94/4/3 100/4/3
f 102/5/3 95/5/3 94/5/3
f 102/4/3 94/4/3 101/4/3
f 102/5/3 96/5/3 95/5/3
f 103/5/3 70/5/3 96/5/3
f 103/5/3 96/5/3 102/5/3
f 104/5/3 99/5/3 98/5/3
f 105/4/3 100/4/3 99/4/3
f 105/5/3 99/5/3 104/5/3
f 106/5/3 101/5/3 100/5/3
f 106/4/3 100/4/3 105/4/3
f 107/4/3 102/4/3 101/4/3
f 107/5/3 101/5/3 106/5/3
f 108/4/3 102/4/3 107/4/3
f 109/5/4 110/5/4 115/5/4
f 110/4/4 111/4/4 116/4/4
f 115/5/4 110/5/4 116/5/4
f 111/5/4 112/5/4 117/5/4
f 116/4/4 111/4/4 117/4/4
f 112/4/4 113/4/4 118/4/4
f 117/5/4 112/5/4 118/5/4
f 118/4/4 113/4/4 119/4/4
f 116/4/4 117/4/4 121/4/4
f 114/4/4 115/4/4 121/4/4
f 118/4/4 119/4/4 121/4/4
f 117/4/4 118/4/4 121/4/4
f 115/4/4 116/4/4 121/4/4
f 121/4/4 119/4/4 122/4/4
f 122/4/4 119/4/4 123/4/4
f 123/4/4 119/4/4 124/4/4
f 124/4/4 119/4/4 125/4/4
f 119/6/4 120/6/4 126/6/4
f 125/4/4 119/4/4 126/4/4
f 126/6/4 120/6/4 127/6/4
f 122/5/4 123/5/4 128/5/4
f 123/4/4 124/4/4 129/4/4
f 128/5/4 123/5/4 129/5/4
f 124/5/4 125/5/4 130/5/4
f 129/4/4 124/4/4 130/4/4
f 125/4/4 126/4/4 131/4/4
f 130/5/4 125/5/4 131/5/4
f 131/4/4 126/4/4 132/4/4
f 135/4/5 134/4/5 133/4/5
f 136/4/5 134/4/5 135/4/5
f 141/5/5 138/5/5 137/5/5
f 142/5/5 138/5/5 141/5/5
f 143/5/5 140/5/5 139/5/5
f 144/5/5 140/5/5 143/5/5
f 145/7/5 142/7/5 141/7/5
f 145/5/5 141/5/5 137/5/5
f 146/7/5 142/7/5 145/7/5
f 147/7/5 144/7/5 143/7/5
f 148/5/5 140/5/5 144/5/5
f 148/7/5 144/7/5 147/7/5
f 149/5/5 146/5/5 145/5/5
f 149/5/5 145/5/5 137/5/5
f 150/5/5 146/5/5 149/5/5
f 151/5/5 148/5/5 147/5/5
f 152/5/5 140/5/5 148/5/5
f 152/5/5 148/5/5 151/5/5
f 155/1/5 154/1/5 153/1/5
f 156/1/5 154/1/5 155/1/5
f 157/4/6 158/4/6 161/4/6
f 159/4/6 160/4/6 162/4/6
f 157/4/6 161/4/6 163/4/6
f 163/4/6 161/4/6 164/4/6
f 162/4/6 160/4/6 165/4/6
f 165/4/6 160/4/6 166/4/6
f 167/1/6 168/1/6 169/1/6
f 169/1/6 168/1/6 170/1/6
f 170/1/6 168/1/6 171/1/6
f 171/1/6 168/1/6 172/1/6
f 173/5/6 174/5/6 175/5/6
f 175/5/6 174/5/6 176/5/6
f 175/6/6 176/6/6 177/6/6
f 177/6/6 176/6/6 178/6/6
