# MagicaVoxel @ Ephtracy

# group
g Frog

# material
mtllib Frog.mtl
usemtl palette

# normals
vn -1 0 0
vn 1 0 0
vn 0 0 1
vn 0 0 -1
vn 0 -1 0
vn 0 1 0

# texcoords
vt 0.0800781 0.5
vt 0.900391 0.5
vt 0.958984 0.5
vt 0.994141 0.5

# verts
v -20 0 20
v -20 0 -20
v -20 13 20
v -20 13 -20
v -20 30 20
v -20 30 -20
v -16 30 20
v -16 30 8
v -16 40 20
v -16 40 8
v 4 30 20
v 4 30 8
v 4 40 20
v 4 40 8
v -4 30 20
v -4 30 8
v -4 40 20
v -4 40 8
v 16 30 20
v 16 30 8
v 16 40 20
v 16 40 8
v 20 0 20
v 20 0 -20
v 20 13 20
v 20 13 -20
v 20 30 20
v 20 30 -20
v -20 0 20
v -20 13 20
v -20 30 20
v -16 30 20
v -16 40 20
v -14 29 20
v -14 38 20
v -12 31 20
v -12 36 20
v -10 8 20
v -10 13 20
v -8 31 20
v -8 36 20
v -6 29 20
v -6 38 20
v -4 30 20
v -4 40 20
v 4 30 20
v 4 40 20
v 6 29 20
v 6 38 20
v 8 31 20
v 8 36 20
v 10 8 20
v 10 13 20
v 12 31 20
v 12 36 20
v 14 29 20
v 14 38 20
v 16 30 20
v 16 40 20
v 20 0 20
v 20 13 20
v 20 30 20
v -16 30 8
v -16 40 8
v -4 30 8
v -4 40 8
v 4 30 8
v 4 40 8
v 16 30 8
v 16 40 8
v -20 0 -20
v -20 13 -20
v -20 30 -20
v 20 0 -20
v 20 13 -20
v 20 30 -20
v -20 0 20
v 20 0 20
v -20 0 -20
v 20 0 -20
v -20 30 20
v -16 30 20
v -4 30 20
v 4 30 20
v 16 30 20
v 20 30 20
v -16 30 8
v -4 30 8
v 4 30 8
v 16 30 8
v -20 30 -20
v 20 30 -20
v -16 40 20
v -4 40 20
v 4 40 20
v 16 40 20
v -16 40 8
v -4 40 8
v 4 40 8
v 16 40 8

# faces
f 3/3/1 2/3/1 1/3/1
f 4/3/1 2/3/1 3/3/1
f 5/2/1 4/2/1 3/2/1
f 6/2/1 4/2/1 5/2/1
f 9/2/1 8/2/1 7/2/1
f 10/2/1 8/2/1 9/2/1
f 13/2/1 12/2/1 11/2/1
f 14/2/1 12/2/1 13/2/1
f 15/2/2 16/2/2 17/2/2
f 17/2/2 16/2/2 18/2/2
f 19/2/2 20/2/2 21/2/2
f 21/2/2 20/2/2 22/2/2
f 23/3/2 24/3/2 25/3/2
f 25/3/2 24/3/2 26/3/2
f 25/2/2 26/2/2 27/2/2
f 27/2/2 26/2/2 28/2/2
f 32/2/3 31/2/3 30/2/3
f 34/2/3 32/2/3 30/2/3
f 34/2/3 33/2/3 32/2/3
f 35/2/3 33/2/3 34/2/3
f 36/4/3 35/4/3 34/4/3
f 37/4/3 35/4/3 36/4/3
f 38/3/3 30/3/3 29/3/3
f 39/2/3 34/2/3 30/2/3
f 39/3/3 30/3/3 38/3/3
f 40/4/3 36/4/3 34/4/3
f 40/3/3 37/3/3 36/3/3
f 41/4/3 35/4/3 37/4/3
f 41/3/3 37/3/3 40/3/3
f 42/4/3 40/4/3 34/4/3
f 42/2/3 34/2/3 39/2/3
f 42/4/3 41/4/3 40/4/3
f 43/4/3 35/4/3 41/4/3
f 43/4/3 41/4/3 42/4/3
f 43/2/3 33/2/3 35/2/3
f 44/2/3 43/2/3 42/2/3
f 45/2/3 33/2/3 43/2/3
f 45/2/3 43/2/3 44/2/3
f 46/2/3 44/2/3 42/2/3
f 48/2/3 42/2/3 39/2/3
f 48/2/3 47/2/3 46/2/3
f 48/2/3 46/2/3 42/2/3
f 49/2/3 47/2/3 48/2/3
f 50/4/3 49/4/3 48/4/3
f 51/4/3 49/4/3 50/4/3
f 52/3/3 38/3/3 29/3/3
f 52/1/3 39/1/3 38/1/3
f 53/2/3 48/2/3 39/2/3
f 53/1/3 39/1/3 52/1/3
f 54/3/3 51/3/3 50/3/3
f 54/4/3 50/4/3 48/4/3
f 55/4/3 49/4/3 51/4/3
f 55/3/3 51/3/3 54/3/3
f 56/4/3 54/4/3 48/4/3
f 56/2/3 48/2/3 53/2/3
f 56/4/3 55/4/3 54/4/3
f 57/4/3 49/4/3 55/4/3
f 57/4/3 55/4/3 56/4/3
f 57/2/3 47/2/3 49/2/3
f 58/2/3 57/2/3 56/2/3
f 59/2/3 47/2/3 57/2/3
f 59/2/3 57/2/3 58/2/3
f 60/3/3 53/3/3 52/3/3
f 60/3/3 52/3/3 29/3/3
f 61/2/3 56/2/3 53/2/3
f 61/3/3 53/3/3 60/3/3
f 61/2/3 58/2/3 56/2/3
f 62/2/3 58/2/3 61/2/3
f 63/2/4 64/2/4 65/2/4
f 65/2/4 64/2/4 66/2/4
f 67/2/4 68/2/4 69/2/4
f 69/2/4 68/2/4 70/2/4
f 71/3/4 72/3/4 74/3/4
f 72/2/4 73/2/4 75/2/4
f 74/3/4 72/3/4 75/3/4
f 75/2/4 73/2/4 76/2/4
f 79/3/5 78/3/5 77/3/5
f 80/3/5 78/3/5 79/3/5
f 81/2/6 82/2/6 87/2/6
f 83/2/6 84/2/6 88/2/6
f 88/2/6 84/2/6 89/2/6
f 85/2/6 86/2/6 90/2/6
f 88/2/6 89/2/6 91/2/6
f 89/2/6 90/2/6 91/2/6
f 81/2/6 87/2/6 91/2/6
f 87/2/6 88/2/6 91/2/6
f 90/2/6 86/2/6 92/2/6
f 91/2/6 90/2/6 92/2/6
f 93/2/6 94/2/6 97/2/6
f 97/2/6 94/2/6 98/2/6
f 95/2/6 96/2/6 99/2/6
f 99/2/6 96/2/6 100/2/6
