# MagicaVoxel @ Ephtracy

# group
g WhiteTigger

# material
mtllib WhiteTigger.mtl
usemtl palette

# normals
vn -1 0 0
vn 1 0 0
vn 0 0 1
vn 0 0 -1
vn 0 -1 0
vn 0 1 0

# texcoords
vt 0.841797 0.5
vt 0.958984 0.5
vt 0.986328 0.5
vt 0.994141 0.5

# verts
v -20 0 20
v -20 0 16
v -20 0 14
v -20 0 10
v -20 0 -10
v -20 0 -14
v -20 0 -16
v -20 0 -20
v -20 5 20
v -20 5 16
v -20 5 10
v -20 5 6
v -20 5 4
v -20 5 -4
v -20 5 -6
v -20 5 -10
v -20 7 20
v -20 7 16
v -20 9 20
v -20 9 16
v -20 11 20
v -20 11 16
v -20 13 20
v -20 13 16
v -20 15 20
v -20 15 16
v -20 30 10
v -20 30 6
v -20 30 4
v -20 30 -4
v -20 30 -6
v -20 30 -14
v -20 30 -16
v -20 30 -20
v -20 40 20
v -20 40 16
v -20 40 14
v -20 40 10
v 10 30 20
v 10 30 16
v 10 30 14
v 10 30 10
v 10 40 20
v 10 40 16
v 10 40 14
v 10 40 10
v -10 30 20
v -10 30 16
v -10 30 14
v -10 30 10
v -10 40 20
v -10 40 16
v -10 40 14
v -10 40 10
v 20 0 20
v 20 0 16
v 20 0 14
v 20 0 10
v 20 0 -10
v 20 0 -14
v 20 0 -16
v 20 0 -20
v 20 5 20
v 20 5 16
v 20 5 10
v 20 5 6
v 20 5 4
v 20 5 -4
v 20 5 -6
v 20 5 -10
v 20 7 20
v 20 7 16
v 20 9 20
v 20 9 16
v 20 11 20
v 20 11 16
v 20 13 20
v 20 13 16
v 20 15 20
v 20 15 16
v 20 30 10
v 20 30 6
v 20 30 4
v 20 30 -4
v 20 30 -6
v 20 30 -14
v 20 30 -16
v 20 30 -20
v 20 40 20
v 20 40 16
v 20 40 14
v 20 40 10
v -20 0 20
v -20 5 20
v -20 7 20
v -20 9 20
v -20 11 20
v -20 13 20
v -20 15 20
v -20 40 20
v -18 32 20
v -18 38 20
v -16 5 20
v -16 7 20
v -16 9 20
v -16 11 20
v -16 13 20
v -16 15 20
v -15 15 20
v -15 25 20
v -12 17 20
v -12 22 20
v -12 32 20
v -12 38 20
v -10 5 20
v -10 15 20
v -10 30 20
v -10 40 20
v -8 17 20
v -8 22 20
v -5 0 20
v -5 2 20
v -5 15 20
v -5 22 20
v -5 24 20
v -5 25 20
v -5 27 20
v -5 28 20
v -5 30 20
v -3 5 20
v -3 7 20
v -3 11 20
v -3 15 20
v -1 24 20
v -1 25 20
v -1 27 20
v -1 28 20
v 1 24 20
v 1 25 20
v 1 27 20
v 1 28 20
v 3 5 20
v 3 7 20
v 3 11 20
v 3 15 20
v 5 0 20
v 5 2 20
v 5 15 20
v 5 22 20
v 5 24 20
v 5 25 20
v 5 27 20
v 5 28 20
v 5 30 20
v 8 18 20
v 8 22 20
v 10 5 20
v 10 15 20
v 10 30 20
v 10 40 20
v 12 18 20
v 12 22 20
v 12 32 20
v 12 38 20
v 15 15 20
v 15 25 20
v 17 5 20
v 17 7 20
v 17 9 20
v 17 11 20
v 17 13 20
v 17 15 20
v 18 32 20
v 18 38 20
v 20 0 20
v 20 5 20
v 20 7 20
v 20 9 20
v 20 11 20
v 20 13 20
v 20 15 20
v 20 40 20
v -20 30 10
v -20 40 10
v -10 30 10
v -10 40 10
v 10 30 10
v 10 40 10
v 20 30 10
v 20 40 10
v -20 0 -20
v -20 30 -20
v 20 0 -20
v 20 30 -20
v -20 0 20
v -5 0 20
v 5 0 20
v 20 0 20
v -5 0 19
v 5 0 19
v -20 0 16
v -19 0 16
v 19 0 16
v 20 0 16
v -20 0 14
v -19 0 14
v 19 0 14
v 20 0 14
v -20 0 10
v 20 0 10
v -20 0 -10
v 20 0 -10
v -20 0 -14
v 20 0 -14
v -20 0 -16
v 20 0 -16
v -20 0 -20
v 20 0 -20
v -10 30 20
v -5 30 20
v 5 30 20
v 10 30 20
v -5 30 18
v 5 30 18
v -10 30 16
v 10 30 16
v -10 30 14
v 10 30 14
v -20 30 10
v -10 30 10
v 10 30 10
v 20 30 10
v -20 30 6
v 20 30 6
v -20 30 4
v 20 30 4
v -20 30 -4
v 20 30 -4
v -20 30 -6
v 20 30 -6
v -20 30 -14
v 20 30 -14
v -20 30 -16
v 20 30 -16
v -20 30 -20
v 20 30 -20
v -20 40 20
v -10 40 20
v 10 40 20
v 20 40 20
v -20 40 16
v -10 40 16
v 10 40 16
v 20 40 16
v -20 40 14
v -10 40 14
v 10 40 14
v 20 40 14
v -20 40 10
v -10 40 10
v 10 40 10
v 20 40 10

# faces
f 9/2/1 2/2/1 1/2/1
f 10/4/1 3/4/1 2/4/1
f 10/2/1 2/2/1 9/2/1
f 11/2/1 4/2/1 3/2/1
f 11/3/1 5/3/1 4/3/1
f 12/3/1 5/3/1 11/3/1
f 13/3/1 5/3/1 12/3/1
f 14/3/1 5/3/1 13/3/1
f 15/3/1 5/3/1 14/3/1
f 16/2/1 6/2/1 5/2/1
f 16/3/1 5/3/1 15/3/1
f 17/4/1 10/4/1 9/4/1
f 18/4/1 3/4/1 10/4/1
f 18/4/1 10/4/1 17/4/1
f 19/2/1 18/2/1 17/2/1
f 20/4/1 3/4/1 18/4/1
f 20/2/1 18/2/1 19/2/1
f 21/4/1 20/4/1 19/4/1
f 22/4/1 3/4/1 20/4/1
f 22/4/1 20/4/1 21/4/1
f 23/2/1 22/2/1 21/2/1
f 24/4/1 3/4/1 22/4/1
f 24/2/1 22/2/1 23/2/1
f 25/4/1 24/4/1 23/4/1
f 26/4/1 3/4/1 24/4/1
f 26/4/1 24/4/1 25/4/1
f 27/2/1 11/2/1 3/2/1
f 27/2/1 12/2/1 11/2/1
f 28/4/1 13/4/1 12/4/1
f 28/2/1 12/2/1 27/2/1
f 29/2/1 14/2/1 13/2/1
f 29/4/1 13/4/1 28/4/1
f 30/4/1 15/4/1 14/4/1
f 30/2/1 14/2/1 29/2/1
f 31/2/1 16/2/1 15/2/1
f 31/4/1 15/4/1 30/4/1
f 32/2/1 6/2/1 16/2/1
f 32/2/1 16/2/1 31/2/1
f 32/4/1 7/4/1 6/4/1
f 33/2/1 8/2/1 7/2/1
f 33/4/1 7/4/1 32/4/1
f 34/2/1 8/2/1 33/2/1
f 35/2/1 26/2/1 25/2/1
f 36/4/1 3/4/1 26/4/1
f 36/2/1 26/2/1 35/2/1
f 37/2/1 27/2/1 3/2/1
f 37/4/1 3/4/1 36/4/1
f 38/2/1 27/2/1 37/2/1
f 43/2/1 40/2/1 39/2/1
f 44/4/1 41/4/1 40/4/1
f 44/2/1 40/2/1 43/2/1
f 45/2/1 42/2/1 41/2/1
f 45/4/1 41/4/1 44/4/1
f 46/2/1 42/2/1 45/2/1
f 47/2/2 48/2/2 51/2/2
f 48/4/2 49/4/2 52/4/2
f 51/2/2 48/2/2 52/2/2
f 49/2/2 50/2/2 53/2/2
f 52/4/2 49/4/2 53/4/2
f 53/2/2 50/2/2 54/2/2
f 55/2/2 56/2/2 63/2/2
f 56/4/2 57/4/2 64/4/2
f 63/2/2 56/2/2 64/2/2
f 57/2/2 58/2/2 65/2/2
f 58/3/2 59/3/2 65/3/2
f 65/3/2 59/3/2 66/3/2
f 66/3/2 59/3/2 67/3/2
f 67/3/2 59/3/2 68/3/2
f 68/3/2 59/3/2 69/3/2
f 59/2/2 60/2/2 70/2/2
f 69/3/2 59/3/2 70/3/2
f 63/4/2 64/4/2 71/4/2
f 64/4/2 57/4/2 72/4/2
f 71/4/2 64/4/2 72/4/2
f 71/2/2 72/2/2 73/2/2
f 72/4/2 57/4/2 74/4/2
f 73/2/2 72/2/2 74/2/2
f 73/4/2 74/4/2 75/4/2
f 74/4/2 57/4/2 76/4/2
f 75/4/2 74/4/2 76/4/2
f 75/2/2 76/2/2 77/2/2
f 76/4/2 57/4/2 78/4/2
f 77/2/2 76/2/2 78/2/2
f 77/4/2 78/4/2 79/4/2
f 78/4/2 57/4/2 80/4/2
f 79/4/2 78/4/2 80/4/2
f 57/2/2 65/2/2 81/2/2
f 65/2/2 66/2/2 81/2/2
f 66/4/2 67/4/2 82/4/2
f 81/2/2 66/2/2 82/2/2
f 67/2/2 68/2/2 83/2/2
f 82/4/2 67/4/2 83/4/2
f 68/4/2 69/4/2 84/4/2
f 83/2/2 68/2/2 84/2/2
f 69/2/2 70/2/2 85/2/2
f 84/4/2 69/4/2 85/4/2
f 70/2/2 60/2/2 86/2/2
f 85/2/2 70/2/2 86/2/2
f 60/4/2 61/4/2 86/4/2
f 61/2/2 62/2/2 87/2/2
f 86/4/2 61/4/2 87/4/2
f 87/2/2 62/2/2 88/2/2
f 79/2/2 80/2/2 89/2/2
f 80/4/2 57/4/2 90/4/2
f 89/2/2 80/2/2 90/2/2
f 57/2/2 81/2/2 91/2/2
f 90/4/2 57/4/2 91/4/2
f 91/2/2 81/2/2 92/2/2
f 101/2/3 100/2/3 99/2/3
f 102/2/3 100/2/3 101/2/3
f 103/2/3 94/2/3 93/2/3
f 103/4/3 95/4/3 94/4/3
f 104/2/3 96/2/3 95/2/3
f 104/4/3 95/4/3 103/4/3
f 105/4/3 97/4/3 96/4/3
f 105/2/3 96/2/3 104/2/3
f 106/2/3 98/2/3 97/2/3
f 106/4/3 97/4/3 105/4/3
f 107/4/3 99/4/3 98/4/3
f 107/2/3 98/2/3 106/2/3
f 108/2/3 101/2/3 99/2/3
f 108/4/3 99/4/3 107/4/3
f 109/2/3 104/2/3 103/2/3
f 109/2/3 101/2/3 108/2/3
f 109/2/3 108/2/3 107/2/3
f 109/2/3 107/2/3 106/2/3
f 109/2/3 106/2/3 105/2/3
f 109/2/3 105/2/3 104/2/3
f 110/2/3 101/2/3 109/2/3
f 111/4/3 110/4/3 109/4/3
f 112/4/3 110/4/3 111/4/3
f 113/4/3 102/4/3 101/4/3
f 113/2/3 101/2/3 110/2/3
f 114/2/3 100/2/3 102/2/3
f 114/4/3 102/4/3 113/4/3
f 115/2/3 103/2/3 93/2/3
f 115/2/3 109/2/3 103/2/3
f 116/4/3 111/4/3 109/4/3
f 116/2/3 109/2/3 115/2/3
f 117/2/3 113/2/3 110/2/3
f 117/2/3 114/2/3 113/2/3
f 118/2/3 100/2/3 114/2/3
f 118/2/3 114/2/3 117/2/3
f 119/4/3 111/4/3 116/4/3
f 119/2/3 112/2/3 111/2/3
f 120/4/3 110/4/3 112/4/3
f 120/2/3 112/2/3 119/2/3
f 121/2/3 115/2/3 93/2/3
f 122/2/3 115/2/3 121/2/3
f 123/4/3 119/4/3 116/4/3
f 123/3/3 116/3/3 115/3/3
f 123/4/3 120/4/3 119/4/3
f 124/4/3 110/4/3 120/4/3
f 124/4/3 120/4/3 123/4/3
f 125/4/3 110/4/3 124/4/3
f 126/2/3 117/2/3 110/2/3
f 126/4/3 110/4/3 125/4/3
f 127/2/3 117/2/3 126/2/3
f 128/2/3 117/2/3 127/2/3
f 129/2/3 117/2/3 128/2/3
f 130/2/3 115/2/3 122/2/3
f 130/3/3 123/3/3 115/3/3
f 131/3/3 123/3/3 130/3/3
f 132/3/3 123/3/3 131/3/3
f 133/2/3 124/2/3 123/2/3
f 133/3/3 123/3/3 132/3/3
f 134/4/3 125/4/3 124/4/3
f 134/2/3 126/2/3 125/2/3
f 135/4/3 127/4/3 126/4/3
f 135/2/3 126/2/3 134/2/3
f 136/2/3 128/2/3 127/2/3
f 136/4/3 127/4/3 135/4/3
f 137/4/3 129/4/3 128/4/3
f 137/2/3 128/2/3 136/2/3
f 138/4/3 136/4/3 135/4/3
f 138/4/3 134/4/3 124/4/3
f 138/4/3 137/4/3 136/4/3
f 138/4/3 135/4/3 134/4/3
f 139/4/3 137/4/3 138/4/3
f 140/4/3 137/4/3 139/4/3
f 141/4/3 129/4/3 137/4/3
f 141/4/3 137/4/3 140/4/3
f 142/2/3 131/2/3 130/2/3
f 142/2/3 130/2/3 122/2/3
f 143/3/3 132/3/3 131/3/3
f 143/2/3 131/2/3 142/2/3
f 144/1/3 133/1/3 132/1/3
f 144/3/3 132/3/3 143/3/3
f 145/2/3 124/2/3 133/2/3
f 145/1/3 133/1/3 144/1/3
f 146/4/3 122/4/3 121/4/3
f 147/2/3 142/2/3 122/2/3
f 147/4/3 122/4/3 146/4/3
f 148/3/3 144/3/3 143/3/3
f 148/2/3 124/2/3 145/2/3
f 148/3/3 143/3/3 142/3/3
f 148/3/3 145/3/3 144/3/3
f 149/4/3 138/4/3 124/4/3
f 149/2/3 124/2/3 148/2/3
f 150/2/3 139/2/3 138/2/3
f 150/4/3 138/4/3 149/4/3
f 151/4/3 140/4/3 139/4/3
f 151/2/3 139/2/3 150/2/3
f 152/2/3 141/2/3 140/2/3
f 152/4/3 140/4/3 151/4/3
f 153/4/3 129/4/3 141/4/3
f 153/2/3 141/2/3 152/2/3
f 154/4/3 129/4/3 153/4/3
f 155/4/3 150/4/3 149/4/3
f 155/4/3 149/4/3 148/4/3
f 155/4/3 151/4/3 150/4/3
f 156/4/3 151/4/3 155/4/3
f 157/2/3 142/2/3 147/2/3
f 157/2/3 147/2/3 146/2/3
f 157/3/3 148/3/3 142/3/3
f 158/4/3 155/4/3 148/4/3
f 158/3/3 148/3/3 157/3/3
f 159/2/3 154/2/3 153/2/3
f 159/2/3 152/2/3 151/2/3
f 159/2/3 153/2/3 152/2/3
f 161/2/3 156/2/3 155/2/3
f 161/4/3 155/4/3 158/4/3
f 162/4/3 151/4/3 156/4/3
f 162/2/3 156/2/3 161/2/3
f 163/2/3 160/2/3 159/2/3
f 164/2/3 160/2/3 163/2/3
f 165/4/3 161/4/3 158/4/3
f 165/2/3 158/2/3 157/2/3
f 165/4/3 162/4/3 161/4/3
f 166/2/3 159/2/3 151/2/3
f 166/4/3 162/4/3 165/4/3
f 166/4/3 151/4/3 162/4/3
f 166/2/3 163/2/3 159/2/3
f 167/2/3 165/2/3 157/2/3
f 167/2/3 157/2/3 146/2/3
f 167/2/3 166/2/3 165/2/3
f 168/2/3 166/2/3 167/2/3
f 169/2/3 166/2/3 168/2/3
f 170/2/3 166/2/3 169/2/3
f 171/2/3 166/2/3 170/2/3
f 172/2/3 166/2/3 171/2/3
f 173/2/3 163/2/3 166/2/3
f 173/2/3 166/2/3 172/2/3
f 173/4/3 164/4/3 163/4/3
f 174/2/3 160/2/3 164/2/3
f 174/4/3 164/4/3 173/4/3
f 175/2/3 167/2/3 146/2/3
f 176/4/3 168/4/3 167/4/3
f 176/2/3 167/2/3 175/2/3
f 177/2/3 169/2/3 168/2/3
f 177/4/3 168/4/3 176/4/3
f 178/4/3 170/4/3 169/4/3
f 178/2/3 169/2/3 177/2/3
f 179/2/3 171/2/3 170/2/3
f 179/4/3 170/4/3 178/4/3
f 180/4/3 172/4/3 171/4/3
f 180/2/3 171/2/3 179/2/3
f 181/2/3 173/2/3 172/2/3
f 181/4/3 172/4/3 180/4/3
f 181/2/3 174/2/3 173/2/3
f 182/2/3 160/2/3 174/2/3
f 182/2/3 174/2/3 181/2/3
f 183/2/4 184/2/4 185/2/4
f 185/2/4 184/2/4 186/2/4
f 187/2/4 188/2/4 189/2/4
f 189/2/4 188/2/4 190/2/4
f 191/2/4 192/2/4 193/2/4
f 193/2/4 192/2/4 194/2/4
f 199/2/5 196/2/5 195/2/5
f 199/4/5 197/4/5 196/4/5
f 200/2/5 198/2/5 197/2/5
f 200/4/5 197/4/5 199/4/5
f 201/2/5 199/2/5 195/2/5
f 201/2/5 200/2/5 199/2/5
f 202/2/5 200/2/5 201/2/5
f 203/2/5 198/2/5 200/2/5
f 203/2/5 200/2/5 202/2/5
f 204/2/5 198/2/5 203/2/5
f 205/4/5 202/4/5 201/4/5
f 206/2/5 203/2/5 202/2/5
f 206/4/5 202/4/5 205/4/5
f 207/4/5 204/4/5 203/4/5
f 207/2/5 203/2/5 206/2/5
f 208/4/5 204/4/5 207/4/5
f 209/2/5 206/2/5 205/2/5
f 209/2/5 207/2/5 206/2/5
f 209/2/5 208/2/5 207/2/5
f 210/2/5 208/2/5 209/2/5
f 211/3/5 210/3/5 209/3/5
f 212/3/5 210/3/5 211/3/5
f 213/2/5 212/2/5 211/2/5
f 214/2/5 212/2/5 213/2/5
f 215/4/5 214/4/5 213/4/5
f 216/4/5 214/4/5 215/4/5
f 217/2/5 216/2/5 215/2/5
f 218/2/5 216/2/5 217/2/5
f 219/2/6 220/2/6 223/2/6
f 220/4/6 221/4/6 223/4/6
f 221/2/6 222/2/6 224/2/6
f 223/4/6 221/4/6 224/4/6
f 219/2/6 223/2/6 225/2/6
f 223/2/6 224/2/6 225/2/6
f 224/2/6 222/2/6 226/2/6
f 225/2/6 224/2/6 226/2/6
f 225/4/6 226/4/6 227/4/6
f 227/4/6 226/4/6 228/4/6
f 227/2/6 228/2/6 230/2/6
f 230/2/6 228/2/6 231/2/6
f 230/2/6 231/2/6 233/2/6
f 231/2/6 232/2/6 233/2/6
f 229/2/6 230/2/6 233/2/6
f 233/2/6 232/2/6 234/2/6
f 233/4/6 234/4/6 235/4/6
f 235/4/6 234/4/6 236/4/6
f 235/2/6 236/2/6 237/2/6
f 237/2/6 236/2/6 238/2/6
f 237/4/6 238/4/6 239/4/6
f 239/4/6 238/4/6 240/4/6
f 239/2/6 240/2/6 241/2/6
f 241/2/6 240/2/6 242/2/6
f 241/4/6 242/4/6 243/4/6
f 243/4/6 242/4/6 244/4/6
f 243/2/6 244/2/6 245/2/6
f 245/2/6 244/2/6 246/2/6
f 247/2/6 248/2/6 251/2/6
f 251/2/6 248/2/6 252/2/6
f 249/2/6 250/2/6 253/2/6
f 253/2/6 250/2/6 254/2/6
f 251/4/6 252/4/6 255/4/6
f 255/4/6 252/4/6 256/4/6
f 253/4/6 254/4/6 257/4/6
f 257/4/6 254/4/6 258/4/6
f 255/2/6 256/2/6 259/2/6
f 259/2/6 256/2/6 260/2/6
f 257/2/6 258/2/6 261/2/6
f 261/2/6 258/2/6 262/2/6
