# MagicaVoxel @ Ephtracy

# group
g Bear

# material
mtllib Bear.mtl
usemtl palette

# normals
vn -1 0 0
vn 1 0 0
vn 0 0 1
vn 0 0 -1
vn 0 -1 0
vn 0 1 0

# texcoords
vt 0.845703 0.5
vt 0.861328 0.5
vt 0.958984 0.5
vt 0.994141 0.5

# verts
v -20 0 20
v -20 0 -20
v -20 32 10
v -20 32 -20
v -20 40 20
v -20 40 10
v 10 32 20
v 10 32 10
v 10 40 20
v 10 40 10
v -10 32 20
v -10 32 10
v -10 40 20
v -10 40 10
v 20 0 20
v 20 0 -20
v 20 32 10
v 20 32 -20
v 20 40 20
v 20 40 10
v -20 0 20
v -20 40 20
v -18 32 20
v -18 38 20
v -15 15 20
v -15 25 20
v -12 18 20
v -12 22 20
v -12 32 20
v -12 38 20
v -11 3 20
v -11 7 20
v -10 4 20
v -10 6 20
v -10 32 20
v -10 40 20
v -9 4 20
v -9 6 20
v -8 4 20
v -8 6 20
v -8 18 20
v -8 22 20
v -7 4 20
v -7 6 20
v -6 4 20
v -6 6 20
v -5 4 20
v -5 6 20
v -5 15 20
v -5 25 20
v -4 4 20
v -4 6 20
v -3 4 20
v -3 6 20
v -2 4 20
v -2 6 20
v -2 9 20
v -2 11 20
v -1 4 20
v -1 6 20
v 0 4 20
v 0 6 20
v 1 4 20
v 1 6 20
v 2 4 20
v 2 6 20
v 2 9 20
v 2 11 20
v 3 4 20
v 3 6 20
v 4 4 20
v 4 6 20
v 5 4 20
v 5 6 20
v 5 15 20
v 5 25 20
v 6 4 20
v 6 6 20
v 7 4 20
v 7 6 20
v 8 4 20
v 8 6 20
v 8 18 20
v 8 22 20
v 9 4 20
v 9 6 20
v 10 4 20
v 10 6 20
v 10 32 20
v 10 40 20
v 11 4 20
v 11 6 20
v 12 3 20
v 12 7 20
v 12 18 20
v 12 22 20
v 12 32 20
v 12 38 20
v 15 15 20
v 15 25 20
v 18 32 20
v 18 38 20
v 20 0 20
v 20 40 20
v -20 32 10
v -20 40 10
v -10 32 10
v -10 40 10
v 10 32 10
v 10 40 10
v 20 32 10
v 20 40 10
v -20 0 -20
v -20 32 -20
v 20 0 -20
v 20 32 -20
v -20 0 20
v 20 0 20
v -20 0 -20
v 20 0 -20
v -10 32 20
v 10 32 20
v -20 32 10
v -10 32 10
v 10 32 10
v 20 32 10
v -20 32 -20
v 20 32 -20
v -20 40 20
v -10 40 20
v 10 40 20
v 20 40 20
v -20 40 10
v -10 40 10
v 10 40 10
v 20 40 10

# faces
f 3/2/1 2/2/1 1/2/1
f 4/2/1 2/2/1 3/2/1
f 5/2/1 3/2/1 1/2/1
f 6/2/1 3/2/1 5/2/1
f 9/2/1 8/2/1 7/2/1
f 10/2/1 8/2/1 9/2/1
f 11/2/2 12/2/2 13/2/2
f 13/2/2 12/2/2 14/2/2
f 15/2/2 16/2/2 17/2/2
f 17/2/2 16/2/2 18/2/2
f 15/2/2 17/2/2 19/2/2
f 19/2/2 17/2/2 20/2/2
f 23/2/3 22/2/3 21/2/3
f 24/2/3 22/2/3 23/2/3
f 25/2/3 23/2/3 21/2/3
f 26/2/3 23/2/3 25/2/3
f 27/4/3 26/4/3 25/4/3
f 28/4/3 26/4/3 27/4/3
f 29/1/3 24/1/3 23/1/3
f 29/2/3 23/2/3 26/2/3
f 30/2/3 22/2/3 24/2/3
f 30/1/3 24/1/3 29/1/3
f 31/2/3 25/2/3 21/2/3
f 32/2/3 25/2/3 31/2/3
f 33/4/3 32/4/3 31/4/3
f 34/4/3 32/4/3 33/4/3
f 35/2/3 29/2/3 26/2/3
f 35/2/3 30/2/3 29/2/3
f 36/2/3 22/2/3 30/2/3
f 36/2/3 30/2/3 35/2/3
f 37/3/3 34/3/3 33/3/3
f 37/4/3 33/4/3 31/4/3
f 38/4/3 32/4/3 34/4/3
f 38/3/3 34/3/3 37/3/3
f 39/4/3 37/4/3 31/4/3
f 39/4/3 38/4/3 37/4/3
f 40/4/3 32/4/3 38/4/3
f 40/4/3 38/4/3 39/4/3
f 41/3/3 28/3/3 27/3/3
f 41/4/3 27/4/3 25/4/3
f 42/4/3 26/4/3 28/4/3
f 42/3/3 28/3/3 41/3/3
f 43/4/3 39/4/3 31/4/3
f 43/3/3 40/3/3 39/3/3
f 44/4/3 32/4/3 40/4/3
f 44/3/3 40/3/3 43/3/3
f 45/4/3 43/4/3 31/4/3
f 45/4/3 44/4/3 43/4/3
f 46/4/3 32/4/3 44/4/3
f 46/4/3 44/4/3 45/4/3
f 47/4/3 45/4/3 31/4/3
f 47/3/3 46/3/3 45/3/3
f 48/4/3 32/4/3 46/4/3
f 48/3/3 46/3/3 47/3/3
f 49/4/3 41/4/3 25/4/3
f 49/4/3 42/4/3 41/4/3
f 49/2/3 25/2/3 32/2/3
f 50/4/3 26/4/3 42/4/3
f 50/4/3 42/4/3 49/4/3
f 50/2/3 35/2/3 26/2/3
f 51/4/3 47/4/3 31/4/3
f 51/4/3 48/4/3 47/4/3
f 52/4/3 32/4/3 48/4/3
f 52/4/3 48/4/3 51/4/3
f 53/4/3 51/4/3 31/4/3
f 53/3/3 52/3/3 51/3/3
f 54/4/3 32/4/3 52/4/3
f 54/3/3 52/3/3 53/3/3
f 55/4/3 53/4/3 31/4/3
f 55/4/3 54/4/3 53/4/3
f 56/4/3 32/4/3 54/4/3
f 56/4/3 54/4/3 55/4/3
f 57/2/3 49/2/3 32/2/3
f 57/2/3 50/2/3 49/2/3
f 58/2/3 50/2/3 57/2/3
f 59/4/3 55/4/3 31/4/3
f 59/3/3 56/3/3 55/3/3
f 60/4/3 32/4/3 56/4/3
f 60/3/3 56/3/3 59/3/3
f 61/4/3 59/4/3 31/4/3
f 61/4/3 60/4/3 59/4/3
f 62/4/3 32/4/3 60/4/3
f 62/4/3 60/4/3 61/4/3
f 63/4/3 61/4/3 31/4/3
f 63/3/3 62/3/3 61/3/3
f 64/4/3 32/4/3 62/4/3
f 64/3/3 62/3/3 63/3/3
f 65/4/3 63/4/3 31/4/3
f 65/4/3 64/4/3 63/4/3
f 66/4/3 32/4/3 64/4/3
f 66/4/3 64/4/3 65/4/3
f 67/4/3 58/4/3 57/4/3
f 67/2/3 57/2/3 32/2/3
f 68/2/3 50/2/3 58/2/3
f 68/4/3 58/4/3 67/4/3
f 69/4/3 65/4/3 31/4/3
f 69/3/3 66/3/3 65/3/3
f 70/4/3 32/4/3 66/4/3
f 70/3/3 66/3/3 69/3/3
f 71/4/3 69/4/3 31/4/3
f 71/4/3 70/4/3 69/4/3
f 72/4/3 32/4/3 70/4/3
f 72/4/3 70/4/3 71/4/3
f 73/4/3 71/4/3 31/4/3
f 73/3/3 72/3/3 71/3/3
f 74/4/3 32/4/3 72/4/3
f 74/3/3 72/3/3 73/3/3
f 75/2/3 50/2/3 68/2/3
f 75/2/3 68/2/3 67/2/3
f 76/2/3 35/2/3 50/2/3
f 76/2/3 50/2/3 75/2/3
f 77/4/3 73/4/3 31/4/3
f 77/4/3 74/4/3 73/4/3
f 78/4/3 32/4/3 74/4/3
f 78/4/3 74/4/3 77/4/3
f 79/4/3 77/4/3 31/4/3
f 79/3/3 78/3/3 77/3/3
f 80/4/3 32/4/3 78/4/3
f 80/3/3 78/3/3 79/3/3
f 81/4/3 79/4/3 31/4/3
f 81/4/3 80/4/3 79/4/3
f 82/4/3 32/4/3 80/4/3
f 82/4/3 80/4/3 81/4/3
f 83/4/3 76/4/3 75/4/3
f 84/4/3 76/4/3 83/4/3
f 85/4/3 81/4/3 31/4/3
f 85/3/3 82/3/3 81/3/3
f 86/4/3 32/4/3 82/4/3
f 86/3/3 82/3/3 85/3/3
f 87/4/3 85/4/3 31/4/3
f 87/4/3 86/4/3 85/4/3
f 88/4/3 32/4/3 86/4/3
f 88/4/3 86/4/3 87/4/3
f 89/2/3 35/2/3 76/2/3
f 91/4/3 87/4/3 31/4/3
f 91/3/3 88/3/3 87/3/3
f 92/4/3 32/4/3 88/4/3
f 92/3/3 88/3/3 91/3/3
f 93/2/3 31/2/3 21/2/3
f 93/4/3 91/4/3 31/4/3
f 93/4/3 92/4/3 91/4/3
f 94/2/3 67/2/3 32/2/3
f 94/4/3 92/4/3 93/4/3
f 94/4/3 32/4/3 92/4/3
f 94/2/3 75/2/3 67/2/3
f 95/4/3 83/4/3 75/4/3
f 95/3/3 84/3/3 83/3/3
f 96/4/3 76/4/3 84/4/3
f 96/3/3 84/3/3 95/3/3
f 97/2/3 89/2/3 76/2/3
f 97/2/3 90/2/3 89/2/3
f 98/2/3 90/2/3 97/2/3
f 99/4/3 95/4/3 75/4/3
f 99/2/3 75/2/3 94/2/3
f 99/2/3 94/2/3 93/2/3
f 99/4/3 96/4/3 95/4/3
f 100/2/3 97/2/3 76/2/3
f 100/4/3 96/4/3 99/4/3
f 100/4/3 76/4/3 96/4/3
f 101/1/3 98/1/3 97/1/3
f 101/2/3 97/2/3 100/2/3
f 101/2/3 100/2/3 99/2/3
f 102/2/3 90/2/3 98/2/3
f 102/1/3 98/1/3 101/1/3
f 103/2/3 101/2/3 99/2/3
f 103/2/3 93/2/3 21/2/3
f 103/2/3 102/2/3 101/2/3
f 103/2/3 99/2/3 93/2/3
f 104/2/3 90/2/3 102/2/3
f 104/2/3 102/2/3 103/2/3
f 105/2/4 106/2/4 107/2/4
f 107/2/4 106/2/4 108/2/4
f 109/2/4 110/2/4 111/2/4
f 111/2/4 110/2/4 112/2/4
f 113/2/4 114/2/4 115/2/4
f 115/2/4 114/2/4 116/2/4
f 119/2/5 118/2/5 117/2/5
f 120/2/5 118/2/5 119/2/5
f 121/2/6 122/2/6 124/2/6
f 124/2/6 122/2/6 125/2/6
f 123/2/6 124/2/6 127/2/6
f 125/2/6 126/2/6 127/2/6
f 124/2/6 125/2/6 127/2/6
f 127/2/6 126/2/6 128/2/6
f 129/2/6 130/2/6 133/2/6
f 133/2/6 130/2/6 134/2/6
f 131/2/6 132/2/6 135/2/6
f 135/2/6 132/2/6 136/2/6
