# MagicaVoxel @ Ephtracy

# group
g Zebra

# material
mtllib Zebra.mtl
usemtl palette

# normals
vn -1 0 0
vn 1 0 0
vn 0 0 1
vn 0 0 -1
vn 0 -1 0
vn 0 1 0

# texcoords
vt 0.958984 0.5
vt 0.986328 0.5
vt 0.994141 0.5

# verts
v -20 0 10
v -20 0 9
v -20 0 7
v -20 0 5
v -20 0 2
v -20 0 -0
v -20 0 -3
v -20 0 -5
v -20 0 -8
v -20 0 -10
v -20 0 -13
v -20 0 -15
v -20 0 -18
v -20 0 -20
v -20 20 10
v -20 20 9
v -20 20 7
v -20 20 5
v -20 20 2
v -20 20 -0
v -20 20 -3
v -20 20 -5
v -20 20 -8
v -20 20 -10
v -20 20 -13
v -20 20 -15
v -20 20 -18
v -20 20 -20
v -15 20 20
v -15 20 17
v -15 20 15
v -15 20 12
v -15 20 10
v -15 20 9
v -15 20 7
v -15 20 5
v -15 20 2
v -15 20 -0
v -15 20 -3
v -15 20 -5
v -15 25 20
v -15 25 17
v -15 25 15
v -15 25 12
v -15 25 10
v -15 25 7
v -15 32 20
v -15 32 17
v -15 34 20
v -15 34 17
v -15 40 20
v -15 40 17
v -15 40 15
v -15 40 12
v -15 40 10
v -15 40 7
v -15 40 5
v -15 40 2
v -15 40 -0
v -15 40 -3
v -15 40 -5
v 10 0 10
v 10 0 9
v 10 0 7
v 10 0 5
v 10 10 10
v 10 10 9
v 10 10 7
v 10 10 5
v -10 0 10
v -10 0 5
v -10 10 10
v -10 10 5
v 15 20 20
v 15 20 17
v 15 20 15
v 15 20 12
v 15 20 10
v 15 20 9
v 15 20 7
v 15 20 5
v 15 20 2
v 15 20 -0
v 15 20 -3
v 15 20 -5
v 15 25 20
v 15 25 17
v 15 25 15
v 15 25 12
v 15 25 10
v 15 25 7
v 15 32 20
v 15 32 17
v 15 34 20
v 15 34 17
v 15 40 20
v 15 40 17
v 15 40 15
v 15 40 12
v 15 40 10
v 15 40 7
v 15 40 5
v 15 40 2
v 15 40 -0
v 15 40 -3
v 15 40 -5
v 20 0 10
v 20 0 9
v 20 0 7
v 20 0 5
v 20 0 2
v 20 0 -0
v 20 0 -3
v 20 0 -5
v 20 0 -8
v 20 0 -10
v 20 0 -13
v 20 0 -15
v 20 0 -18
v 20 0 -20
v 20 20 10
v 20 20 9
v 20 20 7
v 20 20 5
v 20 20 2
v 20 20 -0
v 20 20 -3
v 20 20 -5
v 20 20 -8
v 20 20 -10
v 20 20 -13
v 20 20 -15
v 20 20 -18
v 20 20 -20
v -15 20 20
v -15 25 20
v -15 32 20
v -15 34 20
v -15 40 20
v -13 28 20
v -13 32 20
v -13 34 20
v -13 38 20
v -10 31 20
v -10 35 20
v -6 31 20
v -6 35 20
v -4 24 20
v -4 25 20
v -3 28 20
v -3 32 20
v -3 34 20
v -3 38 20
v -2 23 20
v -2 24 20
v -1 23 20
v -1 25 20
v 1 23 20
v 1 25 20
v 2 23 20
v 2 24 20
v 3 28 20
v 3 32 20
v 3 34 20
v 3 38 20
v 4 24 20
v 4 25 20
v 6 31 20
v 6 35 20
v 10 31 20
v 10 35 20
v 13 28 20
v 13 32 20
v 13 34 20
v 13 38 20
v 15 20 20
v 15 25 20
v 15 32 20
v 15 34 20
v 15 40 20
v -20 0 10
v -20 20 10
v -19 0 10
v -19 20 10
v -16 0 10
v -16 20 10
v -15 20 10
v -14 0 10
v -14 20 10
v -11 0 10
v -11 20 10
v -10 0 10
v -10 10 10
v -9 10 10
v -9 20 10
v -6 10 10
v -6 20 10
v -4 10 10
v -4 20 10
v -1 10 10
v -1 20 10
v 1 10 10
v 1 20 10
v 4 10 10
v 4 20 10
v 6 10 10
v 6 20 10
v 9 10 10
v 9 20 10
v 10 0 10
v 10 10 10
v 11 0 10
v 11 20 10
v 14 0 10
v 14 20 10
v 15 20 10
v 16 0 10
v 16 20 10
v 19 0 10
v 19 20 10
v 20 0 10
v 20 20 10
v -10 0 5
v -10 10 5
v -9 0 5
v -9 10 5
v 10 0 5
v 10 10 5
v -15 20 -5
v -15 40 -5
v -13 22 -5
v -13 26 -5
v -13 28 -5
v -13 33 -5
v -13 35 -5
v -13 38 -5
v 13 22 -5
v 13 26 -5
v 13 28 -5
v 13 33 -5
v 13 35 -5
v 13 38 -5
v 15 20 -5
v 15 40 -5
v -20 0 -20
v -20 20 -20
v -18 2 -20
v -18 6 -20
v -18 8 -20
v -18 13 -20
v -18 15 -20
v -18 19 -20
v 19 2 -20
v 19 6 -20
v 19 8 -20
v 19 13 -20
v 19 15 -20
v 19 19 -20
v 20 0 -20
v 20 20 -20
v -20 0 10
v -19 0 10
v -16 0 10
v -14 0 10
v -11 0 10
v -10 0 10
v 10 0 10
v 11 0 10
v 14 0 10
v 16 0 10
v 19 0 10
v 20 0 10
v -20 0 9
v -19 0 9
v -16 0 9
v -14 0 9
v 10 0 9
v 11 0 9
v 14 0 9
v 16 0 9
v 19 0 9
v 20 0 9
v -20 0 7
v -11 0 7
v 10 0 7
v 20 0 7
v -20 0 5
v -11 0 5
v -10 0 5
v -9 0 5
v 10 0 5
v 20 0 5
v -11 0 4
v -9 0 4
v -20 0 2
v -15 0 2
v 15 0 2
v 20 0 2
v -20 0 -0
v -15 0 -0
v 15 0 -0
v 20 0 -0
v -20 0 -3
v 20 0 -3
v -20 0 -5
v 20 0 -5
v -20 0 -8
v 20 0 -8
v -20 0 -10
v 20 0 -10
v -20 0 -13
v 20 0 -13
v -20 0 -15
v 20 0 -15
v -20 0 -18
v 20 0 -18
v -20 0 -20
v 20 0 -20
v -10 10 10
v -9 10 10
v -6 10 10
v -4 10 10
v -1 10 10
v 1 10 10
v 4 10 10
v 6 10 10
v 9 10 10
v 10 10 10
v -6 10 9
v -4 10 9
v -1 10 9
v 1 10 9
v 4 10 9
v 6 10 9
v 9 10 9
v 10 10 9
v 10 10 7
v -10 10 5
v -9 10 5
v 10 10 5
v -15 20 20
v 15 20 20
v -15 20 17
v 15 20 17
v -15 20 15
v 15 20 15
v -15 20 12
v 15 20 12
v -15 20 10
v -14 20 10
v -11 20 10
v -9 20 10
v -6 20 10
v -4 20 10
v -1 20 10
v 1 20 10
v 4 20 10
v 6 20 10
v 9 20 10
v 11 20 10
v 14 20 10
v 15 20 10
v -20 20 10
v -19 20 10
v -16 20 10
v -15 20 10
v 15 20 10
v 16 20 10
v 19 20 10
v 20 20 10
v -20 20 9
v -19 20 9
v -16 20 9
v -15 20 9
v 15 20 9
v 16 20 9
v 19 20 9
v 20 20 9
v -20 20 7
v -15 20 7
v 15 20 7
v 20 20 7
v -20 20 5
v -15 20 5
v 15 20 5
v 20 20 5
v -20 20 2
v -15 20 2
v 15 20 2
v 20 20 2
v -20 20 -0
v -15 20 -0
v 15 20 -0
v 20 20 -0
v -20 20 -3
v -15 20 -3
v 15 20 -3
v 20 20 -3
v -20 20 -5
v -15 20 -5
v 15 20 -5
v 20 20 -5
v -20 20 -8
v 20 20 -8
v -20 20 -10
v 20 20 -10
v -20 20 -13
v 20 20 -13
v -20 20 -15
v 20 20 -15
v -20 20 -18
v 20 20 -18
v -20 20 -20
v 20 20 -20
v -15 40 20
v 15 40 20
v -15 40 17
v 15 40 17
v -15 40 15
v 15 40 15
v -15 40 12
v 15 40 12
v -15 40 10
v 15 40 10
v -15 40 7
v 15 40 7
v -15 40 5
v 15 40 5
v -15 40 2
v 15 40 2
v -15 40 -0
v 15 40 -0
v -15 40 -3
v 15 40 -3
v -15 40 -5
v 15 40 -5

# faces
f 15/3/1 2/3/1 1/3/1
f 16/1/1 3/1/1 2/1/1
f 16/3/1 2/3/1 15/3/1
f 17/3/1 4/3/1 3/3/1
f 17/1/1 3/1/1 16/1/1
f 18/1/1 5/1/1 4/1/1
f 18/3/1 4/3/1 17/3/1
f 19/3/1 6/3/1 5/3/1
f 19/1/1 5/1/1 18/1/1
f 20/1/1 7/1/1 6/1/1
f 20/3/1 6/3/1 19/3/1
f 21/3/1 8/3/1 7/3/1
f 21/1/1 7/1/1 20/1/1
f 22/1/1 9/1/1 8/1/1
f 22/3/1 8/3/1 21/3/1
f 23/3/1 10/3/1 9/3/1
f 23/1/1 9/1/1 22/1/1
f 24/1/1 11/1/1 10/1/1
f 24/3/1 10/3/1 23/3/1
f 25/3/1 12/3/1 11/3/1
f 25/1/1 11/1/1 24/1/1
f 26/1/1 13/1/1 12/1/1
f 26/3/1 12/3/1 25/3/1
f 27/3/1 14/3/1 13/3/1
f 27/1/1 13/1/1 26/1/1
f 28/3/1 14/3/1 27/3/1
f 41/2/1 30/2/1 29/2/1
f 42/3/1 31/3/1 30/3/1
f 42/2/1 30/2/1 41/2/1
f 43/2/1 32/2/1 31/2/1
f 43/3/1 31/3/1 42/3/1
f 44/3/1 33/3/1 32/3/1
f 44/2/1 32/2/1 43/2/1
f 45/2/1 34/2/1 33/2/1
f 45/3/1 33/3/1 44/3/1
f 45/2/1 35/2/1 34/2/1
f 46/3/1 36/3/1 35/3/1
f 46/2/1 35/2/1 45/2/1
f 47/1/1 42/1/1 41/1/1
f 48/3/1 43/3/1 42/3/1
f 48/1/1 42/1/1 47/1/1
f 49/3/1 48/3/1 47/3/1
f 50/3/1 43/3/1 48/3/1
f 50/3/1 48/3/1 49/3/1
f 51/1/1 50/1/1 49/1/1
f 52/3/1 43/3/1 50/3/1
f 52/1/1 50/1/1 51/1/1
f 53/1/1 44/1/1 43/1/1
f 53/3/1 43/3/1 52/3/1
f 54/3/1 45/3/1 44/3/1
f 54/1/1 44/1/1 53/1/1
f 55/1/1 46/1/1 45/1/1
f 55/3/1 45/3/1 54/3/1
f 56/3/1 36/3/1 46/3/1
f 56/1/1 46/1/1 55/1/1
f 57/1/1 37/1/1 36/1/1
f 57/3/1 36/3/1 56/3/1
f 58/3/1 38/3/1 37/3/1
f 58/1/1 37/1/1 57/1/1
f 59/1/1 39/1/1 38/1/1
f 59/3/1 38/3/1 58/3/1
f 60/3/1 40/3/1 39/3/1
f 60/1/1 39/1/1 59/1/1
f 61/3/1 40/3/1 60/3/1
f 66/3/1 63/3/1 62/3/1
f 67/1/1 64/1/1 63/1/1
f 67/3/1 63/3/1 66/3/1
f 68/3/1 65/3/1 64/3/1
f 68/1/1 64/1/1 67/1/1
f 69/3/1 65/3/1 68/3/1
f 70/3/2 71/3/2 72/3/2
f 72/3/2 71/3/2 73/3/2
f 74/2/2 75/2/2 86/2/2
f 75/3/2 76/3/2 87/3/2
f 86/2/2 75/2/2 87/2/2
f 76/2/2 77/2/2 88/2/2
f 87/3/2 76/3/2 88/3/2
f 77/3/2 78/3/2 89/3/2
f 88/2/2 77/2/2 89/2/2
f 78/2/2 79/2/2 90/2/2
f 89/3/2 78/3/2 90/3/2
f 79/2/2 80/2/2 90/2/2
f 80/3/2 81/3/2 91/3/2
f 90/2/2 80/2/2 91/2/2
f 86/1/2 87/1/2 92/1/2
f 87/3/2 88/3/2 93/3/2
f 92/1/2 87/1/2 93/1/2
f 92/3/2 93/3/2 94/3/2
f 93/3/2 88/3/2 95/3/2
f 94/3/2 93/3/2 95/3/2
f 94/1/2 95/1/2 96/1/2
f 95/3/2 88/3/2 97/3/2
f 96/1/2 95/1/2 97/1/2
f 88/1/2 89/1/2 98/1/2
f 97/3/2 88/3/2 98/3/2
f 89/3/2 90/3/2 99/3/2
f 98/1/2 89/1/2 99/1/2
f 90/1/2 91/1/2 100/1/2
f 99/3/2 90/3/2 100/3/2
f 91/3/2 81/3/2 101/3/2
f 100/1/2 91/1/2 101/1/2
f 81/1/2 82/1/2 102/1/2
f 101/3/2 81/3/2 102/3/2
f 82/3/2 83/3/2 103/3/2
f 102/1/2 82/1/2 103/1/2
f 83/1/2 84/1/2 104/1/2
f 103/3/2 83/3/2 104/3/2
f 84/3/2 85/3/2 105/3/2
f 104/1/2 84/1/2 105/1/2
f 105/3/2 85/3/2 106/3/2
f 107/3/2 108/3/2 121/3/2
f 108/1/2 109/1/2 122/1/2
f 121/3/2 108/3/2 122/3/2
f 109/3/2 110/3/2 123/3/2
f 122/1/2 109/1/2 123/1/2
f 110/1/2 111/1/2 124/1/2
f 123/3/2 110/3/2 124/3/2
f 111/3/2 112/3/2 125/3/2
f 124/1/2 111/1/2 125/1/2
f 112/1/2 113/1/2 126/1/2
f 125/3/2 112/3/2 126/3/2
f 113/3/2 114/3/2 127/3/2
f 126/1/2 113/1/2 127/1/2
f 114/1/2 115/1/2 128/1/2
f 127/3/2 114/3/2 128/3/2
f 115/3/2 116/3/2 129/3/2
f 128/1/2 115/1/2 129/1/2
f 116/1/2 117/1/2 130/1/2
f 129/3/2 116/3/2 130/3/2
f 117/3/2 118/3/2 131/3/2
f 130/1/2 117/1/2 131/1/2
f 118/1/2 119/1/2 132/1/2
f 131/3/2 118/3/2 132/3/2
f 119/3/2 120/3/2 133/3/2
f 132/1/2 119/1/2 133/1/2
f 133/3/2 120/3/2 134/3/2
f 140/1/3 137/1/3 136/1/3
f 141/3/3 138/3/3 137/3/3
f 141/1/3 137/1/3 140/1/3
f 142/1/3 139/1/3 138/1/3
f 142/3/3 138/3/3 141/3/3
f 143/1/3 139/1/3 142/1/3
f 144/3/3 141/3/3 140/3/3
f 144/3/3 142/3/3 141/3/3
f 144/3/3 143/3/3 142/3/3
f 145/3/3 143/3/3 144/3/3
f 146/3/3 144/3/3 140/3/3
f 146/1/3 145/1/3 144/1/3
f 147/3/3 143/3/3 145/3/3
f 147/1/3 145/1/3 146/1/3
f 148/2/3 136/2/3 135/2/3
f 149/1/3 140/1/3 136/1/3
f 149/2/3 136/2/3 148/2/3
f 150/3/3 146/3/3 140/3/3
f 150/1/3 140/1/3 149/1/3
f 150/3/3 147/3/3 146/3/3
f 151/3/3 147/3/3 150/3/3
f 152/3/3 147/3/3 151/3/3
f 153/3/3 143/3/3 147/3/3
f 153/3/3 147/3/3 152/3/3
f 153/1/3 139/1/3 143/1/3
f 154/2/3 148/2/3 135/2/3
f 155/3/3 149/3/3 148/3/3
f 155/2/3 148/2/3 154/2/3
f 156/2/3 154/2/3 135/2/3
f 156/3/3 155/3/3 154/3/3
f 157/1/3 151/1/3 150/1/3
f 157/3/3 155/3/3 156/3/3
f 157/3/3 149/3/3 155/3/3
f 157/1/3 150/1/3 149/1/3
f 158/2/3 156/2/3 135/2/3
f 158/2/3 157/2/3 156/2/3
f 159/1/3 151/1/3 157/1/3
f 159/2/3 157/2/3 158/2/3
f 160/2/3 158/2/3 135/2/3
f 160/3/3 159/3/3 158/3/3
f 161/3/3 159/3/3 160/3/3
f 162/1/3 151/1/3 159/1/3
f 163/3/3 152/3/3 151/3/3
f 163/1/3 151/1/3 162/1/3
f 164/1/3 153/1/3 152/1/3
f 164/3/3 152/3/3 163/3/3
f 165/1/3 139/1/3 153/1/3
f 165/1/3 153/1/3 164/1/3
f 166/3/3 159/3/3 161/3/3
f 166/2/3 161/2/3 160/2/3
f 167/1/3 162/1/3 159/1/3
f 167/3/3 159/3/3 166/3/3
f 168/3/3 164/3/3 163/3/3
f 168/3/3 163/3/3 162/3/3
f 168/3/3 165/3/3 164/3/3
f 169/3/3 165/3/3 168/3/3
f 170/3/3 168/3/3 162/3/3
f 170/1/3 169/1/3 168/1/3
f 171/3/3 165/3/3 169/3/3
f 171/1/3 169/1/3 170/1/3
f 172/1/3 162/1/3 167/1/3
f 172/3/3 170/3/3 162/3/3
f 172/3/3 171/3/3 170/3/3
f 173/3/3 171/3/3 172/3/3
f 174/3/3 171/3/3 173/3/3
f 175/1/3 139/1/3 165/1/3
f 175/3/3 171/3/3 174/3/3
f 175/3/3 165/3/3 171/3/3
f 176/2/3 166/2/3 160/2/3
f 176/2/3 167/2/3 166/2/3
f 176/2/3 160/2/3 135/2/3
f 177/1/3 173/1/3 172/1/3
f 177/2/3 167/2/3 176/2/3
f 177/1/3 172/1/3 167/1/3
f 178/3/3 174/3/3 173/3/3
f 178/1/3 173/1/3 177/1/3
f 179/1/3 175/1/3 174/1/3
f 179/3/3 174/3/3 178/3/3
f 180/1/3 139/1/3 175/1/3
f 180/1/3 175/1/3 179/1/3
f 183/3/3 182/3/3 181/3/3
f 184/3/3 182/3/3 183/3/3
f 185/1/3 184/1/3 183/1/3
f 186/1/3 184/1/3 185/1/3
f 187/3/3 186/3/3 185/3/3
f 188/3/3 187/3/3 185/3/3
f 189/3/3 187/3/3 188/3/3
f 190/1/3 189/1/3 188/1/3
f 191/1/3 189/1/3 190/1/3
f 192/3/3 191/3/3 190/3/3
f 193/3/3 191/3/3 192/3/3
f 194/3/3 191/3/3 193/3/3
f 195/3/3 191/3/3 194/3/3
f 196/1/3 195/1/3 194/1/3
f 197/1/3 195/1/3 196/1/3
f 198/3/3 197/3/3 196/3/3
f 199/3/3 197/3/3 198/3/3
f 200/1/3 199/1/3 198/1/3
f 201/1/3 199/1/3 200/1/3
f 202/3/3 201/3/3 200/3/3
f 203/3/3 201/3/3 202/3/3
f 204/1/3 203/1/3 202/1/3
f 205/1/3 203/1/3 204/1/3
f 206/3/3 205/3/3 204/3/3
f 207/3/3 205/3/3 206/3/3
f 208/1/3 207/1/3 206/1/3
f 209/1/3 207/1/3 208/1/3
f 211/3/3 209/3/3 208/3/3
f 212/3/3 211/3/3 210/3/3
f 213/3/3 209/3/3 211/3/3
f 213/3/3 211/3/3 212/3/3
f 214/1/3 213/1/3 212/1/3
f 215/1/3 213/1/3 214/1/3
f 216/3/3 215/3/3 214/3/3
f 217/3/3 216/3/3 214/3/3
f 218/3/3 216/3/3 217/3/3
f 219/1/3 218/1/3 217/1/3
f 220/1/3 218/1/3 219/1/3
f 221/3/3 220/3/3 219/3/3
f 222/3/3 220/3/3 221/3/3
f 225/3/3 224/3/3 223/3/3
f 226/3/3 224/3/3 225/3/3
f 227/1/3 226/1/3 225/1/3
f 228/1/3 226/1/3 227/1/3
f 229/3/4 230/3/4 231/3/4
f 231/3/4 230/3/4 232/3/4
f 232/3/4 230/3/4 233/3/4
f 233/3/4 230/3/4 234/3/4
f 234/3/4 230/3/4 235/3/4
f 235/3/4 230/3/4 236/3/4
f 229/3/4 231/3/4 237/3/4
f 231/1/4 232/1/4 237/1/4
f 232/3/4 233/3/4 238/3/4
f 237/1/4 232/1/4 238/1/4
f 233/1/4 234/1/4 239/1/4
f 238/3/4 233/3/4 239/3/4
f 234/3/4 235/3/4 240/3/4
f 239/1/4 234/1/4 240/1/4
f 235/1/4 236/1/4 241/1/4
f 240/3/4 235/3/4 241/3/4
f 236/3/4 230/3/4 242/3/4
f 241/1/4 236/1/4 242/1/4
f 240/3/4 241/3/4 243/3/4
f 239/3/4 240/3/4 243/3/4
f 241/3/4 242/3/4 243/3/4
f 238/3/4 239/3/4 243/3/4
f 237/3/4 238/3/4 243/3/4
f 229/3/4 237/3/4 243/3/4
f 242/3/4 230/3/4 244/3/4
f 243/3/4 242/3/4 244/3/4
f 245/3/4 246/3/4 247/3/4
f 247/3/4 246/3/4 248/3/4
f 248/3/4 246/3/4 249/3/4
f 249/3/4 246/3/4 250/3/4
f 250/3/4 246/3/4 251/3/4
f 251/3/4 246/3/4 252/3/4
f 245/3/4 247/3/4 253/3/4
f 247/1/4 248/1/4 253/1/4
f 248/3/4 249/3/4 254/3/4
f 253/1/4 248/1/4 254/1/4
f 249/1/4 250/1/4 255/1/4
f 254/3/4 249/3/4 255/3/4
f 250/3/4 251/3/4 256/3/4
f 255/1/4 250/1/4 256/1/4
f 251/1/4 252/1/4 257/1/4
f 256/3/4 251/3/4 257/3/4
f 252/3/4 246/3/4 258/3/4
f 257/1/4 252/1/4 258/1/4
f 256/3/4 257/3/4 259/3/4
f 255/3/4 256/3/4 259/3/4
f 257/3/4 258/3/4 259/3/4
f 254/3/4 255/3/4 259/3/4
f 253/3/4 254/3/4 259/3/4
f 245/3/4 253/3/4 259/3/4
f 258/3/4 246/3/4 260/3/4
f 259/3/4 258/3/4 260/3/4
f 273/3/5 262/3/5 261/3/5
f 274/1/5 263/1/5 262/1/5
f 274/3/5 262/3/5 273/3/5
f 275/3/5 264/3/5 263/3/5
f 275/1/5 263/1/5 274/1/5
f 276/1/5 265/1/5 264/1/5
f 276/3/5 264/3/5 275/3/5
f 277/3/5 268/3/5 267/3/5
f 278/1/5 269/1/5 268/1/5
f 278/3/5 268/3/5 277/3/5
f 279/3/5 270/3/5 269/3/5
f 279/1/5 269/1/5 278/1/5
f 280/1/5 271/1/5 270/1/5
f 280/3/5 270/3/5 279/3/5
f 281/3/5 272/3/5 271/3/5
f 281/1/5 271/1/5 280/1/5
f 282/3/5 272/3/5 281/3/5
f 283/1/5 274/1/5 273/1/5
f 283/1/5 275/1/5 274/1/5
f 283/1/5 276/1/5 275/1/5
f 284/3/5 266/3/5 265/3/5
f 284/1/5 276/1/5 283/1/5
f 284/1/5 265/1/5 276/1/5
f 285/1/5 280/1/5 279/1/5
f 285/1/5 282/1/5 281/1/5
f 285/1/5 281/1/5 280/1/5
f 285/1/5 279/1/5 278/1/5
f 285/1/5 278/1/5 277/1/5
f 286/1/5 282/1/5 285/1/5
f 287/3/5 284/3/5 283/3/5
f 288/3/5 266/3/5 284/3/5
f 288/3/5 284/3/5 287/3/5
f 289/3/5 266/3/5 288/3/5
f 291/3/5 286/3/5 285/3/5
f 292/3/5 286/3/5 291/3/5
f 293/3/5 290/3/5 289/3/5
f 293/1/5 288/1/5 287/1/5
f 293/3/5 289/3/5 288/3/5
f 294/1/5 292/1/5 291/1/5
f 294/3/5 290/3/5 293/3/5
f 294/1/5 291/1/5 290/1/5
f 295/1/5 293/1/5 287/1/5
f 295/1/5 294/1/5 293/1/5
f 296/1/5 294/1/5 295/1/5
f 297/1/5 292/1/5 294/1/5
f 297/1/5 294/1/5 296/1/5
f 298/1/5 292/1/5 297/1/5
f 299/3/5 296/3/5 295/3/5
f 300/1/5 297/1/5 296/1/5
f 300/3/5 296/3/5 299/3/5
f 301/3/5 298/3/5 297/3/5
f 301/1/5 297/1/5 300/1/5
f 302/3/5 298/3/5 301/3/5
f 303/1/5 300/1/5 299/1/5
f 303/1/5 301/1/5 300/1/5
f 303/1/5 302/1/5 301/1/5
f 304/1/5 302/1/5 303/1/5
f 305/3/5 304/3/5 303/3/5
f 306/3/5 304/3/5 305/3/5
f 307/1/5 306/1/5 305/1/5
f 308/1/5 306/1/5 307/1/5
f 309/3/5 308/3/5 307/3/5
f 310/3/5 308/3/5 309/3/5
f 311/1/5 310/1/5 309/1/5
f 312/1/5 310/1/5 311/1/5
f 313/3/5 312/3/5 311/3/5
f 314/3/5 312/3/5 313/3/5
f 315/1/5 314/1/5 313/1/5
f 316/1/5 314/1/5 315/1/5
f 317/3/5 316/3/5 315/3/5
f 318/3/5 316/3/5 317/3/5
f 329/1/5 321/1/5 320/1/5
f 329/3/5 322/3/5 321/3/5
f 330/1/5 323/1/5 322/1/5
f 330/3/5 322/3/5 329/3/5
f 331/3/5 324/3/5 323/3/5
f 331/1/5 323/1/5 330/1/5
f 332/1/5 325/1/5 324/1/5
f 332/3/5 324/3/5 331/3/5
f 333/3/5 326/3/5 325/3/5
f 333/1/5 325/1/5 332/1/5
f 334/1/5 327/1/5 326/1/5
f 334/3/5 326/3/5 333/3/5
f 335/3/5 328/3/5 327/3/5
f 335/1/5 327/1/5 334/1/5
f 336/3/5 328/3/5 335/3/5
f 337/1/5 334/1/5 333/1/5
f 337/1/5 333/1/5 332/1/5
f 337/1/5 336/1/5 335/1/5
f 337/1/5 335/1/5 334/1/5
f 337/1/5 332/1/5 331/1/5
f 337/1/5 331/1/5 330/1/5
f 337/1/5 330/1/5 329/1/5
f 338/3/5 320/3/5 319/3/5
f 339/1/5 329/1/5 320/1/5
f 339/3/5 320/3/5 338/3/5
f 339/1/5 337/1/5 329/1/5
f 340/1/5 337/1/5 339/1/5
f 343/2/5 342/2/5 341/2/5
f 344/2/5 342/2/5 343/2/5
f 345/3/5 344/3/5 343/3/5
f 346/3/5 344/3/5 345/3/5
f 347/2/5 346/2/5 345/2/5
f 348/2/5 346/2/5 347/2/5
f 349/3/5 348/3/5 347/3/5
f 350/3/5 348/3/5 349/3/5
f 351/3/5 348/3/5 350/3/5
f 352/3/5 348/3/5 351/3/5
f 353/3/5 348/3/5 352/3/5
f 354/3/5 348/3/5 353/3/5
f 355/3/5 348/3/5 354/3/5
f 356/3/5 348/3/5 355/3/5
f 357/3/5 348/3/5 356/3/5
f 358/3/5 348/3/5 357/3/5
f 359/3/5 348/3/5 358/3/5
f 360/3/5 348/3/5 359/3/5
f 361/3/5 348/3/5 360/3/5
f 362/3/5 348/3/5 361/3/5
f 363/3/6 364/3/6 371/3/6
f 364/1/6 365/1/6 372/1/6
f 371/3/6 364/3/6 372/3/6
f 365/3/6 366/3/6 373/3/6
f 372/1/6 365/1/6 373/1/6
f 373/3/6 366/3/6 374/3/6
f 367/3/6 368/3/6 375/3/6
f 368/1/6 369/1/6 376/1/6
f 375/3/6 368/3/6 376/3/6
f 369/3/6 370/3/6 377/3/6
f 376/1/6 369/1/6 377/1/6
f 377/3/6 370/3/6 378/3/6
f 371/1/6 372/1/6 379/1/6
f 373/1/6 374/1/6 379/1/6
f 372/1/6 373/1/6 379/1/6
f 379/1/6 374/1/6 380/1/6
f 375/1/6 376/1/6 381/1/6
f 377/1/6 378/1/6 381/1/6
f 376/1/6 377/1/6 381/1/6
f 381/1/6 378/1/6 382/1/6
f 379/3/6 380/3/6 383/3/6
f 383/3/6 380/3/6 384/3/6
f 381/3/6 382/3/6 385/3/6
f 385/3/6 382/3/6 386/3/6
f 383/1/6 384/1/6 387/1/6
f 387/1/6 384/1/6 388/1/6
f 385/1/6 386/1/6 389/1/6
f 389/1/6 386/1/6 390/1/6
f 387/3/6 388/3/6 391/3/6
f 391/3/6 388/3/6 392/3/6
f 389/3/6 390/3/6 393/3/6
f 393/3/6 390/3/6 394/3/6
f 391/1/6 392/1/6 395/1/6
f 395/1/6 392/1/6 396/1/6
f 393/1/6 394/1/6 397/1/6
f 397/1/6 394/1/6 398/1/6
f 395/3/6 396/3/6 399/3/6
f 399/3/6 396/3/6 400/3/6
f 397/3/6 398/3/6 401/3/6
f 401/3/6 398/3/6 402/3/6
f 399/1/6 400/1/6 403/1/6
f 400/1/6 401/1/6 403/1/6
f 401/1/6 402/1/6 403/1/6
f 403/1/6 402/1/6 404/1/6
f 403/3/6 404/3/6 405/3/6
f 405/3/6 404/3/6 406/3/6
f 405/1/6 406/1/6 407/1/6
f 407/1/6 406/1/6 408/1/6
f 407/3/6 408/3/6 409/3/6
f 409/3/6 408/3/6 410/3/6
f 409/1/6 410/1/6 411/1/6
f 411/1/6 410/1/6 412/1/6
f 411/3/6 412/3/6 413/3/6
f 413/3/6 412/3/6 414/3/6
f 415/1/6 416/1/6 417/1/6
f 417/1/6 416/1/6 418/1/6
f 417/3/6 418/3/6 419/3/6
f 419/3/6 418/3/6 420/3/6
f 419/1/6 420/1/6 421/1/6
f 421/1/6 420/1/6 422/1/6
f 421/3/6 422/3/6 423/3/6
f 423/3/6 422/3/6 424/3/6
f 423/1/6 424/1/6 425/1/6
f 425/1/6 424/1/6 426/1/6
f 425/3/6 426/3/6 427/3/6
f 427/3/6 426/3/6 428/3/6
f 427/1/6 428/1/6 429/1/6
f 429/1/6 428/1/6 430/1/6
f 429/3/6 430/3/6 431/3/6
f 431/3/6 430/3/6 432/3/6
f 431/1/6 432/1/6 433/1/6
f 433/1/6 432/1/6 434/1/6
f 433/3/6 434/3/6 435/3/6
f 435/3/6 434/3/6 436/3/6
