# MagicaVoxel @ Ephtracy

# group
g Cat

# material
mtllib Cat.mtl
usemtl palette

# normals
vn -1 0 0
vn 1 0 0
vn 0 0 1
vn 0 0 -1
vn 0 -1 0
vn 0 1 0

# texcoords
vt 0.193359 0.5
vt 0.310547 0.5
vt 0.958984 0.5
vt 0.986328 0.5
vt 0.994141 0.5

# verts
v -20 0 20
v -20 0 10
v -20 0 -10
v -20 0 -20
v -20 5 10
v -20 5 -10
v -20 30 10
v -20 30 -20
v -20 40 20
v -20 40 10
v 10 30 20
v 10 30 10
v 10 40 20
v 10 40 10
v -10 30 20
v -10 30 10
v -10 40 20
v -10 40 10
v 20 0 20
v 20 0 10
v 20 0 -10
v 20 0 -20
v 20 5 10
v 20 5 -10
v 20 30 10
v 20 30 -20
v 20 40 20
v 20 40 10
v -20 0 20
v -20 40 20
v -18 32 20
v -18 38 20
v -16 9 20
v -16 10 20
v -16 12 20
v -16 13 20
v -15 15 20
v -15 25 20
v -12 18 20
v -12 22 20
v -12 32 20
v -12 38 20
v -10 5 20
v -10 9 20
v -10 10 20
v -10 12 20
v -10 13 20
v -10 15 20
v -10 30 20
v -10 40 20
v -9 9 20
v -9 10 20
v -9 12 20
v -9 13 20
v -8 18 20
v -8 22 20
v -5 15 20
v -5 25 20
v -3 5 20
v -3 7 20
v -3 11 20
v -3 15 20
v 3 5 20
v 3 7 20
v 3 11 20
v 3 15 20
v 5 15 20
v 5 25 20
v 8 18 20
v 8 22 20
v 9 9 20
v 9 10 20
v 9 12 20
v 9 13 20
v 10 5 20
v 10 9 20
v 10 10 20
v 10 12 20
v 10 13 20
v 10 15 20
v 10 30 20
v 10 40 20
v 12 18 20
v 12 22 20
v 12 32 20
v 12 38 20
v 15 15 20
v 15 25 20
v 16 9 20
v 16 10 20
v 16 12 20
v 16 13 20
v 18 32 20
v 18 38 20
v 20 0 20
v 20 40 20
v -20 30 10
v -20 40 10
v -10 30 10
v -10 40 10
v 10 30 10
v 10 40 10
v 20 30 10
v 20 40 10
v -20 0 -20
v -20 30 -20
v 20 0 -20
v 20 30 -20
v -20 0 20
v 20 0 20
v -20 0 10
v 20 0 10
v -20 0 -10
v 20 0 -10
v -20 0 -20
v 20 0 -20
v -10 30 20
v 10 30 20
v -20 30 10
v -10 30 10
v 10 30 10
v 20 30 10
v -20 30 -20
v 20 30 -20
v -20 40 20
v -10 40 20
v 10 40 20
v 20 40 20
v -20 40 10
v -10 40 10
v 10 40 10
v 20 40 10

# faces
f 5/2/1 2/2/1 1/2/1
f 5/3/1 3/3/1 2/3/1
f 6/2/1 4/2/1 3/2/1
f 6/3/1 3/3/1 5/3/1
f 7/2/1 5/2/1 1/2/1
f 7/2/1 6/2/1 5/2/1
f 8/2/1 4/2/1 6/2/1
f 8/2/1 6/2/1 7/2/1
f 9/2/1 7/2/1 1/2/1
f 10/2/1 7/2/1 9/2/1
f 13/2/1 12/2/1 11/2/1
f 14/2/1 12/2/1 13/2/1
f 15/2/2 16/2/2 17/2/2
f 17/2/2 16/2/2 18/2/2
f 19/2/2 20/2/2 23/2/2
f 20/3/2 21/3/2 23/3/2
f 21/2/2 22/2/2 24/2/2
f 23/3/2 21/3/2 24/3/2
f 19/2/2 23/2/2 25/2/2
f 23/2/2 24/2/2 25/2/2
f 24/2/2 22/2/2 26/2/2
f 25/2/2 24/2/2 26/2/2
f 19/2/2 25/2/2 27/2/2
f 27/2/2 25/2/2 28/2/2
f 31/2/3 30/2/3 29/2/3
f 32/2/3 30/2/3 31/2/3
f 33/2/3 31/2/3 29/2/3
f 34/2/3 31/2/3 33/2/3
f 35/2/3 31/2/3 34/2/3
f 36/2/3 31/2/3 35/2/3
f 37/2/3 31/2/3 36/2/3
f 38/2/3 31/2/3 37/2/3
f 39/5/3 38/5/3 37/5/3
f 40/5/3 38/5/3 39/5/3
f 41/4/3 32/4/3 31/4/3
f 41/2/3 31/2/3 38/2/3
f 42/2/3 30/2/3 32/2/3
f 42/4/3 32/4/3 41/4/3
f 43/2/3 33/2/3 29/2/3
f 44/4/3 34/4/3 33/4/3
f 44/2/3 33/2/3 43/2/3
f 45/2/3 35/2/3 34/2/3
f 45/4/3 34/4/3 44/4/3
f 46/4/3 36/4/3 35/4/3
f 46/2/3 35/2/3 45/2/3
f 47/2/3 37/2/3 36/2/3
f 47/4/3 36/4/3 46/4/3
f 48/5/3 39/5/3 37/5/3
f 48/2/3 37/2/3 47/2/3
f 49/2/3 41/2/3 38/2/3
f 49/2/3 42/2/3 41/2/3
f 50/2/3 30/2/3 42/2/3
f 50/2/3 42/2/3 49/2/3
f 51/3/3 44/3/3 43/3/3
f 51/4/3 45/4/3 44/4/3
f 52/3/3 46/3/3 45/3/3
f 52/4/3 45/4/3 51/4/3
f 53/4/3 47/4/3 46/4/3
f 53/3/3 46/3/3 52/3/3
f 54/3/3 48/3/3 47/3/3
f 54/4/3 47/4/3 53/4/3
f 55/5/3 39/5/3 48/5/3
f 55/3/3 40/3/3 39/3/3
f 56/5/3 38/5/3 40/5/3
f 56/3/3 40/3/3 55/3/3
f 57/3/3 48/3/3 54/3/3
f 57/5/3 55/5/3 48/5/3
f 57/5/3 56/5/3 55/5/3
f 57/3/3 52/3/3 51/3/3
f 57/3/3 54/3/3 53/3/3
f 57/3/3 53/3/3 52/3/3
f 58/5/3 38/5/3 56/5/3
f 58/5/3 56/5/3 57/5/3
f 58/2/3 49/2/3 38/2/3
f 59/3/3 57/3/3 51/3/3
f 59/3/3 51/3/3 43/3/3
f 59/2/3 43/2/3 29/2/3
f 60/3/3 57/3/3 59/3/3
f 61/3/3 57/3/3 60/3/3
f 62/2/3 58/2/3 57/2/3
f 62/3/3 57/3/3 61/3/3
f 63/2/3 59/2/3 29/2/3
f 63/2/3 60/2/3 59/2/3
f 64/3/3 61/3/3 60/3/3
f 64/2/3 60/2/3 63/2/3
f 65/1/3 62/1/3 61/1/3
f 65/3/3 61/3/3 64/3/3
f 66/2/3 58/2/3 62/2/3
f 66/1/3 62/1/3 65/1/3
f 67/3/3 65/3/3 64/3/3
f 67/2/3 58/2/3 66/2/3
f 67/3/3 66/3/3 65/3/3
f 67/3/3 64/3/3 63/3/3
f 68/2/3 49/2/3 58/2/3
f 68/2/3 58/2/3 67/2/3
f 69/5/3 68/5/3 67/5/3
f 70/5/3 68/5/3 69/5/3
f 71/3/3 67/3/3 63/3/3
f 72/3/3 67/3/3 71/3/3
f 73/3/3 67/3/3 72/3/3
f 74/3/3 67/3/3 73/3/3
f 75/2/3 63/2/3 29/2/3
f 75/3/3 71/3/3 63/3/3
f 76/4/3 72/4/3 71/4/3
f 76/3/3 71/3/3 75/3/3
f 77/3/3 73/3/3 72/3/3
f 77/4/3 72/4/3 76/4/3
f 78/4/3 74/4/3 73/4/3
f 78/3/3 73/3/3 77/3/3
f 79/3/3 67/3/3 74/3/3
f 79/4/3 74/4/3 78/4/3
f 80/5/3 69/5/3 67/5/3
f 80/3/3 67/3/3 79/3/3
f 81/2/3 49/2/3 68/2/3
f 83/5/3 69/5/3 80/5/3
f 83/3/3 70/3/3 69/3/3
f 84/5/3 68/5/3 70/5/3
f 84/3/3 70/3/3 83/3/3
f 85/2/3 82/2/3 81/2/3
f 86/2/3 82/2/3 85/2/3
f 87/5/3 83/5/3 80/5/3
f 87/2/3 80/2/3 79/2/3
f 87/5/3 84/5/3 83/5/3
f 88/5/3 68/5/3 84/5/3
f 88/5/3 84/5/3 87/5/3
f 88/2/3 81/2/3 68/2/3
f 88/2/3 85/2/3 81/2/3
f 89/4/3 77/4/3 76/4/3
f 89/2/3 76/2/3 75/2/3
f 90/2/3 78/2/3 77/2/3
f 90/4/3 77/4/3 89/4/3
f 91/4/3 79/4/3 78/4/3
f 91/2/3 78/2/3 90/2/3
f 92/2/3 87/2/3 79/2/3
f 92/4/3 79/4/3 91/4/3
f 92/2/3 88/2/3 87/2/3
f 93/2/3 91/2/3 90/2/3
f 93/2/3 88/2/3 92/2/3
f 93/2/3 92/2/3 91/2/3
f 93/2/3 90/2/3 89/2/3
f 93/2/3 85/2/3 88/2/3
f 93/4/3 86/4/3 85/4/3
f 94/2/3 82/2/3 86/2/3
f 94/4/3 86/4/3 93/4/3
f 95/2/3 93/2/3 89/2/3
f 95/2/3 89/2/3 75/2/3
f 95/2/3 94/2/3 93/2/3
f 95/2/3 75/2/3 29/2/3
f 96/2/3 82/2/3 94/2/3
f 96/2/3 94/2/3 95/2/3
f 97/2/4 98/2/4 99/2/4
f 99/2/4 98/2/4 100/2/4
f 101/2/4 102/2/4 103/2/4
f 103/2/4 102/2/4 104/2/4
f 105/2/4 106/2/4 107/2/4
f 107/2/4 106/2/4 108/2/4
f 111/2/5 110/2/5 109/2/5
f 112/2/5 110/2/5 111/2/5
f 113/3/5 112/3/5 111/3/5
f 114/3/5 112/3/5 113/3/5
f 115/2/5 114/2/5 113/2/5
f 116/2/5 114/2/5 115/2/5
f 117/2/6 118/2/6 120/2/6
f 120/2/6 118/2/6 121/2/6
f 119/2/6 120/2/6 123/2/6
f 121/2/6 122/2/6 123/2/6
f 120/2/6 121/2/6 123/2/6
f 123/2/6 122/2/6 124/2/6
f 125/2/6 126/2/6 129/2/6
f 129/2/6 126/2/6 130/2/6
f 127/2/6 128/2/6 131/2/6
f 131/2/6 128/2/6 132/2/6
