# MagicaVoxel @ Ephtracy

# group
g Ground

# material
mtllib Ground.mtl
usemtl palette

# normals
vn -1 0 0
vn 1 0 0
vn 0 0 1
vn 0 0 -1
vn 0 -1 0
vn 0 1 0

# texcoords
vt 0.00976563 0.5
vt 0.369141 0.5
vt 0.443359 0.5
vt 0.583984 0.5
vt 0.650391 0.5
vt 0.673828 0.5
vt 0.716797 0.5

# verts
v -18 5 18
v -18 5 -18
v -18 7 18
v -18 7 -18
v -16 0 16
v -16 0 -16
v -16 5 16
v -16 5 -16
v 16 0 16
v 16 0 -16
v 16 5 16
v 16 5 -16
v 18 5 18
v 18 5 -18
v 18 7 18
v 18 7 -18
v -18 5 18
v -18 7 18
v 18 5 18
v 18 7 18
v -16 0 16
v -16 5 16
v 16 0 16
v 16 5 16
v -16 0 -16
v -16 5 -16
v 16 0 -16
v 16 5 -16
v -18 5 -18
v -18 7 -18
v 18 5 -18
v 18 7 -18
v -16 0 16
v 16 0 16
v -16 0 -16
v 16 0 -16
v -18 5 18
v 18 5 18
v -16 5 16
v 16 5 16
v -16 5 -16
v 16 5 -16
v -18 5 -18
v 18 5 -18
v -18 7 18
v 18 7 18
v -17 7 17
v 17 7 17
v -16 7 16
v -14 7 16
v -13 7 16
v 16 7 16
v -14 7 15
v -13 7 15
v 13 7 14
v 14 7 14
v 3 7 13
v 4 7 13
v 13 7 13
v 14 7 13
v 3 7 12
v 4 7 12
v 12 7 11
v 13 7 11
v -11 7 10
v -10 7 10
v -3 7 10
v -2 7 10
v 12 7 10
v 13 7 10
v -11 7 9
v -10 7 9
v -3 7 9
v -2 7 9
v 4 7 5
v 5 7 5
v 13 7 5
v 14 7 5
v -4 7 4
v -3 7 4
v 4 7 4
v 5 7 4
v 13 7 4
v 14 7 4
v -4 7 3
v -3 7 3
v -13 7 2
v -12 7 2
v -13 7 1
v -12 7 1
v 5 7 1
v 6 7 1
v 5 7 -0
v 6 7 -0
v -4 7 -4
v -3 7 -4
v 15 7 -4
v 16 7 -4
v -11 7 -5
v -10 7 -5
v -4 7 -5
v -3 7 -5
v 15 7 -5
v 16 7 -5
v -11 7 -6
v -10 7 -6
v -15 7 -9
v -14 7 -9
v -15 7 -10
v -14 7 -10
v -3 7 -11
v -2 7 -11
v -3 7 -12
v -2 7 -12
v 9 7 -14
v 10 7 -14
v 9 7 -15
v 10 7 -15
v -16 7 -16
v 16 7 -16
v -17 7 -17
v 17 7 -17
v -18 7 -18
v 18 7 -18

# faces
f 3/1/1 2/1/1 1/1/1
f 4/1/1 2/1/1 3/1/1
f 7/2/1 6/2/1 5/2/1
f 8/2/1 6/2/1 7/2/1
f 9/2/2 10/2/2 11/2/2
f 11/2/2 10/2/2 12/2/2
f 13/1/2 14/1/2 15/1/2
f 15/1/2 14/1/2 16/1/2
f 19/1/3 18/1/3 17/1/3
f 20/1/3 18/1/3 19/1/3
f 23/2/3 22/2/3 21/2/3
f 24/2/3 22/2/3 23/2/3
f 25/2/4 26/2/4 27/2/4
f 27/2/4 26/2/4 28/2/4
f 29/1/4 30/1/4 31/1/4
f 31/1/4 30/1/4 32/1/4
f 35/2/5 34/2/5 33/2/5
f 36/2/5 34/2/5 35/2/5
f 39/1/5 38/1/5 37/1/5
f 40/1/5 38/1/5 39/1/5
f 41/1/5 39/1/5 37/1/5
f 42/1/5 38/1/5 40/1/5
f 43/1/5 41/1/5 37/1/5
f 43/1/5 42/1/5 41/1/5
f 44/1/5 38/1/5 42/1/5
f 44/1/5 42/1/5 43/1/5
f 45/1/6 46/1/6 47/1/6
f 47/1/6 46/1/6 48/1/6
f 47/6/6 48/6/6 49/6/6
f 49/6/6 48/6/6 50/6/6
f 50/6/6 48/6/6 51/6/6
f 51/6/6 48/6/6 52/6/6
f 49/5/6 50/5/6 53/5/6
f 50/4/6 51/4/6 53/4/6
f 51/5/6 52/5/6 54/5/6
f 53/4/6 51/4/6 54/4/6
f 53/5/6 54/5/6 55/5/6
f 54/5/6 52/5/6 55/5/6
f 55/5/6 52/5/6 56/5/6
f 53/5/6 55/5/6 57/5/6
f 57/5/6 55/5/6 58/5/6
f 55/7/6 56/7/6 59/7/6
f 58/5/6 55/5/6 59/5/6
f 56/5/6 52/5/6 60/5/6
f 59/7/6 56/7/6 60/7/6
f 57/7/6 58/7/6 61/7/6
f 53/5/6 57/5/6 61/5/6
f 58/5/6 59/5/6 62/5/6
f 61/7/6 58/7/6 62/7/6
f 59/5/6 60/5/6 62/5/6
f 61/5/6 62/5/6 63/5/6
f 62/5/6 60/5/6 63/5/6
f 63/5/6 60/5/6 64/5/6
f 53/5/6 61/5/6 65/5/6
f 61/5/6 63/5/6 65/5/6
f 65/5/6 63/5/6 66/5/6
f 66/5/6 63/5/6 67/5/6
f 67/5/6 63/5/6 68/5/6
f 63/4/6 64/4/6 69/4/6
f 68/5/6 63/5/6 69/5/6
f 64/5/6 60/5/6 70/5/6
f 69/4/6 64/4/6 70/4/6
f 53/5/6 65/5/6 71/5/6
f 65/7/6 66/7/6 71/7/6
f 66/5/6 67/5/6 72/5/6
f 71/7/6 66/7/6 72/7/6
f 67/3/6 68/3/6 73/3/6
f 72/5/6 67/5/6 73/5/6
f 68/5/6 69/5/6 74/5/6
f 73/3/6 68/3/6 74/3/6
f 69/5/6 70/5/6 74/5/6
f 72/5/6 73/5/6 75/5/6
f 74/5/6 70/5/6 75/5/6
f 73/5/6 74/5/6 75/5/6
f 71/5/6 72/5/6 75/5/6
f 75/5/6 70/5/6 76/5/6
f 70/5/6 60/5/6 77/5/6
f 76/5/6 70/5/6 77/5/6
f 60/5/6 52/5/6 78/5/6
f 77/5/6 60/5/6 78/5/6
f 71/5/6 75/5/6 79/5/6
f 79/5/6 75/5/6 80/5/6
f 75/4/6 76/4/6 81/4/6
f 80/5/6 75/5/6 81/5/6
f 76/5/6 77/5/6 82/5/6
f 81/4/6 76/4/6 82/4/6
f 77/3/6 78/3/6 83/3/6
f 82/5/6 77/5/6 83/5/6
f 78/5/6 52/5/6 84/5/6
f 83/3/6 78/3/6 84/3/6
f 79/7/6 80/7/6 85/7/6
f 71/5/6 79/5/6 85/5/6
f 80/5/6 81/5/6 86/5/6
f 85/7/6 80/7/6 86/7/6
f 82/5/6 83/5/6 86/5/6
f 83/5/6 84/5/6 86/5/6
f 81/5/6 82/5/6 86/5/6
f 53/5/6 71/5/6 87/5/6
f 71/5/6 85/5/6 87/5/6
f 85/5/6 86/5/6 87/5/6
f 87/5/6 86/5/6 88/5/6
f 53/5/6 87/5/6 89/5/6
f 87/3/6 88/3/6 89/3/6
f 88/5/6 86/5/6 90/5/6
f 89/3/6 88/3/6 90/3/6
f 86/5/6 84/5/6 91/5/6
f 90/5/6 86/5/6 91/5/6
f 91/5/6 84/5/6 92/5/6
f 89/5/6 90/5/6 93/5/6
f 90/5/6 91/5/6 93/5/6
f 91/7/6 92/7/6 93/7/6
f 92/5/6 84/5/6 94/5/6
f 93/7/6 92/7/6 94/7/6
f 89/5/6 93/5/6 95/5/6
f 93/5/6 94/5/6 95/5/6
f 95/5/6 94/5/6 96/5/6
f 94/5/6 84/5/6 97/5/6
f 96/5/6 94/5/6 97/5/6
f 84/5/6 52/5/6 97/5/6
f 52/6/6 48/6/6 98/6/6
f 97/5/6 52/5/6 98/5/6
f 89/5/6 95/5/6 99/5/6
f 99/5/6 95/5/6 100/5/6
f 95/3/6 96/3/6 101/3/6
f 100/5/6 95/5/6 101/5/6
f 96/5/6 97/5/6 102/5/6
f 101/3/6 96/3/6 102/3/6
f 97/7/6 98/7/6 103/7/6
f 102/5/6 97/5/6 103/5/6
f 98/6/6 48/6/6 104/6/6
f 103/7/6 98/7/6 104/7/6
f 99/7/6 100/7/6 105/7/6
f 89/5/6 99/5/6 105/5/6
f 100/5/6 101/5/6 106/5/6
f 105/7/6 100/7/6 106/7/6
f 102/5/6 103/5/6 106/5/6
f 103/5/6 104/5/6 106/5/6
f 101/5/6 102/5/6 106/5/6
f 89/5/6 105/5/6 107/5/6
f 49/5/6 53/5/6 107/5/6
f 105/5/6 106/5/6 107/5/6
f 53/5/6 89/5/6 107/5/6
f 107/5/6 106/5/6 108/5/6
f 49/5/6 107/5/6 109/5/6
f 107/4/6 108/4/6 109/4/6
f 108/5/6 106/5/6 110/5/6
f 109/4/6 108/4/6 110/4/6
f 106/5/6 104/5/6 111/5/6
f 110/5/6 106/5/6 111/5/6
f 109/5/6 110/5/6 111/5/6
f 111/5/6 104/5/6 112/5/6
f 109/5/6 111/5/6 113/5/6
f 111/7/6 112/7/6 113/7/6
f 112/5/6 104/5/6 114/5/6
f 113/7/6 112/7/6 114/7/6
f 113/5/6 114/5/6 115/5/6
f 114/5/6 104/5/6 115/5/6
f 115/5/6 104/5/6 116/5/6
f 113/5/6 115/5/6 117/5/6
f 115/7/6 116/7/6 117/7/6
f 116/5/6 104/5/6 118/5/6
f 117/7/6 116/7/6 118/7/6
f 47/6/6 49/6/6 119/6/6
f 49/5/6 109/5/6 119/5/6
f 117/5/6 118/5/6 119/5/6
f 113/5/6 117/5/6 119/5/6
f 109/5/6 113/5/6 119/5/6
f 118/5/6 104/5/6 120/5/6
f 119/5/6 118/5/6 120/5/6
f 104/6/6 48/6/6 120/6/6
f 45/1/6 47/1/6 121/1/6
f 47/6/6 119/6/6 121/6/6
f 119/6/6 120/6/6 121/6/6
f 120/6/6 48/6/6 122/6/6
f 121/6/6 120/6/6 122/6/6
f 48/1/6 46/1/6 122/1/6
f 45/1/6 121/1/6 123/1/6
f 121/1/6 122/1/6 123/1/6
f 122/1/6 46/1/6 124/1/6
f 123/1/6 122/1/6 124/1/6
