# MagicaVoxel @ Ephtracy

# group
g Tigger

# material
mtllib Tigger.mtl
usemtl palette

# normals
vn -1 0 0
vn 1 0 0
vn 0 0 1
vn 0 0 -1
vn 0 -1 0
vn 0 1 0

# texcoords
vt 0.0449219 0.5
vt 0.849609 0.5
vt 0.958984 0.5
vt 0.994141 0.5

# verts
v -20 0 20
v -20 0 16
v -20 0 14
v -20 0 10
v -20 0 -10
v -20 0 -14
v -20 0 -16
v -20 0 -20
v -20 5 20
v -20 5 16
v -20 5 10
v -20 5 6
v -20 5 4
v -20 5 -4
v -20 5 -6
v -20 5 -10
v -20 7 20
v -20 7 16
v -20 9 20
v -20 9 16
v -20 11 20
v -20 11 16
v -20 13 20
v -20 13 16
v -20 15 20
v -20 15 16
v -20 30 10
v -20 30 6
v -20 30 4
v -20 30 -4
v -20 30 -6
v -20 30 -14
v -20 30 -16
v -20 30 -20
v -20 40 20
v -20 40 16
v -20 40 14
v -20 40 10
v 10 30 20
v 10 30 16
v 10 30 14
v 10 30 10
v 10 40 20
v 10 40 16
v 10 40 14
v 10 40 10
v -10 30 20
v -10 30 16
v -10 30 14
v -10 30 10
v -10 40 20
v -10 40 16
v -10 40 14
v -10 40 10
v 20 0 20
v 20 0 16
v 20 0 14
v 20 0 10
v 20 0 -10
v 20 0 -14
v 20 0 -16
v 20 0 -20
v 20 5 20
v 20 5 16
v 20 5 10
v 20 5 6
v 20 5 4
v 20 5 -4
v 20 5 -6
v 20 5 -10
v 20 7 20
v 20 7 16
v 20 9 20
v 20 9 16
v 20 11 20
v 20 11 16
v 20 13 20
v 20 13 16
v 20 15 20
v 20 15 16
v 20 30 10
v 20 30 6
v 20 30 4
v 20 30 -4
v 20 30 -6
v 20 30 -14
v 20 30 -16
v 20 30 -20
v 20 40 20
v 20 40 16
v 20 40 14
v 20 40 10
v -20 0 20
v -20 5 20
v -20 7 20
v -20 9 20
v -20 11 20
v -20 13 20
v -20 15 20
v -20 40 20
v -18 32 20
v -18 38 20
v -16 5 20
v -16 7 20
v -16 9 20
v -16 11 20
v -16 13 20
v -16 15 20
v -15 15 20
v -15 25 20
v -12 18 20
v -12 22 20
v -12 32 20
v -12 38 20
v -10 5 20
v -10 15 20
v -10 30 20
v -10 40 20
v -8 18 20
v -8 22 20
v -5 0 20
v -5 2 20
v -5 15 20
v -5 22 20
v -5 24 20
v -5 25 20
v -5 27 20
v -5 28 20
v -5 30 20
v -3 5 20
v -3 7 20
v -3 11 20
v -3 15 20
v -1 24 20
v -1 25 20
v -1 27 20
v -1 28 20
v 1 24 20
v 1 25 20
v 1 27 20
v 1 28 20
v 3 5 20
v 3 7 20
v 3 11 20
v 3 15 20
v 5 0 20
v 5 2 20
v 5 15 20
v 5 22 20
v 5 24 20
v 5 25 20
v 5 27 20
v 5 28 20
v 5 30 20
v 8 18 20
v 8 22 20
v 10 5 20
v 10 15 20
v 10 30 20
v 10 40 20
v 12 18 20
v 12 22 20
v 12 32 20
v 12 38 20
v 15 15 20
v 15 25 20
v 17 5 20
v 17 7 20
v 17 9 20
v 17 11 20
v 17 13 20
v 17 15 20
v 18 32 20
v 18 38 20
v 20 0 20
v 20 5 20
v 20 7 20
v 20 9 20
v 20 11 20
v 20 13 20
v 20 15 20
v 20 40 20
v -20 30 10
v -20 40 10
v -10 30 10
v -10 40 10
v 10 30 10
v 10 40 10
v 20 30 10
v 20 40 10
v -20 0 -20
v -20 30 -20
v 20 0 -20
v 20 30 -20
v -20 0 20
v -5 0 20
v 5 0 20
v 20 0 20
v -5 0 19
v 5 0 19
v -20 0 16
v -19 0 16
v 19 0 16
v 20 0 16
v -20 0 14
v -19 0 14
v 19 0 14
v 20 0 14
v -20 0 10
v 20 0 10
v -20 0 -10
v 20 0 -10
v -20 0 -14
v 20 0 -14
v -20 0 -16
v 20 0 -16
v -20 0 -20
v 20 0 -20
v -10 30 20
v -5 30 20
v 5 30 20
v 10 30 20
v -5 30 18
v 5 30 18
v -10 30 16
v 10 30 16
v -10 30 14
v 10 30 14
v -20 30 10
v -10 30 10
v 10 30 10
v 20 30 10
v -20 30 6
v 20 30 6
v -20 30 4
v 20 30 4
v -20 30 -4
v 20 30 -4
v -20 30 -6
v 20 30 -6
v -20 30 -14
v 20 30 -14
v -20 30 -16
v 20 30 -16
v -20 30 -20
v 20 30 -20
v -20 40 20
v -10 40 20
v 10 40 20
v 20 40 20
v -20 40 16
v -10 40 16
v 10 40 16
v 20 40 16
v -20 40 14
v -10 40 14
v 10 40 14
v 20 40 14
v -20 40 10
v -10 40 10
v 10 40 10
v 20 40 10

# faces
f 9/1/1 2/1/1 1/1/1
f 10/4/1 3/4/1 2/4/1
f 10/1/1 2/1/1 9/1/1
f 11/1/1 4/1/1 3/1/1
f 11/3/1 5/3/1 4/3/1
f 12/3/1 5/3/1 11/3/1
f 13/3/1 5/3/1 12/3/1
f 14/3/1 5/3/1 13/3/1
f 15/3/1 5/3/1 14/3/1
f 16/1/1 6/1/1 5/1/1
f 16/3/1 5/3/1 15/3/1
f 17/4/1 10/4/1 9/4/1
f 18/4/1 3/4/1 10/4/1
f 18/4/1 10/4/1 17/4/1
f 19/1/1 18/1/1 17/1/1
f 20/4/1 3/4/1 18/4/1
f 20/1/1 18/1/1 19/1/1
f 21/4/1 20/4/1 19/4/1
f 22/4/1 3/4/1 20/4/1
f 22/4/1 20/4/1 21/4/1
f 23/1/1 22/1/1 21/1/1
f 24/4/1 3/4/1 22/4/1
f 24/1/1 22/1/1 23/1/1
f 25/4/1 24/4/1 23/4/1
f 26/4/1 3/4/1 24/4/1
f 26/4/1 24/4/1 25/4/1
f 27/1/1 11/1/1 3/1/1
f 27/1/1 12/1/1 11/1/1
f 28/4/1 13/4/1 12/4/1
f 28/1/1 12/1/1 27/1/1
f 29/1/1 14/1/1 13/1/1
f 29/4/1 13/4/1 28/4/1
f 30/4/1 15/4/1 14/4/1
f 30/1/1 14/1/1 29/1/1
f 31/1/1 16/1/1 15/1/1
f 31/4/1 15/4/1 30/4/1
f 32/1/1 6/1/1 16/1/1
f 32/1/1 16/1/1 31/1/1
f 32/4/1 7/4/1 6/4/1
f 33/1/1 8/1/1 7/1/1
f 33/4/1 7/4/1 32/4/1
f 34/1/1 8/1/1 33/1/1
f 35/1/1 26/1/1 25/1/1
f 36/4/1 3/4/1 26/4/1
f 36/1/1 26/1/1 35/1/1
f 37/1/1 27/1/1 3/1/1
f 37/4/1 3/4/1 36/4/1
f 38/1/1 27/1/1 37/1/1
f 43/1/1 40/1/1 39/1/1
f 44/4/1 41/4/1 40/4/1
f 44/1/1 40/1/1 43/1/1
f 45/1/1 42/1/1 41/1/1
f 45/4/1 41/4/1 44/4/1
f 46/1/1 42/1/1 45/1/1
f 47/1/2 48/1/2 51/1/2
f 48/4/2 49/4/2 52/4/2
f 51/1/2 48/1/2 52/1/2
f 49/1/2 50/1/2 53/1/2
f 52/4/2 49/4/2 53/4/2
f 53/1/2 50/1/2 54/1/2
f 55/1/2 56/1/2 63/1/2
f 56/4/2 57/4/2 64/4/2
f 63/1/2 56/1/2 64/1/2
f 57/1/2 58/1/2 65/1/2
f 58/3/2 59/3/2 65/3/2
f 65/3/2 59/3/2 66/3/2
f 66/3/2 59/3/2 67/3/2
f 67/3/2 59/3/2 68/3/2
f 68/3/2 59/3/2 69/3/2
f 59/1/2 60/1/2 70/1/2
f 69/3/2 59/3/2 70/3/2
f 63/4/2 64/4/2 71/4/2
f 64/4/2 57/4/2 72/4/2
f 71/4/2 64/4/2 72/4/2
f 71/1/2 72/1/2 73/1/2
f 72/4/2 57/4/2 74/4/2
f 73/1/2 72/1/2 74/1/2
f 73/4/2 74/4/2 75/4/2
f 74/4/2 57/4/2 76/4/2
f 75/4/2 74/4/2 76/4/2
f 75/1/2 76/1/2 77/1/2
f 76/4/2 57/4/2 78/4/2
f 77/1/2 76/1/2 78/1/2
f 77/4/2 78/4/2 79/4/2
f 78/4/2 57/4/2 80/4/2
f 79/4/2 78/4/2 80/4/2
f 57/1/2 65/1/2 81/1/2
f 65/1/2 66/1/2 81/1/2
f 66/4/2 67/4/2 82/4/2
f 81/1/2 66/1/2 82/1/2
f 67/1/2 68/1/2 83/1/2
f 82/4/2 67/4/2 83/4/2
f 68/4/2 69/4/2 84/4/2
f 83/1/2 68/1/2 84/1/2
f 69/1/2 70/1/2 85/1/2
f 84/4/2 69/4/2 85/4/2
f 70/1/2 60/1/2 86/1/2
f 85/1/2 70/1/2 86/1/2
f 60/4/2 61/4/2 86/4/2
f 61/1/2 62/1/2 87/1/2
f 86/4/2 61/4/2 87/4/2
f 87/1/2 62/1/2 88/1/2
f 79/1/2 80/1/2 89/1/2
f 80/4/2 57/4/2 90/4/2
f 89/1/2 80/1/2 90/1/2
f 57/1/2 81/1/2 91/1/2
f 90/4/2 57/4/2 91/4/2
f 91/1/2 81/1/2 92/1/2
f 101/1/3 100/1/3 99/1/3
f 102/1/3 100/1/3 101/1/3
f 103/1/3 94/1/3 93/1/3
f 103/4/3 95/4/3 94/4/3
f 104/1/3 96/1/3 95/1/3
f 104/4/3 95/4/3 103/4/3
f 105/4/3 97/4/3 96/4/3
f 105/1/3 96/1/3 104/1/3
f 106/1/3 98/1/3 97/1/3
f 106/4/3 97/4/3 105/4/3
f 107/4/3 99/4/3 98/4/3
f 107/1/3 98/1/3 106/1/3
f 108/1/3 101/1/3 99/1/3
f 108/4/3 99/4/3 107/4/3
f 109/1/3 104/1/3 103/1/3
f 109/1/3 101/1/3 108/1/3
f 109/1/3 108/1/3 107/1/3
f 109/1/3 107/1/3 106/1/3
f 109/1/3 106/1/3 105/1/3
f 109/1/3 105/1/3 104/1/3
f 110/1/3 101/1/3 109/1/3
f 111/4/3 110/4/3 109/4/3
f 112/4/3 110/4/3 111/4/3
f 113/4/3 102/4/3 101/4/3
f 113/1/3 101/1/3 110/1/3
f 114/1/3 100/1/3 102/1/3
f 114/4/3 102/4/3 113/4/3
f 115/1/3 103/1/3 93/1/3
f 115/1/3 109/1/3 103/1/3
f 116/4/3 111/4/3 109/4/3
f 116/1/3 109/1/3 115/1/3
f 117/1/3 113/1/3 110/1/3
f 117/1/3 114/1/3 113/1/3
f 118/1/3 100/1/3 114/1/3
f 118/1/3 114/1/3 117/1/3
f 119/4/3 111/4/3 116/4/3
f 119/3/3 112/3/3 111/3/3
f 120/4/3 110/4/3 112/4/3
f 120/3/3 112/3/3 119/3/3
f 121/1/3 115/1/3 93/1/3
f 122/1/3 115/1/3 121/1/3
f 123/4/3 119/4/3 116/4/3
f 123/3/3 116/3/3 115/3/3
f 123/4/3 120/4/3 119/4/3
f 124/4/3 110/4/3 120/4/3
f 124/4/3 120/4/3 123/4/3
f 125/4/3 110/4/3 124/4/3
f 126/1/3 117/1/3 110/1/3
f 126/4/3 110/4/3 125/4/3
f 127/1/3 117/1/3 126/1/3
f 128/1/3 117/1/3 127/1/3
f 129/1/3 117/1/3 128/1/3
f 130/1/3 115/1/3 122/1/3
f 130/3/3 123/3/3 115/3/3
f 131/3/3 123/3/3 130/3/3
f 132/3/3 123/3/3 131/3/3
f 133/1/3 124/1/3 123/1/3
f 133/3/3 123/3/3 132/3/3
f 134/4/3 125/4/3 124/4/3
f 134/1/3 126/1/3 125/1/3
f 135/4/3 127/4/3 126/4/3
f 135/1/3 126/1/3 134/1/3
f 136/1/3 128/1/3 127/1/3
f 136/4/3 127/4/3 135/4/3
f 137/4/3 129/4/3 128/4/3
f 137/1/3 128/1/3 136/1/3
f 138/4/3 136/4/3 135/4/3
f 138/4/3 134/4/3 124/4/3
f 138/4/3 137/4/3 136/4/3
f 138/4/3 135/4/3 134/4/3
f 139/4/3 137/4/3 138/4/3
f 140/4/3 137/4/3 139/4/3
f 141/4/3 129/4/3 137/4/3
f 141/4/3 137/4/3 140/4/3
f 142/1/3 131/1/3 130/1/3
f 142/1/3 130/1/3 122/1/3
f 143/3/3 132/3/3 131/3/3
f 143/1/3 131/1/3 142/1/3
f 144/2/3 133/2/3 132/2/3
f 144/3/3 132/3/3 143/3/3
f 145/1/3 124/1/3 133/1/3
f 145/2/3 133/2/3 144/2/3
f 146/4/3 122/4/3 121/4/3
f 147/1/3 142/1/3 122/1/3
f 147/4/3 122/4/3 146/4/3
f 148/3/3 144/3/3 143/3/3
f 148/1/3 124/1/3 145/1/3
f 148/3/3 143/3/3 142/3/3
f 148/3/3 145/3/3 144/3/3
f 149/4/3 138/4/3 124/4/3
f 149/1/3 124/1/3 148/1/3
f 150/1/3 139/1/3 138/1/3
f 150/4/3 138/4/3 149/4/3
f 151/4/3 140/4/3 139/4/3
f 151/1/3 139/1/3 150/1/3
f 152/1/3 141/1/3 140/1/3
f 152/4/3 140/4/3 151/4/3
f 153/4/3 129/4/3 141/4/3
f 153/1/3 141/1/3 152/1/3
f 154/4/3 129/4/3 153/4/3
f 155/4/3 150/4/3 149/4/3
f 155/4/3 149/4/3 148/4/3
f 155/4/3 151/4/3 150/4/3
f 156/4/3 151/4/3 155/4/3
f 157/1/3 142/1/3 147/1/3
f 157/1/3 147/1/3 146/1/3
f 157/3/3 148/3/3 142/3/3
f 158/4/3 155/4/3 148/4/3
f 158/3/3 148/3/3 157/3/3
f 159/1/3 154/1/3 153/1/3
f 159/1/3 152/1/3 151/1/3
f 159/1/3 153/1/3 152/1/3
f 161/3/3 156/3/3 155/3/3
f 161/4/3 155/4/3 158/4/3
f 162/4/3 151/4/3 156/4/3
f 162/3/3 156/3/3 161/3/3
f 163/1/3 160/1/3 159/1/3
f 164/1/3 160/1/3 163/1/3
f 165/4/3 161/4/3 158/4/3
f 165/1/3 158/1/3 157/1/3
f 165/4/3 162/4/3 161/4/3
f 166/1/3 159/1/3 151/1/3
f 166/4/3 162/4/3 165/4/3
f 166/4/3 151/4/3 162/4/3
f 166/1/3 163/1/3 159/1/3
f 167/1/3 165/1/3 157/1/3
f 167/1/3 157/1/3 146/1/3
f 167/1/3 166/1/3 165/1/3
f 168/1/3 166/1/3 167/1/3
f 169/1/3 166/1/3 168/1/3
f 170/1/3 166/1/3 169/1/3
f 171/1/3 166/1/3 170/1/3
f 172/1/3 166/1/3 171/1/3
f 173/1/3 163/1/3 166/1/3
f 173/1/3 166/1/3 172/1/3
f 173/4/3 164/4/3 163/4/3
f 174/1/3 160/1/3 164/1/3
f 174/4/3 164/4/3 173/4/3
f 175/1/3 167/1/3 146/1/3
f 176/4/3 168/4/3 167/4/3
f 176/1/3 167/1/3 175/1/3
f 177/1/3 169/1/3 168/1/3
f 177/4/3 168/4/3 176/4/3
f 178/4/3 170/4/3 169/4/3
f 178/1/3 169/1/3 177/1/3
f 179/1/3 171/1/3 170/1/3
f 179/4/3 170/4/3 178/4/3
f 180/4/3 172/4/3 171/4/3
f 180/1/3 171/1/3 179/1/3
f 181/1/3 173/1/3 172/1/3
f 181/4/3 172/4/3 180/4/3
f 181/1/3 174/1/3 173/1/3
f 182/1/3 160/1/3 174/1/3
f 182/1/3 174/1/3 181/1/3
f 183/1/4 184/1/4 185/1/4
f 185/1/4 184/1/4 186/1/4
f 187/1/4 188/1/4 189/1/4
f 189/1/4 188/1/4 190/1/4
f 191/1/4 192/1/4 193/1/4
f 193/1/4 192/1/4 194/1/4
f 199/1/5 196/1/5 195/1/5
f 199/4/5 197/4/5 196/4/5
f 200/1/5 198/1/5 197/1/5
f 200/4/5 197/4/5 199/4/5
f 201/1/5 199/1/5 195/1/5
f 201/1/5 200/1/5 199/1/5
f 202/1/5 200/1/5 201/1/5
f 203/1/5 198/1/5 200/1/5
f 203/1/5 200/1/5 202/1/5
f 204/1/5 198/1/5 203/1/5
f 205/4/5 202/4/5 201/4/5
f 206/1/5 203/1/5 202/1/5
f 206/4/5 202/4/5 205/4/5
f 207/4/5 204/4/5 203/4/5
f 207/1/5 203/1/5 206/1/5
f 208/4/5 204/4/5 207/4/5
f 209/1/5 206/1/5 205/1/5
f 209/1/5 207/1/5 206/1/5
f 209/1/5 208/1/5 207/1/5
f 210/1/5 208/1/5 209/1/5
f 211/3/5 210/3/5 209/3/5
f 212/3/5 210/3/5 211/3/5
f 213/1/5 212/1/5 211/1/5
f 214/1/5 212/1/5 213/1/5
f 215/4/5 214/4/5 213/4/5
f 216/4/5 214/4/5 215/4/5
f 217/1/5 216/1/5 215/1/5
f 218/1/5 216/1/5 217/1/5
f 219/1/6 220/1/6 223/1/6
f 220/4/6 221/4/6 223/4/6
f 221/1/6 222/1/6 224/1/6
f 223/4/6 221/4/6 224/4/6
f 219/1/6 223/1/6 225/1/6
f 223/1/6 224/1/6 225/1/6
f 224/1/6 222/1/6 226/1/6
f 225/1/6 224/1/6 226/1/6
f 225/4/6 226/4/6 227/4/6
f 227/4/6 226/4/6 228/4/6
f 227/1/6 228/1/6 230/1/6
f 230/1/6 228/1/6 231/1/6
f 230/1/6 231/1/6 233/1/6
f 231/1/6 232/1/6 233/1/6
f 229/1/6 230/1/6 233/1/6
f 233/1/6 232/1/6 234/1/6
f 233/4/6 234/4/6 235/4/6
f 235/4/6 234/4/6 236/4/6
f 235/1/6 236/1/6 237/1/6
f 237/1/6 236/1/6 238/1/6
f 237/4/6 238/4/6 239/4/6
f 239/4/6 238/4/6 240/4/6
f 239/1/6 240/1/6 241/1/6
f 241/1/6 240/1/6 242/1/6
f 241/4/6 242/4/6 243/4/6
f 243/4/6 242/4/6 244/4/6
f 243/1/6 244/1/6 245/1/6
f 245/1/6 244/1/6 246/1/6
f 247/1/6 248/1/6 251/1/6
f 251/1/6 248/1/6 252/1/6
f 249/1/6 250/1/6 253/1/6
f 253/1/6 250/1/6 254/1/6
f 251/4/6 252/4/6 255/4/6
f 255/4/6 252/4/6 256/4/6
f 253/4/6 254/4/6 257/4/6
f 257/4/6 254/4/6 258/4/6
f 255/1/6 256/1/6 259/1/6
f 259/1/6 256/1/6 260/1/6
f 257/1/6 258/1/6 261/1/6
f 261/1/6 258/1/6 262/1/6
