# MagicaVoxel @ Ephtracy

# group
g Rihno

# material
mtllib Rihno.mtl
usemtl palette

# normals
vn -1 0 0
vn 1 0 0
vn 0 0 1
vn 0 0 -1
vn 0 -1 0
vn 0 1 0

# texcoords
vt 0.958984 0.5
vt 0.982422 0.5
vt 0.994141 0.5

# verts
v -20 0 20
v -20 0 -20
v -20 12 20
v -20 12 5
v -20 37 5
v -20 37 -20
v -15 17 20
v -15 17 5
v -15 27 20
v -15 27 5
v -15 37 5
v -15 37 -0
v -15 40 5
v -15 40 -0
v -1 27 20
v -1 27 14
v -1 29 16
v -1 29 14
v -1 31 18
v -1 31 16
v -1 33 20
v -1 33 18
v 5 37 5
v 5 37 -0
v 5 40 5
v 5 40 -0
v -5 37 5
v -5 37 -0
v -5 40 5
v -5 40 -0
v 1 27 20
v 1 27 14
v 1 29 16
v 1 29 14
v 1 31 18
v 1 31 16
v 1 33 20
v 1 33 18
v 15 17 20
v 15 17 5
v 15 27 20
v 15 27 5
v 15 37 5
v 15 37 -0
v 15 40 5
v 15 40 -0
v 20 0 20
v 20 0 -20
v 20 12 20
v 20 12 5
v 20 37 5
v 20 37 -20
v -20 0 20
v -20 12 20
v -15 17 20
v -15 27 20
v -10 0 20
v -10 7 20
v -1 27 20
v -1 33 20
v 1 27 20
v 1 33 20
v 10 0 20
v 10 7 20
v 15 17 20
v 15 27 20
v 20 0 20
v 20 12 20
v -20 12 5
v -20 37 5
v -15 17 5
v -15 27 5
v -15 37 5
v -15 40 5
v -12 30 5
v -12 34 5
v -8 30 5
v -8 34 5
v -5 27 5
v -5 37 5
v -5 40 5
v 5 27 5
v 5 37 5
v 5 40 5
v 8 30 5
v 8 34 5
v 12 30 5
v 12 34 5
v 15 17 5
v 15 27 5
v 15 37 5
v 15 40 5
v 20 12 5
v 20 37 5
v -1 31 18
v -1 33 18
v 1 31 18
v 1 33 18
v -1 29 16
v -1 31 16
v 1 29 16
v 1 31 16
v -1 27 14
v -1 29 14
v 1 27 14
v 1 29 14
v -15 37 -0
v -15 40 -0
v -5 37 -0
v -5 40 -0
v 5 37 -0
v 5 40 -0
v 15 37 -0
v 15 40 -0
v -20 0 -20
v -20 37 -20
v -10 0 -20
v -10 7 -20
v 10 0 -20
v 10 7 -20
v 20 0 -20
v 20 37 -20
v -20 0 20
v -10 0 20
v 10 0 20
v 20 0 20
v -20 0 -20
v -10 0 -20
v 10 0 -20
v 20 0 -20
v -15 17 20
v 15 17 20
v -15 17 5
v 15 17 5
v -20 12 20
v 20 12 20
v -20 12 5
v 20 12 5
v -15 27 20
v -1 27 20
v 1 27 20
v 15 27 20
v -1 27 14
v 1 27 14
v -15 27 5
v -5 27 5
v 5 27 5
v 15 27 5
v -1 29 16
v 1 29 16
v -1 29 14
v 1 29 14
v -1 31 18
v 1 31 18
v -1 31 16
v 1 31 16
v -1 33 20
v 1 33 20
v -1 33 18
v 1 33 18
v -20 37 5
v -15 37 5
v -5 37 5
v 5 37 5
v 15 37 5
v 20 37 5
v -15 37 -0
v -5 37 -0
v 5 37 -0
v 15 37 -0
v -20 37 -20
v 20 37 -20
v -15 40 5
v -5 40 5
v 5 40 5
v 15 40 5
v -15 40 -0
v -5 40 -0
v 5 40 -0
v 15 40 -0

# faces
f 3/2/1 2/2/1 1/2/1
f 4/2/1 2/2/1 3/2/1
f 5/2/1 2/2/1 4/2/1
f 6/2/1 2/2/1 5/2/1
f 9/2/1 8/2/1 7/2/1
f 10/2/1 8/2/1 9/2/1
f 13/2/1 12/2/1 11/2/1
f 14/2/1 12/2/1 13/2/1
f 17/1/1 16/1/1 15/1/1
f 18/1/1 16/1/1 17/1/1
f 19/1/1 17/1/1 15/1/1
f 20/1/1 17/1/1 19/1/1
f 21/1/1 19/1/1 15/1/1
f 22/1/1 19/1/1 21/1/1
f 25/2/1 24/2/1 23/2/1
f 26/2/1 24/2/1 25/2/1
f 27/2/2 28/2/2 29/2/2
f 29/2/2 28/2/2 30/2/2
f 31/1/2 32/1/2 33/1/2
f 33/1/2 32/1/2 34/1/2
f 31/1/2 33/1/2 35/1/2
f 35/1/2 33/1/2 36/1/2
f 31/1/2 35/1/2 37/1/2
f 37/1/2 35/1/2 38/1/2
f 39/2/2 40/2/2 41/2/2
f 41/2/2 40/2/2 42/2/2
f 43/2/2 44/2/2 45/2/2
f 45/2/2 44/2/2 46/2/2
f 47/2/2 48/2/2 49/2/2
f 49/2/2 48/2/2 50/2/2
f 50/2/2 48/2/2 51/2/2
f 51/2/2 48/2/2 52/2/2
f 57/2/3 54/2/3 53/2/3
f 58/2/3 54/2/3 57/2/3
f 59/2/3 56/2/3 55/2/3
f 61/2/3 59/2/3 55/2/3
f 61/1/3 60/1/3 59/1/3
f 62/1/3 60/1/3 61/1/3
f 63/1/3 58/1/3 57/1/3
f 64/2/3 54/2/3 58/2/3
f 64/1/3 58/1/3 63/1/3
f 65/2/3 61/2/3 55/2/3
f 66/2/3 61/2/3 65/2/3
f 67/2/3 64/2/3 63/2/3
f 68/2/3 54/2/3 64/2/3
f 68/2/3 64/2/3 67/2/3
f 71/2/3 70/2/3 69/2/3
f 72/2/3 70/2/3 71/2/3
f 73/2/3 70/2/3 72/2/3
f 75/3/3 73/3/3 72/3/3
f 76/3/3 73/3/3 75/3/3
f 77/3/3 75/3/3 72/3/3
f 77/1/3 76/1/3 75/1/3
f 78/3/3 73/3/3 76/3/3
f 78/1/3 76/1/3 77/1/3
f 79/3/3 77/3/3 72/3/3
f 79/3/3 78/3/3 77/3/3
f 80/2/3 74/2/3 73/2/3
f 80/3/3 78/3/3 79/3/3
f 80/3/3 73/3/3 78/3/3
f 81/2/3 74/2/3 80/2/3
f 82/2/3 80/2/3 79/2/3
f 83/2/3 80/2/3 82/2/3
f 85/3/3 83/3/3 82/3/3
f 86/3/3 83/3/3 85/3/3
f 87/3/3 85/3/3 82/3/3
f 87/1/3 86/1/3 85/1/3
f 88/3/3 83/3/3 86/3/3
f 88/1/3 86/1/3 87/1/3
f 89/2/3 71/2/3 69/2/3
f 90/3/3 87/3/3 82/3/3
f 90/3/3 88/3/3 87/3/3
f 91/3/3 83/3/3 88/3/3
f 91/2/3 84/2/3 83/2/3
f 91/3/3 88/3/3 90/3/3
f 92/2/3 84/2/3 91/2/3
f 93/2/3 90/2/3 89/2/3
f 93/2/3 89/2/3 69/2/3
f 93/2/3 91/2/3 90/2/3
f 94/2/3 91/2/3 93/2/3
f 95/1/4 96/1/4 97/1/4
f 97/1/4 96/1/4 98/1/4
f 99/1/4 100/1/4 101/1/4
f 101/1/4 100/1/4 102/1/4
f 103/1/4 104/1/4 105/1/4
f 105/1/4 104/1/4 106/1/4
f 107/2/4 108/2/4 109/2/4
f 109/2/4 108/2/4 110/2/4
f 111/2/4 112/2/4 113/2/4
f 113/2/4 112/2/4 114/2/4
f 115/2/4 116/2/4 117/2/4
f 117/2/4 116/2/4 118/2/4
f 117/1/4 118/1/4 119/1/4
f 118/2/4 116/2/4 120/2/4
f 119/1/4 118/1/4 120/1/4
f 119/2/4 120/2/4 121/2/4
f 120/2/4 116/2/4 122/2/4
f 121/2/4 120/2/4 122/2/4
f 127/2/5 124/2/5 123/2/5
f 128/1/5 125/1/5 124/1/5
f 128/2/5 124/2/5 127/2/5
f 129/2/5 126/2/5 125/2/5
f 129/1/5 125/1/5 128/1/5
f 130/2/5 126/2/5 129/2/5
f 133/2/5 132/2/5 131/2/5
f 134/2/5 132/2/5 133/2/5
f 135/2/6 136/2/6 137/2/6
f 137/2/6 136/2/6 138/2/6
f 139/2/6 140/2/6 143/2/6
f 141/2/6 142/2/6 144/2/6
f 139/2/6 143/2/6 145/2/6
f 143/2/6 144/2/6 145/2/6
f 145/2/6 144/2/6 146/2/6
f 144/2/6 142/2/6 147/2/6
f 146/2/6 144/2/6 147/2/6
f 147/2/6 142/2/6 148/2/6
f 149/1/6 150/1/6 151/1/6
f 151/1/6 150/1/6 152/1/6
f 153/1/6 154/1/6 155/1/6
f 155/1/6 154/1/6 156/1/6
f 157/1/6 158/1/6 159/1/6
f 159/1/6 158/1/6 160/1/6
f 161/2/6 162/2/6 167/2/6
f 163/2/6 164/2/6 168/2/6
f 168/2/6 164/2/6 169/2/6
f 165/2/6 166/2/6 170/2/6
f 168/2/6 169/2/6 171/2/6
f 169/2/6 170/2/6 171/2/6
f 161/2/6 167/2/6 171/2/6
f 167/2/6 168/2/6 171/2/6
f 170/2/6 166/2/6 172/2/6
f 171/2/6 170/2/6 172/2/6
f 173/2/6 174/2/6 177/2/6
f 177/2/6 174/2/6 178/2/6
f 175/2/6 176/2/6 179/2/6
f 179/2/6 176/2/6 180/2/6
