# MagicaVoxel @ Ephtracy

# group
g DesertSide

# material
mtllib DesertSide.mtl
usemtl palette

# normals
vn -1 0 0
vn 1 0 0
vn 0 0 1
vn 0 0 -1
vn 0 -1 0
vn 0 1 0

# texcoords
vt 0.0136719 0.5
vt 0.177734 0.5
vt 0.181641 0.5
vt 0.201172 0.5
vt 0.369141 0.5

# verts
v -34 0 34
v -34 0 -34
v -34 2 34
v -34 2 -34
v 16 0 16
v 16 0 -16
v 16 2 16
v 16 2 -16
v -16 0 16
v -16 0 -16
v -16 2 16
v -16 2 -16
v 34 0 34
v 34 0 -34
v 34 2 34
v 34 2 -34
v -34 0 34
v -34 2 34
v 34 0 34
v 34 2 34
v -16 0 -16
v -16 2 -16
v 16 0 -16
v 16 2 -16
v -16 0 16
v -16 2 16
v -7 1 16
v -7 2 16
v -6 1 16
v -6 2 16
v 16 0 16
v 16 2 16
v -34 0 -34
v -34 2 -34
v 34 0 -34
v 34 2 -34
v -34 0 34
v 34 0 34
v -16 0 16
v 16 0 16
v -16 0 -16
v 16 0 -16
v -34 0 -34
v 34 0 -34
v -34 2 34
v 34 2 34
v -13 2 26
v -12 2 26
v -13 2 25
v -12 2 25
v -12 2 23
v -11 2 23
v -12 2 22
v -11 2 22
v -2 2 22
v -1 2 22
v -22 2 21
v -21 2 21
v -2 2 21
v -1 2 21
v -22 2 20
v -21 2 20
v -17 2 20
v -16 2 20
v 14 2 20
v 15 2 20
v -17 2 19
v -16 2 19
v -11 2 19
v -10 2 19
v 7 2 19
v 8 2 19
v 14 2 19
v 15 2 19
v -11 2 18
v -10 2 18
v -5 2 18
v -4 2 18
v 3 2 18
v 4 2 18
v 7 2 18
v 8 2 18
v -7 2 17
v -6 2 17
v -5 2 17
v -4 2 17
v 3 2 17
v 4 2 17
v -16 2 16
v -7 2 16
v -6 2 16
v 16 2 16
v 18 2 15
v 19 2 15
v -24 2 14
v -23 2 14
v 18 2 14
v 19 2 14
v -24 2 13
v -23 2 13
v 21 2 13
v 22 2 13
v 21 2 12
v 22 2 12
v 18 2 10
v 19 2 10
v 18 2 9
v 19 2 9
v 22 2 9
v 23 2 9
v 22 2 8
v 23 2 8
v -26 2 7
v -25 2 7
v -26 2 6
v -25 2 6
v 19 2 6
v 20 2 6
v 17 2 5
v 18 2 5
v 19 2 5
v 20 2 5
v 17 2 4
v 18 2 4
v 26 2 4
v 27 2 4
v -26 2 3
v -25 2 3
v 26 2 3
v 27 2 3
v -26 2 2
v -25 2 2
v -22 2 1
v -21 2 1
v 23 2 1
v 24 2 1
v -22 2 -0
v -21 2 -0
v 23 2 -0
v 24 2 -0
v 18 2 -3
v 19 2 -3
v 18 2 -4
v 19 2 -4
v -27 2 -6
v -26 2 -6
v -27 2 -7
v -26 2 -7
v -24 2 -7
v -23 2 -7
v -24 2 -8
v -23 2 -8
v -23 2 -11
v -22 2 -11
v 19 2 -11
v 20 2 -11
v -23 2 -12
v -22 2 -12
v 19 2 -12
v 20 2 -12
v -28 2 -13
v -27 2 -13
v -28 2 -14
v -27 2 -14
v -24 2 -15
v -23 2 -15
v -24 2 -16
v -23 2 -16
v -16 2 -16
v 16 2 -16
v 18 2 -16
v 19 2 -16
v 18 2 -17
v 19 2 -17
v -25 2 -21
v -24 2 -21
v 0 2 -21
v 1 2 -21
v -25 2 -22
v -24 2 -22
v 0 2 -22
v 1 2 -22
v -18 2 -23
v -17 2 -23
v -12 2 -23
v -11 2 -23
v -9 2 -23
v -8 2 -23
v 4 2 -23
v 5 2 -23
v 9 2 -23
v 10 2 -23
v -18 2 -24
v -17 2 -24
v -12 2 -24
v -11 2 -24
v -9 2 -24
v -8 2 -24
v 4 2 -24
v 5 2 -24
v 9 2 -24
v 10 2 -24
v -19 2 -27
v -18 2 -27
v -8 2 -27
v -7 2 -27
v 1 2 -27
v 2 2 -27
v -19 2 -28
v -18 2 -28
v -8 2 -28
v -7 2 -28
v 1 2 -28
v 2 2 -28
v -5 2 -29
v -4 2 -29
v -23 2 -30
v -22 2 -30
v -5 2 -30
v -4 2 -30
v -23 2 -31
v -22 2 -31
v -34 2 -34
v 34 2 -34

# faces
f 3/5/1 2/5/1 1/5/1
f 4/5/1 2/5/1 3/5/1
f 7/5/1 6/5/1 5/5/1
f 8/5/1 6/5/1 7/5/1
f 9/5/2 10/5/2 11/5/2
f 11/5/2 10/5/2 12/5/2
f 13/5/2 14/5/2 15/5/2
f 15/5/2 14/5/2 16/5/2
f 19/5/3 18/5/3 17/5/3
f 20/5/3 18/5/3 19/5/3
f 23/5/3 22/5/3 21/5/3
f 24/5/3 22/5/3 23/5/3
f 25/5/4 26/5/4 27/5/4
f 27/5/4 26/5/4 28/5/4
f 25/5/4 27/5/4 29/5/4
f 27/1/4 28/1/4 29/1/4
f 29/1/4 28/1/4 30/1/4
f 25/5/4 29/5/4 31/5/4
f 29/5/4 30/5/4 31/5/4
f 31/5/4 30/5/4 32/5/4
f 33/5/4 34/5/4 35/5/4
f 35/5/4 34/5/4 36/5/4
f 39/5/5 38/5/5 37/5/5
f 40/5/5 38/5/5 39/5/5
f 41/5/5 39/5/5 37/5/5
f 42/5/5 38/5/5 40/5/5
f 43/5/5 41/5/5 37/5/5
f 43/5/5 42/5/5 41/5/5
f 44/5/5 38/5/5 42/5/5
f 44/5/5 42/5/5 43/5/5
f 45/5/6 46/5/6 47/5/6
f 47/5/6 46/5/6 48/5/6
f 45/5/6 47/5/6 49/5/6
f 47/1/6 48/1/6 49/1/6
f 48/5/6 46/5/6 50/5/6
f 49/1/6 48/1/6 50/1/6
f 49/5/6 50/5/6 51/5/6
f 50/5/6 46/5/6 51/5/6
f 51/5/6 46/5/6 52/5/6
f 49/5/6 51/5/6 53/5/6
f 51/1/6 52/1/6 53/1/6
f 52/5/6 46/5/6 54/5/6
f 53/1/6 52/1/6 54/1/6
f 54/5/6 46/5/6 55/5/6
f 55/5/6 46/5/6 56/5/6
f 45/5/6 49/5/6 57/5/6
f 49/5/6 53/5/6 57/5/6
f 53/5/6 54/5/6 57/5/6
f 54/5/6 55/5/6 57/5/6
f 57/5/6 55/5/6 58/5/6
f 55/1/6 56/1/6 59/1/6
f 58/5/6 55/5/6 59/5/6
f 56/5/6 46/5/6 60/5/6
f 59/1/6 56/1/6 60/1/6
f 57/1/6 58/1/6 61/1/6
f 45/5/6 57/5/6 61/5/6
f 58/5/6 59/5/6 62/5/6
f 61/1/6 58/1/6 62/1/6
f 59/5/6 60/5/6 62/5/6
f 62/5/6 60/5/6 63/5/6
f 63/5/6 60/5/6 64/5/6
f 60/5/6 46/5/6 65/5/6
f 64/5/6 60/5/6 65/5/6
f 65/5/6 46/5/6 66/5/6
f 63/4/6 64/4/6 67/4/6
f 61/5/6 62/5/6 67/5/6
f 62/5/6 63/5/6 67/5/6
f 64/5/6 65/5/6 68/5/6
f 67/4/6 64/4/6 68/4/6
f 68/5/6 65/5/6 69/5/6
f 69/5/6 65/5/6 70/5/6
f 70/5/6 65/5/6 71/5/6
f 71/5/6 65/5/6 72/5/6
f 65/2/6 66/2/6 73/2/6
f 72/5/6 65/5/6 73/5/6
f 66/5/6 46/5/6 74/5/6
f 73/2/6 66/2/6 74/2/6
f 67/5/6 68/5/6 75/5/6
f 68/5/6 69/5/6 75/5/6
f 69/2/6 70/2/6 75/2/6
f 70/5/6 71/5/6 76/5/6
f 75/2/6 70/2/6 76/2/6
f 76/5/6 71/5/6 77/5/6
f 77/5/6 71/5/6 78/5/6
f 78/5/6 71/5/6 79/5/6
f 79/5/6 71/5/6 80/5/6
f 71/2/6 72/2/6 81/2/6
f 80/5/6 71/5/6 81/5/6
f 72/5/6 73/5/6 82/5/6
f 81/2/6 72/2/6 82/2/6
f 73/5/6 74/5/6 82/5/6
f 75/5/6 76/5/6 83/5/6
f 76/5/6 77/5/6 83/5/6
f 83/5/6 77/5/6 84/5/6
f 77/4/6 78/4/6 85/4/6
f 84/5/6 77/5/6 85/5/6
f 78/5/6 79/5/6 86/5/6
f 85/4/6 78/4/6 86/4/6
f 79/2/6 80/2/6 87/2/6
f 86/5/6 79/5/6 87/5/6
f 80/5/6 81/5/6 88/5/6
f 87/2/6 80/2/6 88/2/6
f 81/5/6 82/5/6 88/5/6
f 67/5/6 75/5/6 89/5/6
f 75/5/6 83/5/6 89/5/6
f 83/1/6 84/1/6 90/1/6
f 89/5/6 83/5/6 90/5/6
f 86/5/6 87/5/6 91/5/6
f 90/1/6 84/1/6 91/1/6
f 85/5/6 86/5/6 91/5/6
f 84/5/6 85/5/6 91/5/6
f 87/5/6 88/5/6 91/5/6
f 74/5/6 46/5/6 92/5/6
f 91/5/6 88/5/6 92/5/6
f 82/5/6 74/5/6 92/5/6
f 88/5/6 82/5/6 92/5/6
f 92/5/6 46/5/6 93/5/6
f 93/5/6 46/5/6 94/5/6
f 45/5/6 61/5/6 95/5/6
f 61/5/6 67/5/6 95/5/6
f 67/5/6 89/5/6 95/5/6
f 95/5/6 89/5/6 96/5/6
f 93/2/6 94/2/6 97/2/6
f 92/5/6 93/5/6 97/5/6
f 94/5/6 46/5/6 98/5/6
f 97/2/6 94/2/6 98/2/6
f 95/3/6 96/3/6 99/3/6
f 45/5/6 95/5/6 99/5/6
f 96/5/6 89/5/6 100/5/6
f 99/3/6 96/3/6 100/3/6
f 98/5/6 46/5/6 101/5/6
f 97/5/6 98/5/6 101/5/6
f 101/5/6 46/5/6 102/5/6
f 97/5/6 101/5/6 103/5/6
f 101/4/6 102/4/6 103/4/6
f 102/5/6 46/5/6 104/5/6
f 103/4/6 102/4/6 104/4/6
f 92/5/6 97/5/6 105/5/6
f 97/5/6 103/5/6 105/5/6
f 103/5/6 104/5/6 105/5/6
f 105/5/6 104/5/6 106/5/6
f 92/5/6 105/5/6 107/5/6
f 105/1/6 106/1/6 107/1/6
f 106/5/6 104/5/6 108/5/6
f 107/1/6 106/1/6 108/1/6
f 104/5/6 46/5/6 109/5/6
f 108/5/6 104/5/6 109/5/6
f 109/5/6 46/5/6 110/5/6
f 107/5/6 108/5/6 111/5/6
f 108/5/6 109/5/6 111/5/6
f 109/1/6 110/1/6 111/1/6
f 110/5/6 46/5/6 112/5/6
f 111/1/6 110/1/6 112/1/6
f 45/5/6 99/5/6 113/5/6
f 99/5/6 100/5/6 113/5/6
f 113/5/6 100/5/6 114/5/6
f 45/5/6 113/5/6 115/5/6
f 113/2/6 114/2/6 115/2/6
f 114/5/6 100/5/6 116/5/6
f 115/2/6 114/2/6 116/2/6
f 107/5/6 111/5/6 117/5/6
f 111/5/6 112/5/6 117/5/6
f 117/5/6 112/5/6 118/5/6
f 92/5/6 107/5/6 119/5/6
f 107/5/6 117/5/6 119/5/6
f 119/5/6 117/5/6 120/5/6
f 117/4/6 118/4/6 121/4/6
f 120/5/6 117/5/6 121/5/6
f 118/5/6 112/5/6 122/5/6
f 121/4/6 118/4/6 122/4/6
f 119/2/6 120/2/6 123/2/6
f 92/5/6 119/5/6 123/5/6
f 120/5/6 121/5/6 124/5/6
f 123/2/6 120/2/6 124/2/6
f 121/5/6 122/5/6 124/5/6
f 112/5/6 46/5/6 125/5/6
f 124/5/6 122/5/6 125/5/6
f 122/5/6 112/5/6 125/5/6
f 125/5/6 46/5/6 126/5/6
f 115/5/6 116/5/6 127/5/6
f 45/5/6 115/5/6 127/5/6
f 116/5/6 100/5/6 128/5/6
f 127/5/6 116/5/6 128/5/6
f 123/5/6 124/5/6 129/5/6
f 125/1/6 126/1/6 129/1/6
f 124/5/6 125/5/6 129/5/6
f 126/5/6 46/5/6 130/5/6
f 129/1/6 126/1/6 130/1/6
f 45/5/6 127/5/6 131/5/6
f 127/4/6 128/4/6 131/4/6
f 128/5/6 100/5/6 132/5/6
f 131/4/6 128/4/6 132/4/6
f 100/5/6 89/5/6 133/5/6
f 132/5/6 100/5/6 133/5/6
f 131/5/6 132/5/6 133/5/6
f 133/5/6 89/5/6 134/5/6
f 129/5/6 130/5/6 135/5/6
f 123/5/6 129/5/6 135/5/6
f 135/5/6 130/5/6 136/5/6
f 133/3/6 134/3/6 137/3/6
f 131/5/6 133/5/6 137/5/6
f 134/5/6 89/5/6 138/5/6
f 137/3/6 134/3/6 138/3/6
f 135/1/6 136/1/6 139/1/6
f 123/5/6 135/5/6 139/5/6
f 136/5/6 130/5/6 140/5/6
f 139/1/6 136/1/6 140/1/6
f 123/5/6 139/5/6 141/5/6
f 139/5/6 140/5/6 141/5/6
f 141/5/6 140/5/6 142/5/6
f 123/5/6 141/5/6 143/5/6
f 141/4/6 142/4/6 143/4/6
f 142/5/6 140/5/6 144/5/6
f 143/4/6 142/4/6 144/4/6
f 45/5/6 131/5/6 145/5/6
f 131/5/6 137/5/6 145/5/6
f 137/5/6 138/5/6 145/5/6
f 145/5/6 138/5/6 146/5/6
f 45/5/6 145/5/6 147/5/6
f 145/1/6 146/1/6 147/1/6
f 146/5/6 138/5/6 148/5/6
f 147/1/6 146/1/6 148/1/6
f 148/5/6 138/5/6 149/5/6
f 149/5/6 138/5/6 150/5/6
f 147/5/6 148/5/6 151/5/6
f 148/5/6 149/5/6 151/5/6
f 149/3/6 150/3/6 151/3/6
f 150/5/6 138/5/6 152/5/6
f 151/3/6 150/3/6 152/3/6
f 151/5/6 152/5/6 153/5/6
f 152/5/6 138/5/6 153/5/6
f 153/5/6 138/5/6 154/5/6
f 144/5/6 140/5/6 155/5/6
f 143/5/6 144/5/6 155/5/6
f 155/5/6 140/5/6 156/5/6
f 153/4/6 154/4/6 157/4/6
f 151/5/6 153/5/6 157/5/6
f 154/5/6 138/5/6 158/5/6
f 157/4/6 154/4/6 158/4/6
f 155/3/6 156/3/6 159/3/6
f 143/5/6 155/5/6 159/5/6
f 156/5/6 140/5/6 160/5/6
f 159/3/6 156/3/6 160/3/6
f 151/5/6 157/5/6 161/5/6
f 45/5/6 147/5/6 161/5/6
f 147/5/6 151/5/6 161/5/6
f 157/5/6 158/5/6 161/5/6
f 161/5/6 158/5/6 162/5/6
f 45/5/6 161/5/6 163/5/6
f 161/1/6 162/1/6 163/1/6
f 162/5/6 158/5/6 164/5/6
f 163/1/6 162/1/6 164/1/6
f 163/5/6 164/5/6 165/5/6
f 164/5/6 158/5/6 165/5/6
f 165/5/6 158/5/6 166/5/6
f 163/5/6 165/5/6 167/5/6
f 165/1/6 166/1/6 167/1/6
f 166/5/6 158/5/6 168/5/6
f 167/1/6 166/1/6 168/1/6
f 138/5/6 89/5/6 169/5/6
f 168/5/6 158/5/6 169/5/6
f 158/5/6 138/5/6 169/5/6
f 143/5/6 159/5/6 170/5/6
f 92/5/6 123/5/6 170/5/6
f 123/5/6 143/5/6 170/5/6
f 159/5/6 160/5/6 170/5/6
f 170/5/6 160/5/6 171/5/6
f 171/5/6 160/5/6 172/5/6
f 168/5/6 169/5/6 173/5/6
f 167/5/6 168/5/6 173/5/6
f 171/3/6 172/3/6 173/3/6
f 170/5/6 171/5/6 173/5/6
f 169/5/6 170/5/6 173/5/6
f 172/5/6 160/5/6 174/5/6
f 173/3/6 172/3/6 174/3/6
f 167/5/6 173/5/6 175/5/6
f 163/5/6 167/5/6 175/5/6
f 173/5/6 174/5/6 175/5/6
f 175/5/6 174/5/6 176/5/6
f 176/5/6 174/5/6 177/5/6
f 177/5/6 174/5/6 178/5/6
f 163/5/6 175/5/6 179/5/6
f 175/4/6 176/4/6 179/4/6
f 176/5/6 177/5/6 180/5/6
f 179/4/6 176/4/6 180/4/6
f 177/3/6 178/3/6 181/3/6
f 180/5/6 177/5/6 181/5/6
f 178/5/6 174/5/6 182/5/6
f 181/3/6 178/3/6 182/3/6
f 180/5/6 181/5/6 183/5/6
f 179/5/6 180/5/6 183/5/6
f 181/5/6 182/5/6 183/5/6
f 183/5/6 182/5/6 184/5/6
f 184/5/6 182/5/6 185/5/6
f 185/5/6 182/5/6 186/5/6
f 186/5/6 182/5/6 187/5/6
f 187/5/6 182/5/6 188/5/6
f 182/5/6 174/5/6 189/5/6
f 188/5/6 182/5/6 189/5/6
f 189/5/6 174/5/6 190/5/6
f 190/5/6 174/5/6 191/5/6
f 191/5/6 174/5/6 192/5/6
f 179/5/6 183/5/6 193/5/6
f 183/1/6 184/1/6 193/1/6
f 184/5/6 185/5/6 194/5/6
f 193/1/6 184/1/6 194/1/6
f 185/3/6 186/3/6 195/3/6
f 194/5/6 185/5/6 195/5/6
f 186/5/6 187/5/6 196/5/6
f 195/3/6 186/3/6 196/3/6
f 187/4/6 188/4/6 197/4/6
f 196/5/6 187/5/6 197/5/6
f 188/5/6 189/5/6 198/5/6
f 197/4/6 188/4/6 198/4/6
f 189/4/6 190/4/6 199/4/6
f 198/5/6 189/5/6 199/5/6
f 190/5/6 191/5/6 200/5/6
f 199/4/6 190/4/6 200/4/6
f 191/3/6 192/3/6 201/3/6
f 200/5/6 191/5/6 201/5/6
f 192/5/6 174/5/6 202/5/6
f 201/3/6 192/3/6 202/3/6
f 195/5/6 196/5/6 203/5/6
f 200/5/6 201/5/6 203/5/6
f 201/5/6 202/5/6 203/5/6
f 198/5/6 199/5/6 203/5/6
f 197/5/6 198/5/6 203/5/6
f 196/5/6 197/5/6 203/5/6
f 194/5/6 195/5/6 203/5/6
f 193/5/6 194/5/6 203/5/6
f 179/5/6 193/5/6 203/5/6
f 199/5/6 200/5/6 203/5/6
f 203/5/6 202/5/6 204/5/6
f 204/5/6 202/5/6 205/5/6
f 205/5/6 202/5/6 206/5/6
f 206/5/6 202/5/6 207/5/6
f 207/5/6 202/5/6 208/5/6
f 179/5/6 203/5/6 209/5/6
f 203/1/6 204/1/6 209/1/6
f 204/5/6 205/5/6 210/5/6
f 209/1/6 204/1/6 210/1/6
f 205/4/6 206/4/6 211/4/6
f 210/5/6 205/5/6 211/5/6
f 206/5/6 207/5/6 212/5/6
f 211/4/6 206/4/6 212/4/6
f 207/1/6 208/1/6 213/1/6
f 212/5/6 207/5/6 213/5/6
f 208/5/6 202/5/6 214/5/6
f 213/1/6 208/1/6 214/1/6
f 212/5/6 213/5/6 215/5/6
f 211/5/6 212/5/6 215/5/6
f 213/5/6 214/5/6 215/5/6
f 210/5/6 211/5/6 215/5/6
f 209/5/6 210/5/6 215/5/6
f 215/5/6 214/5/6 216/5/6
f 179/5/6 209/5/6 217/5/6
f 209/5/6 215/5/6 217/5/6
f 217/5/6 215/5/6 218/5/6
f 215/1/6 216/1/6 219/1/6
f 218/5/6 215/5/6 219/5/6
f 216/5/6 214/5/6 220/5/6
f 219/1/6 216/1/6 220/1/6
f 217/1/6 218/1/6 221/1/6
f 179/5/6 217/5/6 221/5/6
f 218/5/6 219/5/6 222/5/6
f 221/1/6 218/1/6 222/1/6
f 219/5/6 220/5/6 222/5/6
f 45/5/6 163/5/6 223/5/6
f 163/5/6 179/5/6 223/5/6
f 221/5/6 222/5/6 223/5/6
f 179/5/6 221/5/6 223/5/6
f 130/5/6 46/5/6 224/5/6
f 223/5/6 222/5/6 224/5/6
f 160/5/6 140/5/6 224/5/6
f 214/5/6 202/5/6 224/5/6
f 220/5/6 214/5/6 224/5/6
f 202/5/6 174/5/6 224/5/6
f 174/5/6 160/5/6 224/5/6
f 222/5/6 220/5/6 224/5/6
f 140/5/6 130/5/6 224/5/6
