# MagicaVoxel @ Ephtracy

# group
g Desert

# material
mtllib Desert.mtl
usemtl palette

# normals
vn -1 0 0
vn 1 0 0
vn 0 0 1
vn 0 0 -1
vn 0 -1 0
vn 0 1 0

# texcoords
vt 0.0332031 0.5
vt 0.0605469 0.5
vt 0.232422 0.5
vt 0.341797 0.5
vt 0.369141 0.5
vt 0.373047 0.5

# verts
v -18 5 18
v -18 5 -18
v -18 7 18
v -18 7 -18
v -16 0 16
v -16 0 -16
v -16 5 16
v -16 5 -16
v 16 0 16
v 16 0 -16
v 16 5 16
v 16 5 -16
v 18 5 18
v 18 5 -18
v 18 7 18
v 18 7 -18
v -18 5 18
v -18 7 18
v 18 5 18
v 18 7 18
v -16 0 16
v -16 5 16
v 16 0 16
v 16 5 16
v -16 0 -16
v -16 5 -16
v 16 0 -16
v 16 5 -16
v -18 5 -18
v -18 7 -18
v 18 5 -18
v 18 7 -18
v -16 0 16
v 16 0 16
v -16 0 -16
v 16 0 -16
v -18 5 18
v 18 5 18
v -16 5 16
v 16 5 16
v -16 5 -16
v 16 5 -16
v -18 5 -18
v 18 5 -18
v -18 7 18
v 18 7 18
v -17 7 17
v 17 7 17
v -16 7 16
v -14 7 16
v -13 7 16
v 16 7 16
v -14 7 15
v -13 7 15
v 13 7 14
v 14 7 14
v 3 7 13
v 4 7 13
v 13 7 13
v 14 7 13
v 3 7 12
v 4 7 12
v 12 7 11
v 13 7 11
v -11 7 10
v -10 7 10
v -3 7 10
v -2 7 10
v 12 7 10
v 13 7 10
v -11 7 9
v -10 7 9
v -3 7 9
v -2 7 9
v 4 7 5
v 5 7 5
v 13 7 5
v 14 7 5
v -4 7 4
v -3 7 4
v 4 7 4
v 5 7 4
v 13 7 4
v 14 7 4
v -4 7 3
v -3 7 3
v -13 7 2
v -12 7 2
v -13 7 1
v -12 7 1
v 5 7 1
v 6 7 1
v 5 7 -0
v 6 7 -0
v -4 7 -4
v -3 7 -4
v 15 7 -4
v 16 7 -4
v -11 7 -5
v -10 7 -5
v -4 7 -5
v -3 7 -5
v 15 7 -5
v 16 7 -5
v -11 7 -6
v -10 7 -6
v -15 7 -9
v -14 7 -9
v -15 7 -10
v -14 7 -10
v -3 7 -11
v -2 7 -11
v -3 7 -12
v -2 7 -12
v 9 7 -14
v 10 7 -14
v 9 7 -15
v 10 7 -15
v -16 7 -16
v 16 7 -16
v -17 7 -17
v 17 7 -17
v -18 7 -18
v 18 7 -18

# faces
f 3/5/1 2/5/1 1/5/1
f 4/5/1 2/5/1 3/5/1
f 7/5/1 6/5/1 5/5/1
f 8/5/1 6/5/1 7/5/1
f 9/5/2 10/5/2 11/5/2
f 11/5/2 10/5/2 12/5/2
f 13/5/2 14/5/2 15/5/2
f 15/5/2 14/5/2 16/5/2
f 19/5/3 18/5/3 17/5/3
f 20/5/3 18/5/3 19/5/3
f 23/5/3 22/5/3 21/5/3
f 24/5/3 22/5/3 23/5/3
f 25/5/4 26/5/4 27/5/4
f 27/5/4 26/5/4 28/5/4
f 29/5/4 30/5/4 31/5/4
f 31/5/4 30/5/4 32/5/4
f 35/5/5 34/5/5 33/5/5
f 36/5/5 34/5/5 35/5/5
f 39/5/5 38/5/5 37/5/5
f 40/5/5 38/5/5 39/5/5
f 41/5/5 39/5/5 37/5/5
f 42/5/5 38/5/5 40/5/5
f 43/5/5 41/5/5 37/5/5
f 43/5/5 42/5/5 41/5/5
f 44/5/5 38/5/5 42/5/5
f 44/5/5 42/5/5 43/5/5
f 45/5/6 46/5/6 47/5/6
f 47/5/6 46/5/6 48/5/6
f 47/2/6 48/2/6 49/2/6
f 49/2/6 48/2/6 50/2/6
f 50/2/6 48/2/6 51/2/6
f 51/2/6 48/2/6 52/2/6
f 49/1/6 50/1/6 53/1/6
f 50/6/6 51/6/6 53/6/6
f 51/1/6 52/1/6 54/1/6
f 53/6/6 51/6/6 54/6/6
f 53/1/6 54/1/6 55/1/6
f 54/1/6 52/1/6 55/1/6
f 55/1/6 52/1/6 56/1/6
f 53/1/6 55/1/6 57/1/6
f 57/1/6 55/1/6 58/1/6
f 55/3/6 56/3/6 59/3/6
f 58/1/6 55/1/6 59/1/6
f 56/1/6 52/1/6 60/1/6
f 59/3/6 56/3/6 60/3/6
f 57/3/6 58/3/6 61/3/6
f 53/1/6 57/1/6 61/1/6
f 58/1/6 59/1/6 62/1/6
f 61/3/6 58/3/6 62/3/6
f 59/1/6 60/1/6 62/1/6
f 61/1/6 62/1/6 63/1/6
f 62/1/6 60/1/6 63/1/6
f 63/1/6 60/1/6 64/1/6
f 53/1/6 61/1/6 65/1/6
f 61/1/6 63/1/6 65/1/6
f 65/1/6 63/1/6 66/1/6
f 66/1/6 63/1/6 67/1/6
f 67/1/6 63/1/6 68/1/6
f 63/6/6 64/6/6 69/6/6
f 68/1/6 63/1/6 69/1/6
f 64/1/6 60/1/6 70/1/6
f 69/6/6 64/6/6 70/6/6
f 53/1/6 65/1/6 71/1/6
f 65/3/6 66/3/6 71/3/6
f 66/1/6 67/1/6 72/1/6
f 71/3/6 66/3/6 72/3/6
f 67/4/6 68/4/6 73/4/6
f 72/1/6 67/1/6 73/1/6
f 68/1/6 69/1/6 74/1/6
f 73/4/6 68/4/6 74/4/6
f 69/1/6 70/1/6 74/1/6
f 72/1/6 73/1/6 75/1/6
f 74/1/6 70/1/6 75/1/6
f 73/1/6 74/1/6 75/1/6
f 71/1/6 72/1/6 75/1/6
f 75/1/6 70/1/6 76/1/6
f 70/1/6 60/1/6 77/1/6
f 76/1/6 70/1/6 77/1/6
f 60/1/6 52/1/6 78/1/6
f 77/1/6 60/1/6 78/1/6
f 71/1/6 75/1/6 79/1/6
f 79/1/6 75/1/6 80/1/6
f 75/6/6 76/6/6 81/6/6
f 80/1/6 75/1/6 81/1/6
f 76/1/6 77/1/6 82/1/6
f 81/6/6 76/6/6 82/6/6
f 77/4/6 78/4/6 83/4/6
f 82/1/6 77/1/6 83/1/6
f 78/1/6 52/1/6 84/1/6
f 83/4/6 78/4/6 84/4/6
f 79/3/6 80/3/6 85/3/6
f 71/1/6 79/1/6 85/1/6
f 80/1/6 81/1/6 86/1/6
f 85/3/6 80/3/6 86/3/6
f 82/1/6 83/1/6 86/1/6
f 83/1/6 84/1/6 86/1/6
f 81/1/6 82/1/6 86/1/6
f 53/1/6 71/1/6 87/1/6
f 71/1/6 85/1/6 87/1/6
f 85/1/6 86/1/6 87/1/6
f 87/1/6 86/1/6 88/1/6
f 53/1/6 87/1/6 89/1/6
f 87/4/6 88/4/6 89/4/6
f 88/1/6 86/1/6 90/1/6
f 89/4/6 88/4/6 90/4/6
f 86/1/6 84/1/6 91/1/6
f 90/1/6 86/1/6 91/1/6
f 91/1/6 84/1/6 92/1/6
f 89/1/6 90/1/6 93/1/6
f 90/1/6 91/1/6 93/1/6
f 91/3/6 92/3/6 93/3/6
f 92/1/6 84/1/6 94/1/6
f 93/3/6 92/3/6 94/3/6
f 89/1/6 93/1/6 95/1/6
f 93/1/6 94/1/6 95/1/6
f 95/1/6 94/1/6 96/1/6
f 94/1/6 84/1/6 97/1/6
f 96/1/6 94/1/6 97/1/6
f 84/1/6 52/1/6 97/1/6
f 52/2/6 48/2/6 98/2/6
f 97/1/6 52/1/6 98/1/6
f 89/1/6 95/1/6 99/1/6
f 99/1/6 95/1/6 100/1/6
f 95/4/6 96/4/6 101/4/6
f 100/1/6 95/1/6 101/1/6
f 96/1/6 97/1/6 102/1/6
f 101/4/6 96/4/6 102/4/6
f 97/3/6 98/3/6 103/3/6
f 102/1/6 97/1/6 103/1/6
f 98/2/6 48/2/6 104/2/6
f 103/3/6 98/3/6 104/3/6
f 99/3/6 100/3/6 105/3/6
f 89/1/6 99/1/6 105/1/6
f 100/1/6 101/1/6 106/1/6
f 105/3/6 100/3/6 106/3/6
f 102/1/6 103/1/6 106/1/6
f 103/1/6 104/1/6 106/1/6
f 101/1/6 102/1/6 106/1/6
f 89/1/6 105/1/6 107/1/6
f 49/1/6 53/1/6 107/1/6
f 105/1/6 106/1/6 107/1/6
f 53/1/6 89/1/6 107/1/6
f 107/1/6 106/1/6 108/1/6
f 49/1/6 107/1/6 109/1/6
f 107/6/6 108/6/6 109/6/6
f 108/1/6 106/1/6 110/1/6
f 109/6/6 108/6/6 110/6/6
f 106/1/6 104/1/6 111/1/6
f 110/1/6 106/1/6 111/1/6
f 109/1/6 110/1/6 111/1/6
f 111/1/6 104/1/6 112/1/6
f 109/1/6 111/1/6 113/1/6
f 111/3/6 112/3/6 113/3/6
f 112/1/6 104/1/6 114/1/6
f 113/3/6 112/3/6 114/3/6
f 113/1/6 114/1/6 115/1/6
f 114/1/6 104/1/6 115/1/6
f 115/1/6 104/1/6 116/1/6
f 113/1/6 115/1/6 117/1/6
f 115/3/6 116/3/6 117/3/6
f 116/1/6 104/1/6 118/1/6
f 117/3/6 116/3/6 118/3/6
f 47/2/6 49/2/6 119/2/6
f 49/1/6 109/1/6 119/1/6
f 117/1/6 118/1/6 119/1/6
f 113/1/6 117/1/6 119/1/6
f 109/1/6 113/1/6 119/1/6
f 118/1/6 104/1/6 120/1/6
f 119/1/6 118/1/6 120/1/6
f 104/2/6 48/2/6 120/2/6
f 45/5/6 47/5/6 121/5/6
f 47/2/6 119/2/6 121/2/6
f 119/2/6 120/2/6 121/2/6
f 120/2/6 48/2/6 122/2/6
f 121/2/6 120/2/6 122/2/6
f 48/5/6 46/5/6 122/5/6
f 45/5/6 121/5/6 123/5/6
f 121/5/6 122/5/6 123/5/6
f 122/5/6 46/5/6 124/5/6
f 123/5/6 122/5/6 124/5/6
