# MagicaVoxel @ Ephtracy

# group
g Larva

# material
mtllib Larva.mtl
usemtl palette

# normals
vn -1 0 0
vn 1 0 0
vn 0 0 1
vn 0 0 -1
vn 0 -1 0
vn 0 1 0

# texcoords
vt 0.0214844 0.5
vt 0.181641 0.5
vt 0.232422 0.5
vt 0.373047 0.5
vt 0.841797 0.5
vt 0.869141 0.5

# verts
v -34 0 34
v -34 0 -34
v -34 2 34
v -34 2 -34
v 34 0 34
v 34 0 -34
v 34 2 34
v 34 2 -34
v -34 0 34
v -34 2 34
v 34 0 34
v 34 2 34
v -34 0 -34
v -34 2 -34
v 34 0 -34
v 34 2 -34
v -34 0 34
v 34 0 34
v -34 0 -34
v 34 0 -34
v -34 2 34
v 34 2 34
v 3 2 28
v 4 2 28
v 3 2 27
v 4 2 27
v -10 2 26
v -9 2 26
v -10 2 25
v -9 2 25
v 3 2 25
v 4 2 25
v -22 2 24
v -21 2 24
v 3 2 24
v 4 2 24
v -22 2 23
v -21 2 23
v -28 2 22
v -27 2 22
v -12 2 22
v -11 2 22
v 10 2 22
v 11 2 22
v -28 2 21
v -27 2 21
v -12 2 21
v -11 2 21
v -9 2 21
v -8 2 21
v -2 2 21
v -1 2 21
v 10 2 21
v 11 2 21
v 16 2 21
v 17 2 21
v -9 2 20
v -8 2 20
v -7 2 20
v -6 2 20
v -2 2 20
v -1 2 20
v 7 2 20
v 8 2 20
v 16 2 20
v 17 2 20
v -16 2 19
v -15 2 19
v -7 2 19
v -6 2 19
v 7 2 19
v 8 2 19
v -16 2 18
v -15 2 18
v 8 2 17
v 9 2 17
v -13 2 16
v -12 2 16
v 8 2 16
v 9 2 16
v -29 2 15
v -28 2 15
v -22 2 15
v -21 2 15
v -13 2 15
v -12 2 15
v 0 2 15
v 1 2 15
v -29 2 14
v -28 2 14
v -22 2 14
v -21 2 14
v 0 2 14
v 1 2 14
v -24 2 13
v -23 2 13
v 20 2 13
v 21 2 13
v -24 2 12
v -23 2 12
v 15 2 12
v 16 2 12
v 20 2 12
v 21 2 12
v -8 2 11
v -7 2 11
v 15 2 11
v 16 2 11
v 21 2 11
v 22 2 11
v -17 2 10
v -16 2 10
v -12 2 10
v -11 2 10
v -8 2 10
v -7 2 10
v 9 2 10
v 10 2 10
v 21 2 10
v 22 2 10
v -17 2 9
v -16 2 9
v -12 2 9
v -11 2 9
v 0 2 9
v 1 2 9
v 9 2 9
v 10 2 9
v -15 2 8
v -14 2 8
v 0 2 8
v 1 2 8
v -23 2 7
v -22 2 7
v -15 2 7
v -14 2 7
v 9 2 7
v 10 2 7
v -23 2 6
v -22 2 6
v 9 2 6
v 10 2 6
v -3 2 5
v -2 2 5
v -18 2 4
v -17 2 4
v -7 2 4
v -6 2 4
v -3 2 4
v -2 2 4
v 8 2 4
v 9 2 4
v 16 2 4
v 17 2 4
v -28 2 3
v -27 2 3
v -18 2 3
v -17 2 3
v -7 2 3
v -6 2 3
v 8 2 3
v 9 2 3
v 16 2 3
v 17 2 3
v -28 2 2
v -27 2 2
v -22 2 2
v -21 2 2
v -10 2 2
v -9 2 2
v 16 2 2
v 17 2 2
v 26 2 2
v 27 2 2
v -22 2 1
v -21 2 1
v -10 2 1
v -9 2 1
v 16 2 1
v 17 2 1
v 26 2 1
v 27 2 1
v -15 2 -0
v -14 2 -0
v 3 2 -0
v 4 2 -0
v -15 2 -1
v -14 2 -1
v -1 2 -1
v 0 2 -1
v 3 2 -1
v 4 2 -1
v -1 2 -2
v 0 2 -2
v -9 2 -3
v -8 2 -3
v 8 2 -3
v 9 2 -3
v 28 2 -3
v 29 2 -3
v -28 2 -4
v -27 2 -4
v -22 2 -4
v -21 2 -4
v -9 2 -4
v -8 2 -4
v 8 2 -4
v 9 2 -4
v 13 2 -4
v 14 2 -4
v 28 2 -4
v 29 2 -4
v -28 2 -5
v -27 2 -5
v -22 2 -5
v -21 2 -5
v -4 2 -5
v -3 2 -5
v 13 2 -5
v 14 2 -5
v 17 2 -5
v 18 2 -5
v 20 2 -5
v 21 2 -5
v -21 2 -6
v -20 2 -6
v -4 2 -6
v -3 2 -6
v 17 2 -6
v 18 2 -6
v 20 2 -6
v 21 2 -6
v -21 2 -7
v -20 2 -7
v -17 2 -7
v -16 2 -7
v 22 2 -7
v 23 2 -7
v -17 2 -8
v -16 2 -8
v 22 2 -8
v 23 2 -8
v -4 2 -10
v -3 2 -10
v 3 2 -10
v 4 2 -10
v -24 2 -11
v -23 2 -11
v -4 2 -11
v -3 2 -11
v 3 2 -11
v 4 2 -11
v -24 2 -12
v -23 2 -12
v -19 2 -12
v -18 2 -12
v 12 2 -12
v 13 2 -12
v 24 2 -12
v 25 2 -12
v -19 2 -13
v -18 2 -13
v -12 2 -13
v -11 2 -13
v 2 2 -13
v 3 2 -13
v 12 2 -13
v 13 2 -13
v 17 2 -13
v 18 2 -13
v 24 2 -13
v 25 2 -13
v 26 2 -13
v -12 2 -14
v -11 2 -14
v 2 2 -14
v 3 2 -14
v 12 2 -14
v 13 2 -14
v 17 2 -14
v 18 2 -14
v 25 2 -14
v 26 2 -14
v -9 2 -15
v -8 2 -15
v -9 2 -16
v -8 2 -16
v 22 2 -16
v 23 2 -16
v -23 2 -17
v -22 2 -17
v -6 2 -17
v -5 2 -17
v -4 2 -17
v -3 2 -17
v 22 2 -17
v 23 2 -17
v -23 2 -18
v -22 2 -18
v -6 2 -18
v -5 2 -18
v -4 2 -18
v -3 2 -18
v 7 2 -18
v 8 2 -18
v 29 2 -18
v 30 2 -18
v -4 2 -19
v -3 2 -19
v 7 2 -19
v 8 2 -19
v 29 2 -19
v 30 2 -19
v -14 2 -20
v -13 2 -20
v -4 2 -20
v -3 2 -20
v -14 2 -21
v -13 2 -21
v 11 2 -21
v 12 2 -21
v 18 2 -21
v 19 2 -21
v 24 2 -21
v 25 2 -21
v -21 2 -22
v -20 2 -22
v -14 2 -22
v -13 2 -22
v 5 2 -22
v 6 2 -22
v 11 2 -22
v 12 2 -22
v 18 2 -22
v 19 2 -22
v 24 2 -22
v 25 2 -22
v -21 2 -23
v -20 2 -23
v -14 2 -23
v -13 2 -23
v 5 2 -23
v 6 2 -23
v -2 2 -24
v -1 2 -24
v 7 2 -24
v 8 2 -24
v -2 2 -25
v -1 2 -25
v 7 2 -25
v 8 2 -25
v -6 2 -26
v -5 2 -26
v -1 2 -26
v 0 2 -26
v -6 2 -27
v -5 2 -27
v -1 2 -27
v 0 2 -27
v 22 2 -28
v 23 2 -28
v 22 2 -29
v 23 2 -29
v -34 2 -34
v 34 2 -34

# faces
f 3/6/1 2/6/1 1/6/1
f 4/6/1 2/6/1 3/6/1
f 5/6/2 6/6/2 7/6/2
f 7/6/2 6/6/2 8/6/2
f 11/6/3 10/6/3 9/6/3
f 12/6/3 10/6/3 11/6/3
f 13/6/4 14/6/4 15/6/4
f 15/6/4 14/6/4 16/6/4
f 19/6/5 18/6/5 17/6/5
f 20/6/5 18/6/5 19/6/5
f 21/6/6 22/6/6 23/6/6
f 23/6/6 22/6/6 24/6/6
f 21/6/6 23/6/6 25/6/6
f 23/5/6 24/5/6 25/5/6
f 24/6/6 22/6/6 26/6/6
f 25/5/6 24/5/6 26/5/6
f 21/6/6 25/6/6 27/6/6
f 25/6/6 26/6/6 27/6/6
f 27/6/6 26/6/6 28/6/6
f 21/6/6 27/6/6 29/6/6
f 27/5/6 28/5/6 29/5/6
f 28/6/6 26/6/6 30/6/6
f 29/5/6 28/5/6 30/5/6
f 30/6/6 26/6/6 31/6/6
f 26/6/6 22/6/6 32/6/6
f 31/6/6 26/6/6 32/6/6
f 30/6/6 31/6/6 33/6/6
f 21/6/6 29/6/6 33/6/6
f 29/6/6 30/6/6 33/6/6
f 33/6/6 31/6/6 34/6/6
f 31/1/6 32/1/6 35/1/6
f 34/6/6 31/6/6 35/6/6
f 32/6/6 22/6/6 36/6/6
f 35/1/6 32/1/6 36/1/6
f 33/2/6 34/2/6 37/2/6
f 21/6/6 33/6/6 37/6/6
f 34/6/6 35/6/6 38/6/6
f 37/2/6 34/2/6 38/2/6
f 35/6/6 36/6/6 38/6/6
f 21/6/6 37/6/6 39/6/6
f 37/6/6 38/6/6 39/6/6
f 39/6/6 38/6/6 40/6/6
f 38/6/6 36/6/6 41/6/6
f 40/6/6 38/6/6 41/6/6
f 41/6/6 36/6/6 42/6/6
f 36/6/6 22/6/6 43/6/6
f 42/6/6 36/6/6 43/6/6
f 43/6/6 22/6/6 44/6/6
f 39/5/6 40/5/6 45/5/6
f 21/6/6 39/6/6 45/6/6
f 40/6/6 41/6/6 46/6/6
f 45/5/6 40/5/6 46/5/6
f 41/2/6 42/2/6 47/2/6
f 46/6/6 41/6/6 47/6/6
f 42/6/6 43/6/6 48/6/6
f 47/2/6 42/2/6 48/2/6
f 48/6/6 43/6/6 49/6/6
f 49/6/6 43/6/6 50/6/6
f 50/6/6 43/6/6 51/6/6
f 51/6/6 43/6/6 52/6/6
f 43/3/6 44/3/6 53/3/6
f 52/6/6 43/6/6 53/6/6
f 44/6/6 22/6/6 54/6/6
f 53/3/6 44/3/6 54/3/6
f 54/6/6 22/6/6 55/6/6
f 55/6/6 22/6/6 56/6/6
f 45/6/6 46/6/6 57/6/6
f 46/6/6 47/6/6 57/6/6
f 47/6/6 48/6/6 57/6/6
f 48/6/6 49/6/6 57/6/6
f 49/1/6 50/1/6 57/1/6
f 50/6/6 51/6/6 58/6/6
f 57/1/6 50/1/6 58/1/6
f 58/6/6 51/6/6 59/6/6
f 59/6/6 51/6/6 60/6/6
f 51/3/6 52/3/6 61/3/6
f 60/6/6 51/6/6 61/6/6
f 52/6/6 53/6/6 62/6/6
f 61/3/6 52/3/6 62/3/6
f 54/6/6 55/6/6 62/6/6
f 53/6/6 54/6/6 62/6/6
f 62/6/6 55/6/6 63/6/6
f 63/6/6 55/6/6 64/6/6
f 55/1/6 56/1/6 65/1/6
f 64/6/6 55/6/6 65/6/6
f 56/6/6 22/6/6 66/6/6
f 65/1/6 56/1/6 66/1/6
f 58/6/6 59/6/6 67/6/6
f 57/6/6 58/6/6 67/6/6
f 45/6/6 57/6/6 67/6/6
f 67/6/6 59/6/6 68/6/6
f 59/5/6 60/5/6 69/5/6
f 68/6/6 59/6/6 69/6/6
f 60/6/6 61/6/6 70/6/6
f 69/5/6 60/5/6 70/5/6
f 62/6/6 63/6/6 70/6/6
f 61/6/6 62/6/6 70/6/6
f 63/4/6 64/4/6 71/4/6
f 70/6/6 63/6/6 71/6/6
f 64/6/6 65/6/6 72/6/6
f 71/4/6 64/4/6 72/4/6
f 65/6/6 66/6/6 72/6/6
f 67/5/6 68/5/6 73/5/6
f 45/6/6 67/6/6 73/6/6
f 68/6/6 69/6/6 74/6/6
f 73/5/6 68/5/6 74/5/6
f 70/6/6 71/6/6 74/6/6
f 71/6/6 72/6/6 74/6/6
f 69/6/6 70/6/6 74/6/6
f 72/6/6 66/6/6 75/6/6
f 74/6/6 72/6/6 75/6/6
f 73/6/6 74/6/6 75/6/6
f 75/6/6 66/6/6 76/6/6
f 73/6/6 75/6/6 77/6/6
f 77/6/6 75/6/6 78/6/6
f 75/5/6 76/5/6 79/5/6
f 78/6/6 75/6/6 79/6/6
f 76/6/6 66/6/6 80/6/6
f 79/5/6 76/5/6 80/5/6
f 45/6/6 73/6/6 81/6/6
f 21/6/6 45/6/6 81/6/6
f 73/6/6 77/6/6 81/6/6
f 81/6/6 77/6/6 82/6/6
f 82/6/6 77/6/6 83/6/6
f 83/6/6 77/6/6 84/6/6
f 77/3/6 78/3/6 85/3/6
f 84/6/6 77/6/6 85/6/6
f 79/6/6 80/6/6 86/6/6
f 85/3/6 78/3/6 86/3/6
f 78/6/6 79/6/6 86/6/6
f 86/6/6 80/6/6 87/6/6
f 87/6/6 80/6/6 88/6/6
f 21/6/6 81/6/6 89/6/6
f 81/5/6 82/5/6 89/5/6
f 82/6/6 83/6/6 90/6/6
f 89/5/6 82/5/6 90/5/6
f 83/1/6 84/1/6 91/1/6
f 90/6/6 83/6/6 91/6/6
f 84/6/6 85/6/6 92/6/6
f 91/1/6 84/1/6 92/1/6
f 85/6/6 86/6/6 92/6/6
f 86/6/6 87/6/6 92/6/6
f 87/1/6 88/1/6 93/1/6
f 92/6/6 87/6/6 93/6/6
f 88/6/6 80/6/6 94/6/6
f 93/1/6 88/1/6 94/1/6
f 90/6/6 91/6/6 95/6/6
f 89/6/6 90/6/6 95/6/6
f 93/6/6 94/6/6 95/6/6
f 91/6/6 92/6/6 95/6/6
f 92/6/6 93/6/6 95/6/6
f 95/6/6 94/6/6 96/6/6
f 80/6/6 66/6/6 97/6/6
f 96/6/6 94/6/6 97/6/6
f 66/6/6 22/6/6 97/6/6
f 94/6/6 80/6/6 97/6/6
f 97/6/6 22/6/6 98/6/6
f 95/3/6 96/3/6 99/3/6
f 89/6/6 95/6/6 99/6/6
f 96/6/6 97/6/6 100/6/6
f 99/3/6 96/3/6 100/3/6
f 100/6/6 97/6/6 101/6/6
f 101/6/6 97/6/6 102/6/6
f 97/5/6 98/5/6 103/5/6
f 102/6/6 97/6/6 103/6/6
f 98/6/6 22/6/6 104/6/6
f 103/5/6 98/5/6 104/5/6
f 99/6/6 100/6/6 105/6/6
f 100/6/6 101/6/6 105/6/6
f 105/6/6 101/6/6 106/6/6
f 101/4/6 102/4/6 107/4/6
f 106/6/6 101/6/6 107/6/6
f 102/6/6 103/6/6 108/6/6
f 107/4/6 102/4/6 108/4/6
f 103/6/6 104/6/6 108/6/6
f 104/6/6 22/6/6 109/6/6
f 108/6/6 104/6/6 109/6/6
f 109/6/6 22/6/6 110/6/6
f 99/6/6 105/6/6 111/6/6
f 111/6/6 105/6/6 112/6/6
f 112/6/6 105/6/6 113/6/6
f 113/6/6 105/6/6 114/6/6
f 105/1/6 106/1/6 115/1/6
f 114/6/6 105/6/6 115/6/6
f 106/6/6 107/6/6 116/6/6
f 115/1/6 106/1/6 116/1/6
f 107/6/6 108/6/6 116/6/6
f 108/6/6 109/6/6 116/6/6
f 116/6/6 109/6/6 117/6/6
f 117/6/6 109/6/6 118/6/6
f 109/1/6 110/1/6 119/1/6
f 118/6/6 109/6/6 119/6/6
f 110/6/6 22/6/6 120/6/6
f 119/1/6 110/1/6 120/1/6
f 111/1/6 112/1/6 121/1/6
f 99/6/6 111/6/6 121/6/6
f 112/6/6 113/6/6 122/6/6
f 121/1/6 112/1/6 122/1/6
f 113/4/6 114/4/6 123/4/6
f 122/6/6 113/6/6 123/6/6
f 114/6/6 115/6/6 124/6/6
f 123/4/6 114/4/6 124/4/6
f 115/6/6 116/6/6 124/6/6
f 116/6/6 117/6/6 124/6/6
f 124/6/6 117/6/6 125/6/6
f 125/6/6 117/6/6 126/6/6
f 117/1/6 118/1/6 127/1/6
f 126/6/6 117/6/6 127/6/6
f 118/6/6 119/6/6 128/6/6
f 127/1/6 118/1/6 128/1/6
f 119/6/6 120/6/6 128/6/6
f 122/6/6 123/6/6 129/6/6
f 121/6/6 122/6/6 129/6/6
f 124/6/6 125/6/6 129/6/6
f 123/6/6 124/6/6 129/6/6
f 129/6/6 125/6/6 130/6/6
f 125/4/6 126/4/6 131/4/6
f 130/6/6 125/6/6 131/6/6
f 127/6/6 128/6/6 132/6/6
f 131/4/6 126/4/6 132/4/6
f 126/6/6 127/6/6 132/6/6
f 99/6/6 121/6/6 133/6/6
f 121/6/6 129/6/6 133/6/6
f 133/6/6 129/6/6 134/6/6
f 129/4/6 130/4/6 135/4/6
f 134/6/6 129/6/6 135/6/6
f 130/6/6 131/6/6 136/6/6
f 135/4/6 130/4/6 136/4/6
f 131/6/6 132/6/6 136/6/6
f 132/6/6 128/6/6 137/6/6
f 136/6/6 132/6/6 137/6/6
f 128/6/6 120/6/6 138/6/6
f 137/6/6 128/6/6 138/6/6
f 99/6/6 133/6/6 139/6/6
f 133/5/6 134/5/6 139/5/6
f 136/6/6 137/6/6 140/6/6
f 139/5/6 134/5/6 140/5/6
f 134/6/6 135/6/6 140/6/6
f 135/6/6 136/6/6 140/6/6
f 137/5/6 138/5/6 141/5/6
f 140/6/6 137/6/6 141/6/6
f 138/6/6 120/6/6 142/6/6
f 141/5/6 138/5/6 142/5/6
f 139/6/6 140/6/6 143/6/6
f 140/6/6 141/6/6 143/6/6
f 141/6/6 142/6/6 143/6/6
f 143/6/6 142/6/6 144/6/6
f 139/6/6 143/6/6 145/6/6
f 145/6/6 143/6/6 146/6/6
f 146/6/6 143/6/6 147/6/6
f 147/6/6 143/6/6 148/6/6
f 143/5/6 144/5/6 149/5/6
f 148/6/6 143/6/6 149/6/6
f 144/6/6 142/6/6 150/6/6
f 149/5/6 144/5/6 150/5/6
f 150/6/6 142/6/6 151/6/6
f 151/6/6 142/6/6 152/6/6
f 142/6/6 120/6/6 153/6/6
f 152/6/6 142/6/6 153/6/6
f 153/6/6 120/6/6 154/6/6
f 99/6/6 139/6/6 155/6/6
f 89/6/6 99/6/6 155/6/6
f 139/6/6 145/6/6 155/6/6
f 155/6/6 145/6/6 156/6/6
f 145/3/6 146/3/6 157/3/6
f 156/6/6 145/6/6 157/6/6
f 146/6/6 147/6/6 158/6/6
f 157/3/6 146/3/6 158/3/6
f 147/4/6 148/4/6 159/4/6
f 158/6/6 147/6/6 159/6/6
f 148/6/6 149/6/6 160/6/6
f 159/4/6 148/4/6 160/4/6
f 149/6/6 150/6/6 160/6/6
f 150/6/6 151/6/6 160/6/6
f 151/3/6 152/3/6 161/3/6
f 160/6/6 151/6/6 161/6/6
f 152/6/6 153/6/6 162/6/6
f 161/3/6 152/3/6 162/3/6
f 153/1/6 154/1/6 163/1/6
f 162/6/6 153/6/6 163/6/6
f 154/6/6 120/6/6 164/6/6
f 163/1/6 154/1/6 164/1/6
f 155/2/6 156/2/6 165/2/6
f 89/6/6 155/6/6 165/6/6
f 162/6/6 163/6/6 166/6/6
f 165/2/6 156/2/6 166/2/6
f 159/6/6 160/6/6 166/6/6
f 163/6/6 164/6/6 166/6/6
f 156/6/6 157/6/6 166/6/6
f 161/6/6 162/6/6 166/6/6
f 160/6/6 161/6/6 166/6/6
f 157/6/6 158/6/6 166/6/6
f 158/6/6 159/6/6 166/6/6
f 166/6/6 164/6/6 167/6/6
f 167/6/6 164/6/6 168/6/6
f 168/6/6 164/6/6 169/6/6
f 169/6/6 164/6/6 170/6/6
f 170/6/6 164/6/6 171/6/6
f 164/6/6 120/6/6 172/6/6
f 171/6/6 164/6/6 172/6/6
f 120/6/6 22/6/6 173/6/6
f 172/6/6 120/6/6 173/6/6
f 173/6/6 22/6/6 174/6/6
f 165/6/6 166/6/6 175/6/6
f 166/6/6 167/6/6 175/6/6
f 167/1/6 168/1/6 175/1/6
f 168/6/6 169/6/6 176/6/6
f 175/1/6 168/1/6 176/1/6
f 169/1/6 170/1/6 177/1/6
f 176/6/6 169/6/6 177/6/6
f 170/6/6 171/6/6 178/6/6
f 177/1/6 170/1/6 178/1/6
f 171/5/6 172/5/6 179/5/6
f 178/6/6 171/6/6 179/6/6
f 172/6/6 173/6/6 180/6/6
f 179/5/6 172/5/6 180/5/6
f 173/3/6 174/3/6 181/3/6
f 180/6/6 173/6/6 181/6/6
f 174/6/6 22/6/6 182/6/6
f 181/3/6 174/3/6 182/3/6
f 176/6/6 177/6/6 183/6/6
f 177/6/6 178/6/6 183/6/6
f 181/6/6 182/6/6 183/6/6
f 175/6/6 176/6/6 183/6/6
f 180/6/6 181/6/6 183/6/6
f 178/6/6 179/6/6 183/6/6
f 179/6/6 180/6/6 183/6/6
f 183/6/6 182/6/6 184/6/6
f 184/6/6 182/6/6 185/6/6
f 185/6/6 182/6/6 186/6/6
f 175/6/6 183/6/6 187/6/6
f 183/5/6 184/5/6 187/5/6
f 184/6/6 185/6/6 188/6/6
f 187/5/6 184/5/6 188/5/6
f 188/6/6 185/6/6 189/6/6
f 189/6/6 185/6/6 190/6/6
f 185/1/6 186/1/6 191/1/6
f 190/6/6 185/6/6 191/6/6
f 186/6/6 182/6/6 192/6/6
f 191/1/6 186/1/6 192/1/6
f 189/4/6 190/4/6 193/4/6
f 187/6/6 188/6/6 193/6/6
f 188/6/6 189/6/6 193/6/6
f 190/6/6 191/6/6 194/6/6
f 193/4/6 190/4/6 194/4/6
f 191/6/6 192/6/6 194/6/6
f 187/6/6 193/6/6 195/6/6
f 193/6/6 194/6/6 195/6/6
f 195/6/6 194/6/6 196/6/6
f 194/6/6 192/6/6 197/6/6
f 196/6/6 194/6/6 197/6/6
f 192/6/6 182/6/6 197/6/6
f 197/6/6 182/6/6 198/6/6
f 182/6/6 22/6/6 199/6/6
f 198/6/6 182/6/6 199/6/6
f 199/6/6 22/6/6 200/6/6
f 89/6/6 165/6/6 201/6/6
f 165/6/6 175/6/6 201/6/6
f 187/6/6 195/6/6 201/6/6
f 175/6/6 187/6/6 201/6/6
f 201/6/6 195/6/6 202/6/6
f 202/6/6 195/6/6 203/6/6
f 203/6/6 195/6/6 204/6/6
f 195/1/6 196/1/6 205/1/6
f 204/6/6 195/6/6 205/6/6
f 196/6/6 197/6/6 206/6/6
f 205/1/6 196/1/6 206/1/6
f 197/4/6 198/4/6 207/4/6
f 206/6/6 197/6/6 207/6/6
f 198/6/6 199/6/6 208/6/6
f 207/4/6 198/4/6 208/4/6
f 208/6/6 199/6/6 209/6/6
f 209/6/6 199/6/6 210/6/6
f 199/4/6 200/4/6 211/4/6
f 210/6/6 199/6/6 211/6/6
f 200/6/6 22/6/6 212/6/6
f 211/4/6 200/4/6 212/4/6
f 89/6/6 201/6/6 213/6/6
f 201/5/6 202/5/6 213/5/6
f 202/6/6 203/6/6 214/6/6
f 213/5/6 202/5/6 214/5/6
f 203/5/6 204/5/6 215/5/6
f 214/6/6 203/6/6 215/6/6
f 205/6/6 206/6/6 216/6/6
f 215/5/6 204/5/6 216/5/6
f 206/6/6 207/6/6 216/6/6
f 208/6/6 209/6/6 216/6/6
f 207/6/6 208/6/6 216/6/6
f 204/6/6 205/6/6 216/6/6
f 216/6/6 209/6/6 217/6/6
f 217/6/6 209/6/6 218/6/6
f 209/1/6 210/1/6 219/1/6
f 218/6/6 209/6/6 219/6/6
f 210/6/6 211/6/6 220/6/6
f 219/1/6 210/1/6 220/1/6
f 211/6/6 212/6/6 220/6/6
f 220/6/6 212/6/6 221/6/6
f 221/6/6 212/6/6 222/6/6
f 222/6/6 212/6/6 223/6/6
f 223/6/6 212/6/6 224/6/6
f 214/6/6 215/6/6 225/6/6
f 213/6/6 214/6/6 225/6/6
f 216/6/6 217/6/6 225/6/6
f 215/6/6 216/6/6 225/6/6
f 225/6/6 217/6/6 226/6/6
f 217/3/6 218/3/6 227/3/6
f 226/6/6 217/6/6 227/6/6
f 218/6/6 219/6/6 228/6/6
f 227/3/6 218/3/6 228/3/6
f 219/6/6 220/6/6 228/6/6
f 220/6/6 221/6/6 228/6/6
f 221/1/6 222/1/6 229/1/6
f 228/6/6 221/6/6 229/6/6
f 222/6/6 223/6/6 230/6/6
f 229/1/6 222/1/6 230/1/6
f 223/4/6 224/4/6 231/4/6
f 230/6/6 223/6/6 231/6/6
f 224/6/6 212/6/6 232/6/6
f 231/4/6 224/4/6 232/4/6
f 225/5/6 226/5/6 233/5/6
f 213/6/6 225/6/6 233/6/6
f 226/6/6 227/6/6 234/6/6
f 233/5/6 226/5/6 234/5/6
f 230/6/6 231/6/6 234/6/6
f 231/6/6 232/6/6 234/6/6
f 227/6/6 228/6/6 234/6/6
f 229/6/6 230/6/6 234/6/6
f 228/6/6 229/6/6 234/6/6
f 234/6/6 232/6/6 235/6/6
f 235/6/6 232/6/6 236/6/6
f 232/6/6 212/6/6 237/6/6
f 236/6/6 232/6/6 237/6/6
f 237/6/6 212/6/6 238/6/6
f 235/1/6 236/1/6 239/1/6
f 233/6/6 234/6/6 239/6/6
f 234/6/6 235/6/6 239/6/6
f 236/6/6 237/6/6 240/6/6
f 239/1/6 236/1/6 240/1/6
f 237/5/6 238/5/6 241/5/6
f 240/6/6 237/6/6 241/6/6
f 238/6/6 212/6/6 242/6/6
f 241/5/6 238/5/6 242/5/6
f 240/6/6 241/6/6 243/6/6
f 239/6/6 240/6/6 243/6/6
f 241/6/6 242/6/6 243/6/6
f 243/6/6 242/6/6 244/6/6
f 244/6/6 242/6/6 245/6/6
f 245/6/6 242/6/6 246/6/6
f 213/6/6 233/6/6 247/6/6
f 233/6/6 239/6/6 247/6/6
f 239/6/6 243/6/6 247/6/6
f 247/6/6 243/6/6 248/6/6
f 243/5/6 244/5/6 249/5/6
f 248/6/6 243/6/6 249/6/6
f 244/6/6 245/6/6 250/6/6
f 249/5/6 244/5/6 250/5/6
f 245/4/6 246/4/6 251/4/6
f 250/6/6 245/6/6 251/6/6
f 246/6/6 242/6/6 252/6/6
f 251/4/6 246/4/6 252/4/6
f 247/1/6 248/1/6 253/1/6
f 213/6/6 247/6/6 253/6/6
f 250/6/6 251/6/6 254/6/6
f 253/1/6 248/1/6 254/1/6
f 249/6/6 250/6/6 254/6/6
f 251/6/6 252/6/6 254/6/6
f 248/6/6 249/6/6 254/6/6
f 254/6/6 252/6/6 255/6/6
f 255/6/6 252/6/6 256/6/6
f 252/6/6 242/6/6 257/6/6
f 256/6/6 252/6/6 257/6/6
f 257/6/6 242/6/6 258/6/6
f 242/6/6 212/6/6 259/6/6
f 258/6/6 242/6/6 259/6/6
f 259/6/6 212/6/6 260/6/6
f 255/3/6 256/3/6 261/3/6
f 253/6/6 254/6/6 261/6/6
f 254/6/6 255/6/6 261/6/6
f 256/6/6 257/6/6 262/6/6
f 261/3/6 256/3/6 262/3/6
f 262/6/6 257/6/6 263/6/6
f 263/6/6 257/6/6 264/6/6
f 264/6/6 257/6/6 265/6/6
f 265/6/6 257/6/6 266/6/6
f 257/1/6 258/1/6 267/1/6
f 266/6/6 257/6/6 267/6/6
f 258/6/6 259/6/6 268/6/6
f 267/1/6 258/1/6 268/1/6
f 268/6/6 259/6/6 269/6/6
f 269/6/6 259/6/6 270/6/6
f 259/4/6 260/4/6 271/4/6
f 270/6/6 259/6/6 271/6/6
f 260/6/6 212/6/6 272/6/6
f 271/4/6 260/4/6 272/4/6
f 272/6/6 212/6/6 273/6/6
f 261/6/6 262/6/6 274/6/6
f 262/6/6 263/6/6 274/6/6
f 263/1/6 264/1/6 274/1/6
f 264/6/6 265/6/6 275/6/6
f 274/1/6 264/1/6 275/1/6
f 265/1/6 266/1/6 276/1/6
f 275/6/6 265/6/6 276/6/6
f 266/6/6 267/6/6 277/6/6
f 276/1/6 266/1/6 277/1/6
f 267/4/6 268/4/6 278/4/6
f 277/6/6 267/6/6 278/6/6
f 268/6/6 269/6/6 279/6/6
f 278/4/6 268/4/6 279/4/6
f 269/5/6 270/5/6 280/5/6
f 279/6/6 269/6/6 280/6/6
f 270/6/6 271/6/6 281/6/6
f 280/5/6 270/5/6 281/5/6
f 271/6/6 272/6/6 281/6/6
f 272/1/6 273/1/6 282/1/6
f 281/6/6 272/6/6 282/6/6
f 273/6/6 212/6/6 283/6/6
f 282/1/6 273/1/6 283/1/6
f 274/6/6 275/6/6 284/6/6
f 279/6/6 280/6/6 284/6/6
f 282/6/6 283/6/6 284/6/6
f 276/6/6 277/6/6 284/6/6
f 278/6/6 279/6/6 284/6/6
f 277/6/6 278/6/6 284/6/6
f 280/6/6 281/6/6 284/6/6
f 281/6/6 282/6/6 284/6/6
f 275/6/6 276/6/6 284/6/6
f 284/6/6 283/6/6 285/6/6
f 274/6/6 284/6/6 286/6/6
f 284/5/6 285/5/6 286/5/6
f 285/6/6 283/6/6 287/6/6
f 286/5/6 285/5/6 287/5/6
f 287/6/6 283/6/6 288/6/6
f 288/6/6 283/6/6 289/6/6
f 261/6/6 274/6/6 290/6/6
f 253/6/6 261/6/6 290/6/6
f 274/6/6 286/6/6 290/6/6
f 287/6/6 288/6/6 290/6/6
f 286/6/6 287/6/6 290/6/6
f 290/6/6 288/6/6 291/6/6
f 291/6/6 288/6/6 292/6/6
f 292/6/6 288/6/6 293/6/6
f 293/6/6 288/6/6 294/6/6
f 294/6/6 288/6/6 295/6/6
f 288/5/6 289/5/6 296/5/6
f 295/6/6 288/6/6 296/6/6
f 289/6/6 283/6/6 297/6/6
f 296/5/6 289/5/6 297/5/6
f 253/6/6 290/6/6 298/6/6
f 290/5/6 291/5/6 298/5/6
f 291/6/6 292/6/6 299/6/6
f 298/5/6 291/5/6 299/5/6
f 292/1/6 293/1/6 300/1/6
f 299/6/6 292/6/6 300/6/6
f 293/6/6 294/6/6 301/6/6
f 300/1/6 293/1/6 301/1/6
f 294/3/6 295/3/6 302/3/6
f 301/6/6 294/6/6 302/6/6
f 295/6/6 296/6/6 303/6/6
f 302/3/6 295/3/6 303/3/6
f 296/6/6 297/6/6 303/6/6
f 303/6/6 297/6/6 304/6/6
f 304/6/6 297/6/6 305/6/6
f 212/6/6 22/6/6 306/6/6
f 305/6/6 297/6/6 306/6/6
f 283/6/6 212/6/6 306/6/6
f 297/6/6 283/6/6 306/6/6
f 306/6/6 22/6/6 307/6/6
f 303/6/6 304/6/6 308/6/6
f 301/6/6 302/6/6 308/6/6
f 300/6/6 301/6/6 308/6/6
f 302/6/6 303/6/6 308/6/6
f 298/6/6 299/6/6 308/6/6
f 299/6/6 300/6/6 308/6/6
f 308/6/6 304/6/6 309/6/6
f 304/4/6 305/4/6 310/4/6
f 309/6/6 304/6/6 310/6/6
f 305/6/6 306/6/6 311/6/6
f 310/4/6 305/4/6 311/4/6
f 306/5/6 307/5/6 312/5/6
f 311/6/6 306/6/6 312/6/6
f 307/6/6 22/6/6 313/6/6
f 312/5/6 307/5/6 313/5/6
f 298/6/6 308/6/6 314/6/6
f 314/6/6 308/6/6 315/6/6
f 308/5/6 309/5/6 316/5/6
f 315/6/6 308/6/6 316/6/6
f 311/6/6 312/6/6 317/6/6
f 316/5/6 309/5/6 317/5/6
f 310/6/6 311/6/6 317/6/6
f 309/6/6 310/6/6 317/6/6
f 312/6/6 313/6/6 317/6/6
f 314/1/6 315/1/6 318/1/6
f 298/6/6 314/6/6 318/6/6
f 315/6/6 316/6/6 319/6/6
f 318/1/6 315/1/6 319/1/6
f 316/6/6 317/6/6 319/6/6
f 317/6/6 313/6/6 320/6/6
f 319/6/6 317/6/6 320/6/6
f 320/6/6 313/6/6 321/6/6
f 321/6/6 313/6/6 322/6/6
f 322/6/6 313/6/6 323/6/6
f 323/6/6 313/6/6 324/6/6
f 324/6/6 313/6/6 325/6/6
f 318/6/6 319/6/6 326/6/6
f 298/6/6 318/6/6 326/6/6
f 319/6/6 320/6/6 326/6/6
f 326/6/6 320/6/6 327/6/6
f 327/6/6 320/6/6 328/6/6
f 328/6/6 320/6/6 329/6/6
f 329/6/6 320/6/6 330/6/6
f 330/6/6 320/6/6 331/6/6
f 320/4/6 321/4/6 332/4/6
f 331/6/6 320/6/6 332/6/6
f 321/6/6 322/6/6 333/6/6
f 332/4/6 321/4/6 333/4/6
f 322/1/6 323/1/6 334/1/6
f 333/6/6 322/6/6 334/6/6
f 323/6/6 324/6/6 335/6/6
f 334/1/6 323/1/6 335/1/6
f 324/3/6 325/3/6 336/3/6
f 335/6/6 324/6/6 336/6/6
f 325/6/6 313/6/6 337/6/6
f 336/3/6 325/3/6 337/3/6
f 298/6/6 326/6/6 338/6/6
f 326/4/6 327/4/6 338/4/6
f 327/6/6 328/6/6 339/6/6
f 338/4/6 327/4/6 339/4/6
f 328/4/6 329/4/6 340/4/6
f 339/6/6 328/6/6 340/6/6
f 329/6/6 330/6/6 341/6/6
f 340/4/6 329/4/6 341/4/6
f 330/1/6 331/1/6 342/1/6
f 341/6/6 330/6/6 342/6/6
f 335/6/6 336/6/6 343/6/6
f 342/1/6 331/1/6 343/1/6
f 334/6/6 335/6/6 343/6/6
f 333/6/6 334/6/6 343/6/6
f 331/6/6 332/6/6 343/6/6
f 332/6/6 333/6/6 343/6/6
f 336/6/6 337/6/6 343/6/6
f 341/6/6 342/6/6 344/6/6
f 339/6/6 340/6/6 344/6/6
f 342/6/6 343/6/6 344/6/6
f 338/6/6 339/6/6 344/6/6
f 340/6/6 341/6/6 344/6/6
f 344/6/6 343/6/6 345/6/6
f 343/6/6 337/6/6 346/6/6
f 345/6/6 343/6/6 346/6/6
f 346/6/6 337/6/6 347/6/6
f 344/5/6 345/5/6 348/5/6
f 338/6/6 344/6/6 348/6/6
f 345/6/6 346/6/6 349/6/6
f 348/5/6 345/5/6 349/5/6
f 346/3/6 347/3/6 350/3/6
f 349/6/6 346/6/6 350/6/6
f 347/6/6 337/6/6 351/6/6
f 350/3/6 347/3/6 351/3/6
f 349/6/6 350/6/6 352/6/6
f 348/6/6 349/6/6 352/6/6
f 350/6/6 351/6/6 352/6/6
f 338/6/6 348/6/6 352/6/6
f 352/6/6 351/6/6 353/6/6
f 353/6/6 351/6/6 354/6/6
f 354/6/6 351/6/6 355/6/6
f 338/6/6 352/6/6 356/6/6
f 352/5/6 353/5/6 356/5/6
f 353/6/6 354/6/6 357/6/6
f 356/5/6 353/5/6 357/5/6
f 354/4/6 355/4/6 358/4/6
f 357/6/6 354/6/6 358/6/6
f 355/6/6 351/6/6 359/6/6
f 358/4/6 355/4/6 359/4/6
f 351/6/6 337/6/6 360/6/6
f 359/6/6 351/6/6 360/6/6
f 358/6/6 359/6/6 360/6/6
f 357/6/6 358/6/6 360/6/6
f 356/6/6 357/6/6 360/6/6
f 360/6/6 337/6/6 361/6/6
f 356/6/6 360/6/6 362/6/6
f 360/5/6 361/5/6 362/5/6
f 361/6/6 337/6/6 363/6/6
f 362/5/6 361/5/6 363/5/6
f 213/6/6 253/6/6 364/6/6
f 338/6/6 356/6/6 364/6/6
f 362/6/6 363/6/6 364/6/6
f 356/6/6 362/6/6 364/6/6
f 298/6/6 338/6/6 364/6/6
f 21/6/6 89/6/6 364/6/6
f 253/6/6 298/6/6 364/6/6
f 89/6/6 213/6/6 364/6/6
f 363/6/6 337/6/6 365/6/6
f 364/6/6 363/6/6 365/6/6
f 313/6/6 22/6/6 365/6/6
f 337/6/6 313/6/6 365/6/6
