# MagicaVoxel @ Ephtracy

# group
g Magma

# material
mtllib Magma.mtl
usemtl palette

# normals
vn -1 0 0
vn 1 0 0
vn 0 0 1
vn 0 0 -1
vn 0 -1 0
vn 0 1 0

# texcoords
vt 0.111328 0.5
vt 0.275391 0.5
vt 0.279297 0.5
vt 0.369141 0.5
vt 0.865234 0.5
vt 0.869141 0.5
vt 0.986328 0.5

# verts
v -18 5 18
v -18 5 -18
v -18 7 18
v -18 7 -18
v -16 0 16
v -16 0 -16
v -16 5 16
v -16 5 -16
v 16 0 16
v 16 0 -16
v 16 5 16
v 16 5 -16
v 18 5 18
v 18 5 -18
v 18 7 18
v 18 7 -18
v -18 5 18
v -18 7 18
v 18 5 18
v 18 7 18
v -16 0 16
v -16 5 16
v 16 0 16
v 16 5 16
v -16 0 -16
v -16 5 -16
v 16 0 -16
v 16 5 -16
v -18 5 -18
v -18 7 -18
v 18 5 -18
v 18 7 -18
v -16 0 16
v 16 0 16
v -16 0 -16
v 16 0 -16
v -18 5 18
v 18 5 18
v -16 5 16
v 16 5 16
v -16 5 -16
v 16 5 -16
v -18 5 -18
v 18 5 -18
v -18 7 18
v 18 7 18
v -17 7 17
v 17 7 17
v -16 7 16
v -14 7 16
v -13 7 16
v 16 7 16
v -14 7 15
v -13 7 15
v 13 7 14
v 14 7 14
v 3 7 13
v 4 7 13
v 13 7 13
v 14 7 13
v 3 7 12
v 4 7 12
v 12 7 11
v 13 7 11
v -11 7 10
v -10 7 10
v -3 7 10
v -2 7 10
v 12 7 10
v 13 7 10
v -11 7 9
v -10 7 9
v -3 7 9
v -2 7 9
v 4 7 5
v 5 7 5
v 13 7 5
v 14 7 5
v -4 7 4
v -3 7 4
v 4 7 4
v 5 7 4
v 13 7 4
v 14 7 4
v -4 7 3
v -3 7 3
v -13 7 2
v -12 7 2
v -13 7 1
v -12 7 1
v 5 7 1
v 6 7 1
v 5 7 -0
v 6 7 -0
v -4 7 -4
v -3 7 -4
v 15 7 -4
v 16 7 -4
v -11 7 -5
v -10 7 -5
v -4 7 -5
v -3 7 -5
v 15 7 -5
v 16 7 -5
v -11 7 -6
v -10 7 -6
v -15 7 -9
v -14 7 -9
v -15 7 -10
v -14 7 -10
v -3 7 -11
v -2 7 -11
v -3 7 -12
v -2 7 -12
v 9 7 -14
v 10 7 -14
v 9 7 -15
v 10 7 -15
v -16 7 -16
v 16 7 -16
v -17 7 -17
v 17 7 -17
v -18 7 -18
v 18 7 -18

# faces
f 3/7/1 2/7/1 1/7/1
f 4/7/1 2/7/1 3/7/1
f 7/4/1 6/4/1 5/4/1
f 8/4/1 6/4/1 7/4/1
f 9/4/2 10/4/2 11/4/2
f 11/4/2 10/4/2 12/4/2
f 13/7/2 14/7/2 15/7/2
f 15/7/2 14/7/2 16/7/2
f 19/7/3 18/7/3 17/7/3
f 20/7/3 18/7/3 19/7/3
f 23/4/3 22/4/3 21/4/3
f 24/4/3 22/4/3 23/4/3
f 25/4/4 26/4/4 27/4/4
f 27/4/4 26/4/4 28/4/4
f 29/7/4 30/7/4 31/7/4
f 31/7/4 30/7/4 32/7/4
f 35/4/5 34/4/5 33/4/5
f 36/4/5 34/4/5 35/4/5
f 39/7/5 38/7/5 37/7/5
f 40/7/5 38/7/5 39/7/5
f 41/7/5 39/7/5 37/7/5
f 42/7/5 38/7/5 40/7/5
f 43/7/5 41/7/5 37/7/5
f 43/7/5 42/7/5 41/7/5
f 44/7/5 38/7/5 42/7/5
f 44/7/5 42/7/5 43/7/5
f 45/7/6 46/7/6 47/7/6
f 47/7/6 46/7/6 48/7/6
f 47/3/6 48/3/6 49/3/6
f 49/3/6 48/3/6 50/3/6
f 50/3/6 48/3/6 51/3/6
f 51/3/6 48/3/6 52/3/6
f 49/5/6 50/5/6 53/5/6
f 50/2/6 51/2/6 53/2/6
f 51/5/6 52/5/6 54/5/6
f 53/2/6 51/2/6 54/2/6
f 53/5/6 54/5/6 55/5/6
f 54/5/6 52/5/6 55/5/6
f 55/5/6 52/5/6 56/5/6
f 53/5/6 55/5/6 57/5/6
f 57/5/6 55/5/6 58/5/6
f 55/1/6 56/1/6 59/1/6
f 58/5/6 55/5/6 59/5/6
f 56/5/6 52/5/6 60/5/6
f 59/1/6 56/1/6 60/1/6
f 57/1/6 58/1/6 61/1/6
f 53/5/6 57/5/6 61/5/6
f 58/5/6 59/5/6 62/5/6
f 61/1/6 58/1/6 62/1/6
f 59/5/6 60/5/6 62/5/6
f 61/5/6 62/5/6 63/5/6
f 62/5/6 60/5/6 63/5/6
f 63/5/6 60/5/6 64/5/6
f 53/5/6 61/5/6 65/5/6
f 61/5/6 63/5/6 65/5/6
f 65/5/6 63/5/6 66/5/6
f 66/5/6 63/5/6 67/5/6
f 67/5/6 63/5/6 68/5/6
f 63/2/6 64/2/6 69/2/6
f 68/5/6 63/5/6 69/5/6
f 64/5/6 60/5/6 70/5/6
f 69/2/6 64/2/6 70/2/6
f 53/5/6 65/5/6 71/5/6
f 65/1/6 66/1/6 71/1/6
f 66/5/6 67/5/6 72/5/6
f 71/1/6 66/1/6 72/1/6
f 67/6/6 68/6/6 73/6/6
f 72/5/6 67/5/6 73/5/6
f 68/5/6 69/5/6 74/5/6
f 73/6/6 68/6/6 74/6/6
f 69/5/6 70/5/6 74/5/6
f 72/5/6 73/5/6 75/5/6
f 74/5/6 70/5/6 75/5/6
f 73/5/6 74/5/6 75/5/6
f 71/5/6 72/5/6 75/5/6
f 75/5/6 70/5/6 76/5/6
f 70/5/6 60/5/6 77/5/6
f 76/5/6 70/5/6 77/5/6
f 60/5/6 52/5/6 78/5/6
f 77/5/6 60/5/6 78/5/6
f 71/5/6 75/5/6 79/5/6
f 79/5/6 75/5/6 80/5/6
f 75/2/6 76/2/6 81/2/6
f 80/5/6 75/5/6 81/5/6
f 76/5/6 77/5/6 82/5/6
f 81/2/6 76/2/6 82/2/6
f 77/6/6 78/6/6 83/6/6
f 82/5/6 77/5/6 83/5/6
f 78/5/6 52/5/6 84/5/6
f 83/6/6 78/6/6 84/6/6
f 79/1/6 80/1/6 85/1/6
f 71/5/6 79/5/6 85/5/6
f 80/5/6 81/5/6 86/5/6
f 85/1/6 80/1/6 86/1/6
f 82/5/6 83/5/6 86/5/6
f 83/5/6 84/5/6 86/5/6
f 81/5/6 82/5/6 86/5/6
f 53/5/6 71/5/6 87/5/6
f 71/5/6 85/5/6 87/5/6
f 85/5/6 86/5/6 87/5/6
f 87/5/6 86/5/6 88/5/6
f 53/5/6 87/5/6 89/5/6
f 87/6/6 88/6/6 89/6/6
f 88/5/6 86/5/6 90/5/6
f 89/6/6 88/6/6 90/6/6
f 86/5/6 84/5/6 91/5/6
f 90/5/6 86/5/6 91/5/6
f 91/5/6 84/5/6 92/5/6
f 89/5/6 90/5/6 93/5/6
f 90/5/6 91/5/6 93/5/6
f 91/1/6 92/1/6 93/1/6
f 92/5/6 84/5/6 94/5/6
f 93/1/6 92/1/6 94/1/6
f 89/5/6 93/5/6 95/5/6
f 93/5/6 94/5/6 95/5/6
f 95/5/6 94/5/6 96/5/6
f 94/5/6 84/5/6 97/5/6
f 96/5/6 94/5/6 97/5/6
f 84/5/6 52/5/6 97/5/6
f 52/3/6 48/3/6 98/3/6
f 97/5/6 52/5/6 98/5/6
f 89/5/6 95/5/6 99/5/6
f 99/5/6 95/5/6 100/5/6
f 95/6/6 96/6/6 101/6/6
f 100/5/6 95/5/6 101/5/6
f 96/5/6 97/5/6 102/5/6
f 101/6/6 96/6/6 102/6/6
f 97/1/6 98/1/6 103/1/6
f 102/5/6 97/5/6 103/5/6
f 98/3/6 48/3/6 104/3/6
f 103/1/6 98/1/6 104/1/6
f 99/1/6 100/1/6 105/1/6
f 89/5/6 99/5/6 105/5/6
f 100/5/6 101/5/6 106/5/6
f 105/1/6 100/1/6 106/1/6
f 102/5/6 103/5/6 106/5/6
f 103/5/6 104/5/6 106/5/6
f 101/5/6 102/5/6 106/5/6
f 89/5/6 105/5/6 107/5/6
f 49/5/6 53/5/6 107/5/6
f 105/5/6 106/5/6 107/5/6
f 53/5/6 89/5/6 107/5/6
f 107/5/6 106/5/6 108/5/6
f 49/5/6 107/5/6 109/5/6
f 107/2/6 108/2/6 109/2/6
f 108/5/6 106/5/6 110/5/6
f 109/2/6 108/2/6 110/2/6
f 106/5/6 104/5/6 111/5/6
f 110/5/6 106/5/6 111/5/6
f 109/5/6 110/5/6 111/5/6
f 111/5/6 104/5/6 112/5/6
f 109/5/6 111/5/6 113/5/6
f 111/1/6 112/1/6 113/1/6
f 112/5/6 104/5/6 114/5/6
f 113/1/6 112/1/6 114/1/6
f 113/5/6 114/5/6 115/5/6
f 114/5/6 104/5/6 115/5/6
f 115/5/6 104/5/6 116/5/6
f 113/5/6 115/5/6 117/5/6
f 115/1/6 116/1/6 117/1/6
f 116/5/6 104/5/6 118/5/6
f 117/1/6 116/1/6 118/1/6
f 47/3/6 49/3/6 119/3/6
f 49/5/6 109/5/6 119/5/6
f 117/5/6 118/5/6 119/5/6
f 113/5/6 117/5/6 119/5/6
f 109/5/6 113/5/6 119/5/6
f 118/5/6 104/5/6 120/5/6
f 119/5/6 118/5/6 120/5/6
f 104/3/6 48/3/6 120/3/6
f 45/7/6 47/7/6 121/7/6
f 47/3/6 119/3/6 121/3/6
f 119/3/6 120/3/6 121/3/6
f 120/3/6 48/3/6 122/3/6
f 121/3/6 120/3/6 122/3/6
f 48/7/6 46/7/6 122/7/6
f 45/7/6 121/7/6 123/7/6
f 121/7/6 122/7/6 123/7/6
f 122/7/6 46/7/6 124/7/6
f 123/7/6 122/7/6 124/7/6
