# MagicaVoxel @ Ephtracy

# group
g PolarBear

# material
mtllib PolarBear.mtl
usemtl palette

# normals
vn -1 0 0
vn 1 0 0
vn 0 0 1
vn 0 0 -1
vn 0 -1 0
vn 0 1 0

# texcoords
vt 0.279297 0.5
vt 0.958984 0.5
vt 0.994141 0.5

# verts
v -20 0 20
v -20 0 -20
v -20 32 10
v -20 32 -20
v -20 40 20
v -20 40 10
v 10 32 20
v 10 32 10
v 10 40 20
v 10 40 10
v -10 32 20
v -10 32 10
v -10 40 20
v -10 40 10
v 20 0 20
v 20 0 -20
v 20 32 10
v 20 32 -20
v 20 40 20
v 20 40 10
v -20 0 20
v -20 40 20
v -15 15 20
v -15 25 20
v -12 18 20
v -12 22 20
v -11 1 20
v -11 7 20
v -10 2 20
v -10 6 20
v -10 32 20
v -10 40 20
v -9 2 20
v -9 6 20
v -8 2 20
v -8 6 20
v -8 18 20
v -8 22 20
v -7 2 20
v -7 6 20
v -6 2 20
v -6 6 20
v -5 2 20
v -5 6 20
v -5 15 20
v -5 25 20
v -4 2 20
v -4 6 20
v -3 2 20
v -3 6 20
v -2 2 20
v -2 6 20
v -2 9 20
v -2 11 20
v -1 2 20
v -1 6 20
v 0 2 20
v 0 6 20
v 1 2 20
v 1 6 20
v 2 2 20
v 2 6 20
v 2 9 20
v 2 11 20
v 3 2 20
v 3 6 20
v 4 2 20
v 4 6 20
v 5 2 20
v 5 6 20
v 5 15 20
v 5 25 20
v 6 2 20
v 6 6 20
v 7 2 20
v 7 6 20
v 8 2 20
v 8 6 20
v 8 18 20
v 8 22 20
v 9 2 20
v 9 6 20
v 10 2 20
v 10 6 20
v 10 32 20
v 10 40 20
v 11 2 20
v 11 6 20
v 12 1 20
v 12 7 20
v 12 18 20
v 12 22 20
v 15 15 20
v 15 25 20
v 20 0 20
v 20 40 20
v -20 32 10
v -20 40 10
v -10 32 10
v -10 40 10
v 10 32 10
v 10 40 10
v 20 32 10
v 20 40 10
v -20 0 -20
v -20 32 -20
v 20 0 -20
v 20 32 -20
v -20 0 20
v 20 0 20
v -20 0 -20
v 20 0 -20
v -10 32 20
v 10 32 20
v -20 32 10
v -10 32 10
v 10 32 10
v 20 32 10
v -20 32 -20
v 20 32 -20
v -20 40 20
v -10 40 20
v 10 40 20
v 20 40 20
v -20 40 10
v -10 40 10
v 10 40 10
v 20 40 10

# faces
f 3/2/1 2/2/1 1/2/1
f 4/2/1 2/2/1 3/2/1
f 5/2/1 3/2/1 1/2/1
f 6/2/1 3/2/1 5/2/1
f 9/2/1 8/2/1 7/2/1
f 10/2/1 8/2/1 9/2/1
f 11/2/2 12/2/2 13/2/2
f 13/2/2 12/2/2 14/2/2
f 15/2/2 16/2/2 17/2/2
f 17/2/2 16/2/2 18/2/2
f 15/2/2 17/2/2 19/2/2
f 19/2/2 17/2/2 20/2/2
f 23/2/3 22/2/3 21/2/3
f 24/2/3 22/2/3 23/2/3
f 25/3/3 24/3/3 23/3/3
f 26/3/3 24/3/3 25/3/3
f 27/2/3 23/2/3 21/2/3
f 28/2/3 23/2/3 27/2/3
f 29/3/3 28/3/3 27/3/3
f 30/3/3 28/3/3 29/3/3
f 31/2/3 22/2/3 24/2/3
f 32/2/3 22/2/3 31/2/3
f 33/3/3 29/3/3 27/3/3
f 33/1/3 30/1/3 29/1/3
f 34/3/3 28/3/3 30/3/3
f 34/1/3 30/1/3 33/1/3
f 35/3/3 33/3/3 27/3/3
f 35/3/3 34/3/3 33/3/3
f 36/3/3 28/3/3 34/3/3
f 36/3/3 34/3/3 35/3/3
f 37/3/3 25/3/3 23/3/3
f 37/2/3 26/2/3 25/2/3
f 38/3/3 24/3/3 26/3/3
f 38/2/3 26/2/3 37/2/3
f 39/3/3 35/3/3 27/3/3
f 39/1/3 36/1/3 35/1/3
f 40/3/3 28/3/3 36/3/3
f 40/1/3 36/1/3 39/1/3
f 41/3/3 39/3/3 27/3/3
f 41/3/3 40/3/3 39/3/3
f 42/3/3 28/3/3 40/3/3
f 42/3/3 40/3/3 41/3/3
f 43/3/3 41/3/3 27/3/3
f 43/1/3 42/1/3 41/1/3
f 44/3/3 28/3/3 42/3/3
f 44/1/3 42/1/3 43/1/3
f 45/3/3 37/3/3 23/3/3
f 45/3/3 38/3/3 37/3/3
f 45/2/3 23/2/3 28/2/3
f 46/3/3 24/3/3 38/3/3
f 46/3/3 38/3/3 45/3/3
f 46/2/3 31/2/3 24/2/3
f 47/3/3 43/3/3 27/3/3
f 47/3/3 44/3/3 43/3/3
f 48/3/3 28/3/3 44/3/3
f 48/3/3 44/3/3 47/3/3
f 49/3/3 47/3/3 27/3/3
f 49/1/3 48/1/3 47/1/3
f 50/3/3 28/3/3 48/3/3
f 50/1/3 48/1/3 49/1/3
f 51/3/3 49/3/3 27/3/3
f 51/3/3 50/3/3 49/3/3
f 52/3/3 28/3/3 50/3/3
f 52/3/3 50/3/3 51/3/3
f 53/2/3 45/2/3 28/2/3
f 53/2/3 46/2/3 45/2/3
f 54/2/3 46/2/3 53/2/3
f 55/3/3 51/3/3 27/3/3
f 55/1/3 52/1/3 51/1/3
f 56/3/3 28/3/3 52/3/3
f 56/1/3 52/1/3 55/1/3
f 57/3/3 55/3/3 27/3/3
f 57/3/3 56/3/3 55/3/3
f 58/3/3 28/3/3 56/3/3
f 58/3/3 56/3/3 57/3/3
f 59/3/3 57/3/3 27/3/3
f 59/1/3 58/1/3 57/1/3
f 60/3/3 28/3/3 58/3/3
f 60/1/3 58/1/3 59/1/3
f 61/3/3 59/3/3 27/3/3
f 61/3/3 60/3/3 59/3/3
f 62/3/3 28/3/3 60/3/3
f 62/3/3 60/3/3 61/3/3
f 63/3/3 54/3/3 53/3/3
f 63/2/3 53/2/3 28/2/3
f 64/2/3 46/2/3 54/2/3
f 64/3/3 54/3/3 63/3/3
f 65/3/3 61/3/3 27/3/3
f 65/1/3 62/1/3 61/1/3
f 66/3/3 28/3/3 62/3/3
f 66/1/3 62/1/3 65/1/3
f 67/3/3 65/3/3 27/3/3
f 67/3/3 66/3/3 65/3/3
f 68/3/3 28/3/3 66/3/3
f 68/3/3 66/3/3 67/3/3
f 69/3/3 67/3/3 27/3/3
f 69/1/3 68/1/3 67/1/3
f 70/3/3 28/3/3 68/3/3
f 70/1/3 68/1/3 69/1/3
f 71/2/3 46/2/3 64/2/3
f 71/2/3 64/2/3 63/2/3
f 72/2/3 31/2/3 46/2/3
f 72/2/3 46/2/3 71/2/3
f 73/3/3 69/3/3 27/3/3
f 73/3/3 70/3/3 69/3/3
f 74/3/3 28/3/3 70/3/3
f 74/3/3 70/3/3 73/3/3
f 75/3/3 73/3/3 27/3/3
f 75/1/3 74/1/3 73/1/3
f 76/3/3 28/3/3 74/3/3
f 76/1/3 74/1/3 75/1/3
f 77/3/3 75/3/3 27/3/3
f 77/3/3 76/3/3 75/3/3
f 78/3/3 28/3/3 76/3/3
f 78/3/3 76/3/3 77/3/3
f 79/3/3 72/3/3 71/3/3
f 80/3/3 72/3/3 79/3/3
f 81/3/3 77/3/3 27/3/3
f 81/1/3 78/1/3 77/1/3
f 82/3/3 28/3/3 78/3/3
f 82/1/3 78/1/3 81/1/3
f 83/3/3 81/3/3 27/3/3
f 83/3/3 82/3/3 81/3/3
f 84/3/3 28/3/3 82/3/3
f 84/3/3 82/3/3 83/3/3
f 85/2/3 31/2/3 72/2/3
f 87/3/3 83/3/3 27/3/3
f 87/1/3 84/1/3 83/1/3
f 88/3/3 28/3/3 84/3/3
f 88/1/3 84/1/3 87/1/3
f 89/3/3 87/3/3 27/3/3
f 89/2/3 27/2/3 21/2/3
f 89/3/3 88/3/3 87/3/3
f 90/2/3 63/2/3 28/2/3
f 90/3/3 88/3/3 89/3/3
f 90/2/3 71/2/3 63/2/3
f 90/3/3 28/3/3 88/3/3
f 91/3/3 79/3/3 71/3/3
f 91/2/3 80/2/3 79/2/3
f 92/3/3 72/3/3 80/3/3
f 92/2/3 80/2/3 91/2/3
f 93/3/3 91/3/3 71/3/3
f 93/2/3 71/2/3 90/2/3
f 93/3/3 92/3/3 91/3/3
f 93/2/3 90/2/3 89/2/3
f 94/3/3 72/3/3 92/3/3
f 94/3/3 92/3/3 93/3/3
f 94/2/3 86/2/3 85/2/3
f 94/2/3 85/2/3 72/2/3
f 95/2/3 89/2/3 21/2/3
f 95/2/3 93/2/3 89/2/3
f 95/2/3 94/2/3 93/2/3
f 96/2/3 86/2/3 94/2/3
f 96/2/3 94/2/3 95/2/3
f 97/2/4 98/2/4 99/2/4
f 99/2/4 98/2/4 100/2/4
f 101/2/4 102/2/4 103/2/4
f 103/2/4 102/2/4 104/2/4
f 105/2/4 106/2/4 107/2/4
f 107/2/4 106/2/4 108/2/4
f 111/2/5 110/2/5 109/2/5
f 112/2/5 110/2/5 111/2/5
f 113/2/6 114/2/6 116/2/6
f 116/2/6 114/2/6 117/2/6
f 115/2/6 116/2/6 119/2/6
f 117/2/6 118/2/6 119/2/6
f 116/2/6 117/2/6 119/2/6
f 119/2/6 118/2/6 120/2/6
f 121/2/6 122/2/6 125/2/6
f 125/2/6 122/2/6 126/2/6
f 123/2/6 124/2/6 127/2/6
f 127/2/6 124/2/6 128/2/6
