# MagicaVoxel @ Ephtracy

# group
g Panda

# material
mtllib Panda.mtl
usemtl palette

# normals
vn -1 0 0
vn 1 0 0
vn 0 0 1
vn 0 0 -1
vn 0 -1 0
vn 0 1 0

# texcoords
vt 0.958984 0.5
vt 0.994141 0.5

# verts
v -20 0 20
v -20 0 15
v -20 0 -20
v -20 5 20
v -20 5 15
v -20 10 5
v -20 10 -10
v -20 20 5
v -20 20 -10
v -20 30 20
v -20 30 10
v -20 32 10
v -20 32 -20
v -20 40 20
v -20 40 10
v 10 32 20
v 10 32 10
v 10 40 20
v 10 40 10
v -10 32 20
v -10 32 10
v -10 40 20
v -10 40 10
v 20 0 20
v 20 0 15
v 20 0 -20
v 20 5 20
v 20 5 15
v 20 10 5
v 20 10 -10
v 20 20 5
v 20 20 -10
v 20 30 20
v 20 30 10
v 20 32 10
v 20 32 -20
v 20 40 20
v 20 40 10
v -20 0 20
v -20 5 20
v -20 30 20
v -20 40 20
v -15 0 20
v -15 5 20
v -15 15 20
v -15 25 20
v -12 18 20
v -12 22 20
v -11 3 20
v -11 7 20
v -10 4 20
v -10 6 20
v -10 30 20
v -10 32 20
v -10 40 20
v -9 4 20
v -9 6 20
v -8 4 20
v -8 6 20
v -8 18 20
v -8 22 20
v -7 4 20
v -7 6 20
v -6 4 20
v -6 6 20
v -5 4 20
v -5 6 20
v -5 15 20
v -5 25 20
v -4 4 20
v -4 6 20
v -3 4 20
v -3 6 20
v -2 4 20
v -2 6 20
v -2 9 20
v -2 11 20
v -1 4 20
v -1 6 20
v 0 4 20
v 0 6 20
v 1 4 20
v 1 6 20
v 2 4 20
v 2 6 20
v 2 9 20
v 2 11 20
v 3 4 20
v 3 6 20
v 4 4 20
v 4 6 20
v 5 4 20
v 5 6 20
v 5 15 20
v 5 25 20
v 6 4 20
v 6 6 20
v 7 4 20
v 7 6 20
v 8 4 20
v 8 6 20
v 8 18 20
v 8 22 20
v 9 4 20
v 9 6 20
v 10 4 20
v 10 6 20
v 10 30 20
v 10 32 20
v 10 40 20
v 11 4 20
v 11 6 20
v 12 3 20
v 12 7 20
v 12 18 20
v 12 22 20
v 15 0 20
v 15 5 20
v 15 15 20
v 15 25 20
v 20 0 20
v 20 5 20
v 20 30 20
v 20 40 20
v -20 32 10
v -20 40 10
v -10 32 10
v -10 40 10
v 10 32 10
v 10 40 10
v 20 32 10
v 20 40 10
v -20 0 -20
v -20 32 -20
v -10 0 -20
v -10 10 -20
v -10 20 -20
v -10 32 -20
v 10 0 -20
v 10 10 -20
v 10 20 -20
v 10 32 -20
v 20 0 -20
v 20 32 -20
v -20 0 20
v -15 0 20
v 15 0 20
v 20 0 20
v -20 0 15
v -15 0 15
v 15 0 15
v 20 0 15
v -10 0 -10
v 10 0 -10
v -20 0 -20
v -10 0 -20
v 10 0 -20
v 20 0 -20
v -10 32 20
v 10 32 20
v -20 32 10
v -10 32 10
v 10 32 10
v 20 32 10
v -10 32 -10
v 10 32 -10
v -20 32 -20
v -10 32 -20
v 10 32 -20
v 20 32 -20
v -20 40 20
v -10 40 20
v 10 40 20
v 20 40 20
v -20 40 10
v -10 40 10
v 10 40 10
v 20 40 10

# faces
f 4/2/1 2/2/1 1/2/1
f 5/1/1 3/1/1 2/1/1
f 5/2/1 2/2/1 4/2/1
f 6/1/1 5/1/1 4/1/1
f 6/1/1 3/1/1 5/1/1
f 7/1/1 3/1/1 6/1/1
f 8/1/1 6/1/1 4/1/1
f 8/2/1 7/2/1 6/2/1
f 9/1/1 3/1/1 7/1/1
f 9/2/1 7/2/1 8/2/1
f 10/1/1 8/1/1 4/1/1
f 10/1/1 9/1/1 8/1/1
f 11/1/1 9/1/1 10/1/1
f 12/2/1 11/2/1 10/2/1
f 12/1/1 9/1/1 11/1/1
f 13/1/1 3/1/1 9/1/1
f 13/1/1 9/1/1 12/1/1
f 14/2/1 12/2/1 10/2/1
f 15/2/1 12/2/1 14/2/1
f 18/2/1 17/2/1 16/2/1
f 19/2/1 17/2/1 18/2/1
f 20/2/2 21/2/2 22/2/2
f 22/2/2 21/2/2 23/2/2
f 24/2/2 25/2/2 27/2/2
f 25/1/2 26/1/2 28/1/2
f 27/2/2 25/2/2 28/2/2
f 27/1/2 28/1/2 29/1/2
f 28/1/2 26/1/2 29/1/2
f 29/1/2 26/1/2 30/1/2
f 27/1/2 29/1/2 31/1/2
f 29/2/2 30/2/2 31/2/2
f 30/1/2 26/1/2 32/1/2
f 31/2/2 30/2/2 32/2/2
f 27/1/2 31/1/2 33/1/2
f 31/1/2 32/1/2 33/1/2
f 33/1/2 32/1/2 34/1/2
f 33/2/2 34/2/2 35/2/2
f 34/1/2 32/1/2 35/1/2
f 32/1/2 26/1/2 36/1/2
f 35/1/2 32/1/2 36/1/2
f 33/2/2 35/2/2 37/2/2
f 37/2/2 35/2/2 38/2/2
f 43/2/3 40/2/3 39/2/3
f 44/1/3 41/1/3 40/1/3
f 44/2/3 40/2/3 43/2/3
f 45/1/3 41/1/3 44/1/3
f 46/1/3 41/1/3 45/1/3
f 47/2/3 46/2/3 45/2/3
f 48/2/3 46/2/3 47/2/3
f 49/1/3 44/1/3 43/1/3
f 49/1/3 45/1/3 44/1/3
f 50/1/3 45/1/3 49/1/3
f 51/2/3 50/2/3 49/2/3
f 52/2/3 50/2/3 51/2/3
f 53/2/3 42/2/3 41/2/3
f 53/1/3 41/1/3 46/1/3
f 54/2/3 42/2/3 53/2/3
f 55/2/3 42/2/3 54/2/3
f 56/1/3 52/1/3 51/1/3
f 56/2/3 51/2/3 49/2/3
f 57/2/3 50/2/3 52/2/3
f 57/1/3 52/1/3 56/1/3
f 58/2/3 56/2/3 49/2/3
f 58/2/3 57/2/3 56/2/3
f 59/2/3 50/2/3 57/2/3
f 59/2/3 57/2/3 58/2/3
f 60/1/3 48/1/3 47/1/3
f 60/2/3 47/2/3 45/2/3
f 61/2/3 46/2/3 48/2/3
f 61/1/3 48/1/3 60/1/3
f 62/2/3 58/2/3 49/2/3
f 62/1/3 59/1/3 58/1/3
f 63/2/3 50/2/3 59/2/3
f 63/1/3 59/1/3 62/1/3
f 64/2/3 62/2/3 49/2/3
f 64/2/3 63/2/3 62/2/3
f 65/2/3 50/2/3 63/2/3
f 65/2/3 63/2/3 64/2/3
f 66/2/3 64/2/3 49/2/3
f 66/1/3 65/1/3 64/1/3
f 67/2/3 50/2/3 65/2/3
f 67/1/3 65/1/3 66/1/3
f 68/2/3 60/2/3 45/2/3
f 68/2/3 61/2/3 60/2/3
f 68/1/3 45/1/3 50/1/3
f 69/2/3 46/2/3 61/2/3
f 69/2/3 61/2/3 68/2/3
f 69/1/3 53/1/3 46/1/3
f 69/1/3 54/1/3 53/1/3
f 70/2/3 66/2/3 49/2/3
f 70/2/3 67/2/3 66/2/3
f 71/2/3 50/2/3 67/2/3
f 71/2/3 67/2/3 70/2/3
f 72/2/3 70/2/3 49/2/3
f 72/1/3 71/1/3 70/1/3
f 73/2/3 50/2/3 71/2/3
f 73/1/3 71/1/3 72/1/3
f 74/2/3 72/2/3 49/2/3
f 74/2/3 73/2/3 72/2/3
f 75/2/3 50/2/3 73/2/3
f 75/2/3 73/2/3 74/2/3
f 76/1/3 68/1/3 50/1/3
f 76/1/3 69/1/3 68/1/3
f 77/1/3 69/1/3 76/1/3
f 78/2/3 74/2/3 49/2/3
f 78/1/3 75/1/3 74/1/3
f 79/2/3 50/2/3 75/2/3
f 79/1/3 75/1/3 78/1/3
f 80/2/3 78/2/3 49/2/3
f 80/2/3 79/2/3 78/2/3
f 81/2/3 50/2/3 79/2/3
f 81/2/3 79/2/3 80/2/3
f 82/2/3 80/2/3 49/2/3
f 82/1/3 81/1/3 80/1/3
f 83/2/3 50/2/3 81/2/3
f 83/1/3 81/1/3 82/1/3
f 84/2/3 82/2/3 49/2/3
f 84/2/3 83/2/3 82/2/3
f 85/2/3 50/2/3 83/2/3
f 85/2/3 83/2/3 84/2/3
f 86/2/3 77/2/3 76/2/3
f 86/1/3 76/1/3 50/1/3
f 87/1/3 69/1/3 77/1/3
f 87/2/3 77/2/3 86/2/3
f 88/2/3 84/2/3 49/2/3
f 88/1/3 85/1/3 84/1/3
f 89/2/3 50/2/3 85/2/3
f 89/1/3 85/1/3 88/1/3
f 90/2/3 88/2/3 49/2/3
f 90/2/3 89/2/3 88/2/3
f 91/2/3 50/2/3 89/2/3
f 91/2/3 89/2/3 90/2/3
f 92/2/3 90/2/3 49/2/3
f 92/1/3 91/1/3 90/1/3
f 93/2/3 50/2/3 91/2/3
f 93/1/3 91/1/3 92/1/3
f 94/1/3 69/1/3 87/1/3
f 94/1/3 87/1/3 86/1/3
f 95/1/3 54/1/3 69/1/3
f 95/1/3 69/1/3 94/1/3
f 96/2/3 92/2/3 49/2/3
f 96/2/3 93/2/3 92/2/3
f 97/2/3 50/2/3 93/2/3
f 97/2/3 93/2/3 96/2/3
f 98/2/3 96/2/3 49/2/3
f 98/1/3 97/1/3 96/1/3
f 99/2/3 50/2/3 97/2/3
f 99/1/3 97/1/3 98/1/3
f 100/2/3 98/2/3 49/2/3
f 100/2/3 99/2/3 98/2/3
f 101/2/3 50/2/3 99/2/3
f 101/2/3 99/2/3 100/2/3
f 102/2/3 95/2/3 94/2/3
f 103/2/3 95/2/3 102/2/3
f 104/2/3 100/2/3 49/2/3
f 104/1/3 101/1/3 100/1/3
f 105/2/3 50/2/3 101/2/3
f 105/1/3 101/1/3 104/1/3
f 106/2/3 104/2/3 49/2/3
f 106/2/3 105/2/3 104/2/3
f 107/2/3 50/2/3 105/2/3
f 107/2/3 105/2/3 106/2/3
f 108/1/3 54/1/3 95/1/3
f 109/1/3 54/1/3 108/1/3
f 111/2/3 106/2/3 49/2/3
f 111/1/3 107/1/3 106/1/3
f 112/2/3 50/2/3 107/2/3
f 112/1/3 107/1/3 111/1/3
f 113/2/3 111/2/3 49/2/3
f 113/1/3 49/1/3 43/1/3
f 113/2/3 112/2/3 111/2/3
f 114/1/3 86/1/3 50/1/3
f 114/2/3 112/2/3 113/2/3
f 114/1/3 94/1/3 86/1/3
f 114/2/3 50/2/3 112/2/3
f 115/2/3 102/2/3 94/2/3
f 115/1/3 103/1/3 102/1/3
f 116/2/3 95/2/3 103/2/3
f 116/1/3 103/1/3 115/1/3
f 117/1/3 113/1/3 43/1/3
f 117/1/3 114/1/3 113/1/3
f 118/1/3 114/1/3 117/1/3
f 119/2/3 115/2/3 94/2/3
f 119/1/3 114/1/3 118/1/3
f 119/1/3 94/1/3 114/1/3
f 119/2/3 116/2/3 115/2/3
f 120/2/3 95/2/3 116/2/3
f 120/2/3 116/2/3 119/2/3
f 120/1/3 108/1/3 95/1/3
f 121/2/3 118/2/3 117/2/3
f 122/1/3 119/1/3 118/1/3
f 122/2/3 118/2/3 121/2/3
f 122/1/3 120/1/3 119/1/3
f 123/1/3 108/1/3 120/1/3
f 123/1/3 120/1/3 122/1/3
f 123/2/3 109/2/3 108/2/3
f 123/2/3 110/2/3 109/2/3
f 124/2/3 110/2/3 123/2/3
f 125/2/4 126/2/4 127/2/4
f 127/2/4 126/2/4 128/2/4
f 129/2/4 130/2/4 131/2/4
f 131/2/4 130/2/4 132/2/4
f 133/1/4 134/1/4 135/1/4
f 135/1/4 134/1/4 136/1/4
f 136/1/4 134/1/4 137/1/4
f 137/1/4 134/1/4 138/1/4
f 135/2/4 136/2/4 139/2/4
f 136/1/4 137/1/4 140/1/4
f 139/2/4 136/2/4 140/2/4
f 137/2/4 138/2/4 141/2/4
f 140/1/4 137/1/4 141/1/4
f 141/2/4 138/2/4 142/2/4
f 139/1/4 140/1/4 143/1/4
f 140/1/4 141/1/4 143/1/4
f 141/1/4 142/1/4 143/1/4
f 143/1/4 142/1/4 144/1/4
f 149/2/5 146/2/5 145/2/5
f 150/1/5 147/1/5 146/1/5
f 150/2/5 146/2/5 149/2/5
f 151/2/5 148/2/5 147/2/5
f 151/1/5 147/1/5 150/1/5
f 152/2/5 148/2/5 151/2/5
f 153/1/5 150/1/5 149/1/5
f 153/1/5 151/1/5 150/1/5
f 153/1/5 152/1/5 151/1/5
f 154/1/5 152/1/5 153/1/5
f 155/1/5 153/1/5 149/1/5
f 156/2/5 154/2/5 153/2/5
f 156/1/5 153/1/5 155/1/5
f 157/1/5 152/1/5 154/1/5
f 157/2/5 154/2/5 156/2/5
f 158/1/5 152/1/5 157/1/5
f 159/1/6 160/1/6 162/1/6
f 162/1/6 160/1/6 163/1/6
f 161/1/6 162/1/6 165/1/6
f 163/1/6 164/1/6 165/1/6
f 162/1/6 163/1/6 165/1/6
f 165/1/6 164/1/6 166/1/6
f 161/1/6 165/1/6 167/1/6
f 165/2/6 166/2/6 168/2/6
f 167/1/6 165/1/6 168/1/6
f 166/1/6 164/1/6 169/1/6
f 168/2/6 166/2/6 169/2/6
f 169/1/6 164/1/6 170/1/6
f 171/2/6 172/2/6 175/2/6
f 175/2/6 172/2/6 176/2/6
f 173/2/6 174/2/6 177/2/6
f 177/2/6 174/2/6 178/2/6
