# MagicaVoxel @ Ephtracy

# group
g Hippo

# material
mtllib Hippo.mtl
usemtl palette

# normals
vn -1 0 0
vn 1 0 0
vn 0 0 1
vn 0 0 -1
vn 0 -1 0
vn 0 1 0

# texcoords
vt 0.529297 0.5
vt 0.958984 0.5
vt 0.990234 0.5
vt 0.994141 0.5

# verts
v -20 0 20
v -20 0 -20
v -20 5 20
v -20 5 -0
v -20 7 20
v -20 7 10
v -20 13 20
v -20 13 10
v -20 13 -0
v -20 29 10
v -20 29 -0
v -20 33 20
v -20 33 10
v -20 40 -0
v -20 40 -20
v 10 7 20
v 10 7 10
v 10 13 20
v 10 13 10
v 10 29 20
v 10 29 10
v 10 33 20
v 10 33 10
v -10 29 20
v -10 29 10
v -10 33 20
v -10 33 10
v -9 7 20
v -9 7 10
v -9 13 20
v -9 13 10
v 20 0 20
v 20 0 -20
v 20 5 20
v 20 5 -0
v 20 7 20
v 20 7 10
v 20 13 20
v 20 13 10
v 20 13 -0
v 20 29 10
v 20 29 -0
v 20 33 20
v 20 33 10
v 20 40 -0
v 20 40 -20
v -20 0 20
v -20 5 20
v -20 7 20
v -20 13 20
v -20 33 20
v -18 29 20
v -18 31 20
v -12 29 20
v -12 31 20
v -10 29 20
v -10 33 20
v -9 7 20
v -9 13 20
v 10 7 20
v 10 13 20
v 10 29 20
v 10 33 20
v 12 29 20
v 12 31 20
v 18 29 20
v 18 31 20
v 20 0 20
v 20 5 20
v 20 7 20
v 20 13 20
v 20 33 20
v -20 5 -0
v -20 13 -0
v -20 29 -0
v -20 40 -0
v -15 29 -0
v -15 39 -0
v -12 32 -0
v -12 36 -0
v -8 32 -0
v -8 36 -0
v -5 29 -0
v -5 39 -0
v 5 29 -0
v 5 39 -0
v 8 32 -0
v 8 36 -0
v 12 32 -0
v 12 36 -0
v 15 29 -0
v 15 39 -0
v 20 5 -0
v 20 13 -0
v 20 29 -0
v 20 40 -0
v -20 7 10
v -20 13 10
v -20 29 10
v -20 33 10
v -10 29 10
v -10 33 10
v -9 7 10
v -9 13 10
v 10 7 10
v 10 13 10
v 10 29 10
v 10 33 10
v 20 7 10
v 20 13 10
v 20 29 10
v 20 33 10
v -20 0 -20
v -20 40 -20
v 20 0 -20
v 20 40 -20
v -20 0 20
v 20 0 20
v -20 0 -20
v 20 0 -20
v -20 7 20
v -9 7 20
v 10 7 20
v 20 7 20
v -20 7 10
v -9 7 10
v 10 7 10
v 20 7 10
v -9 13 20
v 10 13 20
v -20 13 10
v -9 13 10
v 10 13 10
v 20 13 10
v -20 13 -0
v 20 13 -0
v -20 5 20
v 20 5 20
v -20 5 -0
v 20 5 -0
v -10 29 20
v 10 29 20
v -20 29 10
v -10 29 10
v 10 29 10
v 20 29 10
v -20 29 -0
v -15 29 -0
v -5 29 -0
v 5 29 -0
v 15 29 -0
v 20 29 -0
v -20 33 20
v -10 33 20
v 10 33 20
v 20 33 20
v -20 33 10
v -10 33 10
v 10 33 10
v 20 33 10
v -20 40 -0
v 20 40 -0
v -20 40 -20
v 20 40 -20

# faces
f 3/1/1 2/1/1 1/1/1
f 4/1/1 2/1/1 3/1/1
f 7/2/1 6/2/1 5/2/1
f 8/2/1 6/2/1 7/2/1
f 9/1/1 2/1/1 4/1/1
f 10/1/1 8/1/1 7/1/1
f 10/1/1 9/1/1 8/1/1
f 11/1/1 2/1/1 9/1/1
f 11/1/1 9/1/1 10/1/1
f 12/1/1 10/1/1 7/1/1
f 13/1/1 10/1/1 12/1/1
f 14/1/1 2/1/1 11/1/1
f 15/1/1 2/1/1 14/1/1
f 18/2/1 17/2/1 16/2/1
f 19/2/1 17/2/1 18/2/1
f 22/1/1 21/1/1 20/1/1
f 23/1/1 21/1/1 22/1/1
f 24/1/2 25/1/2 26/1/2
f 26/1/2 25/1/2 27/1/2
f 28/2/2 29/2/2 30/2/2
f 30/2/2 29/2/2 31/2/2
f 32/1/2 33/1/2 34/1/2
f 34/1/2 33/1/2 35/1/2
f 36/2/2 37/2/2 38/2/2
f 38/2/2 37/2/2 39/2/2
f 35/1/2 33/1/2 40/1/2
f 38/1/2 39/1/2 41/1/2
f 39/1/2 40/1/2 41/1/2
f 40/1/2 33/1/2 42/1/2
f 41/1/2 40/1/2 42/1/2
f 38/1/2 41/1/2 43/1/2
f 43/1/2 41/1/2 44/1/2
f 42/1/2 33/1/2 45/1/2
f 45/1/2 33/1/2 46/1/2
f 52/1/3 51/1/3 50/1/3
f 53/1/3 51/1/3 52/1/3
f 54/1/3 52/1/3 50/1/3
f 54/3/3 53/3/3 52/3/3
f 55/1/3 51/1/3 53/1/3
f 55/3/3 53/3/3 54/3/3
f 56/1/3 54/1/3 50/1/3
f 56/1/3 55/1/3 54/1/3
f 57/1/3 51/1/3 55/1/3
f 57/1/3 55/1/3 56/1/3
f 58/2/3 50/2/3 49/2/3
f 59/1/3 56/1/3 50/1/3
f 59/2/3 50/2/3 58/2/3
f 61/1/3 56/1/3 59/1/3
f 62/1/3 56/1/3 61/1/3
f 64/1/3 62/1/3 61/1/3
f 64/1/3 63/1/3 62/1/3
f 65/1/3 63/1/3 64/1/3
f 66/1/3 64/1/3 61/1/3
f 66/3/3 65/3/3 64/3/3
f 67/1/3 63/1/3 65/1/3
f 67/3/3 65/3/3 66/3/3
f 68/1/3 48/1/3 47/1/3
f 69/1/3 48/1/3 68/1/3
f 70/2/3 61/2/3 60/2/3
f 71/1/3 66/1/3 61/1/3
f 71/2/3 61/2/3 70/2/3
f 71/1/3 67/1/3 66/1/3
f 72/1/3 63/1/3 67/1/3
f 72/1/3 67/1/3 71/1/3
f 77/1/3 76/1/3 75/1/3
f 78/1/3 76/1/3 77/1/3
f 79/4/3 78/4/3 77/4/3
f 80/4/3 78/4/3 79/4/3
f 81/4/3 79/4/3 77/4/3
f 81/2/3 80/2/3 79/2/3
f 82/4/3 78/4/3 80/4/3
f 82/2/3 80/2/3 81/2/3
f 83/4/3 81/4/3 77/4/3
f 83/4/3 82/4/3 81/4/3
f 84/1/3 76/1/3 78/1/3
f 84/4/3 82/4/3 83/4/3
f 84/4/3 78/4/3 82/4/3
f 85/1/3 84/1/3 83/1/3
f 86/1/3 76/1/3 84/1/3
f 86/1/3 84/1/3 85/1/3
f 87/4/3 86/4/3 85/4/3
f 88/4/3 86/4/3 87/4/3
f 89/4/3 87/4/3 85/4/3
f 89/2/3 88/2/3 87/2/3
f 90/4/3 86/4/3 88/4/3
f 90/2/3 88/2/3 89/2/3
f 91/4/3 89/4/3 85/4/3
f 91/4/3 90/4/3 89/4/3
f 92/1/3 76/1/3 86/1/3
f 92/4/3 90/4/3 91/4/3
f 92/4/3 86/4/3 90/4/3
f 93/1/3 74/1/3 73/1/3
f 94/1/3 74/1/3 93/1/3
f 95/1/3 92/1/3 91/1/3
f 96/1/3 76/1/3 92/1/3
f 96/1/3 92/1/3 95/1/3
f 99/1/4 100/1/4 101/1/4
f 101/1/4 100/1/4 102/1/4
f 97/2/4 98/2/4 103/2/4
f 103/2/4 98/2/4 104/2/4
f 105/2/4 106/2/4 109/2/4
f 109/2/4 106/2/4 110/2/4
f 107/1/4 108/1/4 111/1/4
f 111/1/4 108/1/4 112/1/4
f 113/1/4 114/1/4 115/1/4
f 115/1/4 114/1/4 116/1/4
f 119/1/5 118/1/5 117/1/5
f 120/1/5 118/1/5 119/1/5
f 125/2/5 122/2/5 121/2/5
f 126/2/5 122/2/5 125/2/5
f 127/2/5 124/2/5 123/2/5
f 128/2/5 124/2/5 127/2/5
f 132/1/5 130/1/5 129/1/5
f 133/1/5 130/1/5 132/1/5
f 135/1/5 132/1/5 131/1/5
f 135/1/5 134/1/5 133/1/5
f 135/1/5 133/1/5 132/1/5
f 136/1/5 134/1/5 135/1/5
f 137/1/6 138/1/6 139/1/6
f 139/1/6 138/1/6 140/1/6
f 141/1/6 142/1/6 144/1/6
f 144/1/6 142/1/6 145/1/6
f 143/1/6 144/1/6 147/1/6
f 145/1/6 146/1/6 147/1/6
f 144/1/6 145/1/6 147/1/6
f 147/1/6 146/1/6 148/1/6
f 148/1/6 146/1/6 149/1/6
f 149/1/6 146/1/6 150/1/6
f 150/1/6 146/1/6 151/1/6
f 151/1/6 146/1/6 152/1/6
f 153/1/6 154/1/6 157/1/6
f 157/1/6 154/1/6 158/1/6
f 155/1/6 156/1/6 159/1/6
f 159/1/6 156/1/6 160/1/6
f 161/1/6 162/1/6 163/1/6
f 163/1/6 162/1/6 164/1/6
