# MagicaVoxel @ Ephtracy

# group
g Hippo

# material
mtllib Hippo.mtl
usemtl palette

# normals
vn -1 0 0
vn 1 0 0
vn 0 0 1
vn 0 0 -1
vn 0 -1 0
vn 0 1 0

# texcoords
vt 0.216797 0.5
vt 0.529297 0.5
vt 0.958984 0.5
vt 0.994141 0.5

# verts
v -20 0 20
v -20 0 -20
v -20 5 20
v -20 5 15
v -20 25 20
v -20 25 15
v -20 35 10
v -20 35 -20
v -20 40 20
v -20 40 10
v -15 8 20
v -15 8 19
v -15 8 15
v -15 15 20
v -15 15 19
v -15 15 15
v -10 15 20
v -10 15 19
v -10 15 15
v -10 25 20
v -10 25 15
v 10 0 20
v 10 0 19
v 10 0 15
v 10 5 20
v 10 5 19
v 10 5 15
v 15 37 20
v 15 37 19
v 15 37 11
v 15 37 10
v 15 39 19
v 15 39 11
v 15 40 20
v 15 40 10
v -15 37 20
v -15 37 19
v -15 37 10
v -15 40 20
v -15 40 10
v -10 0 20
v -10 0 19
v -10 0 15
v -10 5 20
v -10 5 19
v -10 5 15
v 10 15 20
v 10 15 19
v 10 15 15
v 10 25 20
v 10 25 19
v 10 25 15
v 15 8 20
v 15 8 19
v 15 8 15
v 15 15 20
v 15 15 19
v 15 15 15
v 20 0 20
v 20 0 -20
v 20 5 20
v 20 5 15
v 20 25 20
v 20 25 15
v 20 35 10
v 20 35 -20
v 20 40 20
v 20 40 10
v -20 0 20
v -20 5 20
v -20 25 20
v -20 40 20
v -15 8 20
v -15 15 20
v -15 27 20
v -15 37 20
v -15 40 20
v -12 8 20
v -12 10 20
v -12 30 20
v -12 34 20
v -10 0 20
v -10 5 20
v -10 15 20
v -10 25 20
v -8 8 20
v -8 10 20
v -8 30 20
v -8 34 20
v -5 27 20
v -5 37 20
v 5 27 20
v 5 37 20
v 8 8 20
v 8 10 20
v 8 30 20
v 8 34 20
v 10 0 20
v 10 5 20
v 10 15 20
v 10 25 20
v 12 8 20
v 12 10 20
v 12 30 20
v 12 34 20
v 15 8 20
v 15 15 20
v 15 27 20
v 15 37 20
v 15 40 20
v 20 0 20
v 20 5 20
v 20 25 20
v 20 40 20
v -20 5 15
v -20 25 15
v -19 5 15
v -19 25 15
v -15 8 15
v -15 15 15
v -12 8 15
v -10 0 15
v -10 5 15
v -10 15 15
v -10 25 15
v -8 8 15
v 8 8 15
v 10 0 15
v 10 5 15
v 10 15 15
v 10 25 15
v 12 8 15
v 15 8 15
v 15 15 15
v 19 5 15
v 19 25 15
v 20 5 15
v 20 25 15
v -20 35 10
v -20 40 10
v -15 37 10
v -15 40 10
v 15 37 10
v 15 40 10
v 20 35 10
v 20 40 10
v -20 0 -20
v -20 35 -20
v 20 0 -20
v 20 35 -20
v -20 0 20
v -10 0 20
v 10 0 20
v 20 0 20
v -19 0 19
v -10 0 19
v 10 0 19
v 19 0 19
v -10 0 15
v 10 0 15
v -19 0 -19
v 19 0 -19
v -20 0 -20
v 20 0 -20
v -15 8 20
v -12 8 20
v -8 8 20
v 8 8 20
v 12 8 20
v 15 8 20
v -15 8 19
v -12 8 19
v -8 8 19
v 8 8 19
v 12 8 19
v 15 8 19
v -15 8 15
v -12 8 15
v -8 8 15
v 8 8 15
v 12 8 15
v 15 8 15
v -20 25 20
v -10 25 20
v 10 25 20
v 20 25 20
v 10 25 19
v -20 25 15
v -19 25 15
v -10 25 15
v 10 25 15
v 19 25 15
v 20 25 15
v -20 5 20
v -10 5 20
v 10 5 20
v 20 5 20
v -19 5 19
v -10 5 19
v 10 5 19
v 19 5 19
v -20 5 15
v -19 5 15
v -10 5 15
v 10 5 15
v 19 5 15
v 20 5 15
v -15 15 20
v -10 15 20
v 10 15 20
v 15 15 20
v -15 15 19
v -10 15 19
v 10 15 19
v 15 15 19
v -15 15 15
v -10 15 15
v 10 15 15
v 15 15 15
v -20 35 10
v 20 35 10
v -20 35 -20
v 20 35 -20
v -15 37 20
v -5 37 20
v 5 37 20
v 15 37 20
v -15 37 19
v -5 37 19
v 5 37 19
v 15 37 19
v 15 37 11
v -15 37 10
v 15 37 10
v -20 40 20
v -15 40 20
v 15 40 20
v 20 40 20
v -20 40 10
v -15 40 10
v 15 40 10
v 20 40 10

# faces
f 3/2/1 2/2/1 1/2/1
f 4/2/1 2/2/1 3/2/1
f 6/2/1 2/2/1 4/2/1
f 7/2/1 2/2/1 6/2/1
f 7/2/1 6/2/1 5/2/1
f 8/2/1 2/2/1 7/2/1
f 9/2/1 7/2/1 5/2/1
f 10/2/1 7/2/1 9/2/1
f 14/2/1 12/2/1 11/2/1
f 15/1/1 13/1/1 12/1/1
f 15/2/1 12/2/1 14/2/1
f 16/1/1 13/1/1 15/1/1
f 20/2/1 18/2/1 17/2/1
f 20/2/1 19/2/1 18/2/1
f 21/2/1 19/2/1 20/2/1
f 25/2/1 23/2/1 22/2/1
f 26/1/1 24/1/1 23/1/1
f 26/2/1 23/2/1 25/2/1
f 27/1/1 24/1/1 26/1/1
f 32/2/1 29/2/1 28/2/1
f 32/1/1 30/1/1 29/1/1
f 33/2/1 31/2/1 30/2/1
f 33/1/1 30/1/1 32/1/1
f 34/2/1 32/2/1 28/2/1
f 34/2/1 33/2/1 32/2/1
f 35/2/1 31/2/1 33/2/1
f 35/2/1 33/2/1 34/2/1
f 36/2/2 37/2/2 39/2/2
f 37/2/2 38/2/2 39/2/2
f 39/2/2 38/2/2 40/2/2
f 41/2/2 42/2/2 44/2/2
f 42/1/2 43/1/2 45/1/2
f 44/2/2 42/2/2 45/2/2
f 45/1/2 43/1/2 46/1/2
f 47/2/2 48/2/2 50/2/2
f 48/1/2 49/1/2 51/1/2
f 50/2/2 48/2/2 51/2/2
f 51/1/2 49/1/2 52/1/2
f 53/2/2 54/2/2 56/2/2
f 54/1/2 55/1/2 57/1/2
f 56/2/2 54/2/2 57/2/2
f 57/1/2 55/1/2 58/1/2
f 59/2/2 60/2/2 61/2/2
f 61/2/2 60/2/2 62/2/2
f 62/2/2 60/2/2 64/2/2
f 64/2/2 60/2/2 65/2/2
f 63/2/2 64/2/2 65/2/2
f 65/2/2 60/2/2 66/2/2
f 63/2/2 65/2/2 67/2/2
f 67/2/2 65/2/2 68/2/2
f 75/2/3 72/2/3 71/2/3
f 76/2/3 72/2/3 75/2/3
f 77/2/3 72/2/3 76/2/3
f 78/2/3 74/2/3 73/2/3
f 79/2/3 74/2/3 78/2/3
f 80/4/3 76/4/3 75/4/3
f 81/4/3 76/4/3 80/4/3
f 82/2/3 70/2/3 69/2/3
f 83/2/3 70/2/3 82/2/3
f 84/2/3 74/2/3 79/2/3
f 85/2/3 75/2/3 71/2/3
f 86/4/3 79/4/3 78/4/3
f 87/2/3 84/2/3 79/2/3
f 87/4/3 79/4/3 86/4/3
f 87/2/3 85/2/3 84/2/3
f 88/4/3 80/4/3 75/4/3
f 88/3/3 81/3/3 80/3/3
f 89/4/3 76/4/3 81/4/3
f 89/3/3 81/3/3 88/3/3
f 90/4/3 88/4/3 75/4/3
f 90/2/3 75/2/3 85/2/3
f 90/4/3 89/4/3 88/4/3
f 90/2/3 85/2/3 87/2/3
f 90/2/3 87/2/3 86/2/3
f 91/4/3 76/4/3 89/4/3
f 91/4/3 89/4/3 90/4/3
f 92/2/3 90/2/3 86/2/3
f 92/2/3 91/2/3 90/2/3
f 93/2/3 91/2/3 92/2/3
f 94/2/3 92/2/3 86/2/3
f 95/2/3 92/2/3 94/2/3
f 96/4/3 93/4/3 92/4/3
f 97/4/3 93/4/3 96/4/3
f 100/2/3 92/2/3 95/2/3
f 101/2/3 92/2/3 100/2/3
f 102/4/3 95/4/3 94/4/3
f 103/2/3 100/2/3 95/2/3
f 103/4/3 95/4/3 102/4/3
f 104/4/3 96/4/3 92/4/3
f 104/3/3 97/3/3 96/3/3
f 105/4/3 93/4/3 97/4/3
f 105/3/3 97/3/3 104/3/3
f 106/2/3 103/2/3 102/2/3
f 107/2/3 100/2/3 103/2/3
f 107/2/3 103/2/3 106/2/3
f 108/2/3 92/2/3 101/2/3
f 108/4/3 104/4/3 92/4/3
f 108/4/3 105/4/3 104/4/3
f 109/4/3 93/4/3 105/4/3
f 109/4/3 105/4/3 108/4/3
f 111/2/3 99/2/3 98/2/3
f 112/2/3 99/2/3 111/2/3
f 113/2/3 109/2/3 108/2/3
f 113/2/3 110/2/3 109/2/3
f 113/2/3 108/2/3 101/2/3
f 114/2/3 110/2/3 113/2/3
f 117/2/3 116/2/3 115/2/3
f 118/2/3 116/2/3 117/2/3
f 119/1/3 118/1/3 117/1/3
f 120/1/3 118/1/3 119/1/3
f 121/1/3 119/1/3 117/1/3
f 123/1/3 121/1/3 117/1/3
f 124/1/3 118/1/3 120/1/3
f 125/1/3 118/1/3 124/1/3
f 126/1/3 123/1/3 122/1/3
f 126/1/3 121/1/3 123/1/3
f 127/1/3 126/1/3 122/1/3
f 128/1/3 127/1/3 122/1/3
f 129/1/3 127/1/3 128/1/3
f 132/1/3 127/1/3 129/1/3
f 133/1/3 132/1/3 129/1/3
f 134/1/3 131/1/3 130/1/3
f 135/1/3 133/1/3 129/1/3
f 135/1/3 134/1/3 133/1/3
f 136/1/3 131/1/3 134/1/3
f 136/1/3 134/1/3 135/1/3
f 137/2/3 136/2/3 135/2/3
f 138/2/3 136/2/3 137/2/3
f 139/2/4 140/2/4 141/2/4
f 141/2/4 140/2/4 142/2/4
f 139/2/4 141/2/4 143/2/4
f 139/2/4 143/2/4 145/2/4
f 143/2/4 144/2/4 145/2/4
f 145/2/4 144/2/4 146/2/4
f 147/2/4 148/2/4 149/2/4
f 149/2/4 148/2/4 150/2/4
f 155/2/5 152/2/5 151/2/5
f 156/2/5 152/2/5 155/2/5
f 157/2/5 154/2/5 153/2/5
f 158/2/5 154/2/5 157/2/5
f 159/1/5 156/1/5 155/1/5
f 160/1/5 158/1/5 157/1/5
f 161/2/5 155/2/5 151/2/5
f 161/1/5 160/1/5 159/1/5
f 161/1/5 159/1/5 155/1/5
f 162/2/5 154/2/5 158/2/5
f 162/1/5 160/1/5 161/1/5
f 162/1/5 158/1/5 160/1/5
f 163/2/5 161/2/5 151/2/5
f 163/2/5 162/2/5 161/2/5
f 164/2/5 154/2/5 162/2/5
f 164/2/5 162/2/5 163/2/5
f 171/2/5 166/2/5 165/2/5
f 172/4/5 167/4/5 166/4/5
f 172/2/5 166/2/5 171/2/5
f 173/2/5 168/2/5 167/2/5
f 173/4/5 167/4/5 172/4/5
f 174/4/5 169/4/5 168/4/5
f 174/2/5 168/2/5 173/2/5
f 175/2/5 170/2/5 169/2/5
f 175/4/5 169/4/5 174/4/5
f 176/2/5 170/2/5 175/2/5
f 177/1/5 172/1/5 171/1/5
f 178/4/5 173/4/5 172/4/5
f 178/1/5 172/1/5 177/1/5
f 179/1/5 174/1/5 173/1/5
f 179/4/5 173/4/5 178/4/5
f 180/4/5 175/4/5 174/4/5
f 180/1/5 174/1/5 179/1/5
f 181/1/5 176/1/5 175/1/5
f 181/4/5 175/4/5 180/4/5
f 182/1/5 176/1/5 181/1/5
f 187/2/5 186/2/5 185/2/5
f 188/2/5 184/2/5 183/2/5
f 189/2/5 184/2/5 188/2/5
f 190/2/5 184/2/5 189/2/5
f 191/2/5 186/2/5 187/2/5
f 192/2/5 186/2/5 191/2/5
f 193/2/5 186/2/5 192/2/5
f 194/2/6 195/2/6 198/2/6
f 198/2/6 195/2/6 199/2/6
f 196/2/6 197/2/6 200/2/6
f 200/2/6 197/2/6 201/2/6
f 194/2/6 198/2/6 202/2/6
f 198/1/6 199/1/6 203/1/6
f 202/2/6 198/2/6 203/2/6
f 203/1/6 199/1/6 204/1/6
f 200/1/6 201/1/6 205/1/6
f 201/2/6 197/2/6 206/2/6
f 205/1/6 201/1/6 206/1/6
f 206/2/6 197/2/6 207/2/6
f 208/2/6 209/2/6 212/2/6
f 212/2/6 209/2/6 213/2/6
f 210/2/6 211/2/6 214/2/6
f 214/2/6 211/2/6 215/2/6
f 212/1/6 213/1/6 216/1/6
f 216/1/6 213/1/6 217/1/6
f 214/1/6 215/1/6 218/1/6
f 218/1/6 215/1/6 219/1/6
f 220/2/6 221/2/6 222/2/6
f 222/2/6 221/2/6 223/2/6
f 224/4/6 225/4/6 228/4/6
f 225/2/6 226/2/6 229/2/6
f 228/4/6 225/4/6 229/4/6
f 226/4/6 227/4/6 230/4/6
f 229/2/6 226/2/6 230/2/6
f 230/4/6 227/4/6 231/4/6
f 228/2/6 229/2/6 232/2/6
f 229/2/6 230/2/6 232/2/6
f 230/2/6 231/2/6 232/2/6
f 228/2/6 232/2/6 233/2/6
f 233/2/6 232/2/6 234/2/6
f 235/2/6 236/2/6 239/2/6
f 239/2/6 236/2/6 240/2/6
f 237/2/6 238/2/6 241/2/6
f 241/2/6 238/2/6 242/2/6
