# MagicaVoxel @ Ephtracy

# group
g Crocodile

# material
mtllib Crocodile.mtl
usemtl palette

# normals
vn -1 0 0
vn 1 0 0
vn 0 0 1
vn 0 0 -1
vn 0 -1 0
vn 0 1 0

# texcoords
vt 0.900391 0.5
vt 0.958984 0.5
vt 0.994141 0.5

# verts
v -20 0 20
v -20 0 -20
v -20 4 20
v -20 4 -1
v -20 5 19
v -20 5 18
v -20 5 17
v -20 5 15
v -20 5 14
v -20 5 12
v -20 5 11
v -20 5 9
v -20 5 8
v -20 5 6
v -20 5 5
v -20 5 3
v -20 5 2
v -20 5 -0
v -20 8 19
v -20 8 18
v -20 8 17
v -20 8 15
v -20 8 14
v -20 8 12
v -20 8 11
v -20 8 9
v -20 8 8
v -20 8 6
v -20 8 5
v -20 8 3
v -20 8 2
v -20 8 -0
v -20 9 20
v -20 9 -1
v -20 15 20
v -20 15 -0
v -20 40 -0
v -20 40 -20
v -15 15 20
v -15 15 15
v -15 20 20
v -15 20 15
v 10 15 20
v 10 15 15
v 10 20 20
v 10 20 15
v -10 15 20
v -10 15 15
v -10 20 20
v -10 20 15
v 15 15 20
v 15 15 15
v 15 20 20
v 15 20 15
v 20 0 20
v 20 0 -20
v 20 4 20
v 20 4 -1
v 20 5 19
v 20 5 18
v 20 5 17
v 20 5 15
v 20 5 14
v 20 5 12
v 20 5 11
v 20 5 9
v 20 5 8
v 20 5 6
v 20 5 5
v 20 5 3
v 20 5 2
v 20 5 -0
v 20 8 19
v 20 8 18
v 20 8 17
v 20 8 15
v 20 8 14
v 20 8 12
v 20 8 11
v 20 8 9
v 20 8 8
v 20 8 6
v 20 8 5
v 20 8 3
v 20 8 2
v 20 8 -0
v 20 9 20
v 20 9 -1
v 20 15 20
v 20 15 -0
v 20 40 -0
v 20 40 -20
v -20 0 20
v -20 4 20
v -20 9 20
v -20 15 20
v -19 5 20
v -19 8 20
v -17 5 20
v -17 8 20
v -16 5 20
v -16 8 20
v -15 15 20
v -15 20 20
v -14 5 20
v -14 8 20
v -14 16 20
v -14 19 20
v -13 5 20
v -13 8 20
v -11 5 20
v -11 8 20
v -11 16 20
v -11 19 20
v -10 5 20
v -10 8 20
v -10 15 20
v -10 20 20
v -8 5 20
v -8 8 20
v -7 5 20
v -7 8 20
v -5 5 20
v -5 8 20
v -4 5 20
v -4 8 20
v -2 5 20
v -2 8 20
v -1 5 20
v -1 8 20
v 1 5 20
v 1 8 20
v 2 5 20
v 2 8 20
v 4 5 20
v 4 8 20
v 5 5 20
v 5 8 20
v 7 5 20
v 7 8 20
v 8 5 20
v 8 8 20
v 10 5 20
v 10 8 20
v 10 15 20
v 10 20 20
v 11 5 20
v 11 8 20
v 11 16 20
v 11 19 20
v 13 5 20
v 13 8 20
v 14 5 20
v 14 8 20
v 14 16 20
v 14 19 20
v 15 15 20
v 15 20 20
v 16 5 20
v 16 8 20
v 17 5 20
v 17 8 20
v 19 5 20
v 19 8 20
v 20 0 20
v 20 4 20
v 20 9 20
v 20 15 20
v -20 15 -0
v -20 40 -0
v -15 25 -0
v -15 35 -0
v -12 28 -0
v -12 32 -0
v -8 28 -0
v -8 32 -0
v -5 25 -0
v -5 35 -0
v 5 25 -0
v 5 35 -0
v 8 28 -0
v 8 32 -0
v 12 28 -0
v 12 32 -0
v 15 25 -0
v 15 35 -0
v 20 15 -0
v 20 40 -0
v -15 15 15
v -15 20 15
v -10 15 15
v -10 20 15
v 10 15 15
v 10 20 15
v 15 15 15
v 15 20 15
v -20 0 -20
v -20 40 -20
v 20 0 -20
v 20 40 -20
v -20 0 20
v 20 0 20
v -20 0 -20
v 20 0 -20
v -20 15 20
v -15 15 20
v -10 15 20
v 10 15 20
v 15 15 20
v 20 15 20
v -15 15 15
v -10 15 15
v 10 15 15
v 15 15 15
v -20 15 -0
v 20 15 -0
v -15 20 20
v -10 20 20
v 10 20 20
v 15 20 20
v -15 20 15
v -10 20 15
v 10 20 15
v 15 20 15
v -20 40 -0
v 20 40 -0
v -20 40 -20
v 20 40 -20

# faces
f 3/1/1 2/1/1 1/1/1
f 4/1/1 2/1/1 3/1/1
f 5/3/1 4/3/1 3/3/1
f 6/3/1 4/3/1 5/3/1
f 7/3/1 4/3/1 6/3/1
f 8/3/1 4/3/1 7/3/1
f 9/3/1 4/3/1 8/3/1
f 10/3/1 4/3/1 9/3/1
f 11/3/1 4/3/1 10/3/1
f 12/3/1 4/3/1 11/3/1
f 13/3/1 4/3/1 12/3/1
f 14/3/1 4/3/1 13/3/1
f 15/3/1 4/3/1 14/3/1
f 16/3/1 4/3/1 15/3/1
f 17/3/1 4/3/1 16/3/1
f 18/3/1 4/3/1 17/3/1
f 19/3/1 5/3/1 3/3/1
f 19/2/1 6/2/1 5/2/1
f 20/3/1 7/3/1 6/3/1
f 20/2/1 6/2/1 19/2/1
f 21/2/1 8/2/1 7/2/1
f 21/3/1 7/3/1 20/3/1
f 22/3/1 9/3/1 8/3/1
f 22/2/1 8/2/1 21/2/1
f 23/2/1 10/2/1 9/2/1
f 23/3/1 9/3/1 22/3/1
f 24/3/1 11/3/1 10/3/1
f 24/2/1 10/2/1 23/2/1
f 25/2/1 12/2/1 11/2/1
f 25/3/1 11/3/1 24/3/1
f 26/3/1 13/3/1 12/3/1
f 26/2/1 12/2/1 25/2/1
f 27/2/1 14/2/1 13/2/1
f 27/3/1 13/3/1 26/3/1
f 28/3/1 15/3/1 14/3/1
f 28/2/1 14/2/1 27/2/1
f 29/2/1 16/2/1 15/2/1
f 29/3/1 15/3/1 28/3/1
f 30/3/1 17/3/1 16/3/1
f 30/2/1 16/2/1 29/2/1
f 31/2/1 18/2/1 17/2/1
f 31/3/1 17/3/1 30/3/1
f 32/3/1 4/3/1 18/3/1
f 32/2/1 18/2/1 31/2/1
f 33/3/1 31/3/1 30/3/1
f 33/3/1 30/3/1 29/3/1
f 33/3/1 32/3/1 31/3/1
f 33/3/1 29/3/1 28/3/1
f 33/3/1 28/3/1 27/3/1
f 33/3/1 27/3/1 26/3/1
f 33/3/1 26/3/1 25/3/1
f 33/3/1 25/3/1 24/3/1
f 33/3/1 24/3/1 23/3/1
f 33/3/1 23/3/1 22/3/1
f 33/3/1 22/3/1 21/3/1
f 33/3/1 21/3/1 20/3/1
f 33/3/1 20/3/1 19/3/1
f 33/3/1 19/3/1 3/3/1
f 34/1/1 2/1/1 4/1/1
f 34/3/1 32/3/1 33/3/1
f 34/3/1 4/3/1 32/3/1
f 35/1/1 34/1/1 33/1/1
f 36/1/1 34/1/1 35/1/1
f 37/1/1 34/1/1 36/1/1
f 38/1/1 2/1/1 34/1/1
f 38/1/1 34/1/1 37/1/1
f 41/1/1 40/1/1 39/1/1
f 42/1/1 40/1/1 41/1/1
f 45/1/1 44/1/1 43/1/1
f 46/1/1 44/1/1 45/1/1
f 47/1/2 48/1/2 49/1/2
f 49/1/2 48/1/2 50/1/2
f 51/1/2 52/1/2 53/1/2
f 53/1/2 52/1/2 54/1/2
f 55/1/2 56/1/2 57/1/2
f 57/1/2 56/1/2 58/1/2
f 57/3/2 58/3/2 59/3/2
f 59/3/2 58/3/2 60/3/2
f 60/3/2 58/3/2 61/3/2
f 61/3/2 58/3/2 62/3/2
f 62/3/2 58/3/2 63/3/2
f 63/3/2 58/3/2 64/3/2
f 64/3/2 58/3/2 65/3/2
f 65/3/2 58/3/2 66/3/2
f 66/3/2 58/3/2 67/3/2
f 67/3/2 58/3/2 68/3/2
f 68/3/2 58/3/2 69/3/2
f 69/3/2 58/3/2 70/3/2
f 70/3/2 58/3/2 71/3/2
f 71/3/2 58/3/2 72/3/2
f 57/3/2 59/3/2 73/3/2
f 59/2/2 60/2/2 73/2/2
f 60/3/2 61/3/2 74/3/2
f 73/2/2 60/2/2 74/2/2
f 61/2/2 62/2/2 75/2/2
f 74/3/2 61/3/2 75/3/2
f 62/3/2 63/3/2 76/3/2
f 75/2/2 62/2/2 76/2/2
f 63/2/2 64/2/2 77/2/2
f 76/3/2 63/3/2 77/3/2
f 64/3/2 65/3/2 78/3/2
f 77/2/2 64/2/2 78/2/2
f 65/2/2 66/2/2 79/2/2
f 78/3/2 65/3/2 79/3/2
f 66/3/2 67/3/2 80/3/2
f 79/2/2 66/2/2 80/2/2
f 67/2/2 68/2/2 81/2/2
f 80/3/2 67/3/2 81/3/2
f 68/3/2 69/3/2 82/3/2
f 81/2/2 68/2/2 82/2/2
f 69/2/2 70/2/2 83/2/2
f 82/3/2 69/3/2 83/3/2
f 70/3/2 71/3/2 84/3/2
f 83/2/2 70/2/2 84/2/2
f 71/2/2 72/2/2 85/2/2
f 84/3/2 71/3/2 85/3/2
f 72/3/2 58/3/2 86/3/2
f 85/2/2 72/2/2 86/2/2
f 84/3/2 85/3/2 87/3/2
f 83/3/2 84/3/2 87/3/2
f 85/3/2 86/3/2 87/3/2
f 82/3/2 83/3/2 87/3/2
f 81/3/2 82/3/2 87/3/2
f 80/3/2 81/3/2 87/3/2
f 79/3/2 80/3/2 87/3/2
f 78/3/2 79/3/2 87/3/2
f 77/3/2 78/3/2 87/3/2
f 76/3/2 77/3/2 87/3/2
f 75/3/2 76/3/2 87/3/2
f 74/3/2 75/3/2 87/3/2
f 73/3/2 74/3/2 87/3/2
f 57/3/2 73/3/2 87/3/2
f 58/1/2 56/1/2 88/1/2
f 87/3/2 86/3/2 88/3/2
f 86/3/2 58/3/2 88/3/2
f 87/1/2 88/1/2 89/1/2
f 89/1/2 88/1/2 90/1/2
f 90/1/2 88/1/2 91/1/2
f 88/1/2 56/1/2 92/1/2
f 91/1/2 88/1/2 92/1/2
f 97/3/3 95/3/3 94/3/3
f 98/3/3 95/3/3 97/3/3
f 99/3/3 97/3/3 94/3/3
f 99/2/3 98/2/3 97/2/3
f 100/3/3 95/3/3 98/3/3
f 100/2/3 98/2/3 99/2/3
f 101/3/3 99/3/3 94/3/3
f 101/3/3 100/3/3 99/3/3
f 102/3/3 95/3/3 100/3/3
f 102/3/3 100/3/3 101/3/3
f 103/1/3 96/1/3 95/1/3
f 105/3/3 101/3/3 94/3/3
f 105/2/3 102/2/3 101/2/3
f 106/3/3 95/3/3 102/3/3
f 106/2/3 102/2/3 105/2/3
f 107/1/3 104/1/3 103/1/3
f 108/1/3 104/1/3 107/1/3
f 109/3/3 105/3/3 94/3/3
f 109/3/3 106/3/3 105/3/3
f 110/3/3 95/3/3 106/3/3
f 110/3/3 106/3/3 109/3/3
f 111/3/3 109/3/3 94/3/3
f 111/2/3 110/2/3 109/2/3
f 112/3/3 95/3/3 110/3/3
f 112/2/3 110/2/3 111/2/3
f 113/3/3 108/3/3 107/3/3
f 113/1/3 107/1/3 103/1/3
f 114/1/3 104/1/3 108/1/3
f 114/3/3 108/3/3 113/3/3
f 115/3/3 111/3/3 94/3/3
f 115/3/3 112/3/3 111/3/3
f 116/3/3 95/3/3 112/3/3
f 116/3/3 112/3/3 115/3/3
f 117/1/3 113/1/3 103/1/3
f 117/1/3 103/1/3 95/1/3
f 117/1/3 114/1/3 113/1/3
f 118/1/3 104/1/3 114/1/3
f 118/1/3 114/1/3 117/1/3
f 119/2/3 116/2/3 115/2/3
f 119/3/3 115/3/3 94/3/3
f 120/3/3 95/3/3 116/3/3
f 120/2/3 116/2/3 119/2/3
f 121/3/3 119/3/3 94/3/3
f 121/3/3 120/3/3 119/3/3
f 122/3/3 95/3/3 120/3/3
f 122/3/3 120/3/3 121/3/3
f 123/3/3 121/3/3 94/3/3
f 123/2/3 122/2/3 121/2/3
f 124/3/3 95/3/3 122/3/3
f 124/2/3 122/2/3 123/2/3
f 125/3/3 123/3/3 94/3/3
f 125/3/3 124/3/3 123/3/3
f 126/3/3 95/3/3 124/3/3
f 126/3/3 124/3/3 125/3/3
f 127/3/3 125/3/3 94/3/3
f 127/2/3 126/2/3 125/2/3
f 128/3/3 95/3/3 126/3/3
f 128/2/3 126/2/3 127/2/3
f 129/3/3 127/3/3 94/3/3
f 129/3/3 128/3/3 127/3/3
f 130/3/3 95/3/3 128/3/3
f 130/3/3 128/3/3 129/3/3
f 131/3/3 129/3/3 94/3/3
f 131/2/3 130/2/3 129/2/3
f 132/3/3 95/3/3 130/3/3
f 132/2/3 130/2/3 131/2/3
f 133/3/3 131/3/3 94/3/3
f 133/3/3 132/3/3 131/3/3
f 134/3/3 95/3/3 132/3/3
f 134/3/3 132/3/3 133/3/3
f 135/3/3 133/3/3 94/3/3
f 135/2/3 134/2/3 133/2/3
f 136/3/3 95/3/3 134/3/3
f 136/2/3 134/2/3 135/2/3
f 137/3/3 135/3/3 94/3/3
f 137/3/3 136/3/3 135/3/3
f 138/3/3 95/3/3 136/3/3
f 138/3/3 136/3/3 137/3/3
f 139/3/3 137/3/3 94/3/3
f 139/2/3 138/2/3 137/2/3
f 140/3/3 95/3/3 138/3/3
f 140/2/3 138/2/3 139/2/3
f 141/3/3 139/3/3 94/3/3
f 141/3/3 140/3/3 139/3/3
f 142/3/3 95/3/3 140/3/3
f 142/3/3 140/3/3 141/3/3
f 143/3/3 141/3/3 94/3/3
f 143/2/3 142/2/3 141/2/3
f 144/3/3 95/3/3 142/3/3
f 144/2/3 142/2/3 143/2/3
f 145/1/3 117/1/3 95/1/3
f 147/3/3 143/3/3 94/3/3
f 147/3/3 144/3/3 143/3/3
f 148/3/3 95/3/3 144/3/3
f 148/3/3 144/3/3 147/3/3
f 149/1/3 146/1/3 145/1/3
f 150/1/3 146/1/3 149/1/3
f 151/3/3 147/3/3 94/3/3
f 151/2/3 148/2/3 147/2/3
f 152/3/3 95/3/3 148/3/3
f 152/2/3 148/2/3 151/2/3
f 153/3/3 151/3/3 94/3/3
f 153/3/3 152/3/3 151/3/3
f 154/3/3 95/3/3 152/3/3
f 154/3/3 152/3/3 153/3/3
f 155/3/3 150/3/3 149/3/3
f 155/1/3 149/1/3 145/1/3
f 156/1/3 146/1/3 150/1/3
f 156/3/3 150/3/3 155/3/3
f 157/1/3 155/1/3 145/1/3
f 157/1/3 145/1/3 95/1/3
f 157/1/3 156/1/3 155/1/3
f 158/1/3 146/1/3 156/1/3
f 158/1/3 156/1/3 157/1/3
f 159/3/3 153/3/3 94/3/3
f 159/2/3 154/2/3 153/2/3
f 160/3/3 95/3/3 154/3/3
f 160/2/3 154/2/3 159/2/3
f 161/3/3 159/3/3 94/3/3
f 161/3/3 160/3/3 159/3/3
f 162/3/3 95/3/3 160/3/3
f 162/3/3 160/3/3 161/3/3
f 163/3/3 161/3/3 94/3/3
f 163/2/3 162/2/3 161/2/3
f 164/3/3 95/3/3 162/3/3
f 164/2/3 162/2/3 163/2/3
f 165/1/3 94/1/3 93/1/3
f 166/3/3 163/3/3 94/3/3
f 166/1/3 94/1/3 165/1/3
f 166/3/3 164/3/3 163/3/3
f 167/3/3 95/3/3 164/3/3
f 167/3/3 164/3/3 166/3/3
f 167/1/3 157/1/3 95/1/3
f 168/1/3 157/1/3 167/1/3
f 171/1/3 170/1/3 169/1/3
f 172/1/3 170/1/3 171/1/3
f 173/3/3 172/3/3 171/3/3
f 174/3/3 172/3/3 173/3/3
f 175/3/3 173/3/3 171/3/3
f 175/2/3 174/2/3 173/2/3
f 176/3/3 172/3/3 174/3/3
f 176/2/3 174/2/3 175/2/3
f 177/1/3 171/1/3 169/1/3
f 177/3/3 175/3/3 171/3/3
f 177/3/3 176/3/3 175/3/3
f 178/3/3 172/3/3 176/3/3
f 178/3/3 176/3/3 177/3/3
f 178/1/3 170/1/3 172/1/3
f 179/1/3 177/1/3 169/1/3
f 179/1/3 178/1/3 177/1/3
f 180/1/3 170/1/3 178/1/3
f 180/1/3 178/1/3 179/1/3
f 181/3/3 180/3/3 179/3/3
f 182/3/3 180/3/3 181/3/3
f 183/3/3 181/3/3 179/3/3
f 183/2/3 182/2/3 181/2/3
f 184/3/3 180/3/3 182/3/3
f 184/2/3 182/2/3 183/2/3
f 185/1/3 179/1/3 169/1/3
f 185/3/3 183/3/3 179/3/3
f 185/3/3 184/3/3 183/3/3
f 186/3/3 180/3/3 184/3/3
f 186/3/3 184/3/3 185/3/3
f 186/1/3 170/1/3 180/1/3
f 187/1/3 185/1/3 169/1/3
f 187/1/3 186/1/3 185/1/3
f 188/1/3 170/1/3 186/1/3
f 188/1/3 186/1/3 187/1/3
f 189/1/4 190/1/4 191/1/4
f 191/1/4 190/1/4 192/1/4
f 193/1/4 194/1/4 195/1/4
f 195/1/4 194/1/4 196/1/4
f 197/1/4 198/1/4 199/1/4
f 199/1/4 198/1/4 200/1/4
f 203/1/5 202/1/5 201/1/5
f 204/1/5 202/1/5 203/1/5
f 205/1/6 206/1/6 211/1/6
f 207/1/6 208/1/6 212/1/6
f 212/1/6 208/1/6 213/1/6
f 209/1/6 210/1/6 214/1/6
f 212/1/6 213/1/6 215/1/6
f 213/1/6 214/1/6 215/1/6
f 205/1/6 211/1/6 215/1/6
f 211/1/6 212/1/6 215/1/6
f 214/1/6 210/1/6 216/1/6
f 215/1/6 214/1/6 216/1/6
f 217/1/6 218/1/6 221/1/6
f 221/1/6 218/1/6 222/1/6
f 219/1/6 220/1/6 223/1/6
f 223/1/6 220/1/6 224/1/6
f 225/1/6 226/1/6 227/1/6
f 227/1/6 226/1/6 228/1/6
