# MagicaVoxel @ Ephtracy

# group
g Chicken

# material
mtllib Chicken.mtl
usemtl palette

# normals
vn -1 0 0
vn 1 0 0
vn 0 0 1
vn 0 0 -1
vn 0 -1 0
vn 0 1 0

# texcoords
vt 0.0449219 0.5
vt 0.845703 0.5
vt 0.849609 0.5
vt 0.958984 0.5
vt 0.994141 0.5

# verts
v -20 10 15
v -20 10 -20
v -20 20 15
v -20 20 -20
v -17 0 15
v -17 0 -20
v -17 10 15
v -17 10 -20
v -17 20 15
v -17 20 -20
v -17 35 15
v -17 35 -20
v -10 17 20
v -10 17 15
v -10 22 20
v -10 22 15
v -5 35 15
v -5 35 5
v -5 40 15
v -5 40 5
v 5 35 15
v 5 35 5
v 5 40 15
v 5 40 5
v 10 17 20
v 10 17 15
v 10 22 20
v 10 22 15
v 17 0 15
v 17 0 -20
v 17 10 15
v 17 10 -20
v 17 20 15
v 17 20 -20
v 17 35 15
v 17 35 -20
v 20 10 15
v 20 10 -20
v 20 20 15
v 20 20 -20
v -10 17 20
v -10 22 20
v 10 17 20
v 10 22 20
v -20 10 15
v -20 20 15
v -17 0 15
v -17 10 15
v -17 20 15
v -17 35 15
v -14 22 15
v -14 32 15
v -11 25 15
v -11 29 15
v -10 17 15
v -10 22 15
v -7 25 15
v -7 29 15
v -5 10 15
v -5 17 15
v -5 35 15
v -5 40 15
v -4 22 15
v -4 32 15
v 4 22 15
v 4 32 15
v 5 10 15
v 5 17 15
v 5 35 15
v 5 40 15
v 7 25 15
v 7 29 15
v 10 17 15
v 10 22 15
v 11 25 15
v 11 29 15
v 14 22 15
v 14 32 15
v 17 0 15
v 17 10 15
v 17 20 15
v 17 35 15
v 20 10 15
v 20 20 15
v -5 35 5
v -5 40 5
v 5 35 5
v 5 40 5
v -20 10 -20
v -20 20 -20
v -17 0 -20
v -17 10 -20
v -17 20 -20
v -17 35 -20
v 17 0 -20
v 17 10 -20
v 17 20 -20
v 17 35 -20
v 20 10 -20
v 20 20 -20
v -17 0 15
v 17 0 15
v -17 0 -20
v 17 0 -20
v -20 10 15
v -17 10 15
v 17 10 15
v 20 10 15
v -20 10 -20
v -17 10 -20
v 17 10 -20
v 20 10 -20
v -10 17 20
v 10 17 20
v -10 17 15
v -5 17 15
v 5 17 15
v 10 17 15
v -20 20 15
v -17 20 15
v 17 20 15
v 20 20 15
v -20 20 -20
v -17 20 -20
v 17 20 -20
v 20 20 -20
v -10 22 20
v 10 22 20
v -10 22 15
v -4 22 15
v 4 22 15
v 10 22 15
v -17 35 15
v -5 35 15
v 5 35 15
v 17 35 15
v -5 35 5
v 5 35 5
v -17 35 -20
v 17 35 -20
v -5 40 15
v 5 40 15
v -5 40 5
v 5 40 5

# faces
f 3/4/1 2/4/1 1/4/1
f 4/4/1 2/4/1 3/4/1
f 7/4/1 6/4/1 5/4/1
f 8/4/1 6/4/1 7/4/1
f 11/4/1 10/4/1 9/4/1
f 12/4/1 10/4/1 11/4/1
f 15/1/1 14/1/1 13/1/1
f 16/1/1 14/1/1 15/1/1
f 19/2/1 18/2/1 17/2/1
f 20/2/1 18/2/1 19/2/1
f 21/2/2 22/2/2 23/2/2
f 23/2/2 22/2/2 24/2/2
f 25/1/2 26/1/2 27/1/2
f 27/1/2 26/1/2 28/1/2
f 29/4/2 30/4/2 31/4/2
f 31/4/2 30/4/2 32/4/2
f 33/4/2 34/4/2 35/4/2
f 35/4/2 34/4/2 36/4/2
f 37/4/2 38/4/2 39/4/2
f 39/4/2 38/4/2 40/4/2
f 43/1/3 42/1/3 41/1/3
f 44/1/3 42/1/3 43/1/3
f 48/4/3 46/4/3 45/4/3
f 49/4/3 46/4/3 48/4/3
f 51/4/3 48/4/3 47/4/3
f 51/4/3 50/4/3 49/4/3
f 51/4/3 49/4/3 48/4/3
f 52/4/3 50/4/3 51/4/3
f 53/5/3 52/5/3 51/5/3
f 54/5/3 52/5/3 53/5/3
f 55/4/3 51/4/3 47/4/3
f 56/5/3 53/5/3 51/5/3
f 56/4/3 51/4/3 55/4/3
f 57/4/3 54/4/3 53/4/3
f 57/5/3 53/5/3 56/5/3
f 58/5/3 52/5/3 54/5/3
f 58/4/3 54/4/3 57/4/3
f 59/4/3 55/4/3 47/4/3
f 60/4/3 55/4/3 59/4/3
f 61/4/3 50/4/3 52/4/3
f 63/5/3 57/5/3 56/5/3
f 63/5/3 58/5/3 57/5/3
f 64/5/3 52/5/3 58/5/3
f 64/5/3 58/5/3 63/5/3
f 64/4/3 61/4/3 52/4/3
f 65/4/3 64/4/3 63/4/3
f 66/4/3 61/4/3 64/4/3
f 66/4/3 64/4/3 65/4/3
f 67/2/3 60/2/3 59/2/3
f 67/4/3 59/4/3 47/4/3
f 68/2/3 60/2/3 67/2/3
f 69/2/3 62/2/3 61/2/3
f 69/4/3 61/4/3 66/4/3
f 70/2/3 62/2/3 69/2/3
f 71/5/3 66/5/3 65/5/3
f 72/5/3 66/5/3 71/5/3
f 73/4/3 68/4/3 67/4/3
f 74/5/3 71/5/3 65/5/3
f 75/4/3 72/4/3 71/4/3
f 75/5/3 71/5/3 74/5/3
f 76/5/3 66/5/3 72/5/3
f 76/4/3 72/4/3 75/4/3
f 77/5/3 75/5/3 74/5/3
f 77/4/3 74/4/3 73/4/3
f 77/5/3 76/5/3 75/5/3
f 78/5/3 66/5/3 76/5/3
f 78/5/3 76/5/3 77/5/3
f 78/4/3 69/4/3 66/4/3
f 79/4/3 77/4/3 73/4/3
f 79/4/3 67/4/3 47/4/3
f 79/4/3 78/4/3 77/4/3
f 79/4/3 73/4/3 67/4/3
f 80/4/3 78/4/3 79/4/3
f 81/4/3 78/4/3 80/4/3
f 82/4/3 69/4/3 78/4/3
f 82/4/3 78/4/3 81/4/3
f 83/4/3 81/4/3 80/4/3
f 84/4/3 81/4/3 83/4/3
f 85/2/4 86/2/4 87/2/4
f 87/2/4 86/2/4 88/2/4
f 89/4/4 90/4/4 92/4/4
f 92/4/4 90/4/4 93/4/4
f 91/4/4 92/4/4 95/4/4
f 93/4/4 94/4/4 95/4/4
f 92/4/4 93/4/4 95/4/4
f 95/4/4 94/4/4 96/4/4
f 96/4/4 94/4/4 97/4/4
f 97/4/4 94/4/4 98/4/4
f 96/4/4 97/4/4 99/4/4
f 99/4/4 97/4/4 100/4/4
f 103/4/5 102/4/5 101/4/5
f 104/4/5 102/4/5 103/4/5
f 109/4/5 106/4/5 105/4/5
f 110/4/5 106/4/5 109/4/5
f 111/4/5 108/4/5 107/4/5
f 112/4/5 108/4/5 111/4/5
f 115/1/5 114/1/5 113/1/5
f 116/1/5 114/1/5 115/1/5
f 117/1/5 114/1/5 116/1/5
f 118/1/5 114/1/5 117/1/5
f 119/4/6 120/4/6 123/4/6
f 123/4/6 120/4/6 124/4/6
f 121/4/6 122/4/6 125/4/6
f 125/4/6 122/4/6 126/4/6
f 127/1/6 128/1/6 129/1/6
f 129/1/6 128/1/6 130/1/6
f 130/1/6 128/1/6 131/1/6
f 131/1/6 128/1/6 132/1/6
f 133/4/6 134/4/6 137/4/6
f 135/4/6 136/4/6 138/4/6
f 133/4/6 137/4/6 139/4/6
f 137/4/6 138/4/6 139/4/6
f 138/4/6 136/4/6 140/4/6
f 139/4/6 138/4/6 140/4/6
f 141/2/6 142/2/6 143/2/6
f 143/2/6 142/2/6 144/2/6
