# MagicaVoxel @ Ephtracy

# group
g Phoenix

# material
mtllib Phoenix.mtl
usemtl palette

# normals
vn -1 0 0
vn 1 0 0
vn 0 0 1
vn 0 0 -1
vn 0 -1 0
vn 0 1 0

# texcoords
vt 0.0175781 0.5
vt 0.0214844 0.5
vt 0.275391 0.5
vt 0.841797 0.5
vt 0.869141 0.5
vt 0.958984 0.5
vt 0.994141 0.5

# verts
v -20 0 20
v -20 0 -20
v -20 2 20
v -20 2 -20
v -20 15 20
v -20 15 -20
v -15 17 15
v -15 17 -15
v -15 30 15
v -15 30 14
v -15 40 15
v -15 40 14
v -15 40 -15
v -13 15 15
v -13 15 -15
v -13 17 15
v -13 17 -15
v -8 0 20
v -8 0 -20
v -8 8 20
v -8 8 -20
v -5 25 20
v -5 25 15
v -5 30 20
v -5 30 15
v -4 23 18
v -4 23 15
v -4 25 18
v -4 25 15
v 12 0 20
v 12 0 -20
v 12 2 20
v 12 2 -20
v 12 8 20
v 12 8 -20
v -12 0 20
v -12 0 -20
v -12 2 20
v -12 2 -20
v -12 8 20
v -12 8 -20
v 4 23 18
v 4 23 15
v 4 25 18
v 4 25 15
v 5 25 20
v 5 25 15
v 5 30 20
v 5 30 15
v 8 0 20
v 8 0 -20
v 8 8 20
v 8 8 -20
v 13 15 15
v 13 15 -15
v 13 17 15
v 13 17 -15
v 15 17 15
v 15 17 -15
v 15 30 15
v 15 30 14
v 15 40 15
v 15 40 14
v 15 40 -15
v 20 0 20
v 20 0 -20
v 20 2 20
v 20 2 -20
v 20 15 20
v 20 15 -20
v -20 0 20
v -20 2 20
v -20 15 20
v -12 0 20
v -12 2 20
v -12 8 20
v -8 0 20
v -8 8 20
v -6 0 20
v -6 8 20
v -5 25 20
v -5 30 20
v 5 25 20
v 5 30 20
v 6 0 20
v 6 8 20
v 8 0 20
v 8 8 20
v 12 0 20
v 12 2 20
v 12 8 20
v 20 0 20
v 20 2 20
v 20 15 20
v -4 23 18
v -4 25 18
v 4 23 18
v 4 25 18
v -15 17 15
v -15 30 15
v -15 40 15
v -13 15 15
v -13 17 15
v -12 33 15
v -12 37 15
v -11 15 15
v -11 20 15
v -10 15 15
v -10 20 15
v -8 15 15
v -8 20 15
v -8 33 15
v -8 37 15
v -7 15 15
v -7 20 15
v -5 15 15
v -5 20 15
v -5 25 15
v -5 30 15
v -5 40 15
v -4 15 15
v -4 20 15
v -4 23 15
v -4 25 15
v -2 15 15
v -2 20 15
v -1 15 15
v -1 20 15
v 1 15 15
v 1 20 15
v 2 15 15
v 2 20 15
v 4 15 15
v 4 20 15
v 4 23 15
v 4 25 15
v 5 15 15
v 5 20 15
v 5 25 15
v 5 30 15
v 5 40 15
v 7 15 15
v 7 20 15
v 8 15 15
v 8 20 15
v 8 33 15
v 8 37 15
v 10 15 15
v 10 20 15
v 11 15 15
v 11 20 15
v 12 33 15
v 12 37 15
v 13 15 15
v 13 17 15
v 15 17 15
v 15 30 15
v 15 40 15
v -15 17 -15
v -15 40 -15
v -13 15 -15
v -13 17 -15
v 13 15 -15
v 13 17 -15
v 15 17 -15
v 15 40 -15
v -20 0 -20
v -20 2 -20
v -20 15 -20
v -12 0 -20
v -12 2 -20
v -12 8 -20
v -8 0 -20
v -8 8 -20
v 8 0 -20
v 8 8 -20
v 12 0 -20
v 12 2 -20
v 12 8 -20
v 20 0 -20
v 20 2 -20
v 20 15 -20
v -20 0 20
v -12 0 20
v -8 0 20
v -6 0 20
v 6 0 20
v 8 0 20
v 12 0 20
v 20 0 20
v -6 0 19
v 6 0 19
v -20 0 -20
v -12 0 -20
v -8 0 -20
v 8 0 -20
v 12 0 -20
v 20 0 -20
v -12 8 20
v -8 8 20
v 8 8 20
v 12 8 20
v -12 8 -20
v -8 8 -20
v 8 8 -20
v 12 8 -20
v -15 17 15
v -13 17 15
v 13 17 15
v 15 17 15
v -15 17 -15
v -13 17 -15
v 13 17 -15
v 15 17 -15
v -4 23 18
v 4 23 18
v -4 23 15
v 4 23 15
v -5 25 20
v 5 25 20
v -4 25 18
v 4 25 18
v -5 25 15
v -4 25 15
v 4 25 15
v 5 25 15
v -20 15 20
v 20 15 20
v -13 15 15
v -11 15 15
v -10 15 15
v -8 15 15
v -7 15 15
v -5 15 15
v -4 15 15
v -2 15 15
v -1 15 15
v 1 15 15
v 2 15 15
v 4 15 15
v 5 15 15
v 7 15 15
v 8 15 15
v 10 15 15
v 11 15 15
v 13 15 15
v -13 15 -15
v 13 15 -15
v -20 15 -20
v 20 15 -20
v -5 30 20
v 5 30 20
v -5 30 15
v 5 30 15
v -15 40 15
v -5 40 15
v 5 40 15
v 15 40 15
v -15 40 14
v -5 40 14
v 5 40 14
v 15 40 14
v -15 40 -15
v 15 40 -15

# faces
f 3/2/1 2/2/1 1/2/1
f 4/2/1 2/2/1 3/2/1
f 5/4/1 4/4/1 3/4/1
f 6/4/1 4/4/1 5/4/1
f 9/3/1 8/3/1 7/3/1
f 10/3/1 8/3/1 9/3/1
f 11/7/1 10/7/1 9/7/1
f 12/3/1 8/3/1 10/3/1
f 12/7/1 10/7/1 11/7/1
f 13/3/1 8/3/1 12/3/1
f 16/3/1 15/3/1 14/3/1
f 17/3/1 15/3/1 16/3/1
f 20/4/1 19/4/1 18/4/1
f 21/4/1 19/4/1 20/4/1
f 24/1/1 23/1/1 22/1/1
f 25/1/1 23/1/1 24/1/1
f 28/1/1 27/1/1 26/1/1
f 29/1/1 27/1/1 28/1/1
f 32/2/1 31/2/1 30/2/1
f 33/2/1 31/2/1 32/2/1
f 34/4/1 33/4/1 32/4/1
f 35/4/1 33/4/1 34/4/1
f 36/2/2 37/2/2 38/2/2
f 38/2/2 37/2/2 39/2/2
f 38/4/2 39/4/2 40/4/2
f 40/4/2 39/4/2 41/4/2
f 42/1/2 43/1/2 44/1/2
f 44/1/2 43/1/2 45/1/2
f 46/1/2 47/1/2 48/1/2
f 48/1/2 47/1/2 49/1/2
f 50/4/2 51/4/2 52/4/2
f 52/4/2 51/4/2 53/4/2
f 54/3/2 55/3/2 56/3/2
f 56/3/2 55/3/2 57/3/2
f 58/3/2 59/3/2 60/3/2
f 60/3/2 59/3/2 61/3/2
f 60/7/2 61/7/2 62/7/2
f 61/3/2 59/3/2 63/3/2
f 62/7/2 61/7/2 63/7/2
f 63/3/2 59/3/2 64/3/2
f 65/2/2 66/2/2 67/2/2
f 67/2/2 66/2/2 68/2/2
f 67/4/2 68/4/2 69/4/2
f 69/4/2 68/4/2 70/4/2
f 74/2/3 72/2/3 71/2/3
f 75/4/3 73/4/3 72/4/3
f 75/2/3 72/2/3 74/2/3
f 76/4/3 73/4/3 75/4/3
f 78/4/3 73/4/3 76/4/3
f 79/4/3 78/4/3 77/4/3
f 80/4/3 73/4/3 78/4/3
f 80/4/3 78/4/3 79/4/3
f 83/1/3 82/1/3 81/1/3
f 84/1/3 82/1/3 83/1/3
f 85/5/3 80/5/3 79/5/3
f 86/4/3 73/4/3 80/4/3
f 86/5/3 80/5/3 85/5/3
f 87/4/3 86/4/3 85/4/3
f 88/4/3 73/4/3 86/4/3
f 88/4/3 86/4/3 87/4/3
f 91/4/3 73/4/3 88/4/3
f 92/2/3 90/2/3 89/2/3
f 93/4/3 91/4/3 90/4/3
f 93/2/3 90/2/3 92/2/3
f 94/4/3 73/4/3 91/4/3
f 94/4/3 91/4/3 93/4/3
f 97/1/3 96/1/3 95/1/3
f 98/1/3 96/1/3 97/1/3
f 103/3/3 100/3/3 99/3/3
f 104/7/3 101/7/3 100/7/3
f 105/7/3 101/7/3 104/7/3
f 106/3/3 103/3/3 102/3/3
f 107/3/3 100/3/3 103/3/3
f 107/3/3 103/3/3 106/3/3
f 108/4/3 107/4/3 106/4/3
f 109/3/3 100/3/3 107/3/3
f 109/4/3 107/4/3 108/4/3
f 110/3/3 109/3/3 108/3/3
f 111/3/3 100/3/3 109/3/3
f 111/3/3 109/3/3 110/3/3
f 112/7/3 104/7/3 100/7/3
f 112/6/3 105/6/3 104/6/3
f 113/7/3 101/7/3 105/7/3
f 113/6/3 105/6/3 112/6/3
f 114/4/3 111/4/3 110/4/3
f 115/3/3 100/3/3 111/3/3
f 115/4/3 111/4/3 114/4/3
f 116/3/3 115/3/3 114/3/3
f 117/3/3 100/3/3 115/3/3
f 117/3/3 115/3/3 116/3/3
f 118/3/3 100/3/3 117/3/3
f 119/7/3 112/7/3 100/7/3
f 119/3/3 100/3/3 118/3/3
f 119/7/3 113/7/3 112/7/3
f 120/7/3 101/7/3 113/7/3
f 120/7/3 113/7/3 119/7/3
f 121/4/3 117/4/3 116/4/3
f 122/3/3 118/3/3 117/3/3
f 122/4/3 117/4/3 121/4/3
f 123/3/3 118/3/3 122/3/3
f 124/3/3 118/3/3 123/3/3
f 125/3/3 122/3/3 121/3/3
f 125/3/3 123/3/3 122/3/3
f 126/3/3 123/3/3 125/3/3
f 127/4/3 126/4/3 125/4/3
f 128/3/3 123/3/3 126/3/3
f 128/4/3 126/4/3 127/4/3
f 129/3/3 128/3/3 127/3/3
f 130/3/3 123/3/3 128/3/3
f 130/3/3 128/3/3 129/3/3
f 131/4/3 130/4/3 129/4/3
f 132/3/3 123/3/3 130/3/3
f 132/4/3 130/4/3 131/4/3
f 133/3/3 132/3/3 131/3/3
f 134/3/3 123/3/3 132/3/3
f 134/3/3 132/3/3 133/3/3
f 135/3/3 123/3/3 134/3/3
f 137/4/3 134/4/3 133/4/3
f 138/3/3 136/3/3 135/3/3
f 138/4/3 134/4/3 137/4/3
f 138/3/3 135/3/3 134/3/3
f 139/3/3 136/3/3 138/3/3
f 140/3/3 120/3/3 119/3/3
f 141/3/3 120/3/3 140/3/3
f 142/3/3 139/3/3 138/3/3
f 142/3/3 138/3/3 137/3/3
f 142/3/3 140/3/3 139/3/3
f 143/3/3 140/3/3 142/3/3
f 144/4/3 143/4/3 142/4/3
f 145/3/3 140/3/3 143/3/3
f 145/4/3 143/4/3 144/4/3
f 146/7/3 141/7/3 140/7/3
f 147/7/3 141/7/3 146/7/3
f 148/3/3 145/3/3 144/3/3
f 149/3/3 140/3/3 145/3/3
f 149/3/3 145/3/3 148/3/3
f 150/4/3 149/4/3 148/4/3
f 151/3/3 140/3/3 149/3/3
f 151/4/3 149/4/3 150/4/3
f 152/7/3 146/7/3 140/7/3
f 152/6/3 147/6/3 146/6/3
f 153/7/3 141/7/3 147/7/3
f 153/6/3 147/6/3 152/6/3
f 154/3/3 151/3/3 150/3/3
f 155/3/3 151/3/3 154/3/3
f 156/3/3 151/3/3 155/3/3
f 157/7/3 152/7/3 140/7/3
f 157/3/3 151/3/3 156/3/3
f 157/3/3 140/3/3 151/3/3
f 157/7/3 153/7/3 152/7/3
f 158/7/3 141/7/3 153/7/3
f 158/7/3 153/7/3 157/7/3
f 159/3/4 160/3/4 162/3/4
f 161/3/4 162/3/4 163/3/4
f 162/3/4 160/3/4 164/3/4
f 163/3/4 162/3/4 164/3/4
f 164/3/4 160/3/4 165/3/4
f 165/3/4 160/3/4 166/3/4
f 167/2/4 168/2/4 170/2/4
f 168/4/4 169/4/4 171/4/4
f 170/2/4 168/2/4 171/2/4
f 171/4/4 169/4/4 172/4/4
f 172/4/4 169/4/4 174/4/4
f 173/4/4 174/4/4 175/4/4
f 174/4/4 169/4/4 176/4/4
f 175/4/4 174/4/4 176/4/4
f 176/4/4 169/4/4 179/4/4
f 177/2/4 178/2/4 180/2/4
f 178/4/4 179/4/4 181/4/4
f 180/2/4 178/2/4 181/2/4
f 179/4/4 169/4/4 182/4/4
f 181/4/4 179/4/4 182/4/4
f 191/4/5 186/4/5 185/4/5
f 191/5/5 187/5/5 186/5/5
f 192/4/5 188/4/5 187/4/5
f 192/5/5 187/5/5 191/5/5
f 193/2/5 184/2/5 183/2/5
f 194/2/5 184/2/5 193/2/5
f 195/4/5 191/4/5 185/4/5
f 195/4/5 192/4/5 191/4/5
f 196/4/5 188/4/5 192/4/5
f 196/4/5 192/4/5 195/4/5
f 197/2/5 190/2/5 189/2/5
f 198/2/5 190/2/5 197/2/5
f 203/4/5 200/4/5 199/4/5
f 204/4/5 200/4/5 203/4/5
f 205/4/5 202/4/5 201/4/5
f 206/4/5 202/4/5 205/4/5
f 211/3/5 208/3/5 207/3/5
f 212/3/5 208/3/5 211/3/5
f 213/3/5 210/3/5 209/3/5
f 214/3/5 210/3/5 213/3/5
f 217/1/5 216/1/5 215/1/5
f 218/1/5 216/1/5 217/1/5
f 221/1/5 220/1/5 219/1/5
f 222/1/5 220/1/5 221/1/5
f 223/1/5 221/1/5 219/1/5
f 224/1/5 221/1/5 223/1/5
f 225/1/5 220/1/5 222/1/5
f 226/1/5 220/1/5 225/1/5
f 227/4/6 228/4/6 229/4/6
f 229/4/6 228/4/6 230/4/6
f 230/4/6 228/4/6 231/4/6
f 231/4/6 228/4/6 232/4/6
f 232/4/6 228/4/6 233/4/6
f 233/4/6 228/4/6 234/4/6
f 234/4/6 228/4/6 235/4/6
f 235/4/6 228/4/6 236/4/6
f 236/4/6 228/4/6 237/4/6
f 237/4/6 228/4/6 238/4/6
f 238/4/6 228/4/6 239/4/6
f 239/4/6 228/4/6 240/4/6
f 240/4/6 228/4/6 241/4/6
f 241/4/6 228/4/6 242/4/6
f 242/4/6 228/4/6 243/4/6
f 243/4/6 228/4/6 244/4/6
f 244/4/6 228/4/6 245/4/6
f 245/4/6 228/4/6 246/4/6
f 227/4/6 229/4/6 247/4/6
f 246/4/6 228/4/6 248/4/6
f 227/4/6 247/4/6 249/4/6
f 247/4/6 248/4/6 249/4/6
f 248/4/6 228/4/6 250/4/6
f 249/4/6 248/4/6 250/4/6
f 251/1/6 252/1/6 253/1/6
f 253/1/6 252/1/6 254/1/6
f 255/7/6 256/7/6 259/7/6
f 256/3/6 257/3/6 260/3/6
f 259/7/6 256/7/6 260/7/6
f 257/7/6 258/7/6 261/7/6
f 260/3/6 257/3/6 261/3/6
f 261/7/6 258/7/6 262/7/6
f 259/3/6 260/3/6 263/3/6
f 260/3/6 261/3/6 263/3/6
f 261/3/6 262/3/6 263/3/6
f 263/3/6 262/3/6 264/3/6
