# MagicaVoxel @ Ephtracy

# group
g Turtle

# material
mtllib Turtle.mtl
usemtl palette

# normals
vn -1 0 0
vn 1 0 0
vn 0 0 1
vn 0 0 -1
vn 0 -1 0
vn 0 1 0

# texcoords
vt 0.0253906 0.5
vt 0.341797 0.5
vt 0.580078 0.5
vt 0.791016 0.5
vt 0.958984 0.5
vt 0.994141 0.5

# verts
v -20 0 20
v -20 0 10
v -20 0 -10
v -20 0 -20
v -20 10 20
v -20 10 10
v -20 10 -10
v -20 10 -20
v -17 0 10
v -17 0 -10
v -17 10 15
v -17 10 10
v -17 10 -10
v -17 10 -20
v -17 15 20
v -17 15 15
v -17 15 5
v -17 15 -20
v -17 16 4
v -17 16 -4
v -17 16 -5
v -17 16 -14
v -17 16 -15
v -17 16 -20
v -17 24 4
v -17 24 -4
v -17 24 -5
v -17 24 -14
v -17 24 -15
v -17 24 -20
v -17 25 4
v -17 25 -4
v -17 25 -5
v -17 25 -14
v -17 25 -15
v -17 25 -20
v -17 34 4
v -17 34 -4
v -17 34 -5
v -17 34 -14
v -17 34 -15
v -17 34 -20
v -17 35 4
v -17 35 -4
v -17 35 -5
v -17 35 -14
v -17 35 -15
v -17 35 -20
v -17 40 20
v -17 40 5
v -17 40 4
v -17 40 -4
v -17 40 -5
v -17 40 -14
v -17 40 -15
v -17 40 -20
v 10 0 20
v 10 0 15
v 10 10 20
v 10 10 15
v -10 0 20
v -10 0 15
v -10 10 20
v -10 10 15
v 17 0 10
v 17 0 -10
v 17 10 15
v 17 10 10
v 17 10 -10
v 17 10 -20
v 17 15 20
v 17 15 15
v 17 15 5
v 17 15 -20
v 17 16 4
v 17 16 -4
v 17 16 -5
v 17 16 -14
v 17 16 -15
v 17 16 -20
v 17 24 4
v 17 24 -4
v 17 24 -5
v 17 24 -14
v 17 24 -15
v 17 24 -20
v 17 25 4
v 17 25 -4
v 17 25 -5
v 17 25 -14
v 17 25 -15
v 17 25 -20
v 17 34 4
v 17 34 -4
v 17 34 -5
v 17 34 -14
v 17 34 -15
v 17 34 -20
v 17 35 4
v 17 35 -4
v 17 35 -5
v 17 35 -14
v 17 35 -15
v 17 35 -20
v 17 40 20
v 17 40 5
v 17 40 4
v 17 40 -4
v 17 40 -5
v 17 40 -14
v 17 40 -15
v 17 40 -20
v 20 0 20
v 20 0 10
v 20 0 -10
v 20 0 -20
v 20 10 20
v 20 10 10
v 20 10 -10
v 20 10 -20
v -20 0 20
v -20 10 20
v -17 15 20
v -17 40 20
v -14 27 20
v -14 37 20
v -11 30 20
v -11 34 20
v -10 0 20
v -10 10 20
v -10 19 20
v -10 21 20
v -7 30 20
v -7 34 20
v -4 27 20
v -4 37 20
v 4 27 20
v 4 37 20
v 7 30 20
v 7 34 20
v 10 0 20
v 10 10 20
v 10 19 20
v 10 21 20
v 11 30 20
v 11 34 20
v 14 27 20
v 14 37 20
v 17 15 20
v 17 40 20
v 20 0 20
v 20 10 20
v -17 10 15
v -17 15 15
v -15 10 15
v -10 0 15
v -10 10 15
v 10 0 15
v 10 10 15
v 17 10 15
v 17 15 15
v -20 0 -10
v -20 10 -10
v -17 0 -10
v -17 10 -10
v 17 0 -10
v 17 10 -10
v 20 0 -10
v 20 10 -10
v -20 0 10
v -20 10 10
v -17 0 10
v -17 10 10
v 17 0 10
v 17 10 10
v 20 0 10
v 20 10 10
v -20 0 -20
v -20 10 -20
v -17 0 -20
v -17 10 -20
v -17 15 -20
v -17 16 -20
v -17 24 -20
v -17 25 -20
v -17 34 -20
v -17 35 -20
v -17 40 -20
v -11 16 -20
v -11 24 -20
v -11 25 -20
v -11 34 -20
v -11 35 -20
v -11 40 -20
v -10 16 -20
v -10 24 -20
v -10 25 -20
v -10 34 -20
v -10 35 -20
v -10 40 -20
v 0 16 -20
v 0 24 -20
v 0 25 -20
v 0 34 -20
v 0 35 -20
v 0 40 -20
v 1 16 -20
v 1 24 -20
v 1 25 -20
v 1 34 -20
v 1 35 -20
v 1 40 -20
v 10 16 -20
v 10 24 -20
v 10 25 -20
v 10 34 -20
v 10 35 -20
v 10 40 -20
v 11 16 -20
v 11 24 -20
v 11 25 -20
v 11 34 -20
v 11 35 -20
v 11 40 -20
v 17 0 -20
v 17 10 -20
v 17 15 -20
v 17 16 -20
v 17 24 -20
v 17 25 -20
v 17 34 -20
v 17 35 -20
v 17 40 -20
v 20 0 -20
v 20 10 -20
v -20 0 20
v -10 0 20
v 10 0 20
v 20 0 20
v -11 0 15
v -10 0 15
v 10 0 15
v 17 0 15
v -20 0 10
v -17 0 10
v -11 0 10
v 17 0 10
v 20 0 10
v -20 0 -10
v -17 0 -10
v -11 0 -10
v 17 0 -10
v 20 0 -10
v -17 0 -19
v -11 0 -19
v -20 0 -20
v -17 0 -20
v 17 0 -20
v 20 0 -20
v -17 15 20
v 17 15 20
v -17 15 15
v 17 15 15
v -20 10 20
v -10 10 20
v 10 10 20
v 20 10 20
v -17 10 16
v -15 10 16
v -17 10 15
v -15 10 15
v -10 10 15
v 10 10 15
v 17 10 15
v -20 10 10
v -17 10 10
v 17 10 10
v 20 10 10
v -20 10 -10
v -17 10 -10
v 17 10 -10
v 20 10 -10
v -20 10 -20
v -17 10 -20
v 17 10 -20
v 20 10 -20
v -17 40 20
v 17 40 20
v -17 40 5
v 17 40 5
v -17 40 4
v -11 40 4
v -10 40 4
v 0 40 4
v 1 40 4
v 10 40 4
v 11 40 4
v 17 40 4
v -17 40 -4
v -11 40 -4
v -10 40 -4
v 0 40 -4
v 1 40 -4
v 10 40 -4
v 11 40 -4
v 17 40 -4
v -17 40 -5
v -11 40 -5
v -10 40 -5
v 0 40 -5
v 1 40 -5
v 10 40 -5
v 11 40 -5
v 17 40 -5
v -17 40 -14
v -11 40 -14
v -10 40 -14
v 0 40 -14
v 1 40 -14
v 10 40 -14
v 11 40 -14
v 17 40 -14
v -17 40 -15
v -11 40 -15
v -10 40 -15
v 0 40 -15
v 1 40 -15
v 10 40 -15
v 11 40 -15
v 17 40 -15
v -17 40 -20
v -11 40 -20
v -10 40 -20
v 0 40 -20
v 1 40 -20
v 10 40 -20
v 11 40 -20
v 17 40 -20

# faces
f 5/3/1 2/3/1 1/3/1
f 6/3/1 2/3/1 5/3/1
f 7/3/1 4/3/1 3/3/1
f 8/3/1 4/3/1 7/3/1
f 12/2/1 10/2/1 9/2/1
f 13/2/1 10/2/1 12/2/1
f 16/2/1 12/2/1 11/2/1
f 16/2/1 14/2/1 13/2/1
f 16/2/1 13/2/1 12/2/1
f 17/2/1 14/2/1 16/2/1
f 18/2/1 14/2/1 17/2/1
f 19/6/1 18/6/1 17/6/1
f 20/6/1 18/6/1 19/6/1
f 21/6/1 18/6/1 20/6/1
f 22/6/1 18/6/1 21/6/1
f 23/6/1 18/6/1 22/6/1
f 24/6/1 18/6/1 23/6/1
f 25/6/1 19/6/1 17/6/1
f 25/4/1 20/4/1 19/4/1
f 26/6/1 21/6/1 20/6/1
f 26/4/1 20/4/1 25/4/1
f 27/4/1 22/4/1 21/4/1
f 27/6/1 21/6/1 26/6/1
f 28/6/1 23/6/1 22/6/1
f 28/4/1 22/4/1 27/4/1
f 29/4/1 24/4/1 23/4/1
f 29/6/1 23/6/1 28/6/1
f 30/4/1 24/4/1 29/4/1
f 31/6/1 28/6/1 27/6/1
f 31/6/1 25/6/1 17/6/1
f 31/6/1 30/6/1 29/6/1
f 31/6/1 29/6/1 28/6/1
f 31/6/1 27/6/1 26/6/1
f 31/6/1 26/6/1 25/6/1
f 32/6/1 30/6/1 31/6/1
f 33/6/1 30/6/1 32/6/1
f 34/6/1 30/6/1 33/6/1
f 35/6/1 30/6/1 34/6/1
f 36/6/1 30/6/1 35/6/1
f 37/6/1 31/6/1 17/6/1
f 37/4/1 32/4/1 31/4/1
f 38/6/1 33/6/1 32/6/1
f 38/4/1 32/4/1 37/4/1
f 39/4/1 34/4/1 33/4/1
f 39/6/1 33/6/1 38/6/1
f 40/6/1 35/6/1 34/6/1
f 40/4/1 34/4/1 39/4/1
f 41/4/1 36/4/1 35/4/1
f 41/6/1 35/6/1 40/6/1
f 42/4/1 36/4/1 41/4/1
f 43/6/1 40/6/1 39/6/1
f 43/6/1 37/6/1 17/6/1
f 43/6/1 42/6/1 41/6/1
f 43/6/1 41/6/1 40/6/1
f 43/6/1 39/6/1 38/6/1
f 43/6/1 38/6/1 37/6/1
f 44/6/1 42/6/1 43/6/1
f 45/6/1 42/6/1 44/6/1
f 46/6/1 42/6/1 45/6/1
f 47/6/1 42/6/1 46/6/1
f 48/6/1 42/6/1 47/6/1
f 49/3/1 16/3/1 15/3/1
f 49/3/1 17/3/1 16/3/1
f 50/6/1 43/6/1 17/6/1
f 50/3/1 17/3/1 49/3/1
f 51/4/1 44/4/1 43/4/1
f 51/6/1 43/6/1 50/6/1
f 52/6/1 45/6/1 44/6/1
f 52/4/1 44/4/1 51/4/1
f 53/4/1 46/4/1 45/4/1
f 53/6/1 45/6/1 52/6/1
f 54/6/1 47/6/1 46/6/1
f 54/4/1 46/4/1 53/4/1
f 55/4/1 48/4/1 47/4/1
f 55/6/1 47/6/1 54/6/1
f 56/4/1 48/4/1 55/4/1
f 59/3/1 58/3/1 57/3/1
f 60/3/1 58/3/1 59/3/1
f 61/3/2 62/3/2 63/3/2
f 63/3/2 62/3/2 64/3/2
f 65/2/2 66/2/2 68/2/2
f 68/2/2 66/2/2 69/2/2
f 67/2/2 68/2/2 72/2/2
f 69/2/2 70/2/2 72/2/2
f 68/2/2 69/2/2 72/2/2
f 72/2/2 70/2/2 73/2/2
f 73/2/2 70/2/2 74/2/2
f 73/6/2 74/6/2 75/6/2
f 75/6/2 74/6/2 76/6/2
f 76/6/2 74/6/2 77/6/2
f 77/6/2 74/6/2 78/6/2
f 78/6/2 74/6/2 79/6/2
f 79/6/2 74/6/2 80/6/2
f 73/6/2 75/6/2 81/6/2
f 75/4/2 76/4/2 81/4/2
f 76/6/2 77/6/2 82/6/2
f 81/4/2 76/4/2 82/4/2
f 77/4/2 78/4/2 83/4/2
f 82/6/2 77/6/2 83/6/2
f 78/6/2 79/6/2 84/6/2
f 83/4/2 78/4/2 84/4/2
f 79/4/2 80/4/2 85/4/2
f 84/6/2 79/6/2 85/6/2
f 85/4/2 80/4/2 86/4/2
f 83/6/2 84/6/2 87/6/2
f 73/6/2 81/6/2 87/6/2
f 85/6/2 86/6/2 87/6/2
f 84/6/2 85/6/2 87/6/2
f 82/6/2 83/6/2 87/6/2
f 81/6/2 82/6/2 87/6/2
f 87/6/2 86/6/2 88/6/2
f 88/6/2 86/6/2 89/6/2
f 89/6/2 86/6/2 90/6/2
f 90/6/2 86/6/2 91/6/2
f 91/6/2 86/6/2 92/6/2
f 73/6/2 87/6/2 93/6/2
f 87/4/2 88/4/2 93/4/2
f 88/6/2 89/6/2 94/6/2
f 93/4/2 88/4/2 94/4/2
f 89/4/2 90/4/2 95/4/2
f 94/6/2 89/6/2 95/6/2
f 90/6/2 91/6/2 96/6/2
f 95/4/2 90/4/2 96/4/2
f 91/4/2 92/4/2 97/4/2
f 96/6/2 91/6/2 97/6/2
f 97/4/2 92/4/2 98/4/2
f 95/6/2 96/6/2 99/6/2
f 73/6/2 93/6/2 99/6/2
f 97/6/2 98/6/2 99/6/2
f 96/6/2 97/6/2 99/6/2
f 94/6/2 95/6/2 99/6/2
f 93/6/2 94/6/2 99/6/2
f 99/6/2 98/6/2 100/6/2
f 100/6/2 98/6/2 101/6/2
f 101/6/2 98/6/2 102/6/2
f 102/6/2 98/6/2 103/6/2
f 103/6/2 98/6/2 104/6/2
f 71/3/2 72/3/2 105/3/2
f 72/3/2 73/3/2 105/3/2
f 73/6/2 99/6/2 106/6/2
f 105/3/2 73/3/2 106/3/2
f 99/4/2 100/4/2 107/4/2
f 106/6/2 99/6/2 107/6/2
f 100/6/2 101/6/2 108/6/2
f 107/4/2 100/4/2 108/4/2
f 101/4/2 102/4/2 109/4/2
f 108/6/2 101/6/2 109/6/2
f 102/6/2 103/6/2 110/6/2
f 109/4/2 102/4/2 110/4/2
f 103/4/2 104/4/2 111/4/2
f 110/6/2 103/6/2 111/6/2
f 111/4/2 104/4/2 112/4/2
f 113/3/2 114/3/2 117/3/2
f 117/3/2 114/3/2 118/3/2
f 115/3/2 116/3/2 119/3/2
f 119/3/2 116/3/2 120/3/2
f 125/3/3 124/3/3 123/3/3
f 126/3/3 124/3/3 125/3/3
f 127/6/3 126/6/3 125/6/3
f 128/6/3 126/6/3 127/6/3
f 129/3/3 122/3/3 121/3/3
f 130/3/3 122/3/3 129/3/3
f 131/3/3 125/3/3 123/3/3
f 132/3/3 125/3/3 131/3/3
f 133/6/3 127/6/3 125/6/3
f 133/5/3 128/5/3 127/5/3
f 134/6/3 126/6/3 128/6/3
f 134/5/3 128/5/3 133/5/3
f 135/6/3 133/6/3 125/6/3
f 135/3/3 125/3/3 132/3/3
f 135/6/3 134/6/3 133/6/3
f 136/6/3 126/6/3 134/6/3
f 136/6/3 134/6/3 135/6/3
f 136/3/3 124/3/3 126/3/3
f 137/3/3 135/3/3 132/3/3
f 137/3/3 136/3/3 135/3/3
f 138/3/3 124/3/3 136/3/3
f 138/3/3 136/3/3 137/3/3
f 139/6/3 138/6/3 137/6/3
f 140/6/3 138/6/3 139/6/3
f 143/3/3 131/3/3 123/3/3
f 143/1/3 132/1/3 131/1/3
f 144/3/3 137/3/3 132/3/3
f 144/1/3 132/1/3 143/1/3
f 145/6/3 139/6/3 137/6/3
f 145/5/3 140/5/3 139/5/3
f 146/6/3 138/6/3 140/6/3
f 146/5/3 140/5/3 145/5/3
f 147/6/3 145/6/3 137/6/3
f 147/3/3 137/3/3 144/3/3
f 147/6/3 146/6/3 145/6/3
f 147/3/3 144/3/3 143/3/3
f 148/6/3 138/6/3 146/6/3
f 148/6/3 146/6/3 147/6/3
f 148/3/3 124/3/3 138/3/3
f 149/3/3 143/3/3 123/3/3
f 149/3/3 147/3/3 143/3/3
f 149/3/3 148/3/3 147/3/3
f 150/3/3 124/3/3 148/3/3
f 150/3/3 148/3/3 149/3/3
f 151/3/3 142/3/3 141/3/3
f 152/3/3 142/3/3 151/3/3
f 155/2/3 154/2/3 153/2/3
f 157/2/3 154/2/3 155/2/3
f 158/2/3 157/2/3 156/2/3
f 159/2/3 154/2/3 157/2/3
f 159/2/3 157/2/3 158/2/3
f 160/2/3 154/2/3 159/2/3
f 161/2/3 154/2/3 160/2/3
f 164/3/3 163/3/3 162/3/3
f 165/3/3 163/3/3 164/3/3
f 168/3/3 167/3/3 166/3/3
f 169/3/3 167/3/3 168/3/3
f 170/3/4 171/3/4 172/3/4
f 172/3/4 171/3/4 173/3/4
f 174/3/4 175/3/4 176/3/4
f 176/3/4 175/3/4 177/3/4
f 178/3/4 179/3/4 180/3/4
f 180/3/4 179/3/4 181/3/4
f 182/6/4 183/6/4 189/6/4
f 183/4/4 184/4/4 189/4/4
f 184/6/4 185/6/4 190/6/4
f 189/4/4 184/4/4 190/4/4
f 185/4/4 186/4/4 191/4/4
f 190/6/4 185/6/4 191/6/4
f 186/6/4 187/6/4 192/6/4
f 191/4/4 186/4/4 192/4/4
f 187/4/4 188/4/4 193/4/4
f 192/6/4 187/6/4 193/6/4
f 193/4/4 188/4/4 194/4/4
f 191/6/4 192/6/4 195/6/4
f 190/6/4 191/6/4 195/6/4
f 193/6/4 194/6/4 195/6/4
f 192/6/4 193/6/4 195/6/4
f 189/6/4 190/6/4 195/6/4
f 182/6/4 189/6/4 195/6/4
f 195/6/4 194/6/4 196/6/4
f 196/6/4 194/6/4 197/6/4
f 197/6/4 194/6/4 198/6/4
f 198/6/4 194/6/4 199/6/4
f 199/6/4 194/6/4 200/6/4
f 182/6/4 195/6/4 201/6/4
f 195/4/4 196/4/4 201/4/4
f 196/6/4 197/6/4 202/6/4
f 201/4/4 196/4/4 202/4/4
f 197/4/4 198/4/4 203/4/4
f 202/6/4 197/6/4 203/6/4
f 198/6/4 199/6/4 204/6/4
f 203/4/4 198/4/4 204/4/4
f 199/4/4 200/4/4 205/4/4
f 204/6/4 199/6/4 205/6/4
f 205/4/4 200/4/4 206/4/4
f 203/6/4 204/6/4 207/6/4
f 182/6/4 201/6/4 207/6/4
f 205/6/4 206/6/4 207/6/4
f 204/6/4 205/6/4 207/6/4
f 202/6/4 203/6/4 207/6/4
f 201/6/4 202/6/4 207/6/4
f 207/6/4 206/6/4 208/6/4
f 208/6/4 206/6/4 209/6/4
f 209/6/4 206/6/4 210/6/4
f 210/6/4 206/6/4 211/6/4
f 211/6/4 206/6/4 212/6/4
f 182/6/4 207/6/4 213/6/4
f 207/4/4 208/4/4 213/4/4
f 208/6/4 209/6/4 214/6/4
f 213/4/4 208/4/4 214/4/4
f 209/4/4 210/4/4 215/4/4
f 214/6/4 209/6/4 215/6/4
f 210/6/4 211/6/4 216/6/4
f 215/4/4 210/4/4 216/4/4
f 211/4/4 212/4/4 217/4/4
f 216/6/4 211/6/4 217/6/4
f 217/4/4 212/4/4 218/4/4
f 215/6/4 216/6/4 219/6/4
f 182/6/4 213/6/4 219/6/4
f 217/6/4 218/6/4 219/6/4
f 216/6/4 217/6/4 219/6/4
f 214/6/4 215/6/4 219/6/4
f 213/6/4 214/6/4 219/6/4
f 219/6/4 218/6/4 220/6/4
f 220/6/4 218/6/4 221/6/4
f 221/6/4 218/6/4 222/6/4
f 222/6/4 218/6/4 223/6/4
f 223/6/4 218/6/4 224/6/4
f 180/2/4 181/2/4 225/2/4
f 181/2/4 182/2/4 225/2/4
f 225/2/4 182/2/4 226/2/4
f 182/6/4 219/6/4 227/6/4
f 226/2/4 182/2/4 227/2/4
f 219/4/4 220/4/4 228/4/4
f 227/6/4 219/6/4 228/6/4
f 220/6/4 221/6/4 229/6/4
f 228/4/4 220/4/4 229/4/4
f 221/4/4 222/4/4 230/4/4
f 229/6/4 221/6/4 230/6/4
f 222/6/4 223/6/4 231/6/4
f 230/4/4 222/4/4 231/4/4
f 223/4/4 224/4/4 232/4/4
f 231/6/4 223/6/4 232/6/4
f 232/4/4 224/4/4 233/4/4
f 225/3/4 226/3/4 234/3/4
f 234/3/4 226/3/4 235/3/4
f 240/3/5 237/3/5 236/3/5
f 241/3/5 237/3/5 240/3/5
f 242/3/5 239/3/5 238/3/5
f 243/3/5 239/3/5 242/3/5
f 244/3/5 240/3/5 236/3/5
f 245/3/5 240/3/5 244/3/5
f 246/2/5 241/2/5 240/2/5
f 246/3/5 240/3/5 245/3/5
f 246/2/5 242/2/5 241/2/5
f 246/2/5 243/2/5 242/2/5
f 247/3/5 239/3/5 243/3/5
f 247/2/5 243/2/5 246/2/5
f 248/3/5 239/3/5 247/3/5
f 250/2/5 246/2/5 245/2/5
f 250/2/5 247/2/5 246/2/5
f 251/2/5 247/2/5 250/2/5
f 252/2/5 247/2/5 251/2/5
f 254/3/5 250/3/5 249/3/5
f 254/3/5 251/3/5 250/3/5
f 255/2/5 252/2/5 251/2/5
f 255/3/5 251/3/5 254/3/5
f 256/3/5 254/3/5 249/3/5
f 257/2/5 255/2/5 254/2/5
f 257/3/5 254/3/5 256/3/5
f 258/3/5 253/3/5 252/3/5
f 258/2/5 255/2/5 257/2/5
f 258/2/5 252/2/5 255/2/5
f 259/3/5 253/3/5 258/3/5
f 262/3/5 261/3/5 260/3/5
f 263/3/5 261/3/5 262/3/5
f 264/3/6 265/3/6 268/3/6
f 268/3/6 265/3/6 269/3/6
f 264/3/6 268/3/6 270/3/6
f 268/2/6 269/2/6 270/2/6
f 269/3/6 265/3/6 271/3/6
f 270/2/6 269/2/6 271/2/6
f 271/3/6 265/3/6 272/3/6
f 266/3/6 267/3/6 273/3/6
f 273/3/6 267/3/6 274/3/6
f 264/3/6 270/3/6 275/3/6
f 275/3/6 270/3/6 276/3/6
f 274/3/6 267/3/6 277/3/6
f 277/3/6 267/3/6 278/3/6
f 279/3/6 280/3/6 283/3/6
f 283/3/6 280/3/6 284/3/6
f 281/3/6 282/3/6 285/3/6
f 285/3/6 282/3/6 286/3/6
f 287/3/6 288/3/6 289/3/6
f 289/3/6 288/3/6 290/3/6
f 289/6/6 290/6/6 291/6/6
f 291/6/6 290/6/6 292/6/6
f 292/6/6 290/6/6 293/6/6
f 293/6/6 290/6/6 294/6/6
f 294/6/6 290/6/6 295/6/6
f 295/6/6 290/6/6 296/6/6
f 296/6/6 290/6/6 297/6/6
f 297/6/6 290/6/6 298/6/6
f 291/4/6 292/4/6 299/4/6
f 292/6/6 293/6/6 300/6/6
f 299/4/6 292/4/6 300/4/6
f 293/4/6 294/4/6 301/4/6
f 300/6/6 293/6/6 301/6/6
f 294/6/6 295/6/6 302/6/6
f 301/4/6 294/4/6 302/4/6
f 295/4/6 296/4/6 303/4/6
f 302/6/6 295/6/6 303/6/6
f 296/6/6 297/6/6 304/6/6
f 303/4/6 296/4/6 304/4/6
f 297/4/6 298/4/6 305/4/6
f 304/6/6 297/6/6 305/6/6
f 305/4/6 298/4/6 306/4/6
f 299/6/6 300/6/6 307/6/6
f 300/6/6 301/6/6 307/6/6
f 305/6/6 306/6/6 307/6/6
f 304/6/6 305/6/6 307/6/6
f 303/6/6 304/6/6 307/6/6
f 302/6/6 303/6/6 307/6/6
f 301/6/6 302/6/6 307/6/6
f 307/6/6 306/6/6 308/6/6
f 308/6/6 306/6/6 309/6/6
f 309/6/6 306/6/6 310/6/6
f 310/6/6 306/6/6 311/6/6
f 311/6/6 306/6/6 312/6/6
f 312/6/6 306/6/6 313/6/6
f 313/6/6 306/6/6 314/6/6
f 307/4/6 308/4/6 315/4/6
f 308/6/6 309/6/6 316/6/6
f 315/4/6 308/4/6 316/4/6
f 309/4/6 310/4/6 317/4/6
f 316/6/6 309/6/6 317/6/6
f 310/6/6 311/6/6 318/6/6
f 317/4/6 310/4/6 318/4/6
f 311/4/6 312/4/6 319/4/6
f 318/6/6 311/6/6 319/6/6
f 312/6/6 313/6/6 320/6/6
f 319/4/6 312/4/6 320/4/6
f 313/4/6 314/4/6 321/4/6
f 320/6/6 313/6/6 321/6/6
f 321/4/6 314/4/6 322/4/6
f 315/6/6 316/6/6 323/6/6
f 316/6/6 317/6/6 323/6/6
f 321/6/6 322/6/6 323/6/6
f 320/6/6 321/6/6 323/6/6
f 319/6/6 320/6/6 323/6/6
f 318/6/6 319/6/6 323/6/6
f 317/6/6 318/6/6 323/6/6
f 323/6/6 322/6/6 324/6/6
f 324/6/6 322/6/6 325/6/6
f 325/6/6 322/6/6 326/6/6
f 326/6/6 322/6/6 327/6/6
f 327/6/6 322/6/6 328/6/6
f 328/6/6 322/6/6 329/6/6
f 329/6/6 322/6/6 330/6/6
f 323/4/6 324/4/6 331/4/6
f 324/6/6 325/6/6 332/6/6
f 331/4/6 324/4/6 332/4/6
f 325/4/6 326/4/6 333/4/6
f 332/6/6 325/6/6 333/6/6
f 326/6/6 327/6/6 334/6/6
f 333/4/6 326/4/6 334/4/6
f 327/4/6 328/4/6 335/4/6
f 334/6/6 327/6/6 335/6/6
f 328/6/6 329/6/6 336/6/6
f 335/4/6 328/4/6 336/4/6
f 329/4/6 330/4/6 337/4/6
f 336/6/6 329/6/6 337/6/6
f 337/4/6 330/4/6 338/4/6
