# MagicaVoxel @ Ephtracy

# group
g Gorilla

# material
mtllib Gorilla.mtl
usemtl palette

# normals
vn -1 0 0
vn 1 0 0
vn 0 0 1
vn 0 0 -1
vn 0 -1 0
vn 0 1 0

# texcoords
vt 0.0566406 0.5
vt 0.869141 0.5
vt 0.958984 0.5
vt 0.994141 0.5

# verts
v -20 0 20
v -20 0 4
v -20 0 -20
v -20 5 20
v -20 5 4
v -20 32 20
v -20 32 -20
v -15 32 20
v -15 32 -5
v -15 40 20
v -15 40 -5
v 10 0 20
v 10 0 5
v 10 5 20
v 10 5 5
v 10 10 20
v 10 10 5
v -10 0 20
v -10 0 5
v -10 5 20
v -10 5 5
v -10 10 20
v -10 10 5
v 15 32 20
v 15 32 -5
v 15 40 20
v 15 40 -5
v 20 0 20
v 20 0 5
v 20 0 -20
v 20 5 20
v 20 5 5
v 20 32 20
v 20 32 -20
v -20 0 20
v -20 5 20
v -20 32 20
v -15 10 20
v -15 25 20
v -15 32 20
v -15 40 20
v -13 25 20
v -13 28 20
v -13 38 20
v -10 0 20
v -10 5 20
v -10 10 20
v -10 31 20
v -10 35 20
v -6 31 20
v -6 35 20
v -5 19 20
v -5 21 20
v -4 13 20
v -4 15 20
v -3 28 20
v -3 38 20
v -1 19 20
v -1 21 20
v 1 19 20
v 1 21 20
v 3 28 20
v 3 38 20
v 4 13 20
v 4 15 20
v 5 19 20
v 5 21 20
v 6 31 20
v 6 35 20
v 10 0 20
v 10 5 20
v 10 10 20
v 10 31 20
v 10 35 20
v 13 25 20
v 13 28 20
v 13 38 20
v 15 10 20
v 15 25 20
v 15 32 20
v 15 40 20
v 20 0 20
v 20 5 20
v 20 32 20
v -10 0 5
v -10 5 5
v -10 10 5
v 10 0 5
v 10 5 5
v 10 10 5
v -15 32 -5
v -15 40 -5
v 15 32 -5
v 15 40 -5
v -20 0 -20
v -20 32 -20
v 20 0 -20
v 20 32 -20
v -20 0 20
v -10 0 20
v 10 0 20
v 20 0 20
v 11 0 11
v 19 0 11
v -10 0 5
v 10 0 5
v 11 0 5
v 19 0 5
v 20 0 5
v -20 0 4
v 10 0 4
v -20 0 -20
v 20 0 -20
v -10 10 20
v 10 10 20
v -10 10 5
v 10 10 5
v -20 32 20
v -15 32 20
v 15 32 20
v 20 32 20
v -15 32 -5
v 15 32 -5
v -20 32 -20
v 20 32 -20
v -15 40 20
v 15 40 20
v -15 40 -5
v 15 40 -5

# faces
f 4/1/1 2/1/1 1/1/1
f 5/2/1 3/2/1 2/2/1
f 5/1/1 2/1/1 4/1/1
f 6/2/1 5/2/1 4/2/1
f 7/2/1 3/2/1 5/2/1
f 7/2/1 5/2/1 6/2/1
f 10/2/1 9/2/1 8/2/1
f 11/2/1 9/2/1 10/2/1
f 14/1/1 13/1/1 12/1/1
f 15/1/1 13/1/1 14/1/1
f 16/2/1 15/2/1 14/2/1
f 17/2/1 15/2/1 16/2/1
f 18/1/2 19/1/2 20/1/2
f 20/1/2 19/1/2 21/1/2
f 20/2/2 21/2/2 22/2/2
f 22/2/2 21/2/2 23/2/2
f 24/2/2 25/2/2 26/2/2
f 26/2/2 25/2/2 27/2/2
f 28/1/2 29/1/2 31/1/2
f 29/2/2 30/2/2 32/2/2
f 31/1/2 29/1/2 32/1/2
f 31/2/2 32/2/2 33/2/2
f 32/2/2 30/2/2 34/2/2
f 33/2/2 32/2/2 34/2/2
f 38/2/3 37/2/3 36/2/3
f 39/2/3 37/2/3 38/2/3
f 40/2/3 37/2/3 39/2/3
f 42/1/3 39/1/3 38/1/3
f 42/2/3 41/2/3 40/2/3
f 42/2/3 40/2/3 39/2/3
f 43/2/3 41/2/3 42/2/3
f 44/2/3 41/2/3 43/2/3
f 45/1/3 36/1/3 35/1/3
f 46/2/3 38/2/3 36/2/3
f 46/1/3 36/1/3 45/1/3
f 47/1/3 42/1/3 38/1/3
f 47/2/3 38/2/3 46/2/3
f 47/1/3 43/1/3 42/1/3
f 48/4/3 44/4/3 43/4/3
f 49/4/3 44/4/3 48/4/3
f 50/3/3 49/3/3 48/3/3
f 50/4/3 48/4/3 43/4/3
f 51/4/3 44/4/3 49/4/3
f 51/3/3 49/3/3 50/3/3
f 52/1/3 43/1/3 47/1/3
f 53/1/3 43/1/3 52/1/3
f 54/1/3 52/1/3 47/1/3
f 55/1/3 52/1/3 54/1/3
f 56/4/3 50/4/3 43/4/3
f 56/4/3 51/4/3 50/4/3
f 56/1/3 43/1/3 53/1/3
f 57/2/3 41/2/3 44/2/3
f 57/4/3 51/4/3 56/4/3
f 57/4/3 44/4/3 51/4/3
f 58/1/3 52/1/3 55/1/3
f 58/4/3 53/4/3 52/4/3
f 59/1/3 56/1/3 53/1/3
f 59/4/3 53/4/3 58/4/3
f 59/1/3 57/1/3 56/1/3
f 60/1/3 58/1/3 55/1/3
f 60/1/3 59/1/3 58/1/3
f 61/1/3 57/1/3 59/1/3
f 61/1/3 59/1/3 60/1/3
f 62/1/3 57/1/3 61/1/3
f 63/2/3 41/2/3 57/2/3
f 63/1/3 57/1/3 62/1/3
f 64/1/3 54/1/3 47/1/3
f 64/4/3 55/4/3 54/4/3
f 65/1/3 60/1/3 55/1/3
f 65/4/3 55/4/3 64/4/3
f 66/4/3 61/4/3 60/4/3
f 66/1/3 60/1/3 65/1/3
f 66/1/3 65/1/3 64/1/3
f 67/1/3 62/1/3 61/1/3
f 67/4/3 61/4/3 66/4/3
f 68/4/3 63/4/3 62/4/3
f 69/4/3 63/4/3 68/4/3
f 72/1/3 64/1/3 47/1/3
f 72/1/3 66/1/3 64/1/3
f 72/1/3 67/1/3 66/1/3
f 73/3/3 69/3/3 68/3/3
f 73/4/3 68/4/3 62/4/3
f 74/4/3 63/4/3 69/4/3
f 74/3/3 69/3/3 73/3/3
f 75/1/3 62/1/3 67/1/3
f 75/1/3 67/1/3 72/1/3
f 76/4/3 73/4/3 62/4/3
f 76/1/3 62/1/3 75/1/3
f 76/4/3 74/4/3 73/4/3
f 77/2/3 41/2/3 63/2/3
f 77/4/3 74/4/3 76/4/3
f 77/4/3 63/4/3 74/4/3
f 78/1/3 75/1/3 72/1/3
f 78/2/3 72/2/3 71/2/3
f 79/2/3 76/2/3 75/2/3
f 79/1/3 75/1/3 78/1/3
f 79/2/3 77/2/3 76/2/3
f 80/2/3 77/2/3 79/2/3
f 81/2/3 41/2/3 77/2/3
f 81/2/3 77/2/3 80/2/3
f 82/1/3 71/1/3 70/1/3
f 83/2/3 80/2/3 79/2/3
f 83/1/3 71/1/3 82/1/3
f 83/2/3 78/2/3 71/2/3
f 83/2/3 79/2/3 78/2/3
f 84/2/3 80/2/3 83/2/3
f 88/1/3 86/1/3 85/1/3
f 88/1/3 87/1/3 86/1/3
f 89/1/3 87/1/3 88/1/3
f 90/1/3 87/1/3 89/1/3
f 91/2/4 92/2/4 93/2/4
f 93/2/4 92/2/4 94/2/4
f 95/2/4 96/2/4 97/2/4
f 97/2/4 96/2/4 98/2/4
f 103/1/5 102/1/5 101/1/5
f 104/1/5 102/1/5 103/1/5
f 105/1/5 100/1/5 99/1/5
f 106/1/5 103/1/5 101/1/5
f 107/2/5 104/2/5 103/2/5
f 107/1/5 103/1/5 106/1/5
f 108/1/5 102/1/5 104/1/5
f 108/2/5 104/2/5 107/2/5
f 109/1/5 102/1/5 108/1/5
f 110/1/5 105/1/5 99/1/5
f 110/1/5 106/1/5 105/1/5
f 111/2/5 107/2/5 106/2/5
f 111/1/5 106/1/5 110/1/5
f 111/2/5 109/2/5 108/2/5
f 111/2/5 108/2/5 107/2/5
f 112/2/5 111/2/5 110/2/5
f 113/2/5 109/2/5 111/2/5
f 113/2/5 111/2/5 112/2/5
f 116/1/5 115/1/5 114/1/5
f 117/1/5 115/1/5 116/1/5
f 118/2/6 119/2/6 122/2/6
f 120/2/6 121/2/6 123/2/6
f 118/2/6 122/2/6 124/2/6
f 122/2/6 123/2/6 124/2/6
f 123/2/6 121/2/6 125/2/6
f 124/2/6 123/2/6 125/2/6
f 126/2/6 127/2/6 128/2/6
f 128/2/6 127/2/6 129/2/6
