# MagicaVoxel @ Ephtracy

# group
g Enemy1_3

# material
mtllib Enemy1_3.mtl
usemtl palette

# normals
vn -1 0 0
vn 1 0 0
vn 0 0 1
vn 0 0 -1
vn 0 -1 0
vn 0 1 0

# texcoords
vt 0.00195313 0.5
vt 0.458984 0.5
vt 0.900391 0.5
vt 0.994141 0.5

# verts
v -20 0 20
v -20 0 4
v -20 0 -20
v -20 5 20
v -20 5 4
v -20 32 20
v -20 32 -20
v -15 32 20
v -15 32 -5
v -15 40 20
v -15 40 -5
v 10 0 20
v 10 0 5
v 10 5 20
v 10 5 5
v 10 10 20
v 10 10 5
v -10 0 20
v -10 0 5
v -10 5 20
v -10 5 5
v -10 10 20
v -10 10 5
v 15 32 20
v 15 32 -5
v 15 40 20
v 15 40 -5
v 20 0 20
v 20 0 5
v 20 0 -20
v 20 5 20
v 20 5 5
v 20 32 20
v 20 32 -20
v -20 0 20
v -20 5 20
v -20 32 20
v -15 10 20
v -15 25 20
v -15 32 20
v -15 40 20
v -13 25 20
v -13 28 20
v -13 38 20
v -10 0 20
v -10 5 20
v -10 10 20
v -10 31 20
v -10 35 20
v -6 31 20
v -6 35 20
v -5 19 20
v -5 21 20
v -4 13 20
v -4 15 20
v -3 28 20
v -3 38 20
v -1 19 20
v -1 21 20
v 1 19 20
v 1 21 20
v 3 28 20
v 3 38 20
v 4 13 20
v 4 15 20
v 5 19 20
v 5 21 20
v 6 31 20
v 6 35 20
v 10 0 20
v 10 5 20
v 10 10 20
v 10 31 20
v 10 35 20
v 13 25 20
v 13 28 20
v 13 38 20
v 15 10 20
v 15 25 20
v 15 32 20
v 15 40 20
v 20 0 20
v 20 5 20
v 20 32 20
v -10 0 5
v -10 5 5
v -10 10 5
v 10 0 5
v 10 5 5
v 10 10 5
v -15 32 -5
v -15 40 -5
v 15 32 -5
v 15 40 -5
v -20 0 -20
v -20 32 -20
v 20 0 -20
v 20 32 -20
v -20 0 20
v -10 0 20
v 10 0 20
v 20 0 20
v 11 0 11
v 19 0 11
v -10 0 5
v 10 0 5
v 11 0 5
v 19 0 5
v 20 0 5
v -20 0 4
v 10 0 4
v -20 0 -20
v 20 0 -20
v -10 10 20
v 10 10 20
v -10 10 5
v 10 10 5
v -20 32 20
v -15 32 20
v 15 32 20
v 20 32 20
v -15 32 -5
v 15 32 -5
v -20 32 -20
v 20 32 -20
v -15 40 20
v 15 40 20
v -15 40 -5
v 15 40 -5

# faces
f 4/2/1 2/2/1 1/2/1
f 5/3/1 3/3/1 2/3/1
f 5/2/1 2/2/1 4/2/1
f 6/3/1 5/3/1 4/3/1
f 7/3/1 3/3/1 5/3/1
f 7/3/1 5/3/1 6/3/1
f 10/3/1 9/3/1 8/3/1
f 11/3/1 9/3/1 10/3/1
f 14/2/1 13/2/1 12/2/1
f 15/2/1 13/2/1 14/2/1
f 16/3/1 15/3/1 14/3/1
f 17/3/1 15/3/1 16/3/1
f 18/2/2 19/2/2 20/2/2
f 20/2/2 19/2/2 21/2/2
f 20/3/2 21/3/2 22/3/2
f 22/3/2 21/3/2 23/3/2
f 24/3/2 25/3/2 26/3/2
f 26/3/2 25/3/2 27/3/2
f 28/2/2 29/2/2 31/2/2
f 29/3/2 30/3/2 32/3/2
f 31/2/2 29/2/2 32/2/2
f 31/3/2 32/3/2 33/3/2
f 32/3/2 30/3/2 34/3/2
f 33/3/2 32/3/2 34/3/2
f 38/3/3 37/3/3 36/3/3
f 39/3/3 37/3/3 38/3/3
f 40/3/3 37/3/3 39/3/3
f 42/2/3 39/2/3 38/2/3
f 42/3/3 41/3/3 40/3/3
f 42/3/3 40/3/3 39/3/3
f 43/3/3 41/3/3 42/3/3
f 44/3/3 41/3/3 43/3/3
f 45/2/3 36/2/3 35/2/3
f 46/3/3 38/3/3 36/3/3
f 46/2/3 36/2/3 45/2/3
f 47/2/3 42/2/3 38/2/3
f 47/3/3 38/3/3 46/3/3
f 47/2/3 43/2/3 42/2/3
f 48/1/3 44/1/3 43/1/3
f 49/1/3 44/1/3 48/1/3
f 50/4/3 49/4/3 48/4/3
f 50/1/3 48/1/3 43/1/3
f 51/1/3 44/1/3 49/1/3
f 51/4/3 49/4/3 50/4/3
f 52/2/3 43/2/3 47/2/3
f 53/2/3 43/2/3 52/2/3
f 54/2/3 52/2/3 47/2/3
f 55/2/3 52/2/3 54/2/3
f 56/1/3 50/1/3 43/1/3
f 56/1/3 51/1/3 50/1/3
f 56/2/3 43/2/3 53/2/3
f 57/3/3 41/3/3 44/3/3
f 57/1/3 51/1/3 56/1/3
f 57/1/3 44/1/3 51/1/3
f 58/2/3 52/2/3 55/2/3
f 58/1/3 53/1/3 52/1/3
f 59/2/3 56/2/3 53/2/3
f 59/1/3 53/1/3 58/1/3
f 59/2/3 57/2/3 56/2/3
f 60/2/3 58/2/3 55/2/3
f 60/2/3 59/2/3 58/2/3
f 61/2/3 57/2/3 59/2/3
f 61/2/3 59/2/3 60/2/3
f 62/2/3 57/2/3 61/2/3
f 63/3/3 41/3/3 57/3/3
f 63/2/3 57/2/3 62/2/3
f 64/2/3 54/2/3 47/2/3
f 64/1/3 55/1/3 54/1/3
f 65/2/3 60/2/3 55/2/3
f 65/1/3 55/1/3 64/1/3
f 66/1/3 61/1/3 60/1/3
f 66/2/3 60/2/3 65/2/3
f 66/2/3 65/2/3 64/2/3
f 67/2/3 62/2/3 61/2/3
f 67/1/3 61/1/3 66/1/3
f 68/1/3 63/1/3 62/1/3
f 69/1/3 63/1/3 68/1/3
f 72/2/3 64/2/3 47/2/3
f 72/2/3 66/2/3 64/2/3
f 72/2/3 67/2/3 66/2/3
f 73/4/3 69/4/3 68/4/3
f 73/1/3 68/1/3 62/1/3
f 74/1/3 63/1/3 69/1/3
f 74/4/3 69/4/3 73/4/3
f 75/2/3 62/2/3 67/2/3
f 75/2/3 67/2/3 72/2/3
f 76/1/3 73/1/3 62/1/3
f 76/2/3 62/2/3 75/2/3
f 76/1/3 74/1/3 73/1/3
f 77/3/3 41/3/3 63/3/3
f 77/1/3 74/1/3 76/1/3
f 77/1/3 63/1/3 74/1/3
f 78/2/3 75/2/3 72/2/3
f 78/3/3 72/3/3 71/3/3
f 79/3/3 76/3/3 75/3/3
f 79/2/3 75/2/3 78/2/3
f 79/3/3 77/3/3 76/3/3
f 80/3/3 77/3/3 79/3/3
f 81/3/3 41/3/3 77/3/3
f 81/3/3 77/3/3 80/3/3
f 82/2/3 71/2/3 70/2/3
f 83/3/3 80/3/3 79/3/3
f 83/2/3 71/2/3 82/2/3
f 83/3/3 78/3/3 71/3/3
f 83/3/3 79/3/3 78/3/3
f 84/3/3 80/3/3 83/3/3
f 88/2/3 86/2/3 85/2/3
f 88/2/3 87/2/3 86/2/3
f 89/2/3 87/2/3 88/2/3
f 90/2/3 87/2/3 89/2/3
f 91/3/4 92/3/4 93/3/4
f 93/3/4 92/3/4 94/3/4
f 95/3/4 96/3/4 97/3/4
f 97/3/4 96/3/4 98/3/4
f 103/2/5 102/2/5 101/2/5
f 104/2/5 102/2/5 103/2/5
f 105/2/5 100/2/5 99/2/5
f 106/2/5 103/2/5 101/2/5
f 107/3/5 104/3/5 103/3/5
f 107/2/5 103/2/5 106/2/5
f 108/2/5 102/2/5 104/2/5
f 108/3/5 104/3/5 107/3/5
f 109/2/5 102/2/5 108/2/5
f 110/2/5 105/2/5 99/2/5
f 110/2/5 106/2/5 105/2/5
f 111/3/5 107/3/5 106/3/5
f 111/2/5 106/2/5 110/2/5
f 111/3/5 109/3/5 108/3/5
f 111/3/5 108/3/5 107/3/5
f 112/3/5 111/3/5 110/3/5
f 113/3/5 109/3/5 111/3/5
f 113/3/5 111/3/5 112/3/5
f 116/2/5 115/2/5 114/2/5
f 117/2/5 115/2/5 116/2/5
f 118/3/6 119/3/6 122/3/6
f 120/3/6 121/3/6 123/3/6
f 118/3/6 122/3/6 124/3/6
f 122/3/6 123/3/6 124/3/6
f 123/3/6 121/3/6 125/3/6
f 124/3/6 123/3/6 125/3/6
f 126/3/6 127/3/6 128/3/6
f 128/3/6 127/3/6 129/3/6
