# MagicaVoxel @ Ephtracy

# group
g Enemy3_1

# material
mtllib Enemy3_1.mtl
usemtl palette

# normals
vn -1 0 0
vn 1 0 0
vn 0 0 1
vn 0 0 -1
vn 0 -1 0
vn 0 1 0

# texcoords
vt 0.00195313 0.5
vt 0.611328 0.5
vt 0.658203 0.5
vt 0.685547 0.5
vt 0.990234 0.5
vt 0.994141 0.5

# verts
v -20 0 20
v -20 0 -20
v -20 30 20
v -20 30 10
v -20 40 20
v -20 40 10
v -20 40 -20
v 20 0 20
v 20 0 -20
v 20 30 20
v 20 30 10
v 20 40 20
v 20 40 10
v 20 40 -20
v -20 0 20
v -20 30 20
v -20 40 20
v -15 5 20
v -15 20 20
v -15 30 20
v -12 23 20
v -12 27 20
v -10 30 20
v -10 35 20
v -10 40 20
v -8 23 20
v -8 27 20
v -6 12 20
v -6 17 20
v -5 20 20
v -5 30 20
v -4 12 20
v -4 13 20
v -4 16 20
v 4 12 20
v 4 13 20
v 4 16 20
v 5 20 20
v 5 30 20
v 6 12 20
v 6 17 20
v 8 23 20
v 8 27 20
v 10 30 20
v 10 35 20
v 10 40 20
v 12 23 20
v 12 27 20
v 15 5 20
v 15 20 20
v 15 30 20
v 20 0 20
v 20 30 20
v 20 40 20
v -20 0 -20
v -20 40 -20
v 20 0 -20
v 20 40 -20
v -20 0 20
v 20 0 20
v -20 0 -20
v 20 0 -20
v -20 40 20
v -10 40 20
v 10 40 20
v 20 40 20
v -20 40 10
v -10 40 10
v 10 40 10
v 20 40 10
v -20 40 -20
v 20 40 -20

# faces
f 3/2/1 2/2/1 1/2/1
f 4/2/1 2/2/1 3/2/1
f 5/4/1 4/4/1 3/4/1
f 6/2/1 2/2/1 4/2/1
f 6/4/1 4/4/1 5/4/1
f 7/2/1 2/2/1 6/2/1
f 8/2/2 9/2/2 10/2/2
f 10/2/2 9/2/2 11/2/2
f 10/4/2 11/4/2 12/4/2
f 11/2/2 9/2/2 13/2/2
f 12/4/2 11/4/2 13/4/2
f 13/2/2 9/2/2 14/2/2
f 18/2/3 16/2/3 15/2/3
f 19/2/3 16/2/3 18/2/3
f 20/4/3 17/4/3 16/4/3
f 20/2/3 16/2/3 19/2/3
f 21/1/3 20/1/3 19/1/3
f 22/1/3 20/1/3 21/1/3
f 23/4/3 17/4/3 20/4/3
f 23/1/3 20/1/3 22/1/3
f 24/4/3 17/4/3 23/4/3
f 25/4/3 17/4/3 24/4/3
f 26/6/3 22/6/3 21/6/3
f 26/1/3 21/1/3 19/1/3
f 27/1/3 23/1/3 22/1/3
f 27/6/3 22/6/3 26/6/3
f 28/5/3 19/5/3 18/5/3
f 29/5/3 19/5/3 28/5/3
f 30/1/3 26/1/3 19/1/3
f 30/5/3 19/5/3 29/5/3
f 30/1/3 27/1/3 26/1/3
f 31/1/3 23/1/3 27/1/3
f 31/1/3 27/1/3 30/1/3
f 31/5/3 24/5/3 23/5/3
f 32/2/3 29/2/3 28/2/3
f 32/5/3 28/5/3 18/5/3
f 33/2/3 29/2/3 32/2/3
f 34/2/3 29/2/3 33/2/3
f 35/5/3 32/5/3 18/5/3
f 35/5/3 33/5/3 32/5/3
f 36/3/3 34/3/3 33/3/3
f 36/5/3 33/5/3 35/5/3
f 37/2/3 29/2/3 34/2/3
f 37/3/3 34/3/3 36/3/3
f 38/5/3 30/5/3 29/5/3
f 38/5/3 31/5/3 30/5/3
f 39/5/3 24/5/3 31/5/3
f 39/5/3 31/5/3 38/5/3
f 40/2/3 37/2/3 36/2/3
f 40/2/3 36/2/3 35/2/3
f 40/5/3 35/5/3 18/5/3
f 41/2/3 29/2/3 37/2/3
f 41/2/3 37/2/3 40/2/3
f 41/5/3 38/5/3 29/5/3
f 42/1/3 39/1/3 38/1/3
f 43/1/3 39/1/3 42/1/3
f 44/5/3 24/5/3 39/5/3
f 44/1/3 39/1/3 43/1/3
f 45/2/3 25/2/3 24/2/3
f 45/5/3 24/5/3 44/5/3
f 46/2/3 25/2/3 45/2/3
f 47/6/3 43/6/3 42/6/3
f 47/1/3 42/1/3 38/1/3
f 48/1/3 44/1/3 43/1/3
f 48/6/3 43/6/3 47/6/3
f 49/5/3 40/5/3 18/5/3
f 49/2/3 18/2/3 15/2/3
f 49/5/3 41/5/3 40/5/3
f 50/1/3 48/1/3 47/1/3
f 50/5/3 41/5/3 49/5/3
f 50/1/3 47/1/3 38/1/3
f 50/5/3 38/5/3 41/5/3
f 51/1/3 44/1/3 48/1/3
f 51/1/3 48/1/3 50/1/3
f 51/4/3 46/4/3 45/4/3
f 51/4/3 45/4/3 44/4/3
f 52/2/3 50/2/3 49/2/3
f 52/2/3 49/2/3 15/2/3
f 52/2/3 51/2/3 50/2/3
f 53/4/3 46/4/3 51/4/3
f 53/2/3 51/2/3 52/2/3
f 54/4/3 46/4/3 53/4/3
f 55/2/4 56/2/4 57/2/4
f 57/2/4 56/2/4 58/2/4
f 61/2/5 60/2/5 59/2/5
f 62/2/5 60/2/5 61/2/5
f 63/4/6 64/4/6 67/4/6
f 64/2/6 65/2/6 68/2/6
f 67/4/6 64/4/6 68/4/6
f 65/4/6 66/4/6 69/4/6
f 68/2/6 65/2/6 69/2/6
f 69/4/6 66/4/6 70/4/6
f 67/2/6 68/2/6 71/2/6
f 68/2/6 69/2/6 71/2/6
f 69/2/6 70/2/6 71/2/6
f 71/2/6 70/2/6 72/2/6
