# MagicaVoxel @ Ephtracy

# group
g Enemy4_1

# material
mtllib Enemy4_1.mtl
usemtl palette

# normals
vn -1 0 0
vn 1 0 0
vn 0 0 1
vn 0 0 -1
vn 0 -1 0
vn 0 1 0

# texcoords
vt 0.00195313 0.5
vt 0.0410156 0.5
vt 0.841797 0.5
vt 0.869141 0.5
vt 0.990234 0.5
vt 0.994141 0.5

# verts
v -20 0 20
v -20 0 -20
v -20 30 20
v -20 30 10
v -20 40 20
v -20 40 10
v -20 40 -20
v 20 0 20
v 20 0 -20
v 20 30 20
v 20 30 10
v 20 40 20
v 20 40 10
v 20 40 -20
v -20 0 20
v -20 30 20
v -20 40 20
v -15 5 20
v -15 20 20
v -15 30 20
v -12 23 20
v -12 27 20
v -10 30 20
v -10 35 20
v -10 40 20
v -8 23 20
v -8 27 20
v -6 12 20
v -6 17 20
v -5 20 20
v -5 30 20
v -4 12 20
v -4 13 20
v -4 16 20
v 4 12 20
v 4 13 20
v 4 16 20
v 5 20 20
v 5 30 20
v 6 12 20
v 6 17 20
v 8 23 20
v 8 27 20
v 10 30 20
v 10 35 20
v 10 40 20
v 12 23 20
v 12 27 20
v 15 5 20
v 15 20 20
v 15 30 20
v 20 0 20
v 20 30 20
v 20 40 20
v -20 0 -20
v -20 40 -20
v 20 0 -20
v 20 40 -20
v -20 0 20
v 20 0 20
v -20 0 -20
v 20 0 -20
v -20 40 20
v -10 40 20
v 10 40 20
v 20 40 20
v -20 40 10
v -10 40 10
v 10 40 10
v 20 40 10
v -20 40 -20
v 20 40 -20

# faces
f 3/3/1 2/3/1 1/3/1
f 4/3/1 2/3/1 3/3/1
f 5/2/1 4/2/1 3/2/1
f 6/3/1 2/3/1 4/3/1
f 6/2/1 4/2/1 5/2/1
f 7/3/1 2/3/1 6/3/1
f 8/3/2 9/3/2 10/3/2
f 10/3/2 9/3/2 11/3/2
f 10/2/2 11/2/2 12/2/2
f 11/3/2 9/3/2 13/3/2
f 12/2/2 11/2/2 13/2/2
f 13/3/2 9/3/2 14/3/2
f 18/3/3 16/3/3 15/3/3
f 19/3/3 16/3/3 18/3/3
f 20/2/3 17/2/3 16/2/3
f 20/3/3 16/3/3 19/3/3
f 21/1/3 20/1/3 19/1/3
f 22/1/3 20/1/3 21/1/3
f 23/2/3 17/2/3 20/2/3
f 23/1/3 20/1/3 22/1/3
f 24/2/3 17/2/3 23/2/3
f 25/2/3 17/2/3 24/2/3
f 26/6/3 22/6/3 21/6/3
f 26/1/3 21/1/3 19/1/3
f 27/1/3 23/1/3 22/1/3
f 27/6/3 22/6/3 26/6/3
f 28/5/3 19/5/3 18/5/3
f 29/5/3 19/5/3 28/5/3
f 30/1/3 26/1/3 19/1/3
f 30/5/3 19/5/3 29/5/3
f 30/1/3 27/1/3 26/1/3
f 31/1/3 23/1/3 27/1/3
f 31/1/3 27/1/3 30/1/3
f 31/5/3 24/5/3 23/5/3
f 32/3/3 29/3/3 28/3/3
f 32/5/3 28/5/3 18/5/3
f 33/3/3 29/3/3 32/3/3
f 34/3/3 29/3/3 33/3/3
f 35/5/3 32/5/3 18/5/3
f 35/5/3 33/5/3 32/5/3
f 36/4/3 34/4/3 33/4/3
f 36/5/3 33/5/3 35/5/3
f 37/3/3 29/3/3 34/3/3
f 37/4/3 34/4/3 36/4/3
f 38/5/3 30/5/3 29/5/3
f 38/5/3 31/5/3 30/5/3
f 39/5/3 24/5/3 31/5/3
f 39/5/3 31/5/3 38/5/3
f 40/3/3 37/3/3 36/3/3
f 40/3/3 36/3/3 35/3/3
f 40/5/3 35/5/3 18/5/3
f 41/3/3 29/3/3 37/3/3
f 41/3/3 37/3/3 40/3/3
f 41/5/3 38/5/3 29/5/3
f 42/1/3 39/1/3 38/1/3
f 43/1/3 39/1/3 42/1/3
f 44/5/3 24/5/3 39/5/3
f 44/1/3 39/1/3 43/1/3
f 45/3/3 25/3/3 24/3/3
f 45/5/3 24/5/3 44/5/3
f 46/3/3 25/3/3 45/3/3
f 47/6/3 43/6/3 42/6/3
f 47/1/3 42/1/3 38/1/3
f 48/1/3 44/1/3 43/1/3
f 48/6/3 43/6/3 47/6/3
f 49/5/3 40/5/3 18/5/3
f 49/3/3 18/3/3 15/3/3
f 49/5/3 41/5/3 40/5/3
f 50/1/3 48/1/3 47/1/3
f 50/5/3 41/5/3 49/5/3
f 50/1/3 47/1/3 38/1/3
f 50/5/3 38/5/3 41/5/3
f 51/1/3 44/1/3 48/1/3
f 51/1/3 48/1/3 50/1/3
f 51/2/3 46/2/3 45/2/3
f 51/2/3 45/2/3 44/2/3
f 52/3/3 50/3/3 49/3/3
f 52/3/3 49/3/3 15/3/3
f 52/3/3 51/3/3 50/3/3
f 53/2/3 46/2/3 51/2/3
f 53/3/3 51/3/3 52/3/3
f 54/2/3 46/2/3 53/2/3
f 55/3/4 56/3/4 57/3/4
f 57/3/4 56/3/4 58/3/4
f 61/3/5 60/3/5 59/3/5
f 62/3/5 60/3/5 61/3/5
f 63/2/6 64/2/6 67/2/6
f 64/3/6 65/3/6 68/3/6
f 67/2/6 64/2/6 68/2/6
f 65/2/6 66/2/6 69/2/6
f 68/3/6 65/3/6 69/3/6
f 69/2/6 66/2/6 70/2/6
f 67/3/6 68/3/6 71/3/6
f 68/3/6 69/3/6 71/3/6
f 69/3/6 70/3/6 71/3/6
f 71/3/6 70/3/6 72/3/6
