# MagicaVoxel @ Ephtracy

# group
g Enemy2_2

# material
mtllib Enemy2_2.mtl
usemtl palette

# normals
vn -1 0 0
vn 1 0 0
vn 0 0 1
vn 0 0 -1
vn 0 -1 0
vn 0 1 0

# texcoords
vt 0.00195313 0.5
vt 0.0332031 0.5
vt 0.396484 0.5
vt 0.994141 0.5

# verts
v -20 5 15
v -20 5 -20
v -20 25 15
v -20 25 -20
v -17 0 15
v -17 0 -20
v -17 5 15
v -17 5 14
v -17 5 -19
v -17 5 -20
v -17 25 15
v -17 25 -20
v -17 40 15
v -17 40 -20
v -10 22 20
v -10 22 15
v -10 27 20
v -10 27 15
v 10 22 20
v 10 22 15
v 10 27 20
v 10 27 15
v 17 0 15
v 17 0 -20
v 17 5 15
v 17 5 14
v 17 5 -19
v 17 5 -20
v 17 25 15
v 17 25 -20
v 17 40 15
v 17 40 -20
v 20 5 15
v 20 5 -20
v 20 25 15
v 20 25 -20
v -10 22 20
v -10 27 20
v 10 22 20
v 10 27 20
v -20 5 15
v -20 25 15
v -17 0 15
v -17 5 15
v -17 25 15
v -17 40 15
v -14 27 15
v -14 37 15
v -11 30 15
v -11 34 15
v -10 0 15
v -10 20 15
v -10 22 15
v -10 27 15
v -7 30 15
v -7 34 15
v -4 27 15
v -4 37 15
v 4 27 15
v 4 37 15
v 7 30 15
v 7 34 15
v 10 0 15
v 10 20 15
v 10 22 15
v 10 27 15
v 11 30 15
v 11 34 15
v 14 27 15
v 14 37 15
v 17 0 15
v 17 5 15
v 17 25 15
v 17 40 15
v 20 5 15
v 20 25 15
v -20 5 -20
v -20 25 -20
v -17 0 -20
v -17 5 -20
v -17 25 -20
v -17 40 -20
v -10 0 -20
v -10 20 -20
v 10 0 -20
v 10 20 -20
v 17 0 -20
v 17 5 -20
v 17 25 -20
v 17 40 -20
v 20 5 -20
v 20 25 -20
v -17 0 15
v -10 0 15
v 10 0 15
v 17 0 15
v -17 0 -20
v -10 0 -20
v 10 0 -20
v 17 0 -20
v -20 5 15
v -17 5 15
v 17 5 15
v 20 5 15
v -19 5 14
v -17 5 14
v 17 5 14
v 19 5 14
v -19 5 -19
v -17 5 -19
v 17 5 -19
v 19 5 -19
v -20 5 -20
v -17 5 -20
v 17 5 -20
v 20 5 -20
v -10 22 20
v 10 22 20
v -10 22 15
v 10 22 15
v -20 25 15
v -17 25 15
v 17 25 15
v 20 25 15
v -20 25 -20
v -17 25 -20
v 17 25 -20
v 20 25 -20
v -10 27 20
v 10 27 20
v -10 27 15
v -4 27 15
v 4 27 15
v 10 27 15
v -17 40 15
v 17 40 15
v -17 40 -20
v 17 40 -20

# faces
f 3/2/1 2/2/1 1/2/1
f 4/2/1 2/2/1 3/2/1
f 7/2/1 6/2/1 5/2/1
f 8/2/1 6/2/1 7/2/1
f 9/2/1 6/2/1 8/2/1
f 10/2/1 6/2/1 9/2/1
f 13/2/1 12/2/1 11/2/1
f 14/2/1 12/2/1 13/2/1
f 17/3/1 16/3/1 15/3/1
f 18/3/1 16/3/1 17/3/1
f 19/3/2 20/3/2 21/3/2
f 21/3/2 20/3/2 22/3/2
f 23/2/2 24/2/2 25/2/2
f 25/2/2 24/2/2 26/2/2
f 26/2/2 24/2/2 27/2/2
f 27/2/2 24/2/2 28/2/2
f 29/2/2 30/2/2 31/2/2
f 31/2/2 30/2/2 32/2/2
f 33/2/2 34/2/2 35/2/2
f 35/2/2 34/2/2 36/2/2
f 39/3/3 38/3/3 37/3/3
f 40/3/3 38/3/3 39/3/3
f 44/2/3 42/2/3 41/2/3
f 45/2/3 42/2/3 44/2/3
f 47/2/3 44/2/3 43/2/3
f 47/2/3 46/2/3 45/2/3
f 47/2/3 45/2/3 44/2/3
f 48/2/3 46/2/3 47/2/3
f 49/1/3 48/1/3 47/1/3
f 50/1/3 48/1/3 49/1/3
f 51/2/3 47/2/3 43/2/3
f 52/2/3 47/2/3 51/2/3
f 53/2/3 47/2/3 52/2/3
f 54/1/3 49/1/3 47/1/3
f 54/2/3 47/2/3 53/2/3
f 55/4/3 50/4/3 49/4/3
f 55/1/3 49/1/3 54/1/3
f 56/1/3 48/1/3 50/1/3
f 56/4/3 50/4/3 55/4/3
f 57/1/3 55/1/3 54/1/3
f 57/1/3 56/1/3 55/1/3
f 58/1/3 48/1/3 56/1/3
f 58/1/3 56/1/3 57/1/3
f 58/2/3 46/2/3 48/2/3
f 59/2/3 58/2/3 57/2/3
f 60/2/3 46/2/3 58/2/3
f 60/2/3 58/2/3 59/2/3
f 61/1/3 60/1/3 59/1/3
f 62/1/3 60/1/3 61/1/3
f 63/4/3 52/4/3 51/4/3
f 64/2/3 53/2/3 52/2/3
f 64/4/3 52/4/3 63/4/3
f 65/2/3 53/2/3 64/2/3
f 66/1/3 61/1/3 59/1/3
f 67/4/3 62/4/3 61/4/3
f 67/1/3 61/1/3 66/1/3
f 68/1/3 60/1/3 62/1/3
f 68/4/3 62/4/3 67/4/3
f 69/1/3 67/1/3 66/1/3
f 69/2/3 65/2/3 64/2/3
f 69/1/3 68/1/3 67/1/3
f 69/2/3 66/2/3 65/2/3
f 69/2/3 64/2/3 63/2/3
f 70/1/3 60/1/3 68/1/3
f 70/1/3 68/1/3 69/1/3
f 70/2/3 46/2/3 60/2/3
f 71/2/3 69/2/3 63/2/3
f 71/2/3 70/2/3 69/2/3
f 72/2/3 70/2/3 71/2/3
f 73/2/3 70/2/3 72/2/3
f 74/2/3 46/2/3 70/2/3
f 74/2/3 70/2/3 73/2/3
f 75/2/3 73/2/3 72/2/3
f 76/2/3 73/2/3 75/2/3
f 77/2/4 78/2/4 80/2/4
f 80/2/4 78/2/4 81/2/4
f 79/2/4 80/2/4 83/2/4
f 81/2/4 82/2/4 83/2/4
f 80/2/4 81/2/4 83/2/4
f 83/2/4 82/2/4 84/2/4
f 83/4/4 84/4/4 85/4/4
f 84/2/4 82/2/4 86/2/4
f 85/4/4 84/4/4 86/4/4
f 85/2/4 86/2/4 87/2/4
f 87/2/4 86/2/4 88/2/4
f 86/2/4 82/2/4 89/2/4
f 88/2/4 86/2/4 89/2/4
f 89/2/4 82/2/4 90/2/4
f 88/2/4 89/2/4 91/2/4
f 91/2/4 89/2/4 92/2/4
f 97/2/5 94/2/5 93/2/5
f 98/4/5 95/4/5 94/4/5
f 98/2/5 94/2/5 97/2/5
f 99/2/5 96/2/5 95/2/5
f 99/4/5 95/4/5 98/4/5
f 100/2/5 96/2/5 99/2/5
f 105/2/5 102/2/5 101/2/5
f 106/2/5 102/2/5 105/2/5
f 107/2/5 104/2/5 103/2/5
f 108/2/5 104/2/5 107/2/5
f 109/1/5 106/1/5 105/1/5
f 109/2/5 105/2/5 101/2/5
f 110/1/5 106/1/5 109/1/5
f 111/1/5 108/1/5 107/1/5
f 112/2/5 104/2/5 108/2/5
f 112/1/5 108/1/5 111/1/5
f 113/2/5 110/2/5 109/2/5
f 113/2/5 109/2/5 101/2/5
f 114/2/5 110/2/5 113/2/5
f 115/2/5 112/2/5 111/2/5
f 116/2/5 104/2/5 112/2/5
f 116/2/5 112/2/5 115/2/5
f 119/3/5 118/3/5 117/3/5
f 120/3/5 118/3/5 119/3/5
f 121/2/6 122/2/6 125/2/6
f 125/2/6 122/2/6 126/2/6
f 123/2/6 124/2/6 127/2/6
f 127/2/6 124/2/6 128/2/6
f 129/3/6 130/3/6 131/3/6
f 131/3/6 130/3/6 132/3/6
f 132/3/6 130/3/6 133/3/6
f 133/3/6 130/3/6 134/3/6
f 135/2/6 136/2/6 137/2/6
f 137/2/6 136/2/6 138/2/6
