# MagicaVoxel @ Ephtracy

# group
g Enemy3_3

# material
mtllib Enemy3_3.mtl
usemtl palette

# normals
vn -1 0 0
vn 1 0 0
vn 0 0 1
vn 0 0 -1
vn 0 -1 0
vn 0 1 0

# texcoords
vt 0.00195313 0.5
vt 0.587891 0.5
vt 0.685547 0.5
vt 0.775391 0.5
vt 0.994141 0.5

# verts
v -20 0 20
v -20 0 4
v -20 0 -20
v -20 5 20
v -20 5 4
v -20 32 20
v -20 32 -20
v -15 32 20
v -15 32 -5
v -15 40 20
v -15 40 -5
v 10 0 20
v 10 0 5
v 10 5 20
v 10 5 5
v 10 10 20
v 10 10 5
v -10 0 20
v -10 0 5
v -10 5 20
v -10 5 5
v -10 10 20
v -10 10 5
v 15 32 20
v 15 32 -5
v 15 40 20
v 15 40 -5
v 20 0 20
v 20 0 5
v 20 0 -20
v 20 5 20
v 20 5 5
v 20 32 20
v 20 32 -20
v -20 0 20
v -20 5 20
v -20 32 20
v -15 10 20
v -15 25 20
v -15 32 20
v -15 40 20
v -13 25 20
v -13 28 20
v -13 38 20
v -10 0 20
v -10 5 20
v -10 10 20
v -10 31 20
v -10 35 20
v -6 31 20
v -6 35 20
v -5 19 20
v -5 21 20
v -4 13 20
v -4 15 20
v -3 28 20
v -3 38 20
v -1 19 20
v -1 21 20
v 1 19 20
v 1 21 20
v 3 28 20
v 3 38 20
v 4 13 20
v 4 15 20
v 5 19 20
v 5 21 20
v 6 31 20
v 6 35 20
v 10 0 20
v 10 5 20
v 10 10 20
v 10 31 20
v 10 35 20
v 13 25 20
v 13 28 20
v 13 38 20
v 15 10 20
v 15 25 20
v 15 32 20
v 15 40 20
v 20 0 20
v 20 5 20
v 20 32 20
v -10 0 5
v -10 5 5
v -10 10 5
v 10 0 5
v 10 5 5
v 10 10 5
v -15 32 -5
v -15 40 -5
v 15 32 -5
v 15 40 -5
v -20 0 -20
v -20 32 -20
v 20 0 -20
v 20 32 -20
v -20 0 20
v -10 0 20
v 10 0 20
v 20 0 20
v 11 0 11
v 19 0 11
v -10 0 5
v 10 0 5
v 11 0 5
v 19 0 5
v 20 0 5
v -20 0 4
v 10 0 4
v -20 0 -20
v 20 0 -20
v -10 10 20
v 10 10 20
v -10 10 5
v 10 10 5
v -20 32 20
v -15 32 20
v 15 32 20
v 20 32 20
v -15 32 -5
v 15 32 -5
v -20 32 -20
v 20 32 -20
v -15 40 20
v 15 40 20
v -15 40 -5
v 15 40 -5

# faces
f 4/4/1 2/4/1 1/4/1
f 5/3/1 3/3/1 2/3/1
f 5/4/1 2/4/1 4/4/1
f 6/3/1 5/3/1 4/3/1
f 7/3/1 3/3/1 5/3/1
f 7/3/1 5/3/1 6/3/1
f 10/3/1 9/3/1 8/3/1
f 11/3/1 9/3/1 10/3/1
f 14/4/1 13/4/1 12/4/1
f 15/4/1 13/4/1 14/4/1
f 16/3/1 15/3/1 14/3/1
f 17/3/1 15/3/1 16/3/1
f 18/4/2 19/4/2 20/4/2
f 20/4/2 19/4/2 21/4/2
f 20/3/2 21/3/2 22/3/2
f 22/3/2 21/3/2 23/3/2
f 24/3/2 25/3/2 26/3/2
f 26/3/2 25/3/2 27/3/2
f 28/4/2 29/4/2 31/4/2
f 29/3/2 30/3/2 32/3/2
f 31/4/2 29/4/2 32/4/2
f 31/3/2 32/3/2 33/3/2
f 32/3/2 30/3/2 34/3/2
f 33/3/2 32/3/2 34/3/2
f 38/3/3 37/3/3 36/3/3
f 39/3/3 37/3/3 38/3/3
f 40/3/3 37/3/3 39/3/3
f 42/4/3 39/4/3 38/4/3
f 42/3/3 41/3/3 40/3/3
f 42/3/3 40/3/3 39/3/3
f 43/3/3 41/3/3 42/3/3
f 44/3/3 41/3/3 43/3/3
f 45/4/3 36/4/3 35/4/3
f 46/3/3 38/3/3 36/3/3
f 46/4/3 36/4/3 45/4/3
f 47/4/3 42/4/3 38/4/3
f 47/3/3 38/3/3 46/3/3
f 47/4/3 43/4/3 42/4/3
f 48/1/3 44/1/3 43/1/3
f 49/1/3 44/1/3 48/1/3
f 50/5/3 49/5/3 48/5/3
f 50/1/3 48/1/3 43/1/3
f 51/1/3 44/1/3 49/1/3
f 51/5/3 49/5/3 50/5/3
f 52/4/3 43/4/3 47/4/3
f 53/4/3 43/4/3 52/4/3
f 54/4/3 52/4/3 47/4/3
f 55/4/3 52/4/3 54/4/3
f 56/1/3 50/1/3 43/1/3
f 56/1/3 51/1/3 50/1/3
f 56/4/3 43/4/3 53/4/3
f 57/3/3 41/3/3 44/3/3
f 57/1/3 51/1/3 56/1/3
f 57/1/3 44/1/3 51/1/3
f 58/4/3 52/4/3 55/4/3
f 58/2/3 53/2/3 52/2/3
f 59/4/3 56/4/3 53/4/3
f 59/2/3 53/2/3 58/2/3
f 59/4/3 57/4/3 56/4/3
f 60/4/3 58/4/3 55/4/3
f 60/4/3 59/4/3 58/4/3
f 61/4/3 57/4/3 59/4/3
f 61/4/3 59/4/3 60/4/3
f 62/4/3 57/4/3 61/4/3
f 63/3/3 41/3/3 57/3/3
f 63/4/3 57/4/3 62/4/3
f 64/4/3 54/4/3 47/4/3
f 64/2/3 55/2/3 54/2/3
f 65/4/3 60/4/3 55/4/3
f 65/2/3 55/2/3 64/2/3
f 66/2/3 61/2/3 60/2/3
f 66/4/3 60/4/3 65/4/3
f 66/4/3 65/4/3 64/4/3
f 67/4/3 62/4/3 61/4/3
f 67/2/3 61/2/3 66/2/3
f 68/1/3 63/1/3 62/1/3
f 69/1/3 63/1/3 68/1/3
f 72/4/3 64/4/3 47/4/3
f 72/4/3 66/4/3 64/4/3
f 72/4/3 67/4/3 66/4/3
f 73/5/3 69/5/3 68/5/3
f 73/1/3 68/1/3 62/1/3
f 74/1/3 63/1/3 69/1/3
f 74/5/3 69/5/3 73/5/3
f 75/4/3 62/4/3 67/4/3
f 75/4/3 67/4/3 72/4/3
f 76/1/3 73/1/3 62/1/3
f 76/4/3 62/4/3 75/4/3
f 76/1/3 74/1/3 73/1/3
f 77/3/3 41/3/3 63/3/3
f 77/1/3 74/1/3 76/1/3
f 77/1/3 63/1/3 74/1/3
f 78/4/3 75/4/3 72/4/3
f 78/3/3 72/3/3 71/3/3
f 79/3/3 76/3/3 75/3/3
f 79/4/3 75/4/3 78/4/3
f 79/3/3 77/3/3 76/3/3
f 80/3/3 77/3/3 79/3/3
f 81/3/3 41/3/3 77/3/3
f 81/3/3 77/3/3 80/3/3
f 82/4/3 71/4/3 70/4/3
f 83/3/3 80/3/3 79/3/3
f 83/4/3 71/4/3 82/4/3
f 83/3/3 78/3/3 71/3/3
f 83/3/3 79/3/3 78/3/3
f 84/3/3 80/3/3 83/3/3
f 88/4/3 86/4/3 85/4/3
f 88/4/3 87/4/3 86/4/3
f 89/4/3 87/4/3 88/4/3
f 90/4/3 87/4/3 89/4/3
f 91/3/4 92/3/4 93/3/4
f 93/3/4 92/3/4 94/3/4
f 95/3/4 96/3/4 97/3/4
f 97/3/4 96/3/4 98/3/4
f 103/4/5 102/4/5 101/4/5
f 104/4/5 102/4/5 103/4/5
f 105/4/5 100/4/5 99/4/5
f 106/4/5 103/4/5 101/4/5
f 107/3/5 104/3/5 103/3/5
f 107/4/5 103/4/5 106/4/5
f 108/4/5 102/4/5 104/4/5
f 108/3/5 104/3/5 107/3/5
f 109/4/5 102/4/5 108/4/5
f 110/4/5 105/4/5 99/4/5
f 110/4/5 106/4/5 105/4/5
f 111/3/5 107/3/5 106/3/5
f 111/4/5 106/4/5 110/4/5
f 111/3/5 109/3/5 108/3/5
f 111/3/5 108/3/5 107/3/5
f 112/3/5 111/3/5 110/3/5
f 113/3/5 109/3/5 111/3/5
f 113/3/5 111/3/5 112/3/5
f 116/4/5 115/4/5 114/4/5
f 117/4/5 115/4/5 116/4/5
f 118/3/6 119/3/6 122/3/6
f 120/3/6 121/3/6 123/3/6
f 118/3/6 122/3/6 124/3/6
f 122/3/6 123/3/6 124/3/6
f 123/3/6 121/3/6 125/3/6
f 124/3/6 123/3/6 125/3/6
f 126/3/6 127/3/6 128/3/6
f 128/3/6 127/3/6 129/3/6
