# MagicaVoxel @ Ephtracy

# group
g Lion

# material
mtllib Lion.mtl
usemtl palette

# normals
vn -1 0 0
vn 1 0 0
vn 0 0 1
vn 0 0 -1
vn 0 -1 0
vn 0 1 0

# texcoords
vt 0.205078 0.5
vt 0.537109 0.5
vt 0.701172 0.5
vt 0.865234 0.5
vt 0.958984 0.5
vt 0.994141 0.5

# verts
v -20 0 20
v -20 0 10
v -20 0 -20
v -20 40 20
v -20 40 10
v -20 40 -20
v 20 0 20
v 20 0 10
v 20 0 -20
v 20 40 20
v 20 40 10
v 20 40 -20
v -20 0 20
v -20 40 20
v -15 5 20
v -15 19 20
v -15 29 20
v -15 35 20
v -12 22 20
v -12 26 20
v -10 8 20
v -10 10 20
v -10 12 20
v -8 8 20
v -8 10 20
v -8 22 20
v -8 26 20
v -5 19 20
v -5 29 20
v -3 15 20
v -3 17 20
v -3 19 20
v -1 12 20
v -1 15 20
v 1 12 20
v 1 15 20
v 3 15 20
v 3 17 20
v 3 19 20
v 5 19 20
v 5 29 20
v 8 8 20
v 8 10 20
v 8 22 20
v 8 26 20
v 10 8 20
v 10 10 20
v 10 12 20
v 12 22 20
v 12 26 20
v 15 5 20
v 15 19 20
v 15 29 20
v 15 35 20
v 20 0 20
v 20 40 20
v -20 0 -20
v -20 40 -20
v 20 0 -20
v 20 40 -20
v -20 0 20
v 20 0 20
v -20 0 10
v 20 0 10
v -20 0 -20
v 20 0 -20
v -20 40 20
v 20 40 20
v -20 40 10
v 20 40 10
v -20 40 -20
v 20 40 -20

# faces
f 4/2/1 2/2/1 1/2/1
f 5/1/1 3/1/1 2/1/1
f 5/2/1 2/2/1 4/2/1
f 6/1/1 3/1/1 5/1/1
f 7/2/2 8/2/2 10/2/2
f 8/1/2 9/1/2 11/1/2
f 10/2/2 8/2/2 11/2/2
f 11/1/2 9/1/2 12/1/2
f 15/2/3 14/2/3 13/2/3
f 16/2/3 14/2/3 15/2/3
f 17/2/3 14/2/3 16/2/3
f 18/2/3 14/2/3 17/2/3
f 19/6/3 17/6/3 16/6/3
f 20/6/3 17/6/3 19/6/3
f 21/1/3 16/1/3 15/1/3
f 22/1/3 16/1/3 21/1/3
f 23/1/3 16/1/3 22/1/3
f 24/1/3 21/1/3 15/1/3
f 24/5/3 22/5/3 21/5/3
f 25/3/3 23/3/3 22/3/3
f 25/5/3 22/5/3 24/5/3
f 26/6/3 19/6/3 16/6/3
f 26/5/3 20/5/3 19/5/3
f 27/6/3 17/6/3 20/6/3
f 27/5/3 20/5/3 26/5/3
f 28/6/3 26/6/3 16/6/3
f 28/1/3 16/1/3 23/1/3
f 28/6/3 27/6/3 26/6/3
f 29/6/3 17/6/3 27/6/3
f 29/6/3 27/6/3 28/6/3
f 29/1/3 18/1/3 17/1/3
f 30/1/3 28/1/3 23/1/3
f 30/1/3 29/1/3 28/1/3
f 31/1/3 29/1/3 30/1/3
f 32/1/3 29/1/3 31/1/3
f 33/3/3 23/3/3 25/3/3
f 33/1/3 30/1/3 23/1/3
f 34/4/3 31/4/3 30/4/3
f 34/1/3 30/1/3 33/1/3
f 35/3/3 33/3/3 25/3/3
f 35/3/3 34/3/3 33/3/3
f 36/4/3 31/4/3 34/4/3
f 36/3/3 34/3/3 35/3/3
f 37/1/3 36/1/3 35/1/3
f 37/4/3 31/4/3 36/4/3
f 38/3/3 32/3/3 31/3/3
f 38/4/3 31/4/3 37/4/3
f 39/1/3 29/1/3 32/1/3
f 39/3/3 32/3/3 38/3/3
f 40/1/3 38/1/3 37/1/3
f 40/1/3 29/1/3 39/1/3
f 40/1/3 39/1/3 38/1/3
f 41/1/3 18/1/3 29/1/3
f 41/1/3 29/1/3 40/1/3
f 42/1/3 24/1/3 15/1/3
f 42/1/3 25/1/3 24/1/3
f 43/3/3 35/3/3 25/3/3
f 43/1/3 25/1/3 42/1/3
f 44/6/3 41/6/3 40/6/3
f 45/6/3 41/6/3 44/6/3
f 46/1/3 42/1/3 15/1/3
f 46/5/3 43/5/3 42/5/3
f 47/3/3 35/3/3 43/3/3
f 47/5/3 43/5/3 46/5/3
f 48/1/3 40/1/3 37/1/3
f 48/3/3 35/3/3 47/3/3
f 48/1/3 37/1/3 35/1/3
f 49/6/3 44/6/3 40/6/3
f 49/5/3 45/5/3 44/5/3
f 50/6/3 41/6/3 45/6/3
f 50/5/3 45/5/3 49/5/3
f 51/2/3 15/2/3 13/2/3
f 51/1/3 47/1/3 46/1/3
f 51/1/3 46/1/3 15/1/3
f 51/1/3 48/1/3 47/1/3
f 52/6/3 50/6/3 49/6/3
f 52/1/3 48/1/3 51/1/3
f 52/6/3 49/6/3 40/6/3
f 52/1/3 40/1/3 48/1/3
f 53/6/3 41/6/3 50/6/3
f 53/6/3 50/6/3 52/6/3
f 53/1/3 18/1/3 41/1/3
f 54/2/3 14/2/3 18/2/3
f 54/1/3 18/1/3 53/1/3
f 55/2/3 52/2/3 51/2/3
f 55/2/3 51/2/3 13/2/3
f 55/2/3 54/2/3 53/2/3
f 55/2/3 53/2/3 52/2/3
f 56/2/3 14/2/3 54/2/3
f 56/2/3 54/2/3 55/2/3
f 57/1/4 58/1/4 59/1/4
f 59/1/4 58/1/4 60/1/4
f 63/2/5 62/2/5 61/2/5
f 64/2/5 62/2/5 63/2/5
f 65/1/5 64/1/5 63/1/5
f 66/1/5 64/1/5 65/1/5
f 67/2/6 68/2/6 69/2/6
f 69/2/6 68/2/6 70/2/6
f 69/1/6 70/1/6 71/1/6
f 71/1/6 70/1/6 72/1/6
